<?xml version="1.0" encoding="UTF-8" standalone="no"?>
<svg xmlns:xlink="http://www.w3.org/1999/xlink" height="20.3px" width="40.0px" xmlns="http://www.w3.org/2000/svg">
  <g transform="matrix(1.0, 0.0, 0.0, 1.0, 18.55, 10.25)">
    <path d="M10.45 -7.4 L10.5 -7.45 10.7 -7.85 10.75 -7.9 11.05 -8.6 11.1 -8.7 11.05 -8.7 9.95 -9.65 9.9 -9.75 4.4 -9.75 4.3 -9.75 4.15 -9.75 -0.05 -9.75 -0.15 -9.75 -0.3 -9.75 -8.8 -9.75 -8.9 -9.75 -9.05 -9.75 -13.0 -9.75 -13.1 -9.75 -13.25 -9.75 -14.45 -9.75 -15.3 -9.75 -16.25 -9.75 -16.95 -9.75 -16.95 -9.45 -17.0 -9.25 -17.2 -9.2 -18.05 -9.2 -18.05 -2.1 -17.2 -2.15 -17.05 -2.1 -16.95 -2.15 4.75 -2.15 4.95 -2.05 5.0 -1.9 4.95 -1.7 4.75 -1.65 -16.95 -1.65 -17.05 -1.65 -17.15 -1.65 -17.2 -1.65 -18.05 -1.6 -18.05 1.15 -17.2 1.15 -17.0 1.25 -16.95 1.4 4.75 1.4 4.95 1.5 5.0 1.65 4.95 1.85 4.75 1.9 -17.1 1.9 -17.2 1.9 -17.25 1.85 -17.35 1.65 -18.05 1.65 -18.05 8.75 -17.2 8.75 -17.0 8.85 -16.95 9.0 -16.95 9.55 9.8 9.55 11.45 8.2 11.2 7.8 11.15 7.7 11.05 7.6 10.75 7.25 10.7 7.1 10.75 6.95 10.75 6.9 10.8 6.75 11.25 6.0 11.35 5.9 11.4 5.85 Q13.65 0.1 11.05 -6.4 L10.9 -6.55 10.75 -6.75 10.7 -6.8 10.45 -7.1 10.4 -7.25 10.4 -7.35 10.45 -7.4 M15.6 -6.35 L15.75 -6.45 15.95 -6.35 16.85 -5.3 17.65 -4.1 18.0 -3.4 18.15 -3.35 Q19.45 -2.85 20.8 -1.5 21.55 -0.75 21.4 0.15 21.2 0.95 20.15 1.85 L18.6 2.95 18.1 3.05 18.05 3.05 18.05 3.1 17.65 3.8 17.55 3.9 17.5 4.05 17.2 4.6 17.15 4.6 15.95 6.1 15.8 6.15 15.7 6.3 14.95 6.9 15.0 7.0 Q15.05 7.45 17.65 8.05 L17.8 8.15 17.85 8.35 17.8 8.5 17.6 8.55 11.8 8.55 10.05 10.0 9.9 10.05 -17.2 10.05 -17.35 10.0 -17.45 9.8 -17.45 9.25 -18.3 9.25 -18.45 9.2 -18.55 9.0 -18.55 -9.45 -18.45 -9.6 -18.3 -9.7 -17.45 -9.7 -17.45 -9.75 -17.4 -9.85 -17.45 -10.0 -17.35 -10.15 -17.2 -10.25 -16.25 -10.25 -15.3 -10.25 -14.45 -10.25 -13.25 -10.25 -13.1 -10.2 -13.0 -10.25 -9.05 -10.25 -8.9 -10.2 -8.8 -10.25 -0.3 -10.25 -0.15 -10.2 -0.05 -10.25 4.15 -10.25 4.3 -10.2 4.4 -10.25 9.9 -10.25 10.1 -10.15 10.15 -10.1 10.25 -10.05 11.55 -8.9 11.6 -8.8 16.2 -8.8 16.35 -8.75 16.45 -8.8 17.3 -8.8 17.4 -8.8 17.6 -8.8 17.8 -8.7 17.85 -8.55 17.8 -8.35 17.6 -8.3 17.4 -8.3 15.05 -7.7 14.6 -7.45 14.6 -7.35 14.55 -7.25 14.55 -7.2 14.5 -7.2 14.3 -7.15 14.25 -7.15 14.15 -6.95 13.8 -6.4 13.75 -6.35 13.65 -6.3 12.45 -6.2 Q17.25 -0.25 12.85 5.65 L13.7 5.65 13.9 5.7 14.0 5.85 14.0 5.9 14.1 5.95 14.5 6.35 14.65 6.5 15.4 5.9 15.5 5.85 15.55 5.75 16.75 4.35 17.1 3.75 17.15 3.7 17.2 3.6 17.6 2.85 17.65 2.75 17.65 2.7 17.7 2.55 17.7 2.5 17.85 0.95 17.85 1.35 17.9 0.9 17.95 0.8 17.9 0.75 17.85 -0.65 17.8 -1.75 17.7 -2.35 17.75 -2.5 17.5 -3.0 16.45 -5.0 15.6 -6.0 15.5 -6.2 15.55 -6.35 15.6 -6.35 M5.0 -2.25 L5.05 -2.4 5.15 -2.45 8.55 -3.8 8.65 -3.85 9.75 -3.85 9.9 -3.8 10.0 -3.85 10.5 -3.85 10.65 -3.8 10.75 -3.65 10.75 -3.5 10.6 -3.35 10.55 -3.25 10.5 -3.2 10.55 -3.05 10.6 -3.0 10.75 -2.6 Q11.1 -1.55 11.1 0.0 11.1 1.5 10.75 2.55 L10.75 2.6 10.75 2.7 10.55 3.15 10.95 3.45 11.05 3.6 11.05 3.75 10.95 3.85 10.8 3.9 10.0 3.9 9.9 3.9 9.75 3.9 9.0 3.9 8.9 3.9 5.15 2.45 5.05 2.35 5.0 2.2 5.0 1.65 5.0 -1.9 5.0 -2.25 M9.35 -3.35 L8.7 -3.35 8.45 -3.25 8.3 -2.95 7.8 -1.9 7.75 -1.8 Q6.55 1.15 8.55 3.2 L9.05 3.4 9.35 3.4 9.75 3.4 9.9 3.45 10.0 3.4 10.1 3.4 10.0 3.3 10.05 3.1 10.25 2.55 10.3 2.5 10.6 0.0 10.3 -2.45 10.25 -2.5 10.15 -2.75 10.15 -2.8 Q10.0 -3.0 10.0 -3.15 L10.0 -3.35 9.9 -3.35 9.75 -3.35 9.35 -3.35 M11.55 -8.3 L11.45 -8.35 11.15 -7.7 11.15 -7.65 10.95 -7.3 11.1 -7.1 11.35 -6.75 11.35 -6.7 11.4 -6.7 11.55 -6.75 11.95 -6.7 13.5 -6.8 13.9 -7.45 14.05 -7.6 14.25 -7.85 14.85 -8.15 15.2 -8.3 11.55 -8.3 M11.35 -8.75 L11.4 -8.75 11.35 -8.75 11.3 -8.8 11.25 -8.8 11.35 -8.75 M11.75 -6.2 L11.65 -6.25 Q14.05 0.1 11.95 5.9 L11.9 5.95 11.95 5.9 12.0 5.85 12.35 5.5 Q16.8 -0.3 11.75 -6.2 M17.95 -2.85 L18.1 -2.6 18.2 -2.4 18.35 -0.7 18.35 0.95 18.35 1.05 18.35 1.3 18.35 1.4 18.3 1.55 18.3 1.4 18.15 2.55 18.15 2.6 18.4 2.5 19.85 1.45 Q20.75 0.7 20.9 0.05 21.0 -0.6 20.45 -1.15 19.15 -2.45 17.9 -2.95 L17.9 -2.9 17.95 -2.85 17.9 -2.9 17.85 -2.9 17.9 -2.8 17.8 -1.75 17.95 -2.85 M18.15 2.55 L18.1 2.4 18.05 2.45 18.15 2.55 M17.85 2.4 L17.75 2.35 17.7 2.5 17.85 2.4 M12.1 5.95 L12.1 5.9 12.0 5.9 12.1 5.95 M11.75 6.15 L11.7 6.2 11.65 6.3 11.25 7.0 11.2 7.0 11.45 7.3 11.5 7.45 11.65 7.55 11.95 8.05 15.8 8.05 Q14.6 7.6 14.5 7.1 L13.75 6.3 13.65 6.2 12.35 6.15 11.75 6.15" fill="#000000" fill-rule="evenodd" stroke="none"/>
    <path d="M-17.2 -9.2 L-17.0 -9.25 -16.95 -9.45 -16.95 -9.75 -16.25 -9.75 -15.3 -9.75 -14.45 -9.75 -13.25 -9.75 -13.1 -9.75 -13.0 -9.75 -9.05 -9.75 -8.9 -9.75 -8.8 -9.75 -0.3 -9.75 -0.15 -9.75 -0.05 -9.75 4.15 -9.75 4.3 -9.75 4.4 -9.75 9.9 -9.75 9.95 -9.65 11.05 -8.7 11.1 -8.7 11.05 -8.6 10.75 -7.9 10.7 -7.85 10.5 -7.45 10.45 -7.4 -17.2 -7.4 -17.2 -9.2 M11.35 -8.75 L11.25 -8.8 11.3 -8.8 11.35 -8.75" fill="url(#gradient0)" fill-rule="evenodd" stroke="none"/>
    <path d="M10.45 -7.4 L10.4 -7.35 10.4 -7.25 10.45 -7.1 10.7 -6.8 10.75 -6.75 10.9 -6.55 11.05 -6.4 Q13.65 0.1 11.4 5.85 L11.35 5.9 11.25 6.0 10.8 6.75 10.75 6.9 -17.2 6.9 -17.2 1.9 -17.1 1.9 4.75 1.9 4.95 1.85 5.0 1.65 4.95 1.5 4.75 1.4 4.75 -1.65 4.95 -1.7 5.0 -1.9 4.95 -2.05 4.75 -2.15 -16.95 -2.15 -17.05 -2.1 -17.2 -2.15 -17.2 -7.4 10.45 -7.4 M14.5 6.35 L14.1 5.95 14.0 5.9 14.0 5.85 13.9 5.7 13.7 5.65 12.85 5.65 Q17.25 -0.25 12.45 -6.2 L13.65 -6.3 13.75 -6.35 13.8 -6.4 14.15 -6.95 16.4 -3.35 Q16.95 -2.2 17.15 -0.8 L17.0 0.4 Q16.4 2.7 15.4 4.9 L14.5 6.35 M5.0 -2.25 L5.0 -1.9 5.0 1.65 5.0 2.2 5.05 2.35 5.15 2.45 8.9 3.9 9.0 3.9 9.75 3.9 9.9 3.9 10.0 3.9 10.8 3.9 10.95 3.85 11.05 3.75 11.05 3.6 10.95 3.45 10.55 3.15 10.75 2.7 10.75 2.6 10.75 2.55 Q11.1 1.5 11.1 0.0 11.1 -1.55 10.75 -2.6 L10.6 -3.0 10.55 -3.05 10.5 -3.2 10.55 -3.25 10.6 -3.35 10.75 -3.5 10.75 -3.65 10.65 -3.8 10.5 -3.85 10.0 -3.85 9.9 -3.8 9.75 -3.85 8.65 -3.85 8.55 -3.8 5.15 -2.45 5.05 -2.4 5.0 -2.25" fill="#ffffff" fill-rule="evenodd" stroke="none"/>
    <path d="M9.35 3.4 L9.05 3.4 8.55 3.2 Q6.55 1.15 7.75 -1.8 L7.8 -1.9 8.3 -2.95 8.45 -3.25 8.7 -3.35 9.35 -3.35 8.95 -2.55 8.9 -2.35 Q8.65 -1.35 8.65 0.0 L8.65 0.2 8.65 0.65 8.8 1.95 8.95 2.55 9.35 3.4 M17.9 -2.9 L17.95 -2.85 17.9 -2.9 17.9 -2.95 Q19.15 -2.45 20.45 -1.15 21.0 -0.6 20.9 0.05 20.75 0.7 19.85 1.45 L18.4 2.5 18.15 2.6 18.15 2.55 18.3 1.4 18.3 1.55 18.35 1.4 18.35 1.3 18.35 1.05 18.35 0.95 18.35 -0.7 18.2 -2.4 18.1 -2.6 17.95 -2.85 17.9 -2.9 M18.15 2.55 L18.05 2.45 18.1 2.4 18.15 2.55" fill="#ff0000" fill-rule="evenodd" stroke="none"/>
    <path d="M9.35 -3.35 L9.75 -3.35 9.9 -3.35 10.0 -3.35 10.0 -3.15 Q10.0 -3.0 10.15 -2.8 L10.15 -2.75 10.25 -2.5 10.3 -2.45 10.6 0.0 10.3 2.5 10.25 2.55 10.05 3.1 10.0 3.3 10.1 3.4 10.0 3.4 9.9 3.45 9.75 3.4 9.35 3.4 8.95 2.55 8.8 1.95 8.65 0.65 8.65 0.2 8.65 0.0 Q8.65 -1.35 8.9 -2.35 L8.95 -2.55 9.35 -3.35" fill="#ffff33" fill-rule="evenodd" stroke="none"/>
    <path d="M15.6 -6.35 L15.55 -6.35 14.55 -7.2 14.55 -7.25 15.6 -6.35" fill="url(#gradient1)" fill-rule="evenodd" stroke="none"/>
    <path d="M15.55 -6.35 L15.5 -6.2 15.6 -6.0 16.45 -5.0 17.5 -3.0 17.75 -2.5 17.7 -2.35 17.8 -1.75 17.85 -0.65 17.9 0.75 17.95 0.8 17.9 0.9 17.85 1.35 17.85 0.95 17.7 2.5 17.7 2.55 17.65 2.7 17.65 2.75 17.6 2.85 17.2 3.6 17.15 3.7 17.1 3.75 16.75 4.35 15.55 5.75 15.5 5.85 15.4 5.9 14.65 6.5 14.5 6.35 15.4 4.9 Q16.4 2.7 17.0 0.4 L17.15 -0.8 Q16.95 -2.2 16.4 -3.35 L14.15 -6.95 14.25 -7.15 14.3 -7.15 14.5 -7.2 14.55 -7.2 15.55 -6.35 M17.85 2.4 L17.7 2.5 17.75 2.35 17.85 2.4" fill="url(#gradient2)" fill-rule="evenodd" stroke="none"/>
    <path d="M11.55 -8.3 L15.2 -8.3 14.85 -8.15 14.25 -7.85 14.05 -7.6 13.9 -7.45 13.5 -6.8 11.95 -6.7 11.55 -6.75 11.4 -6.7 11.35 -6.7 11.35 -6.75 11.1 -7.1 10.95 -7.3 11.15 -7.65 11.15 -7.7 11.45 -8.35 11.55 -8.3 M11.75 6.15 L12.35 6.15 13.65 6.2 13.75 6.3 14.5 7.1 Q14.6 7.6 15.8 8.05 L11.95 8.05 11.65 7.55 11.5 7.45 11.45 7.3 11.2 7.0 11.25 7.0 11.65 6.3 11.7 6.2 11.75 6.15 M12.1 5.95 L12.0 5.9 12.1 5.9 12.1 5.95" fill="#ff6600" fill-rule="evenodd" stroke="none"/>
    <path d="M11.75 -6.2 Q16.8 -0.3 12.35 5.5 L12.0 5.85 11.95 5.9 11.9 5.95 11.95 5.9 Q14.05 0.1 11.65 -6.25 L11.75 -6.2" fill="url(#gradient3)" fill-rule="evenodd" stroke="none"/>
    <path d="M17.9 -2.9 L17.95 -2.85 17.8 -1.75 17.9 -2.8 17.85 -2.9 17.9 -2.9" fill="url(#gradient4)" fill-rule="evenodd" stroke="none"/>
    <path d="M10.75 6.9 L10.75 6.95 10.7 7.1 10.75 7.25 11.05 7.6 11.15 7.7 11.2 7.8 11.45 8.2 9.8 9.55 -16.95 9.55 -16.95 9.0 -17.0 8.85 -17.2 8.75 -17.2 6.9 10.75 6.9" fill="url(#gradient5)" fill-rule="evenodd" stroke="none"/>
    <path d="M4.75 1.4 L-16.95 1.4 -17.0 1.25 -17.2 1.15 -17.2 -1.65 -17.15 -1.65 -17.05 -1.65 -16.95 -1.65 4.75 -1.65 4.75 1.4" fill="url(#gradient6)" fill-rule="evenodd" stroke="none"/>
    <path d="M-17.2 -2.15 L-18.05 -2.1 -18.05 -9.2 -17.2 -9.2 -17.2 -7.4 -17.2 -2.15" fill="url(#gradient7)" fill-rule="evenodd" stroke="none"/>
    <path d="M-17.2 -1.65 L-17.2 -1.05 -17.2 -1.65 M-17.2 0.2 L-17.2 1.15 -17.2 0.2" fill="url(#gradient8)" fill-rule="evenodd" stroke="none"/>
    <path d="M-17.2 1.15 L-18.05 1.15 -18.05 -1.6 -17.2 -1.65 -17.2 -1.05 -17.2 0.2 -17.2 1.15" fill="url(#gradient9)" fill-rule="evenodd" stroke="none"/>
    <path d="M-17.2 8.75 L-18.05 8.75 -18.05 1.65 -17.35 1.65 -17.25 1.85 -17.2 1.9 -17.2 6.9 -17.2 8.75" fill="url(#gradient10)" fill-rule="evenodd" stroke="none"/>
    <path d="M14.55 -7.25 L15.6 -6.35 M15.55 -6.35 L14.55 -7.2 M4.75 -1.65 L4.75 1.4" fill="none" stroke="#000000" stroke-linecap="round" stroke-linejoin="round" stroke-width="0.5"/>
  </g>
  <defs>
    <linearGradient gradientTransform="matrix(0.0, -0.0036, 0.0014, 0.0, -2.95, -8.7)" gradientUnits="userSpaceOnUse" id="gradient0" spreadMethod="pad" x1="-819.2" x2="819.2">
      <stop offset="0.0196078431372549" stop-color="#f0f9fd"/>
      <stop offset="0.34509803921568627" stop-color="#c4dcff"/>
      <stop offset="0.6470588235294118" stop-color="#3a4d5f"/>
    </linearGradient>
    <linearGradient gradientTransform="matrix(9.0E-4, 0.0, 0.0, 7.0E-4, 15.05, -6.8)" gradientUnits="userSpaceOnUse" id="gradient1" spreadMethod="pad" x1="-819.2" x2="819.2">
      <stop offset="0.26666666666666666" stop-color="#f0f9fd"/>
      <stop offset="0.7686274509803922" stop-color="#c4dcff"/>
      <stop offset="1.0" stop-color="#3a4d5f"/>
    </linearGradient>
    <linearGradient gradientTransform="matrix(0.0037, 0.0, 0.0, 0.0086, 17.35, -0.1)" gradientUnits="userSpaceOnUse" id="gradient2" spreadMethod="pad" x1="-819.2" x2="819.2">
      <stop offset="0.0196078431372549" stop-color="#ffffff"/>
      <stop offset="0.9411764705882353" stop-color="#c4dcff"/>
    </linearGradient>
    <linearGradient gradientTransform="matrix(0.0, 0.0045, -0.0021, 0.0, 13.9, -0.3)" gradientUnits="userSpaceOnUse" id="gradient3" spreadMethod="pad" x1="-819.2" x2="819.2">
      <stop offset="0.0" stop-color="#1377b9"/>
      <stop offset="0.47058823529411764" stop-color="#ffffff"/>
      <stop offset="1.0" stop-color="#2a84c0"/>
    </linearGradient>
    <linearGradient gradientTransform="matrix(1.0E-4, 0.0, 0.0, 3.0E-4, 17.8, -3.05)" gradientUnits="userSpaceOnUse" id="gradient4" spreadMethod="pad" x1="-819.2" x2="819.2">
      <stop offset="0.26666666666666666" stop-color="#f0f9fd"/>
      <stop offset="0.7686274509803922" stop-color="#c4dcff"/>
      <stop offset="1.0" stop-color="#3a4d5f"/>
    </linearGradient>
    <linearGradient gradientTransform="matrix(0.0, 0.0034, -0.0015, 0.0, -2.25, 8.45)" gradientUnits="userSpaceOnUse" id="gradient5" spreadMethod="pad" x1="-819.2" x2="819.2">
      <stop offset="0.0196078431372549" stop-color="#f0f9fd"/>
      <stop offset="0.34509803921568627" stop-color="#c4dcff"/>
      <stop offset="0.6470588235294118" stop-color="#3a4d5f"/>
    </linearGradient>
    <linearGradient gradientTransform="matrix(0.0, 0.0023, -0.0019, 0.0, -7.1, -0.1)" gradientUnits="userSpaceOnUse" id="gradient6" spreadMethod="pad" x1="-819.2" x2="819.2">
      <stop offset="0.0196078431372549" stop-color="#1377b9"/>
      <stop offset="0.47058823529411764" stop-color="#c4dcff"/>
      <stop offset="1.0" stop-color="#5f7b98"/>
    </linearGradient>
    <linearGradient gradientTransform="matrix(0.0, -0.0023, 6.0E-4, 0.0, -20.8, -5.4)" gradientUnits="userSpaceOnUse" id="gradient7" spreadMethod="pad" x1="-819.2" x2="819.2">
      <stop offset="0.3215686274509804" stop-color="#8599ad"/>
      <stop offset="0.8352941176470589" stop-color="#212c34"/>
    </linearGradient>
    <linearGradient gradientTransform="matrix(0.0, 0.0021, -0.0019, 0.0, -8.2, -0.2)" gradientUnits="userSpaceOnUse" id="gradient8" spreadMethod="pad" x1="-819.2" x2="819.2">
      <stop offset="0.0196078431372549" stop-color="#1377b9"/>
      <stop offset="0.47058823529411764" stop-color="#c4dcff"/>
      <stop offset="1.0" stop-color="#5f7b98"/>
    </linearGradient>
    <linearGradient gradientTransform="matrix(0.0, 0.0021, -0.002, 0.0, -37.9, -0.15)" gradientUnits="userSpaceOnUse" id="gradient9" spreadMethod="pad" x1="-819.2" x2="819.2">
      <stop offset="0.0196078431372549" stop-color="#0a3654"/>
      <stop offset="0.4627450980392157" stop-color="#4d85aa"/>
      <stop offset="1.0" stop-color="#0d1115"/>
    </linearGradient>
    <linearGradient gradientTransform="matrix(0.0, 0.0032, -6.0E-4, 0.0, -20.75, 5.15)" gradientUnits="userSpaceOnUse" id="gradient10" spreadMethod="pad" x1="-819.2" x2="819.2">
      <stop offset="0.3215686274509804" stop-color="#8599ad"/>
      <stop offset="0.8352941176470589" stop-color="#212c34"/>
    </linearGradient>
  </defs>
</svg>
