<?xml version="1.0" encoding="UTF-8" standalone="no"?>
<svg xmlns:xlink="http://www.w3.org/1999/xlink" height="43.5px" width="238.1px" xmlns="http://www.w3.org/2000/svg">
  <g transform="matrix(1.0, 0.0, 0.0, 1.0, 7.0, 5.5)">
    <path d="M15.2 -1.25 Q17.8 -0.45 19.4 1.5 L19.95 2.25 20.45 3.15 Q22.05 3.5 23.55 4.85 25.2 6.25 25.2 8.3 25.2 10.5 23.55 12.5 21.85 14.5 19.6 15.25 L18.25 15.55 16.8 15.95 12.65 16.9 Q13.45 15.6 14.65 15.1 6.2 10.85 7.4 11.0 L9.4 11.15 Q6.75 9.65 5.3 6.95 L5.15 6.3 Q5.25 3.15 8.3 2.6 9.75 2.35 10.65 1.15 11.35 0.15 12.4 -0.25 13.45 -0.1 14.05 0.45 L14.35 0.35 15.05 0.15 14.55 -0.4 Q14.35 -0.6 14.55 -0.85 14.8 -1.25 15.2 -1.25 M60.1 -1.0 L63.35 -0.5 63.05 -0.9 Q62.8 -1.2 62.95 -1.55 63.1 -2.1 63.65 -2.1 67.05 -0.3 66.75 3.55 L66.45 5.25 66.4 8.1 66.4 12.25 66.3 26.4 66.25 32.55 Q66.2 34.55 64.25 35.65 L60.05 37.05 60.05 36.95 59.65 36.95 Q58.4 36.35 58.35 35.8 58.25 35.2 58.9 34.85 59.5 34.45 59.45 34.85 59.75 33.7 60.4 32.95 L60.4 4.35 Q60.35 3.8 58.35 2.5 56.3 1.1 56.25 -0.25 57.95 -1.0 60.1 -1.0 M95.4 -2.95 Q95.45 -3.25 95.75 -3.25 L96.1 -3.0 96.6 -2.0 96.9 -0.8 98.25 -0.9 100.4 -1.0 Q102.55 -1.0 104.55 0.25 106.45 1.35 106.45 3.4 L106.3 4.35 106.0 23.45 Q106.0 25.1 105.1 26.25 104.15 27.3 102.7 27.3 101.35 27.25 100.4 25.95 L98.0 25.7 97.55 25.65 97.3 25.65 97.35 25.55 97.1 25.15 97.0 24.25 Q97.0 23.9 97.4 23.85 L97.75 24.1 Q97.9 23.9 98.2 23.95 L99.45 23.95 100.0 23.55 100.0 4.15 97.95 2.5 Q95.85 0.9 95.55 -0.65 L95.35 -1.75 Q95.2 -2.35 95.4 -2.95 M178.9 -1.0 Q181.2 -1.0 183.05 -0.2 185.65 0.8 185.25 2.8 184.85 3.15 185.35 4.3 185.2 4.9 185.2 8.1 L185.25 12.2 185.15 26.4 185.15 32.6 Q185.05 34.55 183.05 35.65 L178.9 37.05 179.25 33.7 179.25 4.35 Q179.25 3.8 177.2 2.5 175.15 1.1 175.1 -0.25 177.3 -3.35 178.8 -2.95 178.45 -1.0 178.9 -1.0 M223.5 -1.0 Q225.0 0.8 224.6 2.8 224.2 3.15 224.7 4.3 224.55 4.9 224.55 8.1 L224.55 12.25 224.5 26.4 224.45 32.55 Q224.4 34.55 222.4 35.65 L218.2 37.05 218.55 33.7 218.55 17.15 216.4 19.6 Q214.6 22.3 209.95 25.45 204.8 28.85 202.45 28.85 201.25 28.85 200.55 27.0 200.1 25.85 200.1 24.7 200.1 23.7 201.35 23.65 202.2 22.5 204.95 20.5 203.95 20.5 202.95 19.85 201.95 19.2 202.0 18.2 202.0 17.5 203.5 16.45 L205.3 15.25 207.25 13.5 Q205.9 13.35 205.1 12.85 L203.35 11.35 Q202.2 10.25 202.15 9.0 204.15 7.45 205.15 7.05 L206.95 6.8 209.8 7.0 Q210.8 7.0 212.7 7.95 214.8 9.05 214.8 10.1 214.8 12.2 211.2 14.7 212.8 14.9 212.8 16.15 L212.45 17.1 211.3 18.15 209.65 19.5 205.95 23.25 210.45 20.55 Q213.45 18.7 214.65 17.7 215.35 16.95 216.25 15.0 217.55 14.1 218.55 13.5 L218.55 4.35 Q218.55 3.8 216.55 2.5 214.5 1.1 214.4 -0.25 217.8 -3.05 219.9 -2.9 221.95 -2.75 223.5 -1.0 M178.05 11.5 Q178.05 12.05 177.45 12.9 L174.7 18.75 Q171.0 27.1 166.25 27.1 163.9 27.1 163.95 25.8 163.9 25.35 165.1 24.5 166.3 23.6 167.35 23.2 168.4 22.8 170.0 19.55 L172.2 14.55 Q171.75 15.2 170.95 15.2 170.25 15.2 170.1 14.8 168.5 18.75 165.7 22.75 161.65 28.55 158.55 28.55 157.9 28.5 157.0 27.85 156.05 27.2 156.05 26.6 156.0 25.95 157.55 25.0 159.0 24.05 158.5 24.9 159.3 25.05 161.85 21.15 L165.4 15.35 164.7 15.6 164.05 15.4 161.55 13.85 Q160.25 12.7 160.05 10.9 L161.85 8.85 163.9 9.25 Q166.65 8.15 167.55 8.15 168.4 8.15 169.5 8.7 170.65 9.2 171.0 9.7 171.8 9.25 172.85 8.9 173.7 8.45 174.55 8.45 175.85 8.45 176.95 9.35 178.05 10.25 178.05 11.5 M145.9 11.15 Q144.85 13.8 143.05 14.0 L140.95 13.85 140.45 13.45 138.2 13.55 Q139.7 14.1 139.7 15.0 139.7 15.9 138.7 16.65 L141.05 16.25 144.0 15.85 Q145.85 15.85 147.9 16.55 150.1 17.35 150.1 19.0 150.1 20.1 148.8 20.95 147.9 21.5 146.75 21.5 L143.45 21.0 140.1 20.45 Q137.2 20.45 131.45 22.4 L128.7 23.3 129.3 24.0 133.7 22.75 Q137.2 21.7 137.95 21.2 L141.5 21.7 Q143.85 22.3 143.85 23.9 143.85 24.55 143.45 25.25 L143.45 32.8 Q143.45 34.55 141.6 35.75 140.0 36.75 137.8 36.8 L137.6 34.15 137.6 25.4 134.15 26.6 131.2 27.55 128.55 26.95 Q127.15 26.2 127.15 24.85 L127.4 23.7 123.65 24.4 Q121.75 24.4 120.15 23.35 118.15 22.0 118.05 19.8 118.0 18.85 118.4 18.1 120.35 20.1 120.9 20.1 124.0 20.1 133.0 17.4 L133.55 15.75 Q133.55 15.2 132.95 14.05 L132.7 14.5 Q130.9 16.7 129.1 16.75 128.15 16.7 127.55 16.05 127.0 15.35 127.05 14.45 L127.05 14.25 Q127.6 10.85 129.35 10.4 131.05 9.9 132.0 9.15 L133.85 7.85 Q129.95 7.8 128.35 3.1 L129.05 0.8 Q129.5 1.65 129.95 1.8 L131.4 2.35 139.25 0.5 141.95 0.25 Q143.9 0.1 144.9 0.8 145.2 1.75 144.55 3.65 143.9 5.5 142.4 6.35 140.85 7.25 140.7 6.65 L137.8 8.55 139.3 8.35 141.5 8.2 Q143.05 8.2 144.1 9.1 L145.65 10.65 Q146.95 8.45 145.9 11.15 M136.35 10.85 L134.0 12.7 Q135.35 12.2 136.2 12.2 136.7 12.2 137.4 12.7 L138.55 12.05 Q137.25 11.7 136.35 10.85 M93.35 7.4 L95.95 7.6 Q97.9 8.3 97.95 10.35 98.0 12.35 97.0 14.0 96.4 15.0 95.85 16.6 L95.0 18.65 Q96.25 19.25 96.25 20.35 96.25 21.75 93.55 22.55 L88.5 24.25 Q88.45 26.2 85.9 26.25 L84.3 25.85 83.5 25.35 Q82.35 24.1 82.4 22.5 82.4 22.25 82.55 22.15 L82.3 20.0 81.75 14.7 Q81.3 11.3 80.55 9.25 83.6 9.3 85.5 10.95 86.45 10.45 89.05 9.6 L92.3 8.1 93.35 7.4 M87.4 14.75 L87.65 20.15 90.0 19.15 Q90.7 17.95 91.1 14.3 L90.25 14.8 88.55 15.3 Q88.0 15.3 87.4 14.75 M93.35 30.9 Q97.05 30.85 100.25 29.85 L101.65 29.6 Q103.2 29.55 104.7 30.2 106.65 31.1 106.65 32.55 106.65 35.6 101.15 35.6 L93.15 35.6 Q90.85 35.6 89.85 34.8 88.85 33.95 88.85 31.85 88.85 30.9 91.95 26.95 91.2 26.8 91.4 25.9 91.15 25.9 91.55 25.2 91.9 24.45 92.25 24.55 92.6 24.6 92.95 25.9 93.35 27.5 93.35 30.9 M56.6 10.1 Q56.6 12.2 53.0 14.7 54.65 14.9 54.65 16.15 L54.25 17.1 53.1 18.15 51.45 19.5 47.75 23.25 52.3 20.55 55.15 18.7 55.05 18.65 54.85 18.4 Q54.9 17.75 55.3 17.25 L55.35 16.15 Q55.25 15.3 55.65 14.6 L55.7 14.55 Q55.7 14.25 56.05 14.1 56.35 13.9 56.15 13.45 55.95 13.0 56.45 13.35 L57.75 14.75 57.95 15.15 Q58.8 16.8 58.85 17.8 58.85 19.3 58.2 19.6 56.4 22.3 51.75 25.45 47.65 28.2 45.35 28.75 44.1 29.35 42.75 28.55 L40.9 27.0 Q40.45 26.5 40.9 26.0 L41.4 25.8 42.1 26.15 41.95 24.7 Q41.9 23.7 43.2 23.65 L43.6 23.15 43.35 22.9 Q42.9 22.05 43.7 21.4 L45.0 20.25 45.2 20.1 44.8 19.85 44.55 19.7 Q42.95 18.9 41.8 17.45 41.6 17.2 41.8 16.9 L42.45 16.5 42.7 16.65 42.8 16.6 43.0 16.55 Q43.95 16.8 44.3 17.3 L45.3 16.45 Q46.15 15.85 47.15 15.25 L49.05 13.5 Q47.75 13.35 46.95 12.85 L45.15 11.35 Q44.05 10.25 43.95 9.0 44.95 8.8 46.1 8.2 47.25 7.55 47.9 7.4 L51.6 7.0 Q52.6 7.0 54.5 7.95 56.6 9.05 56.6 10.1 M29.65 17.1 Q30.8 18.0 30.8 18.95 30.8 22.0 27.55 22.0 L25.2 21.8 23.0 21.65 21.6 21.7 20.65 21.8 20.65 32.1 Q20.65 33.8 18.75 35.3 16.9 36.75 14.75 36.75 7.65 36.4 14.6 30.4 14.35 29.05 14.35 22.6 13.25 22.65 10.3 23.8 7.35 24.9 4.5 24.6 1.6 24.3 -1.55 22.8 -4.75 21.3 -0.8 20.3 L10.5 19.3 20.7 17.35 22.85 16.75 25.0 16.2 25.0 16.15 Q25.15 15.55 25.75 15.5 28.1 15.75 29.65 17.1 M12.3 8.1 Q12.3 9.4 13.75 10.1 15.4 10.85 17.15 10.85 18.1 10.85 18.85 10.05 19.65 9.2 19.7 8.3 19.7 7.45 18.4 7.05 15.8 6.45 15.65 5.65 14.85 5.75 13.55 6.55 12.3 7.35 12.3 8.1" fill="#720101" fill-rule="evenodd" stroke="none"/>
    <path d="M15.2 -1.25 Q16.6 -0.85 16.6 0.45 L16.6 0.7 Q18.5 1.0 20.25 2.55 22.0 4.05 22.0 6.15 22.0 8.45 20.25 10.5 18.5 12.6 16.15 13.35 L14.75 13.65 13.25 14.1 8.95 15.05 Q9.8 13.75 11.0 13.2 9.05 12.85 6.9 10.7 4.65 8.45 4.65 6.35 4.65 4.65 5.8 3.55 6.4 3.0 8.1 2.1 9.55 1.45 9.95 1.0 L9.4 0.2 Q9.0 -0.45 9.0 -1.65 L10.7 -2.1 12.25 -2.4 Q13.7 -2.4 15.2 -1.25 M62.65 -2.65 Q65.2 -1.65 64.8 0.45 64.4 0.8 64.9 2.0 64.75 2.65 64.75 5.95 L64.75 10.25 64.65 24.95 64.6 31.3 Q64.55 33.0 63.2 34.1 L62.5 34.55 58.15 36.0 58.45 34.1 58.5 32.5 58.5 2.05 Q58.5 1.5 56.4 0.1 54.3 -1.3 54.2 -2.75 56.0 -3.5 58.2 -3.5 60.55 -3.5 62.65 -2.65 M104.35 -2.2 Q106.35 -1.05 106.35 1.05 L106.15 2.05 105.85 21.85 Q105.85 23.6 104.9 24.75 103.95 25.85 102.45 25.85 101.05 25.85 100.05 24.45 L96.8 24.15 99.65 21.95 99.65 1.85 97.5 0.1 Q95.35 -1.55 95.15 -3.25 L97.8 -3.4 100.05 -3.5 Q102.3 -3.5 104.35 -2.2 M140.35 -1.95 L141.5 -1.9 Q145.3 -1.55 145.3 0.75 145.3 2.8 143.1 3.9 L141.9 4.45 138.85 6.4 140.45 6.2 142.7 6.05 Q144.35 6.05 145.4 6.95 146.45 7.9 146.45 9.4 146.45 11.85 143.45 11.85 L142.4 11.65 141.6 11.5 139.3 11.6 Q140.85 12.15 140.85 13.1 140.85 14.05 139.8 14.8 L142.25 14.4 145.3 14.0 Q147.25 14.0 149.35 14.7 151.65 15.55 151.65 17.25 151.65 18.4 150.3 19.25 149.35 19.85 148.15 19.85 L144.75 19.3 141.25 18.75 Q138.25 18.75 132.3 20.8 126.35 22.85 124.2 22.85 122.2 22.85 120.55 21.75 118.5 20.4 118.35 18.1 L121.3 18.4 Q124.55 18.4 133.9 15.6 134.45 14.45 134.45 13.9 134.45 13.35 133.85 12.1 L133.6 12.6 Q131.7 14.9 129.85 14.9 128.85 14.9 128.25 14.2 127.7 13.45 127.7 12.5 L127.7 12.3 Q127.7 11.4 129.45 9.95 L132.25 7.65 Q133.85 6.2 134.75 5.65 130.75 5.65 129.05 0.75 L130.75 0.4 132.25 -0.05 140.35 -1.95 M185.85 -2.7 Q188.55 -1.65 188.15 0.45 187.75 0.8 188.25 2.0 188.1 2.65 188.1 5.95 L188.15 10.2 188.0 24.95 188.0 31.35 Q187.9 33.05 186.55 34.1 L185.85 34.55 181.55 36.0 181.85 34.1 181.9 32.5 181.9 2.05 Q181.9 1.5 179.75 0.1 177.65 -1.3 177.6 -2.75 179.35 -3.5 181.55 -3.5 183.95 -3.5 185.85 -2.7 M222.4 -3.5 Q224.75 -3.5 226.85 -2.65 229.4 -1.65 229.0 0.45 228.6 0.8 229.1 2.0 228.95 2.65 228.95 5.95 L228.95 10.25 228.85 24.95 228.8 31.3 Q228.75 33.0 227.4 34.1 L226.7 34.55 222.35 36.0 222.65 34.1 222.7 32.5 222.7 2.05 Q222.7 1.5 220.6 0.1 218.5 -1.3 218.4 -2.75 220.2 -3.5 222.4 -3.5 M218.8 8.0 Q218.8 10.2 215.05 12.8 216.75 13.0 216.75 14.3 216.75 14.7 216.35 15.3 L215.15 16.35 213.45 17.75 209.6 21.65 214.3 18.85 218.65 15.9 220.3 13.1 Q221.1 14.8 221.1 16.0 221.1 17.55 220.45 17.85 218.6 20.7 213.75 23.95 208.45 27.5 206.0 27.5 204.75 27.5 204.0 25.55 203.55 24.4 203.55 23.15 203.55 22.15 204.85 22.1 205.75 20.9 208.6 18.8 207.55 18.8 206.5 18.15 205.5 17.45 205.5 16.4 205.5 15.7 207.05 14.6 L208.95 13.35 210.95 11.55 Q209.6 11.4 208.75 10.85 L206.9 9.3 Q205.75 8.2 205.65 6.85 206.7 6.65 207.85 6.05 209.05 5.4 209.75 5.2 L213.6 4.8 Q214.65 4.8 216.6 5.8 218.8 6.95 218.8 8.0 M177.0 6.3 Q178.4 6.3 179.5 7.25 180.65 8.2 180.65 9.45 180.65 10.05 180.05 10.9 L177.15 17.0 Q173.35 25.65 168.4 25.65 166.0 25.65 166.0 24.3 166.0 23.85 166.75 23.5 L167.75 23.25 Q169.2 22.8 171.75 18.35 L174.6 12.65 Q174.15 13.3 173.3 13.3 172.6 13.3 172.4 12.9 170.75 17.0 167.85 21.15 163.65 27.15 160.4 27.15 159.75 27.15 158.8 26.45 157.85 25.8 157.85 25.2 157.85 24.3 158.85 24.3 L159.25 24.35 159.45 24.4 Q160.65 24.4 163.85 19.5 L167.5 13.45 166.8 13.7 166.1 13.5 Q164.2 12.55 163.55 11.9 162.2 10.75 161.95 8.85 L165.95 7.15 Q168.85 6.0 169.75 6.0 170.65 6.0 171.8 6.55 L173.35 7.6 175.25 6.75 Q176.15 6.3 177.0 6.3 M144.75 23.75 L144.75 31.6 Q144.75 33.0 143.55 34.1 L142.8 34.65 Q141.15 35.7 138.85 35.75 L138.7 34.1 138.65 33.0 138.65 23.9 135.1 25.15 Q132.85 26.1 132.0 26.1 130.45 26.1 129.25 25.5 127.8 24.75 127.8 23.3 L127.95 22.35 130.05 22.45 134.6 21.15 Q138.25 20.05 139.05 19.55 L142.7 20.05 Q145.15 20.7 145.15 22.35 145.15 23.05 144.75 23.75 M137.35 8.8 L134.9 10.7 137.2 10.2 Q137.75 10.2 138.45 10.7 L139.65 10.05 Q138.35 9.7 137.35 8.8 M96.5 12.05 L95.3 14.75 94.45 16.9 Q95.75 17.55 95.75 18.65 95.75 20.15 92.95 20.95 L87.7 22.7 Q87.65 24.75 85.0 24.75 82.6 24.75 81.85 22.25 81.6 21.4 81.25 18.3 L80.7 12.8 Q80.25 9.25 79.45 7.15 82.6 7.2 84.6 8.9 L88.25 7.5 Q89.35 7.2 91.65 5.95 L92.4 5.75 Q93.45 5.75 95.5 6.9 97.55 8.1 97.55 9.1 97.55 10.35 96.5 12.05 M90.4 12.4 L89.5 12.9 87.75 13.4 Q87.2 13.4 86.55 12.85 L86.8 18.45 89.25 17.4 Q90.0 16.15 90.4 12.4 M99.9 28.5 L101.35 28.25 Q102.95 28.25 104.5 28.9 106.55 29.85 106.55 31.3 106.55 33.35 104.15 34.1 L100.8 34.5 92.5 34.5 Q90.9 34.5 89.9 34.1 L89.1 33.65 Q88.05 32.8 88.05 30.6 88.05 29.45 92.25 24.25 92.75 25.85 92.75 29.6 96.6 29.55 99.9 28.5 M52.4 5.8 Q54.6 6.95 54.6 8.0 54.6 10.2 50.85 12.8 52.55 13.0 52.55 14.3 L52.15 15.3 Q51.75 15.9 50.95 16.35 L50.8 16.5 49.25 17.75 45.4 21.65 50.1 18.85 50.8 18.45 54.45 15.9 56.1 13.1 Q56.9 14.8 56.9 16.0 56.9 17.55 56.25 17.85 54.65 20.3 50.8 23.1 L49.55 23.95 Q44.25 27.5 41.8 27.5 40.55 27.5 39.8 25.55 39.35 24.4 39.35 23.15 39.35 22.15 40.65 22.1 41.55 20.9 44.4 18.8 43.35 18.8 42.3 18.15 41.3 17.45 41.3 16.4 41.3 15.7 42.85 14.6 43.75 14.0 44.75 13.35 L46.75 11.55 Q45.4 11.4 44.55 10.85 L42.7 9.3 Q41.55 8.2 41.45 6.85 42.5 6.65 43.65 6.05 44.85 5.4 45.55 5.2 L49.4 4.8 50.8 5.1 52.4 5.8 M24.8 14.95 Q27.8 15.7 27.8 17.2 27.8 20.35 24.4 20.35 L22.0 20.15 19.7 20.0 18.25 20.05 17.25 20.15 17.25 30.85 Q17.25 32.55 15.35 34.1 L15.3 34.15 Q13.4 35.7 11.15 35.7 L11.0 34.1 Q10.9 31.5 11.45 28.7 10.7 32.0 10.7 21.0 9.6 21.05 6.5 22.25 3.45 23.4 1.7 23.4 -0.35 23.4 -2.45 22.25 -5.0 20.9 -5.0 18.6 L6.7 17.55 17.3 15.55 19.55 14.9 Q21.1 14.35 21.9 14.35 23.55 14.35 24.8 14.95 M12.05 3.4 Q11.25 3.5 9.9 4.35 8.6 5.15 8.6 5.95 8.6 7.3 10.1 8.0 11.8 8.8 13.6 8.8 14.6 8.8 15.4 7.95 16.25 7.1 16.25 6.15 16.25 5.25 14.9 4.85 12.25 4.25 12.05 3.4" fill="url(#gradient0)" fill-rule="evenodd" stroke="none"/>
    <path d="M15.2 -1.25 Q16.6 -0.85 16.6 0.45 L16.6 0.7 Q18.5 1.0 20.25 2.55 22.0 4.05 22.0 6.15 22.0 8.45 20.25 10.5 18.5 12.6 16.15 13.35 L14.75 13.65 13.25 14.1 8.95 15.05 Q9.8 13.75 11.0 13.2 9.05 12.85 6.9 10.7 4.65 8.45 4.65 6.35 4.65 4.65 5.8 3.55 6.4 3.0 8.1 2.1 9.55 1.45 9.95 1.0 L9.4 0.2 Q9.0 -0.45 9.0 -1.65 L10.7 -2.1 12.25 -2.4 Q13.7 -2.4 15.2 -1.25 M62.65 -2.65 Q65.2 -1.65 64.8 0.45 64.4 0.8 64.9 2.0 64.75 2.65 64.75 5.95 L64.75 10.25 64.65 24.95 64.6 31.3 Q64.55 33.0 63.2 34.1 L62.5 34.55 58.15 36.0 58.45 34.1 58.5 32.5 58.5 2.05 Q58.5 1.5 56.4 0.1 54.3 -1.3 54.2 -2.75 56.0 -3.5 58.2 -3.5 60.55 -3.5 62.65 -2.65 M104.35 -2.2 Q106.35 -1.05 106.35 1.05 L106.15 2.05 105.85 21.85 Q105.85 23.6 104.9 24.75 103.95 25.85 102.45 25.85 101.05 25.85 100.05 24.45 L96.8 24.15 99.65 21.95 99.65 1.85 97.5 0.1 Q95.35 -1.55 95.15 -3.25 L97.8 -3.4 100.05 -3.5 Q102.3 -3.5 104.35 -2.2 M140.35 -1.95 L141.5 -1.9 Q145.3 -1.55 145.3 0.75 145.3 2.8 143.1 3.9 L141.9 4.45 138.85 6.4 140.45 6.2 142.7 6.05 Q144.35 6.05 145.4 6.95 146.45 7.9 146.45 9.4 146.45 11.85 143.45 11.85 L142.4 11.65 141.6 11.5 139.3 11.6 Q140.85 12.15 140.85 13.1 140.85 14.05 139.8 14.8 L142.25 14.4 145.3 14.0 Q147.25 14.0 149.35 14.7 151.65 15.55 151.65 17.25 151.65 18.4 150.3 19.25 149.35 19.85 148.15 19.85 L144.75 19.3 141.25 18.75 Q138.25 18.75 132.3 20.8 126.35 22.85 124.2 22.85 122.2 22.85 120.55 21.75 118.5 20.4 118.35 18.1 L121.3 18.4 Q124.55 18.4 133.9 15.6 134.45 14.45 134.45 13.9 134.45 13.35 133.85 12.1 L133.6 12.6 Q131.7 14.9 129.85 14.9 128.85 14.9 128.25 14.2 127.7 13.45 127.7 12.5 L127.7 12.3 Q127.7 11.4 129.45 9.95 L132.25 7.65 Q133.85 6.2 134.75 5.65 130.75 5.65 129.05 0.75 L130.75 0.4 132.25 -0.05 140.35 -1.95 M185.85 -2.7 Q188.55 -1.65 188.15 0.45 187.75 0.8 188.25 2.0 188.1 2.65 188.1 5.95 L188.15 10.2 188.0 24.95 188.0 31.35 Q187.9 33.05 186.55 34.1 L185.85 34.55 181.55 36.0 181.85 34.1 181.9 32.5 181.9 2.05 Q181.9 1.5 179.75 0.1 177.65 -1.3 177.6 -2.75 179.35 -3.5 181.55 -3.5 183.95 -3.5 185.85 -2.7 M222.4 -3.5 Q224.75 -3.5 226.85 -2.65 229.4 -1.65 229.0 0.45 228.6 0.8 229.1 2.0 228.95 2.65 228.95 5.95 L228.95 10.25 228.85 24.95 228.8 31.3 Q228.75 33.0 227.4 34.1 L226.7 34.55 222.35 36.0 222.65 34.1 222.7 32.5 222.7 2.05 Q222.7 1.5 220.6 0.1 218.5 -1.3 218.4 -2.75 220.2 -3.5 222.4 -3.5 M218.8 8.0 Q218.8 10.2 215.05 12.8 216.75 13.0 216.75 14.3 216.75 14.7 216.35 15.3 L215.15 16.35 213.45 17.75 209.6 21.65 214.3 18.85 218.65 15.9 220.3 13.1 Q221.1 14.8 221.1 16.0 221.1 17.55 220.45 17.85 218.6 20.7 213.75 23.95 208.45 27.5 206.0 27.5 204.75 27.5 204.0 25.55 203.55 24.4 203.55 23.15 203.55 22.15 204.85 22.1 205.75 20.9 208.6 18.8 207.55 18.8 206.5 18.15 205.5 17.45 205.5 16.4 205.5 15.7 207.05 14.6 L208.95 13.35 210.95 11.55 Q209.6 11.4 208.75 10.85 L206.9 9.3 Q205.75 8.2 205.65 6.85 206.7 6.65 207.85 6.05 209.05 5.4 209.75 5.2 L213.6 4.8 Q214.65 4.8 216.6 5.8 218.8 6.95 218.8 8.0 M177.0 6.3 Q178.4 6.3 179.5 7.25 180.65 8.2 180.65 9.45 180.65 10.05 180.05 10.9 L177.15 17.0 Q173.35 25.65 168.4 25.65 166.0 25.65 166.0 24.3 166.0 23.85 166.75 23.5 L167.75 23.25 Q169.2 22.8 171.75 18.35 L174.6 12.65 Q174.15 13.3 173.3 13.3 172.6 13.3 172.4 12.9 170.75 17.0 167.85 21.15 163.65 27.15 160.4 27.15 159.75 27.15 158.8 26.45 157.85 25.8 157.85 25.2 157.85 24.3 158.85 24.3 L159.25 24.35 159.45 24.4 Q160.65 24.4 163.85 19.5 L167.5 13.45 166.8 13.7 166.1 13.5 Q164.2 12.55 163.55 11.9 162.2 10.75 161.95 8.85 L165.95 7.15 Q168.85 6.0 169.75 6.0 170.65 6.0 171.8 6.55 L173.35 7.6 175.25 6.75 Q176.15 6.3 177.0 6.3 M144.75 23.75 L144.75 31.6 Q144.75 33.0 143.55 34.1 L142.8 34.65 Q141.15 35.7 138.85 35.75 L138.7 34.1 138.65 33.0 138.65 23.9 135.1 25.15 Q132.85 26.1 132.0 26.1 130.45 26.1 129.25 25.5 127.8 24.75 127.8 23.3 L127.95 22.35 130.05 22.45 134.6 21.15 Q138.25 20.05 139.05 19.55 L142.7 20.05 Q145.15 20.7 145.15 22.35 145.15 23.05 144.75 23.75 M137.35 8.8 L134.9 10.7 137.2 10.2 Q137.75 10.2 138.45 10.7 L139.65 10.05 Q138.35 9.7 137.35 8.8 M96.5 12.05 L95.3 14.75 94.45 16.9 Q95.75 17.55 95.75 18.65 95.75 20.15 92.95 20.95 L87.7 22.7 Q87.65 24.75 85.0 24.75 82.6 24.75 81.85 22.25 81.6 21.4 81.25 18.3 L80.7 12.8 Q80.25 9.25 79.45 7.15 82.6 7.2 84.6 8.9 L88.25 7.5 Q89.35 7.2 91.65 5.95 L92.4 5.75 Q93.45 5.75 95.5 6.9 97.55 8.1 97.55 9.1 97.55 10.35 96.5 12.05 M90.4 12.4 L89.5 12.9 87.75 13.4 Q87.2 13.4 86.55 12.85 L86.8 18.45 89.25 17.4 Q90.0 16.15 90.4 12.4 M99.9 28.5 L101.35 28.25 Q102.95 28.25 104.5 28.9 106.55 29.85 106.55 31.3 106.55 33.35 104.15 34.1 L100.8 34.5 92.5 34.5 Q90.9 34.5 89.9 34.1 L89.1 33.65 Q88.05 32.8 88.05 30.6 88.05 29.45 92.25 24.25 92.75 25.85 92.75 29.6 96.6 29.55 99.9 28.5 M52.4 5.8 Q54.6 6.95 54.6 8.0 54.6 10.2 50.85 12.8 52.55 13.0 52.55 14.3 L52.15 15.3 Q51.75 15.9 50.95 16.35 L50.8 16.5 49.25 17.75 45.4 21.65 50.1 18.85 50.8 18.45 54.45 15.9 56.1 13.1 Q56.9 14.8 56.9 16.0 56.9 17.55 56.25 17.85 54.65 20.3 50.8 23.1 L49.55 23.95 Q44.25 27.5 41.8 27.5 40.55 27.5 39.8 25.55 39.35 24.4 39.35 23.15 39.35 22.15 40.65 22.1 41.55 20.9 44.4 18.8 43.35 18.8 42.3 18.15 41.3 17.45 41.3 16.4 41.3 15.7 42.85 14.6 43.75 14.0 44.75 13.35 L46.75 11.55 Q45.4 11.4 44.55 10.85 L42.7 9.3 Q41.55 8.2 41.45 6.85 42.5 6.65 43.65 6.05 44.85 5.4 45.55 5.2 L49.4 4.8 50.8 5.1 52.4 5.8 M24.8 14.95 Q27.8 15.7 27.8 17.2 27.8 20.35 24.4 20.35 L22.0 20.15 19.7 20.0 18.25 20.05 17.25 20.15 17.25 30.85 Q17.25 32.55 15.35 34.1 L15.3 34.15 Q13.4 35.7 11.15 35.7 L11.0 34.1 Q10.9 31.5 11.45 28.7 10.7 32.0 10.7 21.0 9.6 21.05 6.5 22.25 3.45 23.4 1.7 23.4 -0.35 23.4 -2.45 22.25 -5.0 20.9 -5.0 18.6 L6.7 17.55 17.3 15.55 19.55 14.9 Q21.1 14.35 21.9 14.35 23.55 14.35 24.8 14.95 M12.05 3.4 Q11.25 3.5 9.9 4.35 8.6 5.15 8.6 5.95 8.6 7.3 10.1 8.0 11.8 8.8 13.6 8.8 14.6 8.8 15.4 7.95 16.25 7.1 16.25 6.15 16.25 5.25 14.9 4.85 12.25 4.25 12.05 3.4" fill="none" stroke="#ffffff" stroke-linecap="round" stroke-linejoin="round" stroke-width="4.0"/>
    <path d="M15.2 -1.25 Q16.6 -0.85 16.6 0.45 L16.6 0.7 Q18.5 1.0 20.25 2.55 22.0 4.05 22.0 6.15 22.0 8.45 20.25 10.5 18.5 12.6 16.15 13.35 L14.75 13.65 13.25 14.1 8.95 15.05 Q9.8 13.75 11.0 13.2 9.05 12.85 6.9 10.7 4.65 8.45 4.65 6.35 4.65 4.65 5.8 3.55 6.4 3.0 8.1 2.1 9.55 1.45 9.95 1.0 L9.4 0.2 Q9.0 -0.45 9.0 -1.65 L10.7 -2.1 12.25 -2.4 Q13.7 -2.4 15.2 -1.25 M62.65 -2.65 Q65.2 -1.65 64.8 0.45 64.4 0.8 64.9 2.0 64.75 2.65 64.75 5.95 L64.75 10.25 64.65 24.95 64.6 31.3 Q64.55 33.0 63.2 34.1 L62.5 34.55 58.15 36.0 58.45 34.1 58.5 32.5 58.5 2.05 Q58.5 1.5 56.4 0.1 54.3 -1.3 54.2 -2.75 56.0 -3.5 58.2 -3.5 60.55 -3.5 62.65 -2.65 M104.35 -2.2 Q106.35 -1.05 106.35 1.05 L106.15 2.05 105.85 21.85 Q105.85 23.6 104.9 24.75 103.95 25.85 102.45 25.85 101.05 25.85 100.05 24.45 L96.8 24.15 99.65 21.95 99.65 1.85 97.5 0.1 Q95.35 -1.55 95.15 -3.25 L97.8 -3.4 100.05 -3.5 Q102.3 -3.5 104.35 -2.2 M140.35 -1.95 L141.5 -1.9 Q145.3 -1.55 145.3 0.75 145.3 2.8 143.1 3.9 L141.9 4.45 138.85 6.4 140.45 6.2 142.7 6.05 Q144.35 6.05 145.4 6.95 146.45 7.9 146.45 9.4 146.45 11.85 143.45 11.85 L142.4 11.65 141.6 11.5 139.3 11.6 Q140.85 12.15 140.85 13.1 140.85 14.05 139.8 14.8 L142.25 14.4 145.3 14.0 Q147.25 14.0 149.35 14.7 151.65 15.55 151.65 17.25 151.65 18.4 150.3 19.25 149.35 19.85 148.15 19.85 L144.75 19.3 141.25 18.75 Q138.25 18.75 132.3 20.8 126.35 22.85 124.2 22.85 122.2 22.85 120.55 21.75 118.5 20.4 118.35 18.1 L121.3 18.4 Q124.55 18.4 133.9 15.6 134.45 14.45 134.45 13.9 134.45 13.35 133.85 12.1 L133.6 12.6 Q131.7 14.9 129.85 14.9 128.85 14.9 128.25 14.2 127.7 13.45 127.7 12.5 L127.7 12.3 Q127.7 11.4 129.45 9.95 L132.25 7.65 Q133.85 6.2 134.75 5.65 130.75 5.65 129.05 0.75 L130.75 0.4 132.25 -0.05 140.35 -1.95 M181.55 -3.5 Q183.95 -3.5 185.85 -2.7 188.55 -1.65 188.15 0.45 187.75 0.8 188.25 2.0 188.1 2.65 188.1 5.95 L188.15 10.2 188.0 24.95 188.0 31.35 Q187.9 33.05 186.55 34.1 L185.85 34.55 181.55 36.0 181.85 34.1 181.9 32.5 181.9 2.05 Q181.9 1.5 179.75 0.1 177.65 -1.3 177.6 -2.75 179.35 -3.5 181.55 -3.5 M222.4 -3.5 Q224.75 -3.5 226.85 -2.65 229.4 -1.65 229.0 0.45 228.6 0.8 229.1 2.0 228.95 2.65 228.95 5.95 L228.95 10.25 228.85 24.95 228.8 31.3 Q228.75 33.0 227.4 34.1 L226.7 34.55 222.35 36.0 222.65 34.1 222.7 32.5 222.7 2.05 Q222.7 1.5 220.6 0.1 218.5 -1.3 218.4 -2.75 220.2 -3.5 222.4 -3.5 M218.8 8.0 Q218.8 10.2 215.05 12.8 216.75 13.0 216.75 14.3 216.75 14.7 216.35 15.3 L215.15 16.35 213.45 17.75 209.6 21.65 214.3 18.85 218.65 15.9 220.3 13.1 Q221.1 14.8 221.1 16.0 221.1 17.55 220.45 17.85 218.6 20.7 213.75 23.95 208.45 27.5 206.0 27.5 204.75 27.5 204.0 25.55 203.55 24.4 203.55 23.15 203.55 22.15 204.85 22.1 205.75 20.9 208.6 18.8 207.55 18.8 206.5 18.15 205.5 17.45 205.5 16.4 205.5 15.7 207.05 14.6 L208.95 13.35 210.95 11.55 Q209.6 11.4 208.75 10.85 L206.9 9.3 Q205.75 8.2 205.65 6.85 206.7 6.65 207.85 6.05 209.05 5.4 209.75 5.2 L213.6 4.8 Q214.65 4.8 216.6 5.8 218.8 6.95 218.8 8.0 M177.0 6.3 Q178.4 6.3 179.5 7.25 180.65 8.2 180.65 9.45 180.65 10.05 180.05 10.9 L177.15 17.0 Q173.35 25.65 168.4 25.65 166.0 25.65 166.0 24.3 166.0 23.85 166.75 23.5 L167.75 23.25 Q169.2 22.8 171.75 18.35 L174.6 12.65 Q174.15 13.3 173.3 13.3 172.6 13.3 172.4 12.9 170.75 17.0 167.85 21.15 163.65 27.15 160.4 27.15 159.75 27.15 158.8 26.45 157.85 25.8 157.85 25.2 157.85 24.3 158.85 24.3 L159.25 24.35 159.45 24.4 Q160.65 24.4 163.85 19.5 L167.5 13.45 166.8 13.7 166.1 13.5 Q164.2 12.55 163.55 11.9 162.2 10.75 161.95 8.85 L165.95 7.15 Q168.85 6.0 169.75 6.0 170.65 6.0 171.8 6.55 L173.35 7.6 175.25 6.75 Q176.15 6.3 177.0 6.3 M144.75 23.75 L144.75 31.6 Q144.75 33.0 143.55 34.1 L142.8 34.65 Q141.15 35.7 138.85 35.75 L138.7 34.1 138.65 33.0 138.65 23.9 135.1 25.15 Q132.85 26.1 132.0 26.1 130.45 26.1 129.25 25.5 127.8 24.75 127.8 23.3 L127.95 22.35 130.05 22.45 134.6 21.15 Q138.25 20.05 139.05 19.55 L142.7 20.05 Q145.15 20.7 145.15 22.35 145.15 23.05 144.75 23.75 M134.9 10.7 L137.2 10.2 Q137.75 10.2 138.45 10.7 L139.65 10.05 Q138.35 9.7 137.35 8.8 L134.9 10.7 M97.55 9.1 Q97.55 10.35 96.5 12.05 L95.3 14.75 94.45 16.9 Q95.75 17.55 95.75 18.65 95.75 20.15 92.95 20.95 L87.7 22.7 Q87.65 24.75 85.0 24.75 82.6 24.75 81.85 22.25 81.6 21.4 81.25 18.3 L80.7 12.8 Q80.25 9.25 79.45 7.15 82.6 7.2 84.6 8.9 L88.25 7.5 Q89.35 7.2 91.65 5.95 L92.4 5.75 Q93.45 5.75 95.5 6.9 97.55 8.1 97.55 9.1 M90.4 12.4 L89.5 12.9 87.75 13.4 Q87.2 13.4 86.55 12.85 L86.8 18.45 89.25 17.4 Q90.0 16.15 90.4 12.4 M99.9 28.5 L101.35 28.25 Q102.95 28.25 104.5 28.9 106.55 29.85 106.55 31.3 106.55 33.35 104.15 34.1 L100.8 34.5 92.5 34.5 Q90.9 34.5 89.9 34.1 L89.1 33.65 Q88.05 32.8 88.05 30.6 88.05 29.45 92.25 24.25 92.75 25.85 92.75 29.6 96.6 29.55 99.9 28.5 M54.6 8.0 Q54.6 10.2 50.85 12.8 52.55 13.0 52.55 14.3 L52.15 15.3 Q51.75 15.9 50.95 16.35 L49.25 17.75 45.4 21.65 50.1 18.85 54.45 15.9 56.1 13.1 Q56.9 14.8 56.9 16.0 56.9 17.55 56.25 17.85 54.4 20.7 49.55 23.95 44.25 27.5 41.8 27.5 40.55 27.5 39.8 25.55 39.35 24.4 39.35 23.15 39.35 22.15 40.65 22.1 41.55 20.9 44.4 18.8 43.35 18.8 42.3 18.15 41.3 17.45 41.3 16.4 41.3 15.7 42.85 14.6 43.75 14.0 44.75 13.35 L46.75 11.55 Q45.4 11.4 44.55 10.85 L42.7 9.3 Q41.55 8.2 41.45 6.85 42.5 6.65 43.65 6.05 44.85 5.4 45.55 5.2 L49.4 4.8 Q50.45 4.8 52.4 5.8 54.6 6.95 54.6 8.0 M24.8 14.95 Q27.8 15.7 27.8 17.2 27.8 20.35 24.4 20.35 L22.0 20.15 19.7 20.0 18.25 20.05 17.25 20.15 17.25 30.85 Q17.25 32.55 15.35 34.1 L15.3 34.15 Q13.4 35.7 11.15 35.7 L11.0 34.1 Q10.9 31.5 11.45 28.7 10.7 32.0 10.7 21.0 9.6 21.05 6.5 22.25 3.45 23.4 1.7 23.4 -0.35 23.4 -2.45 22.25 -5.0 20.9 -5.0 18.6 L6.7 17.55 17.3 15.55 19.55 14.9 Q21.1 14.35 21.9 14.35 23.55 14.35 24.8 14.95 M12.05 3.4 Q11.25 3.5 9.9 4.35 8.6 5.15 8.6 5.95 8.6 7.3 10.1 8.0 11.8 8.8 13.6 8.8 14.6 8.8 15.4 7.95 16.25 7.1 16.25 6.15 16.25 5.25 14.9 4.85 12.25 4.25 12.05 3.4" fill="url(#gradient1)" fill-rule="evenodd" stroke="none"/>
    <path d="M13.6 -0.65 Q15.0 -0.25 16.0 0.95 L16.45 1.25 Q19.4 2.0 20.7 4.65 21.6 6.45 20.1 7.5 L19.35 7.45 Q18.75 6.85 19.25 6.2 19.25 5.0 18.25 4.15 L17.4 3.5 Q15.35 3.05 13.95 1.7 13.15 1.0 12.95 0.05 12.8 -0.35 13.25 -0.55 L13.6 -0.65 M59.85 -2.6 Q63.85 -1.95 64.25 1.9 64.35 3.0 63.6 3.6 L62.9 3.55 Q62.3 2.9 62.35 1.9 62.45 0.7 61.45 0.0 L59.2 -1.5 Q59.0 -1.6 59.05 -1.85 59.2 -2.55 59.85 -2.6 M101.4 -1.9 Q105.2 -1.25 105.05 2.5 105.05 3.4 104.3 4.0 103.35 4.75 103.05 3.65 102.9 3.0 103.3 2.5 L103.55 2.15 Q103.1 0.0 100.8 -0.7 L100.6 -1.0 Q100.55 -1.8 101.4 -1.9 M180.45 -2.3 Q180.65 -2.65 181.05 -2.7 184.95 -3.1 186.7 0.1 187.7 1.85 186.95 3.5 186.85 3.75 186.6 3.65 185.5 3.35 185.45 2.1 185.25 -0.15 183.1 -0.7 L180.95 -1.2 Q179.9 -1.4 180.45 -2.3 M223.85 -2.2 Q228.0 -1.4 227.85 2.8 L227.45 6.9 Q227.4 7.35 226.9 7.25 225.8 7.05 225.95 5.8 226.15 3.65 225.8 1.55 225.55 -0.2 223.75 -0.65 222.7 -0.9 223.25 -1.8 223.45 -2.15 223.85 -2.2 M217.2 9.25 Q216.15 9.4 215.5 8.35 L214.8 7.9 213.75 7.55 Q212.7 6.9 213.7 6.2 L214.0 6.05 Q217.15 5.95 217.55 8.8 217.6 9.2 217.2 9.25 M172.7 11.1 Q171.75 11.25 171.25 10.3 170.9 9.45 170.05 8.95 168.6 9.1 169.0 7.8 169.15 7.25 169.7 7.25 172.55 7.65 173.2 10.4 173.35 11.0 172.7 11.1 M177.45 9.35 Q176.15 8.85 177.05 7.9 177.25 7.7 177.45 7.65 179.55 8.1 179.3 10.3 179.15 11.75 177.9 10.85 177.6 10.65 177.65 10.25 L177.65 9.75 177.65 9.7 177.5 9.5 177.45 9.35 M143.8 8.75 L143.25 7.85 Q142.85 7.35 143.3 6.9 L143.85 6.7 Q145.75 7.1 145.6 9.05 145.5 10.0 144.6 9.65 144.05 9.4 143.8 8.75 M143.95 1.6 Q143.35 3.45 141.6 2.8 141.25 2.7 141.3 2.35 141.45 1.55 142.3 1.25 140.65 0.25 138.55 0.6 138.1 0.7 138.05 0.25 137.85 -1.15 139.6 -1.0 142.6 -1.55 143.9 0.85 144.1 1.2 143.95 1.6 M94.6 10.0 L94.45 9.4 94.45 9.3 Q93.2 8.9 92.45 8.05 92.25 7.85 92.45 7.55 92.65 7.1 93.15 7.1 96.35 7.35 96.35 10.3 96.35 11.1 95.9 11.6 94.9 12.65 94.45 11.35 94.3 10.9 94.6 10.5 L94.6 10.0 M46.0 6.65 Q45.75 6.3 46.05 5.95 46.3 5.6 46.7 5.6 49.75 5.45 52.45 6.7 53.5 7.15 52.9 8.0 52.45 8.75 51.7 8.25 50.1 7.2 48.1 7.45 46.75 7.6 46.0 6.65" fill="#ffffff" fill-rule="evenodd" stroke="none"/>
  </g>
  <defs>
    <linearGradient gradientTransform="matrix(-2.0E-4, -0.0228, 0.0241, -2.0E-4, 59.55, 16.25)" gradientUnits="userSpaceOnUse" id="gradient0" spreadMethod="pad" x1="-819.2" x2="819.2">
      <stop offset="0.0" stop-color="#ff8000"/>
      <stop offset="0.29411764705882354" stop-color="#ff5900"/>
      <stop offset="1.0" stop-color="#d30101"/>
    </linearGradient>
    <linearGradient gradientTransform="matrix(-2.0E-4, -0.0228, 0.0241, -2.0E-4, 59.55, 16.25)" gradientUnits="userSpaceOnUse" id="gradient1" spreadMethod="pad" x1="-819.2" x2="819.2">
      <stop offset="0.0" stop-color="#ff8000"/>
      <stop offset="0.29411764705882354" stop-color="#ff5900"/>
      <stop offset="1.0" stop-color="#d30101"/>
    </linearGradient>
  </defs>
</svg>
