<?xml version="1.0" encoding="UTF-8" standalone="no"?>
<svg xmlns:xlink="http://www.w3.org/1999/xlink" height="12.7px" width="12.7px" xmlns="http://www.w3.org/2000/svg">
  <g transform="matrix(1.0, 0.0, 0.0, 1.0, 0.5, 0.5)">
    <path d="M11.7 9.9 Q11.35 11.8 9.75 11.7 L1.7 11.7 Q0.05 11.6 0.0 9.9 L0.0 1.45 Q-0.15 0.15 1.45 0.0 L10.0 0.0 Q11.65 0.0 11.7 2.0 L11.7 9.9" fill="url(#gradient0)" fill-rule="evenodd" stroke="none"/>
    <path d="M11.7 9.9 Q11.35 11.8 9.75 11.7 L1.7 11.7 Q0.05 11.6 0.0 9.9 L0.0 1.45 Q-0.15 0.15 1.45 0.0 L10.0 0.0 Q11.65 0.0 11.7 2.0 L11.7 9.9 Z" fill="none" stroke="#6699ff" stroke-linecap="round" stroke-linejoin="round" stroke-width="1.0"/>
    <path d="M5.45 2.7 L5.25 2.7 Q3.25 2.7 2.6 5.7 L2.4 5.6 2.35 5.65 Q1.4 6.25 1.45 4.7 1.45 2.4 2.65 1.75 3.4 1.1 4.7 1.1 5.7 1.1 5.75 2.0 L5.65 2.4 5.45 2.7" fill="#ffffff" fill-opacity="0.5137255" fill-rule="evenodd" stroke="none"/>
  </g>
  <defs>
    <linearGradient gradientTransform="matrix(-1.0E-4, -0.0059, 0.0072, -1.0E-4, 5.85, 6.05)" gradientUnits="userSpaceOnUse" id="gradient0" spreadMethod="pad" x1="-819.2" x2="819.2">
      <stop offset="0.0" stop-color="#92b3fe"/>
      <stop offset="0.2901960784313726" stop-color="#5689fe"/>
      <stop offset="1.0" stop-color="#2f01a9"/>
    </linearGradient>
  </defs>
</svg>
