<?xml version="1.0" encoding="UTF-8" standalone="no"?>
<svg xmlns:xlink="http://www.w3.org/1999/xlink" height="45.05px" width="241.3px" xmlns="http://www.w3.org/2000/svg">
  <g transform="matrix(1.0, 0.0, 0.0, 1.0, 371.55, 60.3)">
    <path d="M-278.95 -60.3 Q-284.4 -59.05 -289.0 -56.7 -298.1 -52.05 -298.55 -45.65 L-298.9 -44.8 -299.65 -44.25 -300.7 -44.05 -323.85 -45.2 Q-341.85 -45.2 -354.45 -43.1 L-354.55 -43.1 Q-365.5 -41.15 -365.9 -39.3 -365.5 -37.6 -354.55 -35.75 L-354.45 -35.75 Q-341.85 -33.55 -323.85 -33.5 L-306.1 -34.15 -304.9 -33.8 -304.25 -32.8 Q-302.45 -26.95 -281.0 -22.3 -256.65 -16.95 -222.0 -16.9 -187.45 -16.95 -162.85 -22.3 -140.15 -27.2 -139.65 -33.5 L-140.3 -36.15 -139.85 -36.95 -139.0 -37.5 Q-132.6 -39.15 -132.15 -41.0 -132.55 -43.05 -139.35 -44.8 -147.65 -46.9 -159.3 -46.85 L-170.4 -46.35 Q-192.55 -50.2 -222.0 -50.2 L-231.55 -50.05 -232.45 -50.2 -233.2 -50.85 Q-235.6 -54.1 -240.6 -56.7 -245.3 -59.05 -250.85 -60.3 L-244.9 -60.3 Q-242.2 -59.35 -239.75 -58.1 -234.25 -55.3 -231.55 -51.7 L-222.0 -51.8 Q-192.4 -51.9 -170.15 -48.0 L-159.3 -48.55 Q-147.35 -48.55 -138.85 -46.35 -130.35 -44.1 -130.25 -41.0 -130.4 -38.0 -138.35 -35.9 L-137.75 -33.5 Q-137.8 -26.0 -162.35 -20.65 -187.15 -15.3 -222.0 -15.25 -256.8 -15.3 -281.35 -20.65 -304.4 -25.65 -306.0 -32.45 L-323.85 -31.85 Q-342.15 -31.85 -354.85 -34.15 -367.8 -36.35 -367.8 -39.3 -367.8 -42.5 -354.85 -44.7 L-323.85 -46.85 -300.45 -45.7 Q-300.05 -52.9 -289.95 -58.1 L-284.8 -60.3 -278.95 -60.3 M-367.35 -48.1 Q-371.55 -49.25 -371.55 -51.0 -371.55 -52.75 -367.35 -53.95 -363.35 -55.2 -357.5 -55.1 -351.7 -55.2 -347.55 -53.95 -343.5 -52.75 -343.4 -51.0 -343.5 -49.25 -347.55 -48.1 -351.7 -46.9 -357.5 -46.85 -363.35 -46.9 -367.35 -48.1 M-369.65 -51.0 Q-369.35 -50.4 -366.75 -49.7 -362.95 -48.55 -357.5 -48.55 -352.05 -48.55 -348.1 -49.7 -345.7 -50.4 -345.3 -51.0 -345.7 -51.7 -348.1 -52.4 L-357.5 -53.45 -366.75 -52.4 Q-369.35 -51.7 -369.65 -51.0" fill="#ffffff" fill-opacity="0.23137255" fill-rule="evenodd" stroke="none"/>
    <path d="M-369.65 -51.0 Q-369.35 -51.7 -366.75 -52.4 L-357.5 -53.45 -348.1 -52.4 Q-345.7 -51.7 -345.3 -51.0 -345.7 -50.4 -348.1 -49.7 -352.05 -48.55 -357.5 -48.55 -362.95 -48.55 -366.75 -49.7 -369.35 -50.4 -369.65 -51.0" fill="#ffffff" fill-opacity="0.4627451" fill-rule="evenodd" stroke="none"/>
    <path d="M-250.85 -60.3 Q-245.3 -59.05 -240.6 -56.7 -235.6 -54.1 -233.2 -50.85 L-232.45 -50.2 -231.55 -50.05 -222.0 -50.2 Q-192.55 -50.2 -170.4 -46.35 L-159.3 -46.85 Q-147.65 -46.9 -139.35 -44.8 -132.55 -43.05 -132.15 -41.0 -132.6 -39.15 -139.0 -37.5 L-139.85 -36.95 -140.3 -36.15 -139.65 -33.5 Q-140.15 -27.2 -162.85 -22.3 -187.45 -16.95 -222.0 -16.9 -256.65 -16.95 -281.0 -22.3 -302.45 -26.95 -304.25 -32.8 L-304.9 -33.8 -306.1 -34.15 -323.85 -33.5 Q-341.85 -33.55 -354.45 -35.75 L-354.55 -35.75 Q-365.5 -37.6 -365.9 -39.3 -365.5 -41.15 -354.55 -43.1 L-354.45 -43.1 Q-341.85 -45.2 -323.85 -45.2 L-300.7 -44.05 -299.65 -44.25 -298.9 -44.8 -298.55 -45.65 Q-298.1 -52.05 -289.0 -56.7 -284.4 -59.05 -278.95 -60.3 L-250.85 -60.3" fill="#ffffff" fill-opacity="0.6627451" fill-rule="evenodd" stroke="none"/>
  </g>
</svg>
