<?xml version="1.0" encoding="UTF-8" standalone="no"?>
<svg xmlns:xlink="http://www.w3.org/1999/xlink" height="73.05px" width="300.45px" xmlns="http://www.w3.org/2000/svg">
  <g transform="matrix(1.0, 0.0, 0.0, 1.0, 35.4, 202.4)">
    <path d="M262.7 -187.25 Q262.25 -188.45 259.15 -189.6 L247.6 -191.25 235.9 -189.6 Q232.8 -188.45 232.35 -187.25 232.8 -186.25 235.9 -185.15 240.75 -183.3 247.6 -183.3 254.3 -183.3 259.15 -185.15 262.25 -186.25 262.7 -187.25 M259.85 -192.1 Q265.05 -190.1 265.05 -187.25 265.05 -184.4 259.85 -182.6 254.8 -180.6 247.6 -180.55 240.3 -180.6 235.15 -182.6 230.1 -184.4 230.0 -187.25 230.1 -190.1 235.15 -192.1 240.3 -194.1 247.6 -193.9 254.8 -194.1 259.85 -192.1 M114.75 -202.4 Q107.85 -200.35 102.0 -196.5 95.75 -192.3 92.8 -187.0 L91.85 -185.95 90.75 -185.75 78.85 -185.95 Q42.15 -186.05 14.65 -179.75 L0.75 -180.55 Q-13.8 -180.6 -24.1 -177.2 -32.6 -174.35 -33.05 -171.05 -32.6 -168.1 -24.55 -165.35 -23.95 -165.2 -23.5 -164.45 L-22.95 -163.2 -23.75 -158.95 Q-23.1 -148.7 5.2 -140.75 35.75 -132.05 78.85 -132.0 121.95 -132.05 152.3 -140.75 179.0 -148.25 181.2 -157.8 L182.05 -159.4 183.55 -159.95 205.65 -158.95 Q228.0 -158.95 243.8 -162.55 L243.9 -162.55 Q257.5 -165.5 258.0 -168.3 257.5 -171.35 243.9 -174.45 L243.8 -174.45 Q228.0 -177.9 205.65 -177.9 L176.8 -176.05 175.55 -176.35 174.6 -177.2 174.15 -178.55 Q173.55 -189.0 162.3 -196.5 156.5 -200.35 149.7 -202.4 L157.05 -202.4 163.45 -198.8 Q176.05 -190.45 176.5 -178.75 L205.65 -180.55 244.25 -177.05 Q260.35 -173.5 260.35 -168.3 260.35 -163.5 244.25 -159.95 228.35 -156.3 205.65 -156.2 L183.45 -157.25 Q181.4 -146.15 152.8 -138.05 122.2 -129.35 78.85 -129.35 35.4 -129.35 4.6 -138.05 -26.05 -146.7 -26.05 -158.95 L-25.35 -162.8 Q-35.3 -166.2 -35.4 -171.05 -35.3 -176.05 -24.7 -179.75 -14.15 -183.3 0.75 -183.3 L14.3 -182.4 Q41.9 -188.7 78.85 -188.55 L90.75 -188.4 Q94.0 -194.2 100.95 -198.8 103.95 -200.85 107.4 -202.4 L114.75 -202.4" fill="#ffffff" fill-opacity="0.23137255" fill-rule="evenodd" stroke="none"/>
    <path d="M262.7 -187.25 Q262.25 -186.25 259.15 -185.15 254.3 -183.3 247.6 -183.3 240.75 -183.3 235.9 -185.15 232.8 -186.25 232.35 -187.25 232.8 -188.45 235.9 -189.6 L247.6 -191.25 259.15 -189.6 Q262.25 -188.45 262.7 -187.25" fill="#ffffff" fill-opacity="0.4627451" fill-rule="evenodd" stroke="none"/>
    <path d="M149.7 -202.4 Q156.5 -200.35 162.3 -196.5 173.55 -189.0 174.15 -178.55 L174.6 -177.2 175.55 -176.35 176.8 -176.05 205.65 -177.9 Q228.0 -177.9 243.8 -174.45 L243.9 -174.45 Q257.5 -171.35 258.0 -168.3 257.5 -165.5 243.9 -162.55 L243.8 -162.55 Q228.0 -158.95 205.65 -158.95 L183.55 -159.95 182.05 -159.4 181.2 -157.8 Q179.0 -148.25 152.3 -140.75 121.95 -132.05 78.85 -132.0 35.75 -132.05 5.2 -140.75 -23.1 -148.7 -23.75 -158.95 L-22.95 -163.2 -23.5 -164.45 Q-23.95 -165.2 -24.55 -165.35 -32.6 -168.1 -33.05 -171.05 -32.6 -174.35 -24.1 -177.2 -13.8 -180.6 0.75 -180.55 L14.65 -179.75 Q42.15 -186.05 78.85 -185.95 L90.75 -185.75 91.85 -185.95 92.8 -187.0 Q95.75 -192.3 102.0 -196.5 107.85 -200.35 114.75 -202.4 L149.7 -202.4" fill="#ffffff" fill-opacity="0.6627451" fill-rule="evenodd" stroke="none"/>
  </g>
</svg>
