<?xml version="1.0" encoding="UTF-8" standalone="no"?>
<svg xmlns:xlink="http://www.w3.org/1999/xlink" height="177.15px" width="746.55px" xmlns="http://www.w3.org/2000/svg">
  <g transform="matrix(1.0, 0.0, 0.0, 1.0, -58.5, 202.4)">
    <path d="M179.2 -70.3 L185.15 -70.3 190.3 -68.1 Q195.8 -65.3 198.5 -61.7 L208.05 -61.8 Q237.65 -61.9 259.9 -58.0 L270.75 -58.55 Q282.7 -58.55 291.2 -56.35 299.7 -54.1 299.8 -51.0 299.65 -48.0 291.7 -45.9 L292.3 -43.5 Q292.25 -36.0 267.7 -30.65 242.9 -25.3 208.05 -25.25 173.25 -25.3 148.7 -30.65 125.65 -35.65 124.05 -42.45 L106.2 -41.85 Q87.9 -41.85 75.2 -44.15 62.25 -46.35 62.25 -49.3 62.25 -52.5 75.2 -54.7 L106.2 -56.85 129.6 -55.7 Q130.0 -62.9 140.1 -68.1 142.55 -69.35 145.25 -70.3 L151.1 -70.3 Q145.65 -69.05 141.05 -66.7 131.95 -62.05 131.5 -55.65 L131.15 -54.8 130.4 -54.25 129.35 -54.05 106.2 -55.2 Q88.2 -55.2 75.6 -53.1 L75.5 -53.1 Q64.55 -51.15 64.15 -49.3 64.55 -47.6 75.5 -45.75 L75.6 -45.75 Q88.2 -43.55 106.2 -43.5 L123.95 -44.15 125.15 -43.8 125.8 -42.8 Q127.6 -36.95 149.05 -32.3 173.4 -26.95 208.05 -26.9 242.6 -26.95 267.2 -32.3 289.9 -37.2 290.4 -43.5 L289.75 -46.15 290.2 -46.95 291.05 -47.5 Q297.45 -49.15 297.9 -51.0 297.5 -53.05 290.7 -54.8 282.4 -56.9 270.75 -56.85 L259.65 -56.35 Q237.5 -60.2 208.05 -60.2 L198.5 -60.05 197.6 -60.2 196.85 -60.85 Q194.45 -64.1 189.45 -66.7 184.75 -69.05 179.2 -70.3 M60.4 -61.0 Q60.7 -60.4 63.3 -59.7 67.1 -58.55 72.55 -58.55 78.0 -58.55 81.95 -59.7 84.35 -60.4 84.75 -61.0 84.35 -61.7 81.95 -62.4 L72.55 -63.45 63.3 -62.4 Q60.7 -61.7 60.4 -61.0 M58.5 -61.0 Q58.5 -62.75 62.7 -63.95 66.7 -65.2 72.55 -65.1 78.35 -65.2 82.5 -63.95 86.55 -62.75 86.65 -61.0 86.55 -59.25 82.5 -58.1 78.35 -56.9 72.55 -56.85 66.7 -56.9 62.7 -58.1 58.5 -59.25 58.5 -61.0" fill="#ffffff" fill-opacity="0.23137255" fill-rule="evenodd" stroke="none"/>
    <path d="M60.4 -61.0 Q60.7 -61.7 63.3 -62.4 L72.55 -63.45 81.95 -62.4 Q84.35 -61.7 84.75 -61.0 84.35 -60.4 81.95 -59.7 78.0 -58.55 72.55 -58.55 67.1 -58.55 63.3 -59.7 60.7 -60.4 60.4 -61.0" fill="#ffffff" fill-opacity="0.4627451" fill-rule="evenodd" stroke="none"/>
    <path d="M179.2 -70.3 Q184.75 -69.05 189.45 -66.7 194.45 -64.1 196.85 -60.85 L197.6 -60.2 198.5 -60.05 208.05 -60.2 Q237.5 -60.2 259.65 -56.35 L270.75 -56.85 Q282.4 -56.9 290.7 -54.8 297.5 -53.05 297.9 -51.0 297.45 -49.15 291.05 -47.5 L290.2 -46.95 289.75 -46.15 290.4 -43.5 Q289.9 -37.2 267.2 -32.3 242.6 -26.95 208.05 -26.9 173.4 -26.95 149.05 -32.3 127.6 -36.95 125.8 -42.8 L125.15 -43.8 123.95 -44.15 106.2 -43.5 Q88.2 -43.55 75.6 -45.75 L75.5 -45.75 Q64.55 -47.6 64.15 -49.3 64.55 -51.15 75.5 -53.1 L75.6 -53.1 Q88.2 -55.2 106.2 -55.2 L129.35 -54.05 130.4 -54.25 131.15 -54.8 131.5 -55.65 Q131.95 -62.05 141.05 -66.7 145.65 -69.05 151.1 -70.3 L179.2 -70.3" fill="#ffffff" fill-opacity="0.6627451" fill-rule="evenodd" stroke="none"/>
    <path d="M799.15 -189.6 L787.6 -191.25 775.9 -189.6 Q772.8 -188.45 772.35 -187.25 772.8 -186.25 775.9 -185.15 780.75 -183.3 787.6 -183.3 794.3 -183.3 799.15 -185.15 802.25 -186.25 802.7 -187.25 802.25 -188.45 799.15 -189.6 M805.05 -187.25 Q805.05 -184.4 799.85 -182.6 794.8 -180.6 787.6 -180.55 780.3 -180.6 775.15 -182.6 770.1 -184.4 770.0 -187.25 770.1 -190.1 775.15 -192.1 780.3 -194.1 787.6 -193.9 794.8 -194.1 799.85 -192.1 805.05 -190.1 805.05 -187.25 M689.7 -202.4 L697.05 -202.4 Q700.45 -200.85 703.45 -198.8 716.05 -190.45 716.5 -178.75 L745.65 -180.55 784.25 -177.05 Q800.35 -173.5 800.35 -168.3 800.35 -163.5 784.25 -159.95 768.35 -156.3 745.65 -156.2 L723.45 -157.25 Q721.4 -146.15 692.8 -138.05 662.2 -129.35 618.85 -129.35 575.4 -129.35 544.6 -138.05 513.95 -146.7 513.95 -158.95 L514.65 -162.8 Q504.7 -166.2 504.6 -171.05 504.7 -176.05 515.3 -179.75 525.85 -183.3 540.75 -183.3 L554.3 -182.4 Q581.9 -188.7 618.85 -188.55 L630.75 -188.4 Q634.0 -194.2 640.95 -198.8 643.95 -200.85 647.4 -202.4 L654.75 -202.4 Q647.85 -200.35 642.0 -196.5 635.75 -192.3 632.8 -187.0 L631.85 -185.95 630.75 -185.75 618.85 -185.95 Q582.15 -186.05 554.65 -179.75 L540.75 -180.55 Q526.2 -180.6 515.9 -177.2 507.4 -174.35 506.95 -171.05 507.4 -168.1 515.45 -165.35 516.05 -165.2 516.5 -164.45 L517.05 -163.2 516.25 -158.95 Q516.9 -148.7 545.2 -140.75 575.75 -132.05 618.85 -132.0 661.95 -132.05 692.3 -140.75 719.0 -148.25 721.2 -157.8 L722.05 -159.4 723.55 -159.95 745.65 -158.95 Q768.0 -158.95 783.8 -162.55 L783.9 -162.55 Q797.5 -165.5 798.0 -168.3 797.5 -171.35 783.9 -174.45 L783.8 -174.45 Q768.0 -177.9 745.65 -177.9 L716.8 -176.05 715.55 -176.35 714.6 -177.2 714.15 -178.55 Q713.55 -189.0 702.3 -196.5 696.5 -200.35 689.7 -202.4" fill="#ffffff" fill-opacity="0.23137255" fill-rule="evenodd" stroke="none"/>
    <path d="M799.15 -189.6 Q802.25 -188.45 802.7 -187.25 802.25 -186.25 799.15 -185.15 794.3 -183.3 787.6 -183.3 780.75 -183.3 775.9 -185.15 772.8 -186.25 772.35 -187.25 772.8 -188.45 775.9 -189.6 L787.6 -191.25 799.15 -189.6" fill="#ffffff" fill-opacity="0.4627451" fill-rule="evenodd" stroke="none"/>
    <path d="M689.7 -202.4 Q696.5 -200.35 702.3 -196.5 713.55 -189.0 714.15 -178.55 L714.6 -177.2 715.55 -176.35 716.8 -176.05 745.65 -177.9 Q768.0 -177.9 783.8 -174.45 L783.9 -174.45 Q797.5 -171.35 798.0 -168.3 797.5 -165.5 783.9 -162.55 L783.8 -162.55 Q768.0 -158.95 745.65 -158.95 L723.55 -159.95 722.05 -159.4 721.2 -157.8 Q719.0 -148.25 692.3 -140.75 661.95 -132.05 618.85 -132.0 575.75 -132.05 545.2 -140.75 516.9 -148.7 516.25 -158.95 L517.05 -163.2 516.5 -164.45 Q516.05 -165.2 515.45 -165.35 507.4 -168.1 506.95 -171.05 507.4 -174.35 515.9 -177.2 526.2 -180.6 540.75 -180.55 L554.65 -179.75 Q582.15 -186.05 618.85 -185.95 L630.75 -185.75 631.85 -185.95 632.8 -187.0 Q635.75 -192.3 642.0 -196.5 647.85 -200.35 654.75 -202.4 L689.7 -202.4" fill="#ffffff" fill-opacity="0.6627451" fill-rule="evenodd" stroke="none"/>
  </g>
</svg>
