<?xml version="1.0" encoding="UTF-8" standalone="no"?>
<svg xmlns:xlink="http://www.w3.org/1999/xlink" height="36.75px" width="119.65px" xmlns="http://www.w3.org/2000/svg">
  <g transform="matrix(1.0, 0.0, 0.0, 1.0, -227.95, -124.9)">
    <path d="M236.55 125.55 Q238.45 124.9 240.6 124.9 L334.95 124.9 Q337.1 124.9 339.05 125.55 L236.55 125.55 339.05 125.55 Q341.75 126.45 343.9 128.65 347.6 132.3 347.6 137.6 L347.6 149.0 Q347.6 154.25 343.9 157.95 340.2 161.65 334.95 161.65 L240.6 161.65 Q235.35 161.65 231.65 157.95 227.95 154.25 227.95 149.0 L227.95 137.6 Q227.95 132.3 231.65 128.65 233.8 126.45 236.55 125.55 M336.85 155.65 L238.1 155.65 336.85 155.65 M336.85 152.15 L238.1 152.15 336.85 152.15 M336.85 153.15 L238.1 153.15 336.85 153.15 M336.85 156.65 L238.1 156.65 336.85 156.65 M336.85 139.5 L238.1 139.5 336.85 139.5 M336.85 147.7 L238.1 147.7 336.85 147.7 M336.85 143.9 L238.1 143.9 336.85 143.9" fill="#333333" fill-rule="evenodd" stroke="none"/>
    <path d="M339.05 125.55 L341.3 125.55 M236.55 125.55 L339.05 125.55 M236.55 125.55 L233.65 125.55 M238.1 152.15 L336.85 152.15 M238.1 155.65 L336.85 155.65 M238.1 143.9 L336.85 143.9 M238.1 147.7 L336.85 147.7 M238.1 139.5 L336.85 139.5" fill="none" stroke="#999999" stroke-linecap="round" stroke-linejoin="round" stroke-width="0.5"/>
    <path d="M238.1 156.65 L336.85 156.65 M238.1 153.15 L336.85 153.15" fill="none" stroke="#666666" stroke-linecap="round" stroke-linejoin="round" stroke-width="0.5"/>
  </g>
</svg>
