<?xml version="1.0" encoding="UTF-8" standalone="no"?>
<svg xmlns:xlink="http://www.w3.org/1999/xlink" height="30.2px" width="30.2px" xmlns="http://www.w3.org/2000/svg">
  <g transform="matrix(1.0, 0.0, 0.0, 1.0, 15.1, 15.1)">
    <path d="M10.3 -10.35 Q14.6 -6.05 14.6 0.0 14.6 6.05 10.3 10.3 6.05 14.6 0.0 14.6 -6.05 14.6 -10.35 10.3 -14.6 6.05 -14.6 0.0 -14.6 -6.05 -10.35 -10.35 -6.05 -14.6 0.0 -14.6 6.05 -14.6 10.3 -10.35" fill="#333333" fill-rule="evenodd" stroke="none"/>
    <path d="M10.3 -10.35 Q14.6 -6.05 14.6 0.0 14.6 6.05 10.3 10.3 6.05 14.6 0.0 14.6 -6.05 14.6 -10.35 10.3 -14.6 6.05 -14.6 0.0 -14.6 -6.05 -10.35 -10.35 -6.05 -14.6 0.0 -14.6 6.05 -14.6 10.3 -10.35 Z" fill="none" stroke="#000000" stroke-linecap="round" stroke-linejoin="round" stroke-width="1.0"/>
  </g>
</svg>
