<?xml version="1.0" encoding="UTF-8" standalone="no"?>
<svg xmlns:xlink="http://www.w3.org/1999/xlink" height="259.35px" width="2234.2px" xmlns="http://www.w3.org/2000/svg">
  <g transform="matrix(1.0, 0.0, 0.0, 1.0, 760.15, 88.25)">
    <path d="M-667.8 -12.75 Q-634.0 -57.95 -584.85 -72.05 -533.2 -76.65 -544.4 -64.45 L-618.7 -16.55 Q-633.25 -7.6 -667.8 -12.75" fill="url(#gradient0)" fill-rule="evenodd" stroke="none"/>
    <path d="M-584.85 -72.05 Q-569.15 -85.9 -521.55 -88.25 L253.55 -87.85 1472.55 -88.25 1472.55 -13.9 -376.15 -13.9 -407.8 -13.9 -429.1 -13.25 -444.4 -12.25 Q-465.3 -10.55 -483.75 -7.1 -572.75 9.55 -603.65 66.75 -603.8 77.05 -592.85 75.55 L1472.55 75.55 1472.55 89.2 -611.1 89.2 Q-635.5 89.5 -647.5 103.6 -661.7 117.4 -733.1 113.1 -738.25 110.45 -742.4 107.6 -745.45 105.55 -747.9 103.4 -764.0 89.5 -758.95 71.1 -749.7 36.95 -667.8 -12.75 -633.25 -7.6 -618.7 -16.55 L-544.4 -64.45 Q-533.2 -76.65 -584.85 -72.05 M-429.1 -13.25 L-429.1 -44.55 Q-429.1 -50.75 -424.7 -55.1 -420.35 -59.5 -414.15 -59.45 L-391.0 -59.45 Q-384.85 -59.5 -380.5 -55.1 -376.15 -50.75 -376.15 -44.55 L-376.15 -13.9 -376.15 -44.55 Q-376.15 -50.75 -380.5 -55.1 -384.85 -59.5 -391.0 -59.45 L-414.15 -59.45 Q-420.35 -59.5 -424.7 -55.1 -429.1 -50.75 -429.1 -44.55 L-429.1 -13.25" fill="url(#gradient1)" fill-rule="evenodd" stroke="none"/>
    <path d="M1472.55 -13.9 L1472.55 75.55 -592.85 75.55 Q-603.8 77.05 -603.65 66.75 -572.75 9.55 -483.75 -7.1 -465.3 -10.55 -444.4 -12.25 L-429.1 -13.25 -407.8 -13.9 -376.15 -13.9 1472.55 -13.9 M-429.1 60.6 L-429.1 -13.25 -429.1 60.6 M-376.15 -13.9 L-376.15 60.6 -376.15 -13.9" fill="url(#gradient2)" fill-rule="evenodd" stroke="none"/>
    <path d="M1472.55 122.5 L1471.0 164.05 480.55 164.4 453.5 148.55 112.2 149.0 91.9 165.75 -102.0 165.75 -137.0 149.75 -489.8 149.75 -530.75 171.1 -753.65 171.1 -709.65 122.5 1472.55 122.5" fill="url(#gradient3)" fill-rule="evenodd" stroke="none"/>
    <path d="M1472.55 89.2 L1472.55 122.5 -709.65 122.5 Q-723.2 118.15 -733.1 113.1 -661.7 117.4 -647.5 103.6 -635.5 89.5 -611.1 89.2 L1472.55 89.2" fill="url(#gradient4)" fill-rule="evenodd" stroke="none"/>
    <path d="M-584.85 -72.05 Q-533.2 -76.65 -544.4 -64.45 L-618.7 -16.55 Q-633.25 -7.6 -667.8 -12.75 M-376.15 -13.9 L-376.15 -44.55 Q-376.15 -50.75 -380.5 -55.1 -384.85 -59.5 -391.0 -59.45 L-414.15 -59.45 Q-420.35 -59.5 -424.7 -55.1 -429.1 -50.75 -429.1 -44.55 L-429.1 -13.25 -429.1 60.6 M-376.15 60.6 L-376.15 -13.9" fill="none" stroke="#666666" stroke-linecap="round" stroke-linejoin="round" stroke-width="1.0"/>
    <path d="M-429.1 -13.25 L-407.8 -13.9 -376.15 -13.9 1472.55 -13.9 M-429.1 -13.25 L-444.4 -12.25 Q-465.3 -10.55 -483.75 -7.1 -572.75 9.55 -603.65 66.75 -603.8 77.05 -592.85 75.55 L1472.55 75.55" fill="none" stroke="#999999" stroke-linecap="round" stroke-linejoin="round" stroke-width="1.0"/>
    <path d="M1472.55 89.2 L-611.1 89.2 Q-635.5 89.5 -647.5 103.6 -661.7 117.4 -733.1 113.1" fill="none" stroke="#999999" stroke-linecap="round" stroke-linejoin="round" stroke-width="3.0"/>
  </g>
  <defs>
    <linearGradient gradientTransform="matrix(0.0275, 0.0269, -0.0266, 0.0272, -609.2, -44.0)" gradientUnits="userSpaceOnUse" id="gradient0" spreadMethod="pad" x1="-819.2" x2="819.2">
      <stop offset="0.6980392156862745" stop-color="#6792f1"/>
      <stop offset="0.7058823529411765" stop-color="#ffffff"/>
      <stop offset="0.7372549019607844" stop-color="#ffffff"/>
      <stop offset="0.7450980392156863" stop-color="#6792f1"/>
      <stop offset="0.8313725490196079" stop-color="#6792f1"/>
      <stop offset="0.8392156862745098" stop-color="#135bd2"/>
    </linearGradient>
    <linearGradient gradientTransform="matrix(-1.0E-4, -0.0595, 0.1236, -2.0E-4, 365.7, -61.0)" gradientUnits="userSpaceOnUse" id="gradient1" spreadMethod="pad" x1="-819.2" x2="819.2">
      <stop offset="0.5725490196078431" stop-color="#ffffff"/>
      <stop offset="0.7803921568627451" stop-color="#bec9d8"/>
    </linearGradient>
    <linearGradient gradientTransform="matrix(0.0, 0.0555, -0.0547, 0.0, -59.15, 30.2)" gradientUnits="userSpaceOnUse" id="gradient2" spreadMethod="pad" x1="-819.2" x2="819.2">
      <stop offset="0.6980392156862745" stop-color="#6792f1"/>
      <stop offset="0.7058823529411765" stop-color="#ffffff"/>
      <stop offset="0.7372549019607844" stop-color="#ffffff"/>
      <stop offset="0.7450980392156863" stop-color="#6792f1"/>
      <stop offset="0.8313725490196079" stop-color="#6792f1"/>
      <stop offset="0.8392156862745098" stop-color="#135bd2"/>
    </linearGradient>
    <linearGradient gradientTransform="matrix(0.1195, 0.0864, -0.0173, 0.0239, -958.35, 669.6)" gradientUnits="userSpaceOnUse" id="gradient3" spreadMethod="pad" x1="-819.2" x2="819.2">
      <stop offset="0.0" stop-color="#3a76b1"/>
      <stop offset="0.2823529411764706" stop-color="#64a7d7"/>
      <stop offset="0.3333333333333333" stop-color="#347dc5"/>
      <stop offset="0.3843137254901961" stop-color="#0a3870"/>
    </linearGradient>
    <linearGradient gradientTransform="matrix(0.0, 0.0221, -0.0203, 0.0, 63.75, 104.45)" gradientUnits="userSpaceOnUse" id="gradient4" spreadMethod="pad" x1="-819.2" x2="819.2">
      <stop offset="0.5725490196078431" stop-color="#6792f1"/>
      <stop offset="0.9215686274509803" stop-color="#073058"/>
    </linearGradient>
  </defs>
</svg>
