<?xml version="1.0" encoding="UTF-8" standalone="no"?>
<svg xmlns:xlink="http://www.w3.org/1999/xlink" height="21.7px" width="21.65px" xmlns="http://www.w3.org/2000/svg">
  <g transform="matrix(1.0, 0.0, 0.0, 1.0, -62.2, -29.4)">
    <path d="M82.3 30.95 Q83.35 32.0 83.35 33.55 L83.35 46.95 Q83.35 48.45 82.3 49.5 81.25 50.55 79.75 50.6 L66.3 50.6 Q64.8 50.55 63.75 49.5 62.65 48.45 62.7 46.95 L62.7 33.55 Q62.65 32.0 63.75 30.95 64.8 29.9 66.3 29.9 L79.75 29.9 Q81.25 29.9 82.3 30.95" fill="#6b6f94" fill-rule="evenodd" stroke="none"/>
    <path d="M82.3 30.95 Q81.25 29.9 79.75 29.9 L66.3 29.9 Q64.8 29.9 63.75 30.95 62.65 32.0 62.7 33.55 L62.7 46.95 Q62.65 48.45 63.75 49.5 64.8 50.55 66.3 50.6 L79.75 50.6 Q81.25 50.55 82.3 49.5 83.35 48.45 83.35 46.95 L83.35 33.55 Q83.35 32.0 82.3 30.95 Z" fill="none" stroke="#999999" stroke-linecap="round" stroke-linejoin="round" stroke-width="1.0"/>
  </g>
</svg>
