<?xml version="1.0" encoding="UTF-8" standalone="no"?>
<svg xmlns:xlink="http://www.w3.org/1999/xlink" height="17.1px" width="22.1px" xmlns="http://www.w3.org/2000/svg">
  <g transform="matrix(1.0, 0.0, 0.0, 1.0, 0.5, 0.5)">
    <path d="M5.4 15.1 L3.1 13.75 Q0.0 11.4 0.0 8.05 0.0 4.7 3.1 2.35 4.1 1.6 5.25 1.1 14.3 6.3 5.4 15.1" fill="url(#gradient0)" fill-rule="evenodd" stroke="none"/>
    <path d="M5.25 1.1 Q7.6 0.0 10.55 0.0 14.25 0.0 17.05 1.7 L16.7 1.65 Q15.5 1.65 14.65 3.55 13.85 5.4 13.85 8.05 13.85 10.7 14.65 12.6 15.5 14.45 16.7 14.45 L17.05 14.4 Q14.25 16.1 10.55 16.1 7.7 16.1 5.4 15.1 14.3 6.3 5.25 1.1" fill="url(#gradient1)" fill-rule="evenodd" stroke="none"/>
    <path d="M17.05 1.7 L17.9 2.3 18.0 2.35 Q21.1 4.7 21.1 8.05 21.1 11.4 18.0 13.75 L17.9 13.85 17.05 14.4 16.7 14.45 Q15.5 14.45 14.65 12.6 13.85 10.7 13.85 8.05 13.85 5.4 14.65 3.55 15.5 1.65 16.7 1.65 L17.05 1.7" fill="#040404" fill-rule="evenodd" stroke="none"/>
    <path d="M17.9 2.3 L18.0 2.35 17.9 2.3 M18.0 13.75 L17.9 13.85 18.0 13.75" fill="url(#gradient2)" fill-rule="evenodd" stroke="none"/>
    <path d="M5.4 15.1 L3.1 13.75 Q0.0 11.4 0.0 8.05 0.0 4.7 3.1 2.35 4.1 1.6 5.25 1.1 7.6 0.0 10.55 0.0 14.25 0.0 17.05 1.7 L17.9 2.3 18.0 2.35 Q21.1 4.7 21.1 8.05 21.1 11.4 18.0 13.75 L17.9 13.85 17.05 14.4 Q14.25 16.1 10.55 16.1 7.7 16.1 5.4 15.1 Z" fill="none" stroke="#9f9f9f" stroke-linecap="round" stroke-linejoin="round" stroke-width="1.0"/>
    <path d="M10.45 10.7 Q9.15 12.0 7.35 12.0 5.6 12.0 4.3 10.7 3.0 9.45 3.0 7.65 3.0 5.85 4.3 4.55 5.6 3.3 7.35 3.3 9.15 3.3 10.45 4.55 11.7 5.85 11.7 7.65 11.7 9.45 10.45 10.7" fill="url(#gradient3)" fill-rule="evenodd" stroke="none"/>
  </g>
  <defs>
    <linearGradient gradientTransform="matrix(0.0, -0.0079, 0.006, 0.0, 4.9, 7.95)" gradientUnits="userSpaceOnUse" id="gradient0" spreadMethod="pad" x1="-819.2" x2="819.2">
      <stop offset="0.0" stop-color="#575757"/>
      <stop offset="0.16862745098039217" stop-color="#c2c2c2"/>
      <stop offset="0.23921568627450981" stop-color="#676767"/>
      <stop offset="0.33725490196078434" stop-color="#acacac"/>
      <stop offset="0.5686274509803921" stop-color="#767676"/>
      <stop offset="0.7294117647058823" stop-color="#a92c2c"/>
      <stop offset="0.8941176470588236" stop-color="#8e8e8e"/>
      <stop offset="1.0" stop-color="#040404"/>
    </linearGradient>
    <linearGradient gradientTransform="matrix(0.0, 0.0097, -0.0098, 0.0, 13.15, 8.05)" gradientUnits="userSpaceOnUse" id="gradient1" spreadMethod="pad" x1="-819.2" x2="819.2">
      <stop offset="0.0" stop-color="#040404"/>
      <stop offset="0.07058823529411765" stop-color="#757575"/>
      <stop offset="0.21176470588235294" stop-color="#000000"/>
      <stop offset="0.3803921568627451" stop-color="#000000"/>
      <stop offset="0.596078431372549" stop-color="#0b0b0b"/>
      <stop offset="0.7607843137254902" stop-color="#000000"/>
      <stop offset="0.9215686274509803" stop-color="#7b7b7b"/>
      <stop offset="1.0" stop-color="#050505"/>
    </linearGradient>
    <linearGradient gradientTransform="matrix(0.0, 0.0097, -0.0098, 0.0, 13.15, 8.05)" gradientUnits="userSpaceOnUse" id="gradient2" spreadMethod="pad" x1="-819.2" x2="819.2">
      <stop offset="0.0" stop-color="#040404"/>
      <stop offset="0.07058823529411765" stop-color="#757575"/>
      <stop offset="0.1843137254901961" stop-color="#919191"/>
      <stop offset="0.3803921568627451" stop-color="#000000"/>
      <stop offset="0.596078431372549" stop-color="#0b0b0b"/>
      <stop offset="0.796078431372549" stop-color="#919191"/>
      <stop offset="0.9215686274509803" stop-color="#7b7b7b"/>
      <stop offset="1.0" stop-color="#050505"/>
    </linearGradient>
    <radialGradient cx="0" cy="0" gradientTransform="matrix(0.0056, 0.0, 0.0, 0.0056, 7.35, 7.65)" gradientUnits="userSpaceOnUse" id="gradient3" r="819.2" spreadMethod="pad">
      <stop offset="0.2549019607843137" stop-color="#ff6c00"/>
      <stop offset="1.0" stop-color="#ff7a18" stop-opacity="0.0"/>
    </radialGradient>
  </defs>
</svg>
