<?xml version="1.0" encoding="UTF-8" standalone="no"?>
<svg xmlns:xlink="http://www.w3.org/1999/xlink" height="45.3px" width="539.8px" xmlns="http://www.w3.org/2000/svg">
  <g transform="matrix(1.0, 0.0, 0.0, 1.0, 303.05, 0.85)">
    <path d="M66.5 -0.45 Q67.95 -0.45 68.85 0.45 69.7 1.35 69.7 2.5 69.7 3.75 68.85 4.6 67.95 5.5 66.5 5.5 L37.05 5.5 Q35.6 5.5 34.75 4.6 33.9 3.75 33.9 2.5 33.9 1.3 34.75 0.45 35.6 -0.45 37.05 -0.45 L66.5 -0.45 M233.3 23.25 Q233.3 32.2 218.6 32.7 L218.6 36.0 233.5 36.0 Q235.05 36.0 235.9 36.95 236.75 37.9 236.75 39.2 236.75 40.45 235.9 41.4 235.05 42.35 233.5 42.35 L197.25 42.35 Q195.75 42.35 194.9 41.4 194.05 40.45 194.05 39.2 194.05 37.9 194.9 36.95 195.75 36.0 197.25 36.0 L212.2 36.0 212.2 32.75 Q197.5 32.2 197.5 23.25 197.5 17.3 203.9 15.25 208.2 13.8 215.4 13.8 222.55 13.8 226.9 15.25 233.3 17.3 233.3 23.25 M226.45 22.1 Q224.6 20.15 215.4 20.15 206.2 20.15 204.35 22.1 203.9 22.55 203.9 23.25 203.9 26.45 215.4 26.45 226.9 26.45 226.9 23.25 226.9 22.55 226.45 22.1 M233.8 8.05 Q233.8 9.3 232.95 10.3 232.1 11.25 230.6 11.25 L200.2 11.25 Q198.7 11.25 197.85 10.3 197.0 9.35 197.0 8.05 197.0 6.8 197.85 5.8 198.7 4.85 200.2 4.85 L212.2 4.85 212.2 3.15 Q212.2 1.65 213.15 0.8 214.15 -0.05 215.4 -0.05 216.65 -0.05 217.6 0.8 218.6 1.65 218.6 3.15 L218.6 4.85 230.6 4.85 Q232.1 4.85 232.95 5.85 233.8 6.8 233.8 8.05 M144.15 2.35 Q144.15 0.8 145.1 0.0 146.1 -0.85 147.35 -0.85 148.65 -0.85 149.6 0.0 150.55 0.85 150.55 2.35 L150.55 18.55 Q150.55 20.0 149.6 20.85 148.65 21.7 147.35 21.7 146.05 21.7 145.1 20.85 144.15 20.0 144.15 18.55 L144.15 2.35 M138.05 10.65 Q138.05 15.35 134.55 18.55 131.1 21.7 126.25 21.7 121.45 21.7 118.0 18.55 114.5 15.4 114.5 10.65 114.5 5.9 117.9 3.05 121.5 -0.4 126.25 -0.4 131.1 -0.4 134.65 3.05 138.05 5.95 138.05 10.65 M122.55 7.1 Q120.9 8.45 120.9 10.65 120.9 12.8 122.75 14.3 124.05 15.25 126.25 15.25 128.5 15.25 130.1 14.05 131.65 12.8 131.65 10.65 131.65 8.45 129.95 7.05 128.5 5.95 126.25 5.95 124.05 5.95 122.55 7.1 M122.35 38.1 L148.55 38.1 Q149.95 38.1 150.7 39.0 151.5 39.9 151.5 41.05 151.5 42.2 150.7 43.05 149.95 44.0 148.55 44.0 L118.9 44.0 Q115.95 44.0 115.95 41.05 L115.95 33.2 Q115.95 30.25 118.9 30.25 L144.15 30.25 144.15 28.3 118.85 28.3 Q117.5 28.3 116.7 27.4 115.95 26.5 115.95 25.35 115.95 24.2 116.75 23.3 117.5 22.4 118.85 22.4 L147.6 22.4 Q150.55 22.4 150.55 25.35 L150.55 33.2 Q150.55 36.15 147.6 36.15 L122.35 36.15 122.35 38.1 M68.85 7.8 Q69.7 8.7 69.7 9.85 69.7 11.05 68.85 11.9 67.95 12.8 66.5 12.8 L40.3 12.8 40.3 14.25 66.5 14.25 Q67.95 14.25 68.85 15.15 69.7 16.05 69.7 17.2 69.7 18.4 68.85 19.25 67.95 20.15 66.5 20.15 L54.5 20.15 54.5 21.9 69.4 21.9 Q70.95 21.9 71.8 22.8 72.65 23.7 72.65 25.0 72.65 26.25 71.85 27.05 70.95 28.05 69.4 28.05 L33.15 28.05 Q31.65 28.05 30.8 27.15 29.95 26.25 29.95 25.0 29.95 23.7 30.8 22.8 31.65 21.9 33.15 21.9 L48.1 21.9 48.1 20.15 37.05 20.15 Q33.9 20.15 33.9 16.95 L33.9 10.1 Q33.9 6.9 37.05 6.9 L66.5 6.9 Q67.95 6.9 68.85 7.8 M45.4 43.7 Q33.9 43.7 33.9 36.45 33.9 32.05 37.95 30.3 40.55 29.25 45.4 29.25 L57.15 29.25 Q62.0 29.25 64.65 30.3 68.7 32.05 68.7 36.45 68.7 43.7 57.2 43.7 L45.4 43.7 M57.1 37.9 Q62.3 37.9 62.3 36.45 62.3 35.0 57.15 35.0 L45.4 35.0 Q40.3 35.0 40.3 36.45 40.3 37.9 45.4 37.9 L57.1 37.9 M-13.7 1.3 Q-12.85 2.3 -12.85 3.55 -12.85 4.8 -13.7 5.75 -14.55 6.7 -16.1 6.7 L-27.65 6.7 -27.8 7.05 Q-23.2 11.65 -17.35 14.65 L-13.95 16.2 -12.5 17.2 Q-11.85 18.05 -11.85 19.05 -11.85 20.35 -12.7 21.3 -13.55 22.25 -15.0 22.25 -16.1 22.25 -18.6 20.95 -25.75 17.75 -31.0 12.55 -34.7 17.4 -42.65 21.0 L-45.3 22.1 -47.05 22.25 Q-48.2 22.05 -48.95 21.05 -49.7 20.05 -49.7 18.95 -49.7 17.95 -49.1 17.15 -48.65 16.6 -47.45 16.2 L-44.85 15.0 Q-36.2 10.85 -33.95 6.7 L-45.45 6.7 Q-46.95 6.7 -47.8 5.75 -48.65 4.8 -48.65 3.55 -48.65 2.3 -47.8 1.3 -46.95 0.35 -45.45 0.35 L-16.05 0.35 Q-14.55 0.35 -13.7 1.3 M-33.0 43.65 Q-33.95 42.8 -33.95 41.3 L-33.95 31.7 -48.9 31.7 Q-50.4 31.7 -51.25 30.75 -52.1 29.8 -52.1 28.5 -52.1 27.25 -51.25 26.25 -50.4 25.3 -48.9 25.3 L-12.65 25.3 Q-11.1 25.3 -10.25 26.3 -9.4 27.25 -9.4 28.5 -9.4 29.8 -10.25 30.75 -11.1 31.7 -12.65 31.7 L-27.55 31.7 -27.55 41.3 Q-27.55 42.8 -28.5 43.6 -29.5 44.45 -30.75 44.45 -32.05 44.45 -33.0 43.65 M-95.85 2.55 L-95.85 19.15 -93.65 19.15 Q-92.15 19.15 -91.3 20.15 -90.45 21.1 -90.45 22.35 -90.45 23.65 -91.3 24.65 -92.15 25.6 -93.65 25.6 L-95.85 25.6 -95.85 41.3 Q-95.85 42.75 -96.8 43.55 -97.8 44.4 -99.05 44.4 -100.35 44.4 -101.3 43.6 -102.25 42.75 -102.25 41.3 L-102.25 2.55 Q-102.25 1.05 -101.3 0.2 -100.3 -0.65 -99.05 -0.65 -97.8 -0.65 -96.85 0.25 -95.85 1.1 -95.85 2.55 M-108.25 1.75 Q-107.4 2.7 -107.4 4.0 -107.4 5.3 -108.25 6.25 -109.05 7.2 -110.6 7.2 L-115.75 7.2 Q-115.9 11.85 -116.75 16.2 -113.6 27.7 -108.0 35.85 L-107.05 37.2 -106.55 38.2 -106.35 39.1 Q-106.35 40.35 -107.3 41.3 -108.25 42.25 -109.55 42.25 -111.0 42.25 -112.15 40.95 L-113.65 38.85 Q-117.4 33.25 -119.75 26.2 -122.0 33.35 -126.1 39.2 L-127.55 41.05 Q-128.55 42.25 -130.0 42.25 -131.3 42.25 -132.25 41.25 -133.2 40.25 -133.2 39.0 L-133.05 38.15 -132.45 37.1 -131.6 36.05 Q-125.75 28.0 -123.4 16.4 -122.15 10.1 -122.1 7.2 L-128.7 7.2 Q-130.25 7.2 -131.05 6.25 -131.9 5.3 -131.9 4.0 -131.9 2.7 -131.05 1.75 -130.25 0.8 -128.7 0.8 L-110.6 0.8 Q-109.05 0.8 -108.25 1.75 M-174.0 1.5 Q-172.9 2.25 -172.9 3.75 -172.9 6.75 -176.25 6.75 L-184.3 6.75 -184.45 7.15 -184.85 14.95 Q-183.85 13.85 -181.55 13.85 -176.6 13.85 -174.1 18.55 -172.15 22.15 -172.15 27.2 -172.15 32.9 -174.15 36.5 -177.0 41.6 -182.55 41.6 -186.4 41.6 -189.3 38.6 -192.25 35.6 -192.25 31.7 -192.25 28.6 -189.5 28.6 -187.45 28.6 -186.9 30.4 -185.35 35.6 -182.85 35.6 -178.35 35.6 -178.35 27.5 -178.35 24.55 -179.1 22.1 -179.95 19.65 -181.7 19.65 -183.1 19.65 -183.9 20.55 -184.45 21.05 -185.4 22.95 -186.35 24.85 -188.25 24.85 -189.5 24.85 -190.45 24.1 -191.4 23.35 -191.4 22.0 L-191.05 13.4 -190.5 4.85 Q-190.25 0.75 -185.85 0.75 L-176.35 0.75 Q-175.05 0.75 -174.0 1.5 M-218.35 0.55 Q-215.05 0.55 -215.05 4.3 L-215.05 38.25 Q-215.05 39.6 -215.95 40.6 -216.85 41.6 -218.3 41.6 -221.45 41.6 -221.45 38.35 L-221.45 9.55 Q-222.2 10.8 -223.8 10.8 -225.05 10.8 -225.75 10.05 -226.55 9.3 -226.55 8.2 -226.55 6.8 -225.35 5.75 L-222.4 2.8 Q-219.95 0.55 -218.35 0.55 M-253.35 33.95 Q-251.6 33.95 -250.25 35.15 -248.85 36.4 -248.85 38.1 -248.85 39.85 -250.2 41.2 -251.5 42.5 -253.3 42.5 -255.2 42.5 -256.5 41.3 -257.75 40.1 -257.75 38.15 -257.75 36.3 -256.5 35.1 -255.25 33.95 -253.35 33.95 M-292.55 7.0 Q-295.95 7.0 -296.7 15.75 -294.9 13.85 -292.05 13.85 -287.35 13.85 -285.05 18.4 -283.2 21.85 -283.2 26.6 -283.2 32.15 -285.9 36.6 -288.2 41.55 -293.3 41.55 -299.75 41.55 -301.85 34.35 -303.05 30.15 -303.05 21.9 -303.05 0.2 -292.45 0.2 -289.45 0.2 -286.65 2.8 -283.9 5.4 -283.9 8.4 -283.9 9.9 -284.7 10.8 -285.7 11.8 -286.65 11.8 -287.85 11.8 -288.55 10.25 L-290.65 7.65 Q-291.3 7.0 -292.55 7.0 M-292.6 20.0 Q-294.6 20.0 -295.95 22.3 -296.85 23.85 -296.85 26.2 -296.85 29.45 -296.05 32.05 -295.0 35.6 -293.15 35.6 -291.25 35.6 -290.1 32.2 -289.45 30.25 -289.45 27.2 -289.45 24.65 -290.2 22.5 -291.15 20.0 -292.6 20.0" fill="#5afefe" fill-rule="evenodd" stroke="none"/>
  </g>
</svg>
