<?xml version="1.0" encoding="UTF-8" standalone="no"?>
<svg xmlns:xlink="http://www.w3.org/1999/xlink" height="44.8px" width="306.6px" xmlns="http://www.w3.org/2000/svg">
  <g transform="matrix(1.0, 0.0, 0.0, 1.0, 511.65, 142.25)">
    <path d="M-511.65 -129.7 Q-427.3 -152.95 -277.25 -133.05 L-229.5 -131.25 Q-262.35 -120.1 -205.05 -97.45 -233.35 -103.5 -272.55 -100.15 -360.8 -108.35 -417.25 -106.85 -462.45 -105.65 -487.35 -98.25 -486.25 -105.7 -495.1 -115.45 -501.1 -122.05 -511.65 -129.7 M-263.85 -126.15 Q-264.35 -126.6 -264.95 -126.6 L-265.85 -126.45 -266.05 -126.3 Q-266.6 -125.9 -266.6 -125.15 L-267.6 -105.85 Q-267.65 -105.1 -267.15 -104.65 -266.75 -104.2 -266.05 -104.15 -265.5 -104.1 -265.0 -104.5 L-264.95 -104.5 Q-264.45 -104.9 -264.4 -105.65 L-263.4 -124.95 Q-263.4 -125.7 -263.85 -126.15 M-280.95 -124.9 Q-281.0 -124.3 -280.7 -123.85 L-280.6 -123.75 Q-280.2 -123.25 -279.45 -123.2 L-273.0 -122.85 -273.3 -117.4 -279.5 -117.75 Q-281.1 -117.85 -281.15 -116.3 L-281.65 -107.35 Q-281.7 -105.8 -280.15 -105.7 L-279.7 -105.7 -272.9 -106.1 -270.85 -106.5 -270.2 -106.75 Q-269.6 -107.2 -269.55 -107.95 L-269.7 -108.7 -269.95 -109.1 -271.05 -109.7 -272.7 -109.4 -276.8 -108.85 -278.4 -108.85 -278.1 -114.55 -271.85 -114.2 Q-270.25 -114.1 -270.15 -115.7 L-269.7 -124.3 Q-269.65 -125.9 -271.2 -126.0 L-279.3 -126.4 Q-280.05 -126.45 -280.5 -126.0 -280.95 -125.55 -280.95 -124.9 M-317.0 -126.3 Q-316.7 -125.9 -316.05 -125.8 L-313.75 -125.55 -313.85 -125.0 -314.0 -123.95 -314.75 -119.55 Q-315.6 -116.2 -317.05 -113.8 L-318.4 -111.85 -319.1 -111.05 -319.45 -110.5 Q-319.65 -109.85 -319.15 -109.25 L-318.75 -108.85 -318.15 -108.6 -317.45 -108.75 -316.9 -109.15 -315.5 -110.8 Q-313.25 -113.9 -312.05 -118.45 -311.5 -120.4 -311.05 -123.45 L-310.85 -125.0 -310.8 -125.65 -310.75 -125.85 -310.6 -125.65 Q-310.3 -125.15 -309.65 -125.05 L-307.65 -124.85 -307.85 -123.7 -308.05 -122.5 Q-309.0 -117.15 -310.6 -113.7 L-312.0 -111.4 -312.8 -110.25 -313.1 -109.6 Q-313.2 -109.0 -312.8 -108.45 -312.45 -108.05 -311.95 -107.95 L-311.8 -107.9 -311.0 -108.1 -310.45 -108.55 -309.05 -110.65 Q-307.0 -113.9 -305.9 -118.05 L-305.05 -122.15 -304.6 -125.6 -304.55 -125.95 Q-304.4 -127.45 -305.85 -127.6 L-309.3 -128.0 Q-309.95 -128.1 -310.35 -127.65 L-310.7 -127.35 Q-310.85 -128.2 -311.95 -128.3 L-315.7 -128.75 Q-316.35 -128.85 -316.8 -128.4 -317.25 -128.05 -317.3 -127.45 -317.35 -126.85 -317.05 -126.35 L-317.0 -126.3 M-300.8 -127.75 L-301.9 -127.55 Q-302.5 -127.1 -302.55 -126.4 L-304.7 -107.35 Q-304.85 -106.65 -304.4 -106.2 L-303.35 -105.65 -303.3 -105.65 Q-302.7 -105.6 -302.15 -105.9 -301.7 -106.3 -301.55 -107.0 L-299.4 -126.0 Q-299.3 -126.7 -299.75 -127.2 -300.2 -127.7 -300.8 -127.75 M-425.0 -131.45 L-425.0 -126.0 -431.25 -126.0 Q-432.85 -126.0 -432.85 -124.4 L-432.85 -115.5 Q-432.85 -113.9 -431.25 -113.9 -426.65 -113.9 -424.05 -114.6 L-422.0 -115.2 -421.4 -115.45 Q-420.8 -115.9 -420.8 -116.65 -420.8 -117.3 -421.25 -117.8 -421.7 -118.3 -422.45 -118.3 L-423.95 -117.95 Q-426.05 -117.25 -429.65 -117.1 L-429.65 -122.8 -423.4 -122.8 Q-421.8 -122.8 -421.8 -124.4 L-421.8 -133.05 Q-421.8 -134.65 -423.4 -134.65 L-431.5 -134.65 Q-432.25 -134.65 -432.65 -134.15 L-433.1 -133.05 Q-433.1 -132.4 -432.65 -131.9 -432.25 -131.45 -431.5 -131.45 L-425.0 -131.45 M-416.05 -135.15 Q-416.5 -135.6 -417.15 -135.6 -417.8 -135.6 -418.25 -135.15 -418.75 -134.75 -418.75 -134.0 L-418.75 -114.65 Q-418.75 -113.9 -418.25 -113.5 -417.8 -113.05 -417.15 -113.05 -416.5 -113.05 -416.0 -113.5 -415.55 -113.9 -415.55 -114.65 L-415.55 -134.0 Q-415.55 -134.75 -416.05 -135.15 M-471.75 -115.9 Q-471.2 -115.5 -470.45 -115.6 L-463.05 -116.6 -462.45 -111.85 Q-462.35 -111.1 -461.8 -110.8 -461.25 -110.4 -460.65 -110.5 -460.0 -110.55 -459.55 -111.1 L-459.35 -111.5 Q-459.25 -111.85 -459.3 -112.3 L-459.9 -117.05 -452.5 -118.05 -451.45 -118.65 Q-451.05 -119.2 -451.15 -119.8 -451.2 -120.45 -451.75 -120.85 -452.2 -121.3 -452.95 -121.2 L-470.9 -118.75 Q-471.65 -118.65 -472.05 -118.1 -472.35 -117.6 -472.3 -116.95 -472.2 -116.3 -471.75 -115.9 M-460.15 -129.6 L-458.0 -129.4 Q-456.95 -128.9 -456.8 -127.8 -456.65 -126.75 -457.55 -126.05 -458.3 -125.4 -459.55 -125.25 L-465.6 -124.4 -467.8 -124.65 Q-468.8 -125.1 -468.95 -126.15 -469.1 -127.25 -468.1 -128.05 -467.45 -128.6 -466.2 -128.75 L-460.15 -129.6 M-453.65 -128.25 Q-454.0 -130.65 -456.15 -131.9 -458.15 -133.1 -460.6 -132.75 L-466.65 -131.9 Q-469.1 -131.6 -470.7 -129.95 -472.45 -128.15 -472.1 -125.75 -471.8 -123.35 -469.6 -122.1 -467.65 -120.9 -465.2 -121.2 L-459.15 -122.05 Q-456.7 -122.4 -455.05 -124.05 -453.35 -125.85 -453.65 -128.25 M-356.8 -113.85 Q-356.4 -113.35 -355.65 -113.3 L-343.05 -112.3 -343.25 -109.9 Q-343.3 -109.15 -342.9 -108.65 -342.5 -108.25 -341.85 -108.2 -341.2 -108.15 -340.65 -108.55 -340.15 -108.9 -340.1 -109.65 L-339.8 -113.7 Q-339.65 -115.25 -341.25 -115.4 L-355.4 -116.5 Q-356.15 -116.55 -356.6 -116.05 -357.05 -115.6 -357.1 -115.0 -357.15 -114.35 -356.8 -113.85 M-348.9 -122.75 Q-349.45 -122.4 -349.5 -121.7 L-349.6 -120.45 -357.05 -121.05 Q-357.8 -121.1 -358.2 -120.7 L-358.75 -119.6 Q-358.8 -118.95 -358.4 -118.45 -358.0 -117.95 -357.25 -117.9 L-339.2 -116.5 Q-338.45 -116.45 -338.0 -116.9 -337.55 -117.3 -337.5 -117.95 -337.45 -118.55 -337.8 -119.1 -338.25 -119.6 -339.0 -119.65 L-346.4 -120.2 -346.3 -121.45 Q-346.25 -122.15 -346.7 -122.6 -347.1 -123.1 -347.75 -123.15 -348.4 -123.2 -348.9 -122.75 M-338.7 -129.45 Q-339.15 -129.95 -339.9 -130.0 L-354.55 -131.15 Q-355.25 -131.2 -355.7 -130.75 -356.15 -130.35 -356.2 -129.7 -356.25 -129.05 -355.9 -128.55 -355.5 -128.05 -354.8 -128.0 L-349.7 -127.6 Q-351.3 -126.55 -354.55 -125.7 L-355.9 -125.4 -356.65 -125.1 Q-357.1 -124.7 -357.15 -124.0 -357.2 -123.35 -356.85 -122.9 -356.4 -122.35 -355.7 -122.3 L-353.95 -122.6 Q-350.2 -123.4 -348.0 -125.3 -345.45 -122.95 -341.55 -121.5 L-340.3 -121.1 Q-339.55 -120.95 -338.9 -121.45 -338.4 -121.85 -338.35 -122.6 -338.3 -123.3 -338.75 -123.8 L-339.6 -124.2 -340.55 -124.6 Q-343.65 -125.8 -345.55 -127.25 L-340.15 -126.85 Q-339.4 -126.8 -338.9 -127.25 -338.45 -127.65 -338.4 -128.3 -338.35 -128.95 -338.7 -129.45 M-392.3 -119.55 Q-392.8 -120.05 -393.4 -120.05 -394.05 -120.1 -394.55 -119.75 -395.05 -119.3 -395.1 -118.6 L-395.3 -114.5 Q-395.35 -112.9 -393.8 -112.8 L-379.1 -112.05 Q-378.35 -112.0 -377.9 -112.45 -377.45 -112.95 -377.45 -113.55 -377.4 -114.2 -377.8 -114.7 -378.2 -115.15 -378.95 -115.2 L-392.0 -115.9 -391.9 -118.45 Q-391.85 -119.15 -392.3 -119.55 M-391.25 -130.95 L-386.4 -130.7 -386.7 -124.15 -391.55 -124.4 -391.25 -130.95 M-379.75 -134.1 Q-380.2 -133.7 -380.25 -133.0 L-381.0 -118.7 Q-381.0 -118.0 -380.6 -117.5 -380.1 -117.1 -379.45 -117.05 -378.8 -117.0 -378.35 -117.4 -377.8 -117.8 -377.8 -118.5 L-377.05 -132.8 Q-377.0 -133.5 -377.5 -134.0 -377.9 -134.4 -378.55 -134.45 L-379.75 -134.1 M-383.1 -132.1 Q-383.0 -133.7 -384.6 -133.8 L-392.65 -134.2 Q-394.25 -134.3 -394.35 -132.7 L-394.85 -122.95 Q-394.95 -121.4 -393.35 -121.3 L-385.3 -120.9 Q-383.7 -120.8 -383.6 -122.35 L-383.1 -132.1" fill="#0080ff" fill-rule="evenodd" stroke="none"/>
    <path d="M-383.1 -132.1 L-383.6 -122.35 Q-383.7 -120.8 -385.3 -120.9 L-393.35 -121.3 Q-394.95 -121.4 -394.85 -122.95 L-394.35 -132.7 Q-394.25 -134.3 -392.65 -134.2 L-384.6 -133.8 Q-383.0 -133.7 -383.1 -132.1 M-379.75 -134.1 L-378.55 -134.45 Q-377.9 -134.4 -377.5 -134.0 -377.0 -133.5 -377.05 -132.8 L-377.8 -118.5 Q-377.8 -117.8 -378.35 -117.4 -378.8 -117.0 -379.45 -117.05 -380.1 -117.1 -380.6 -117.5 -381.0 -118.0 -381.0 -118.7 L-380.25 -133.0 Q-380.2 -133.7 -379.75 -134.1 M-391.25 -130.95 L-391.55 -124.4 -386.7 -124.15 -386.4 -130.7 -391.25 -130.95 M-392.3 -119.55 Q-391.85 -119.15 -391.9 -118.45 L-392.0 -115.9 -378.95 -115.2 Q-378.2 -115.15 -377.8 -114.7 -377.4 -114.2 -377.45 -113.55 -377.45 -112.95 -377.9 -112.45 -378.35 -112.0 -379.1 -112.05 L-393.8 -112.8 Q-395.35 -112.9 -395.3 -114.5 L-395.1 -118.6 Q-395.05 -119.3 -394.55 -119.75 -394.05 -120.1 -393.4 -120.05 -392.8 -120.05 -392.3 -119.55 M-338.7 -129.45 Q-338.35 -128.95 -338.4 -128.3 -338.45 -127.65 -338.9 -127.25 -339.4 -126.8 -340.15 -126.85 L-345.55 -127.25 Q-343.65 -125.8 -340.55 -124.6 L-339.6 -124.2 -338.75 -123.8 Q-338.3 -123.3 -338.35 -122.6 -338.4 -121.85 -338.9 -121.45 -339.55 -120.95 -340.3 -121.1 L-341.55 -121.5 Q-345.45 -122.95 -348.0 -125.3 -350.2 -123.4 -353.95 -122.6 L-355.7 -122.3 Q-356.4 -122.35 -356.85 -122.9 -357.2 -123.35 -357.15 -124.0 -357.1 -124.7 -356.65 -125.1 L-355.9 -125.4 -354.55 -125.7 Q-351.3 -126.55 -349.7 -127.6 L-354.8 -128.0 Q-355.5 -128.05 -355.9 -128.55 -356.25 -129.05 -356.2 -129.7 -356.15 -130.35 -355.7 -130.75 -355.25 -131.2 -354.55 -131.15 L-339.9 -130.0 Q-339.15 -129.95 -338.7 -129.45 M-348.9 -122.75 Q-348.4 -123.2 -347.75 -123.15 -347.1 -123.1 -346.7 -122.6 -346.25 -122.15 -346.3 -121.45 L-346.4 -120.2 -339.0 -119.65 Q-338.25 -119.6 -337.8 -119.1 -337.45 -118.55 -337.5 -117.95 -337.55 -117.3 -338.0 -116.9 -338.45 -116.45 -339.2 -116.5 L-357.25 -117.9 Q-358.0 -117.95 -358.4 -118.45 -358.8 -118.95 -358.75 -119.6 L-358.2 -120.7 Q-357.8 -121.1 -357.05 -121.05 L-349.6 -120.45 -349.5 -121.7 Q-349.45 -122.4 -348.9 -122.75 M-356.8 -113.85 Q-357.15 -114.35 -357.1 -115.0 -357.05 -115.6 -356.6 -116.05 -356.15 -116.55 -355.4 -116.5 L-341.25 -115.4 Q-339.65 -115.25 -339.8 -113.7 L-340.1 -109.65 Q-340.15 -108.9 -340.65 -108.55 -341.2 -108.15 -341.85 -108.2 -342.5 -108.25 -342.9 -108.65 -343.3 -109.15 -343.25 -109.9 L-343.05 -112.3 -355.65 -113.3 Q-356.4 -113.35 -356.8 -113.85 M-453.65 -128.25 Q-453.35 -125.85 -455.05 -124.05 -456.7 -122.4 -459.15 -122.05 L-465.2 -121.2 Q-467.65 -120.9 -469.6 -122.1 -471.8 -123.35 -472.1 -125.75 -472.45 -128.15 -470.7 -129.95 -469.1 -131.6 -466.65 -131.9 L-460.6 -132.75 Q-458.15 -133.1 -456.15 -131.9 -454.0 -130.65 -453.65 -128.25 M-460.15 -129.6 L-466.2 -128.75 Q-467.45 -128.6 -468.1 -128.05 -469.1 -127.25 -468.95 -126.15 -468.8 -125.1 -467.8 -124.65 L-465.6 -124.4 -459.55 -125.25 Q-458.3 -125.4 -457.55 -126.05 -456.65 -126.75 -456.8 -127.8 -456.95 -128.9 -458.0 -129.4 L-460.15 -129.6 M-471.75 -115.9 Q-472.2 -116.3 -472.3 -116.95 -472.35 -117.6 -472.05 -118.1 -471.65 -118.65 -470.9 -118.75 L-452.95 -121.2 Q-452.2 -121.3 -451.75 -120.85 -451.2 -120.45 -451.15 -119.8 -451.05 -119.2 -451.45 -118.65 L-452.5 -118.05 -459.9 -117.05 -459.3 -112.3 Q-459.25 -111.85 -459.35 -111.5 L-459.55 -111.1 Q-460.0 -110.55 -460.65 -110.5 -461.25 -110.4 -461.8 -110.8 -462.35 -111.1 -462.45 -111.85 L-463.05 -116.6 -470.45 -115.6 Q-471.2 -115.5 -471.75 -115.9 M-416.05 -135.15 Q-415.55 -134.75 -415.55 -134.0 L-415.55 -114.65 Q-415.55 -113.9 -416.0 -113.5 -416.5 -113.05 -417.15 -113.05 -417.8 -113.05 -418.25 -113.5 -418.75 -113.9 -418.75 -114.65 L-418.75 -134.0 Q-418.75 -134.75 -418.25 -135.15 -417.8 -135.6 -417.15 -135.6 -416.5 -135.6 -416.05 -135.15 M-425.0 -131.45 L-431.5 -131.45 Q-432.25 -131.45 -432.65 -131.9 -433.1 -132.4 -433.1 -133.05 L-432.65 -134.15 Q-432.25 -134.65 -431.5 -134.65 L-423.4 -134.65 Q-421.8 -134.65 -421.8 -133.05 L-421.8 -124.4 Q-421.8 -122.8 -423.4 -122.8 L-429.65 -122.8 -429.65 -117.1 Q-426.05 -117.25 -423.95 -117.95 L-422.45 -118.3 Q-421.7 -118.3 -421.25 -117.8 -420.8 -117.3 -420.8 -116.65 -420.8 -115.9 -421.4 -115.45 L-422.0 -115.2 -424.05 -114.6 Q-426.65 -113.9 -431.25 -113.9 -432.85 -113.9 -432.85 -115.5 L-432.85 -124.4 Q-432.85 -126.0 -431.25 -126.0 L-425.0 -126.0 -425.0 -131.45 M-300.8 -127.75 Q-300.2 -127.7 -299.75 -127.2 -299.3 -126.7 -299.4 -126.0 L-301.55 -107.0 Q-301.7 -106.3 -302.15 -105.9 -302.7 -105.6 -303.3 -105.65 L-303.35 -105.65 -304.4 -106.2 Q-304.85 -106.65 -304.7 -107.35 L-302.55 -126.4 Q-302.5 -127.1 -301.9 -127.55 L-300.8 -127.75 M-317.0 -126.3 L-317.05 -126.35 Q-317.35 -126.85 -317.3 -127.45 -317.25 -128.05 -316.8 -128.4 -316.35 -128.85 -315.7 -128.75 L-311.95 -128.3 Q-310.85 -128.2 -310.7 -127.35 L-310.35 -127.65 Q-309.95 -128.1 -309.3 -128.0 L-305.85 -127.6 Q-304.4 -127.45 -304.55 -125.95 L-304.6 -125.6 -305.05 -122.15 -305.9 -118.05 Q-307.0 -113.9 -309.05 -110.65 L-310.45 -108.55 -311.0 -108.1 -311.8 -107.9 -311.95 -107.95 Q-312.45 -108.05 -312.8 -108.45 -313.2 -109.0 -313.1 -109.6 L-312.8 -110.25 -312.0 -111.4 -310.6 -113.7 Q-309.0 -117.15 -308.05 -122.5 L-307.85 -123.7 -307.65 -124.85 -309.65 -125.05 Q-310.3 -125.15 -310.6 -125.65 L-310.75 -125.85 -310.8 -125.65 -310.85 -125.0 -311.05 -123.45 Q-311.5 -120.4 -312.05 -118.45 -313.25 -113.9 -315.5 -110.8 L-316.9 -109.15 -317.45 -108.75 -318.15 -108.6 -318.75 -108.85 -319.15 -109.25 Q-319.65 -109.85 -319.45 -110.5 L-319.1 -111.05 -318.4 -111.85 -317.05 -113.8 Q-315.6 -116.2 -314.75 -119.55 L-314.0 -123.95 -313.85 -125.0 -313.75 -125.55 -316.05 -125.8 Q-316.7 -125.9 -317.0 -126.3 M-280.95 -124.9 Q-280.95 -125.55 -280.5 -126.0 -280.05 -126.45 -279.3 -126.4 L-271.2 -126.0 Q-269.65 -125.9 -269.7 -124.3 L-270.15 -115.7 Q-270.25 -114.1 -271.85 -114.2 L-278.1 -114.55 -278.4 -108.85 -276.8 -108.85 -272.7 -109.4 -271.05 -109.7 -269.95 -109.1 -269.7 -108.7 -269.55 -107.95 Q-269.6 -107.2 -270.2 -106.75 L-270.85 -106.5 -272.9 -106.1 -279.7 -105.7 -280.15 -105.7 Q-281.7 -105.8 -281.65 -107.35 L-281.15 -116.3 Q-281.1 -117.85 -279.5 -117.75 L-273.3 -117.4 -273.0 -122.85 -279.45 -123.2 Q-280.2 -123.25 -280.6 -123.75 L-280.7 -123.85 Q-281.0 -124.3 -280.95 -124.9 M-263.85 -126.15 Q-263.4 -125.7 -263.4 -124.95 L-264.4 -105.65 Q-264.45 -104.9 -264.95 -104.5 L-265.0 -104.5 Q-265.5 -104.1 -266.05 -104.15 -266.75 -104.2 -267.15 -104.65 -267.65 -105.1 -267.6 -105.85 L-266.6 -125.15 Q-266.6 -125.9 -266.05 -126.3 L-265.85 -126.45 -264.95 -126.6 Q-264.35 -126.6 -263.85 -126.15" fill="#ffffff" fill-rule="evenodd" stroke="none"/>
  </g>
</svg>
