<?xml version="1.0" encoding="UTF-8" standalone="no"?>
<svg xmlns:xlink="http://www.w3.org/1999/xlink" height="45.95px" width="290.2px" xmlns="http://www.w3.org/2000/svg">
  <g transform="matrix(1.0, 0.0, 0.0, 1.0, 511.2, 141.2)">
    <path d="M-373.3 -113.0 Q-373.95 -113.4 -374.6 -113.4 -375.3 -113.45 -375.6 -113.1 -375.85 -112.55 -375.7 -112.0 L-374.15 -108.2 Q-373.45 -106.7 -371.95 -106.75 -364.55 -106.65 -358.35 -106.95 -357.65 -106.9 -357.55 -107.4 -357.3 -107.85 -357.6 -108.45 L-358.35 -109.5 -359.5 -109.85 Q-364.9 -109.7 -371.45 -109.7 L-372.45 -112.05 -373.3 -113.0 M-372.4 -123.65 L-369.95 -117.65 -374.65 -117.55 -377.1 -123.55 -372.4 -123.65 M-403.2 -108.35 Q-402.6 -108.7 -402.95 -109.45 -403.15 -110.0 -403.9 -110.5 L-405.5 -110.9 -407.15 -110.6 Q-409.3 -109.85 -413.65 -109.85 L-415.6 -115.1 -408.25 -115.05 Q-406.35 -115.1 -407.0 -116.55 L-410.15 -124.4 Q-410.65 -125.85 -412.55 -125.85 -417.1 -125.8 -421.65 -125.9 -422.45 -125.9 -422.8 -125.5 L-423.0 -124.5 -422.1 -123.45 Q-421.45 -122.85 -420.6 -123.0 L-413.2 -122.95 -411.25 -117.95 -418.55 -117.95 Q-420.35 -117.9 -419.9 -116.6 L-417.05 -108.4 Q-416.55 -106.85 -414.6 -106.9 L-406.05 -107.5 -403.85 -108.1 Q-403.35 -108.15 -403.2 -108.35 M-403.55 -125.35 Q-403.8 -126.0 -404.6 -126.4 L-405.95 -126.8 -407.0 -126.35 Q-407.35 -125.95 -407.1 -125.3 L-399.8 -107.6 Q-399.4 -106.8 -398.8 -106.55 -398.05 -106.1 -397.3 -106.2 -396.45 -106.1 -396.15 -106.6 -395.8 -106.85 -396.05 -107.65 L-403.55 -125.35 M-379.85 -126.45 Q-381.4 -126.4 -380.9 -124.95 L-377.25 -116.05 Q-376.6 -114.45 -375.1 -114.6 L-367.35 -114.7 Q-365.7 -114.75 -366.4 -116.15 L-369.9 -125.2 Q-370.45 -126.55 -372.0 -126.65 L-379.85 -126.45 M-367.75 -127.35 L-367.75 -126.25 -362.65 -113.0 -361.8 -111.9 Q-361.15 -111.45 -360.65 -111.6 -360.05 -111.6 -359.85 -112.0 -359.45 -112.35 -359.85 -113.05 L-364.85 -126.35 Q-365.0 -127.1 -365.7 -127.45 L-366.8 -127.75 -367.75 -127.35 M-369.15 -132.4 L-348.7 -133.7 -331.1 -135.65 -258.85 -140.9 Q-252.85 -141.4 -244.5 -141.1 -236.15 -140.75 -232.7 -137.85 -249.55 -131.05 -221.0 -105.8 -226.95 -110.7 -240.3 -111.4 L-263.35 -110.6 -282.3 -107.65 -324.7 -103.15 Q-340.9 -100.75 -348.7 -100.3 -352.15 -100.15 -353.95 -100.35 -366.15 -100.0 -381.3 -99.8 -446.85 -99.65 -483.75 -95.25 -485.65 -112.95 -511.2 -129.6 -466.45 -131.5 -400.1 -131.6 -384.15 -131.8 -369.15 -132.4 M-267.15 -120.35 L-269.05 -125.3 -262.65 -125.4 -262.35 -125.45 Q-261.85 -125.5 -261.6 -125.75 L-261.4 -126.3 -261.45 -126.65 -261.55 -126.95 -264.65 -135.15 Q-265.3 -136.7 -266.9 -136.65 L-275.25 -136.45 Q-276.05 -136.45 -276.35 -136.0 -276.6 -135.5 -276.3 -134.9 L-276.25 -134.8 Q-276.1 -134.3 -275.65 -133.95 L-275.5 -133.8 Q-274.85 -133.35 -274.05 -133.4 L-267.35 -133.5 -265.4 -128.35 -271.85 -128.25 Q-273.5 -128.2 -272.9 -126.7 L-269.7 -118.2 -269.15 -117.4 Q-268.55 -116.75 -267.45 -116.75 L-267.0 -116.75 Q-262.55 -116.9 -260.25 -117.6 L-258.35 -118.15 -258.25 -118.2 -257.85 -118.45 Q-257.4 -118.9 -257.65 -119.6 L-258.1 -120.3 -258.5 -120.7 -259.1 -121.0 -259.9 -121.15 -260.55 -121.05 -261.45 -120.8 -263.55 -120.2 -263.65 -120.2 -265.4 -120.0 -266.95 -119.85 -267.15 -120.35 M-258.55 -136.2 Q-258.8 -136.9 -259.5 -137.3 L-260.65 -137.7 -260.8 -137.7 -261.65 -137.45 -261.8 -137.3 Q-262.15 -136.85 -261.85 -136.15 L-254.8 -117.75 Q-254.55 -117.05 -253.85 -116.65 L-252.5 -116.25 Q-251.95 -116.25 -251.6 -116.65 L-251.55 -116.7 Q-251.2 -117.1 -251.45 -117.8 L-258.55 -136.2 M-300.75 -129.95 Q-301.3 -131.35 -302.85 -131.25 L-306.45 -131.0 -307.3 -130.45 -307.45 -130.25 -307.45 -130.1 Q-308.05 -130.9 -309.2 -130.8 L-313.1 -130.55 Q-313.8 -130.55 -314.0 -130.0 -314.25 -129.65 -314.05 -129.05 L-313.25 -128.1 -313.15 -128.05 -312.0 -127.75 -309.6 -127.9 -309.4 -127.4 -309.0 -126.4 -307.55 -122.2 Q-306.7 -118.95 -306.95 -116.5 L-307.3 -114.45 -307.55 -113.55 -307.6 -113.0 Q-307.45 -112.35 -306.7 -111.9 L-306.1 -111.6 -305.4 -111.5 Q-305.05 -111.55 -304.75 -111.75 L-304.45 -112.2 -303.85 -113.95 Q-303.2 -117.25 -304.3 -121.65 L-305.9 -126.45 -306.45 -127.9 -306.75 -128.55 -306.8 -128.75 -306.55 -128.6 Q-306.0 -128.2 -305.3 -128.2 L-303.25 -128.35 -302.85 -127.3 -302.45 -126.1 Q-301.4 -123.1 -300.9 -120.65 L-300.6 -118.45 -300.55 -117.55 -300.75 -115.15 -300.95 -114.05 -300.95 -113.95 -300.95 -113.3 -300.05 -112.3 -298.95 -111.95 -298.8 -111.95 Q-298.35 -112.0 -298.1 -112.3 L-297.75 -112.8 -297.45 -115.0 Q-297.15 -117.85 -297.8 -121.15 L-298.1 -122.35 -298.6 -124.2 -299.35 -126.35 -300.6 -129.6 -300.75 -129.95 M-296.65 -131.95 L-297.95 -132.25 Q-298.6 -132.25 -298.95 -131.85 -299.25 -131.35 -299.0 -130.7 L-291.55 -112.7 Q-291.3 -112.05 -290.65 -111.7 -290.05 -111.35 -289.35 -111.4 L-289.3 -111.4 Q-288.7 -111.4 -288.3 -111.85 -288.0 -112.25 -288.25 -112.95 L-295.7 -130.9 Q-296.0 -131.55 -296.65 -131.95 M-450.1 -119.05 Q-450.75 -118.45 -452.35 -118.45 L-459.5 -118.15 Q-460.95 -118.05 -462.2 -118.55 -463.3 -119.0 -463.8 -120.05 -464.05 -121.1 -463.05 -121.75 -462.35 -122.3 -460.85 -122.25 L-453.85 -122.55 -451.25 -122.2 Q-449.9 -121.65 -449.55 -120.65 -449.05 -119.55 -450.1 -119.05 M-466.5 -112.8 Q-466.8 -112.25 -466.7 -111.7 L-465.85 -110.65 Q-465.15 -110.2 -464.2 -110.3 L-455.15 -110.65 -453.6 -106.15 Q-453.2 -105.35 -452.6 -105.15 -451.75 -104.6 -451.1 -104.8 -450.15 -104.65 -449.8 -105.25 -449.35 -105.65 -449.65 -106.4 L-451.3 -110.85 -442.25 -111.35 Q-441.25 -111.5 -441.05 -111.85 -440.6 -112.3 -440.95 -112.9 -441.05 -113.45 -441.95 -113.95 L-443.5 -114.3 -465.15 -113.3 -466.5 -112.8 M-454.9 -125.55 L-461.85 -125.25 Q-464.6 -125.15 -466.35 -123.8 -468.1 -122.2 -467.45 -120.0 -466.75 -117.6 -464.0 -116.35 -461.4 -114.95 -458.55 -115.1 L-451.3 -115.5 Q-448.3 -115.6 -446.65 -117.1 -444.95 -118.6 -445.85 -120.85 -446.8 -123.05 -449.55 -124.4 -452.05 -125.6 -454.9 -125.55 M-339.95 -114.15 Q-340.75 -114.1 -340.9 -113.5 -341.15 -113.05 -340.9 -112.45 L-340.0 -111.45 Q-339.35 -111.05 -338.6 -111.15 L-325.7 -112.45 -324.7 -110.2 Q-324.35 -109.5 -323.7 -109.1 L-322.45 -108.9 Q-321.8 -108.95 -321.45 -109.4 -321.15 -109.85 -321.45 -110.55 L-323.2 -114.35 Q-323.85 -115.8 -325.5 -115.65 L-339.95 -114.15 M-344.8 -117.55 Q-345.05 -117.0 -344.8 -116.4 -344.55 -115.8 -343.9 -115.4 L-342.5 -115.1 -324.05 -117.05 Q-323.3 -117.15 -323.05 -117.6 -322.85 -118.05 -323.1 -118.65 -323.35 -119.25 -323.95 -119.7 L-325.4 -120.0 -332.95 -119.15 -333.5 -120.35 Q-333.8 -121.0 -334.45 -121.35 L-335.8 -121.65 Q-336.45 -121.6 -336.7 -121.1 -337.1 -120.7 -336.75 -120.0 L-336.25 -118.85 -343.85 -118.05 Q-344.65 -118.0 -344.8 -117.55 M-328.3 -124.1 L-329.45 -124.3 Q-333.1 -124.85 -335.7 -125.85 L-330.15 -126.45 Q-329.4 -126.55 -329.15 -127.0 -328.9 -127.5 -329.2 -128.1 L-330.05 -129.1 -331.5 -129.4 -346.5 -127.85 Q-347.2 -127.75 -347.4 -127.25 -347.65 -126.85 -347.4 -126.2 L-346.5 -125.2 Q-345.9 -124.85 -345.15 -124.9 L-339.95 -125.4 Q-341.0 -124.2 -343.75 -122.8 L-344.95 -122.3 -345.5 -121.9 Q-345.75 -121.45 -345.45 -120.75 -345.2 -120.15 -344.6 -119.8 -343.9 -119.4 -343.15 -119.45 -342.8 -119.5 -341.6 -120.05 -338.35 -121.45 -337.1 -123.6 -333.45 -121.9 -328.85 -121.25 L-327.45 -121.1 Q-326.65 -121.1 -326.25 -121.65 -325.95 -122.15 -326.25 -122.8 -326.6 -123.5 -327.25 -123.85 L-328.3 -124.1" fill="#0080ff" fill-rule="evenodd" stroke="none"/>
    <path d="M-367.75 -127.35 L-366.8 -127.75 -365.7 -127.45 Q-365.0 -127.1 -364.85 -126.35 L-359.85 -113.05 Q-359.45 -112.35 -359.85 -112.0 -360.05 -111.6 -360.65 -111.6 -361.15 -111.45 -361.8 -111.9 L-362.65 -113.0 -367.75 -126.25 -367.75 -127.35 M-379.85 -126.45 L-372.0 -126.65 Q-370.45 -126.55 -369.9 -125.2 L-366.4 -116.15 Q-365.7 -114.75 -367.35 -114.7 L-375.1 -114.6 Q-376.6 -114.45 -377.25 -116.05 L-380.9 -124.95 Q-381.4 -126.4 -379.85 -126.45 M-403.55 -125.35 L-396.05 -107.65 Q-395.8 -106.85 -396.15 -106.6 -396.45 -106.1 -397.3 -106.2 -398.05 -106.1 -398.8 -106.55 -399.4 -106.8 -399.8 -107.6 L-407.1 -125.3 Q-407.35 -125.95 -407.0 -126.35 L-405.95 -126.8 -404.6 -126.4 Q-403.8 -126.0 -403.55 -125.35 M-403.2 -108.35 Q-403.35 -108.15 -403.85 -108.1 L-406.05 -107.5 -414.6 -106.9 Q-416.55 -106.85 -417.05 -108.4 L-419.9 -116.6 Q-420.35 -117.9 -418.55 -117.95 L-411.25 -117.95 -413.2 -122.95 -420.6 -123.0 Q-421.45 -122.85 -422.1 -123.45 L-423.0 -124.5 -422.8 -125.5 Q-422.45 -125.9 -421.65 -125.9 -417.1 -125.8 -412.55 -125.85 -410.65 -125.85 -410.15 -124.4 L-407.0 -116.55 Q-406.35 -115.1 -408.25 -115.05 L-415.6 -115.1 -413.65 -109.85 Q-409.3 -109.85 -407.15 -110.6 L-405.5 -110.9 -403.9 -110.5 Q-403.15 -110.0 -402.95 -109.45 -402.6 -108.7 -403.2 -108.35 M-372.4 -123.65 L-377.1 -123.55 -374.65 -117.55 -369.95 -117.65 -372.4 -123.65 M-373.3 -113.0 L-372.45 -112.05 -371.45 -109.7 Q-364.9 -109.7 -359.5 -109.85 L-358.35 -109.5 -357.6 -108.45 Q-357.3 -107.85 -357.55 -107.4 -357.65 -106.9 -358.35 -106.95 -364.55 -106.65 -371.95 -106.75 -373.45 -106.7 -374.15 -108.2 L-375.7 -112.0 Q-375.85 -112.55 -375.6 -113.1 -375.3 -113.45 -374.6 -113.4 -373.95 -113.4 -373.3 -113.0 M-328.3 -124.1 L-327.25 -123.85 Q-326.6 -123.5 -326.25 -122.8 -325.95 -122.15 -326.25 -121.65 -326.65 -121.1 -327.45 -121.1 L-328.85 -121.25 Q-333.45 -121.9 -337.1 -123.6 -338.35 -121.45 -341.6 -120.05 -342.8 -119.5 -343.15 -119.45 -343.9 -119.4 -344.6 -119.8 -345.2 -120.15 -345.45 -120.75 -345.75 -121.45 -345.5 -121.9 L-344.95 -122.3 -343.75 -122.8 Q-341.0 -124.2 -339.95 -125.4 L-345.15 -124.9 Q-345.9 -124.85 -346.5 -125.2 L-347.4 -126.2 Q-347.65 -126.85 -347.4 -127.25 -347.2 -127.75 -346.5 -127.85 L-331.5 -129.4 -330.05 -129.1 -329.2 -128.1 Q-328.9 -127.5 -329.15 -127.0 -329.4 -126.55 -330.15 -126.45 L-335.7 -125.85 Q-333.1 -124.85 -329.45 -124.3 L-328.3 -124.1 M-344.8 -117.55 Q-344.65 -118.0 -343.85 -118.05 L-336.25 -118.85 -336.75 -120.0 Q-337.1 -120.7 -336.7 -121.1 -336.45 -121.6 -335.8 -121.65 L-334.45 -121.35 Q-333.8 -121.0 -333.5 -120.35 L-332.95 -119.15 -325.4 -120.0 -323.95 -119.7 Q-323.35 -119.25 -323.1 -118.65 -322.85 -118.05 -323.05 -117.6 -323.3 -117.15 -324.05 -117.05 L-342.5 -115.1 -343.9 -115.4 Q-344.55 -115.8 -344.8 -116.4 -345.05 -117.0 -344.8 -117.55 M-339.95 -114.15 L-325.5 -115.65 Q-323.85 -115.8 -323.2 -114.35 L-321.45 -110.55 Q-321.15 -109.85 -321.45 -109.4 -321.8 -108.95 -322.45 -108.9 L-323.7 -109.1 Q-324.35 -109.5 -324.7 -110.2 L-325.7 -112.45 -338.6 -111.15 Q-339.35 -111.05 -340.0 -111.45 L-340.9 -112.45 Q-341.15 -113.05 -340.9 -113.5 -340.75 -114.1 -339.95 -114.15 M-454.9 -125.55 Q-452.05 -125.6 -449.55 -124.4 -446.8 -123.05 -445.85 -120.85 -444.95 -118.6 -446.65 -117.1 -448.3 -115.6 -451.3 -115.5 L-458.55 -115.1 Q-461.4 -114.95 -464.0 -116.35 -466.75 -117.6 -467.45 -120.0 -468.1 -122.2 -466.35 -123.8 -464.6 -125.15 -461.85 -125.25 L-454.9 -125.55 M-466.5 -112.8 L-465.15 -113.3 -443.5 -114.3 -441.95 -113.95 Q-441.05 -113.45 -440.95 -112.9 -440.6 -112.3 -441.05 -111.85 -441.25 -111.5 -442.25 -111.35 L-451.3 -110.85 -449.65 -106.4 Q-449.35 -105.65 -449.8 -105.25 -450.15 -104.65 -451.1 -104.8 -451.75 -104.6 -452.6 -105.15 -453.2 -105.35 -453.6 -106.15 L-455.15 -110.65 -464.2 -110.3 Q-465.15 -110.2 -465.85 -110.65 L-466.7 -111.7 Q-466.8 -112.25 -466.5 -112.8 M-450.1 -119.05 Q-449.05 -119.55 -449.55 -120.65 -449.9 -121.65 -451.25 -122.2 L-453.85 -122.55 -460.85 -122.25 Q-462.35 -122.3 -463.05 -121.75 -464.05 -121.1 -463.8 -120.05 -463.3 -119.0 -462.2 -118.55 -460.95 -118.05 -459.5 -118.15 L-452.35 -118.45 Q-450.75 -118.45 -450.1 -119.05 M-296.65 -131.95 Q-296.0 -131.55 -295.7 -130.9 L-288.25 -112.95 Q-288.0 -112.25 -288.3 -111.85 -288.7 -111.4 -289.3 -111.4 L-289.35 -111.4 Q-290.05 -111.35 -290.65 -111.7 -291.3 -112.05 -291.55 -112.7 L-299.0 -130.7 Q-299.25 -131.35 -298.95 -131.85 -298.6 -132.25 -297.95 -132.25 L-296.65 -131.95 M-300.75 -129.95 L-300.6 -129.6 -299.35 -126.35 -298.6 -124.2 -298.1 -122.35 -297.8 -121.15 Q-297.15 -117.85 -297.45 -115.0 L-297.75 -112.8 -298.1 -112.3 Q-298.35 -112.0 -298.8 -111.95 L-298.95 -111.95 -300.05 -112.3 -300.95 -113.3 -300.95 -113.95 -300.95 -114.05 -300.75 -115.15 -300.55 -117.55 -300.6 -118.45 -300.9 -120.65 Q-301.4 -123.1 -302.45 -126.1 L-302.85 -127.3 -303.25 -128.35 -305.3 -128.2 Q-306.0 -128.2 -306.55 -128.6 L-306.8 -128.75 -306.75 -128.55 -306.45 -127.9 -305.9 -126.45 -304.3 -121.65 Q-303.2 -117.25 -303.85 -113.95 L-304.45 -112.2 -304.75 -111.75 Q-305.05 -111.55 -305.4 -111.5 L-306.1 -111.6 -306.7 -111.9 Q-307.45 -112.35 -307.6 -113.0 L-307.55 -113.55 -307.3 -114.45 -306.95 -116.5 Q-306.7 -118.95 -307.55 -122.2 L-309.0 -126.4 -309.4 -127.4 -309.6 -127.9 -312.0 -127.75 -313.15 -128.05 -313.25 -128.1 -314.05 -129.05 Q-314.25 -129.65 -314.0 -130.0 -313.8 -130.55 -313.1 -130.55 L-309.2 -130.8 Q-308.05 -130.9 -307.45 -130.1 L-307.45 -130.25 -307.3 -130.45 -306.45 -131.0 -302.85 -131.25 Q-301.3 -131.35 -300.75 -129.95 M-258.55 -136.2 L-251.45 -117.8 Q-251.2 -117.1 -251.55 -116.7 L-251.6 -116.65 Q-251.95 -116.25 -252.5 -116.25 L-253.85 -116.65 Q-254.55 -117.05 -254.8 -117.75 L-261.85 -136.15 Q-262.15 -136.85 -261.8 -137.3 L-261.65 -137.45 -260.8 -137.7 -260.65 -137.7 -259.5 -137.3 Q-258.8 -136.9 -258.55 -136.2 M-266.95 -119.85 L-265.4 -120.0 -263.65 -120.2 -263.55 -120.2 -261.45 -120.8 -260.55 -121.05 -259.9 -121.15 -259.1 -121.0 -258.5 -120.7 -258.1 -120.3 -257.65 -119.6 Q-257.4 -118.9 -257.85 -118.45 L-258.25 -118.2 -258.35 -118.15 -260.25 -117.6 Q-262.55 -116.9 -267.0 -116.75 L-267.45 -116.75 Q-268.55 -116.75 -269.15 -117.4 L-269.7 -118.2 -272.9 -126.7 Q-273.5 -128.2 -271.85 -128.25 L-265.4 -128.35 -267.35 -133.5 -274.05 -133.4 Q-274.85 -133.35 -275.5 -133.8 L-275.65 -133.95 Q-276.1 -134.3 -276.25 -134.8 L-276.3 -134.9 Q-276.6 -135.5 -276.35 -136.0 -276.05 -136.45 -275.25 -136.45 L-266.9 -136.65 Q-265.3 -136.7 -264.65 -135.15 L-261.55 -126.95 -261.45 -126.65 -261.4 -126.3 -261.6 -125.75 Q-261.85 -125.5 -262.35 -125.45 L-262.65 -125.4 -269.05 -125.3 -267.15 -120.35 -267.0 -119.85 -266.95 -119.85" fill="#ffffff" fill-rule="evenodd" stroke="none"/>
  </g>
</svg>
