<?xml version="1.0" encoding="UTF-8" standalone="no"?>
<svg xmlns:xlink="http://www.w3.org/1999/xlink" height="5.25px" width="5.6px" xmlns="http://www.w3.org/2000/svg">
  <g transform="matrix(1.0, 0.0, 0.0, 1.0, 0.0, 0.0)">
    <path d="M2.55 1.95 L3.3 1.85 Q3.7 1.75 3.7 1.35 3.7 0.9 3.3 0.8 L2.5 0.75 1.85 0.8 Q1.45 0.9 1.45 1.3 1.45 1.65 1.8 1.8 L2.55 1.95 M2.5 0.0 L4.1 0.2 Q4.95 0.5 5.0 1.35 4.95 2.25 4.15 2.5 L2.55 2.65 1.0 2.5 Q0.25 2.2 0.25 1.3 0.25 0.45 1.0 0.2 L2.5 0.0 M0.0 2.65 L0.45 2.75 0.85 2.8 4.5 2.8 4.85 2.6 5.35 2.85 5.55 3.25 Q5.5 3.5 5.15 3.5 L3.35 3.5 3.35 4.55 3.55 4.65 3.4 5.1 3.05 5.25 2.7 5.1 2.4 5.25 2.1 5.1 1.95 4.6 2.05 4.55 2.15 4.35 2.15 3.5 0.9 3.5 0.65 3.55 0.35 3.65 0.0 2.65 M5.6 0.25 L5.6 0.2 5.6 0.25" fill="url(#gradient0)" fill-rule="evenodd" stroke="none"/>
  </g>
  <defs>
    <linearGradient gradientTransform="matrix(0.0, -0.0032, 0.0016, 0.0, 17.9, 2.5)" gradientUnits="userSpaceOnUse" id="gradient0" spreadMethod="pad" x1="-819.2" x2="819.2">
      <stop offset="0.0" stop-color="#d57500"/>
      <stop offset="0.28627450980392155" stop-color="#fec643"/>
      <stop offset="0.49411764705882355" stop-color="#fdea82"/>
      <stop offset="0.6941176470588235" stop-color="#fdc137"/>
      <stop offset="1.0" stop-color="#ffecae"/>
    </linearGradient>
  </defs>
</svg>
