<?xml version="1.0" encoding="UTF-8" standalone="no"?>
<svg xmlns:xlink="http://www.w3.org/1999/xlink" height="5.3px" width="5.3px" xmlns="http://www.w3.org/2000/svg">
  <g transform="matrix(1.0, 0.0, 0.0, 1.0, 0.0, 0.0)">
    <path d="M2.55 0.25 Q2.95 0.25 3.25 0.65 L3.45 1.65 3.15 3.35 2.45 4.75 2.3 5.1 2.15 4.95 1.9 5.15 1.6 4.9 1.5 4.5 Q1.5 4.25 1.65 4.1 1.7 3.9 1.9 3.9 L2.1 4.1 2.1 4.2 2.4 3.1 2.55 1.8 2.4 1.15 2.35 1.15 2.3 1.3 2.35 1.55 2.3 1.85 2.05 2.05 1.85 1.9 1.55 3.45 0.9 4.75 0.75 5.1 0.6 4.95 0.35 5.15 0.1 4.9 0.0 4.5 0.1 4.1 0.35 3.9 0.55 4.1 0.55 4.2 0.85 3.1 0.95 1.8 0.8 1.15 0.75 1.15 0.7 1.3 0.75 1.55 0.6 1.85 0.45 2.05 0.15 1.8 0.1 1.4 0.15 0.9 0.15 0.4 0.5 0.6 Q0.65 0.25 0.95 0.25 1.55 0.25 1.75 0.95 L1.85 0.4 2.1 0.6 2.55 0.25 M1.9 0.6 L1.9 0.55 1.9 0.6 M4.6 0.1 Q5.3 0.25 5.3 0.45 L4.95 0.9 4.95 4.45 5.15 4.65 4.95 5.15 4.6 5.3 4.25 5.15 3.95 5.3 Q3.75 5.3 3.65 5.15 L3.5 4.65 3.65 4.55 3.7 4.4 3.7 0.0 4.6 0.1" fill="url(#gradient0)" fill-rule="evenodd" stroke="none"/>
  </g>
  <defs>
    <linearGradient gradientTransform="matrix(0.0, -0.0032, 0.0016, 0.0, -7.45, 2.6)" gradientUnits="userSpaceOnUse" id="gradient0" spreadMethod="pad" x1="-819.2" x2="819.2">
      <stop offset="0.0" stop-color="#d57500"/>
      <stop offset="0.28627450980392155" stop-color="#fec643"/>
      <stop offset="0.49411764705882355" stop-color="#fdea82"/>
      <stop offset="0.6941176470588235" stop-color="#fdc137"/>
      <stop offset="1.0" stop-color="#ffecae"/>
    </linearGradient>
  </defs>
</svg>
