<?xml version="1.0" encoding="UTF-8" standalone="no"?>
<svg xmlns:xlink="http://www.w3.org/1999/xlink" height="5.35px" width="5.35px" xmlns="http://www.w3.org/2000/svg">
  <g transform="matrix(1.0, 0.0, 0.0, 1.0, 0.0, 0.0)">
    <path d="M2.05 2.1 L2.05 1.1 0.9 1.1 0.4 1.2 0.0 0.35 0.0 0.3 0.8 0.45 2.15 0.45 2.25 0.3 2.5 0.2 2.95 0.4 3.25 0.7 3.05 1.1 3.05 2.7 2.8 2.9 2.5 2.95 2.25 2.9 2.05 2.75 1.4 2.75 1.4 4.25 2.45 4.25 2.65 4.05 2.75 4.0 3.0 3.95 3.35 4.1 3.4 4.3 3.3 4.55 3.1 4.65 3.15 5.1 2.5 4.9 1.25 4.9 Q1.15 4.95 0.95 5.1 L0.5 4.9 0.05 4.6 0.3 4.2 0.3 1.95 1.1 2.1 2.05 2.1 M4.65 0.1 Q5.35 0.25 5.35 0.45 5.35 0.75 4.95 0.9 L4.95 4.5 5.15 4.7 5.0 5.2 4.65 5.35 4.3 5.2 4.0 5.35 3.65 5.2 3.55 4.7 3.65 4.65 3.75 4.45 3.75 0.0 4.65 0.1" fill="url(#gradient0)" fill-rule="evenodd" stroke="none"/>
  </g>
  <defs>
    <linearGradient gradientTransform="matrix(0.0, -0.0032, 0.0016, 0.0, 12.3, 2.6)" gradientUnits="userSpaceOnUse" id="gradient0" spreadMethod="pad" x1="-819.2" x2="819.2">
      <stop offset="0.0" stop-color="#d57500"/>
      <stop offset="0.28627450980392155" stop-color="#fec643"/>
      <stop offset="0.49411764705882355" stop-color="#fdea82"/>
      <stop offset="0.6941176470588235" stop-color="#fdc137"/>
      <stop offset="1.0" stop-color="#ffecae"/>
    </linearGradient>
  </defs>
</svg>
