<?xml version="1.0" encoding="UTF-8" standalone="no"?>
<svg xmlns:xlink="http://www.w3.org/1999/xlink" height="5.35px" width="5.1px" xmlns="http://www.w3.org/2000/svg">
  <g transform="matrix(1.0, 0.0, 0.0, 1.0, 0.0, 0.0)">
    <path d="M4.7 0.9 L4.7 3.1 4.9 3.3 4.75 3.8 4.35 3.9 4.0 3.8 3.7 3.9 3.4 3.8 3.3 3.3 3.4 3.2 3.5 3.1 3.5 0.0 4.4 0.1 Q5.1 0.25 5.1 0.45 L4.7 0.9 M4.65 4.95 L4.75 5.35 4.0 5.2 1.25 5.2 0.8 5.35 0.4 5.15 0.0 4.85 0.2 4.4 0.2 3.35 1.1 3.45 1.7 3.9 1.55 4.1 1.4 4.25 1.4 4.45 3.95 4.45 4.15 4.2 Q4.25 4.1 4.45 4.1 4.75 4.1 4.9 4.35 L4.95 4.55 4.85 4.8 4.65 4.95 M2.85 0.75 L2.85 2.55 3.05 2.85 2.75 3.1 2.15 3.2 Q1.6 3.2 1.5 2.95 L1.25 3.15 0.7 3.25 0.2 3.15 Q-0.05 3.0 0.0 2.75 L0.15 2.65 0.15 0.05 0.65 0.15 0.95 0.3 1.85 0.3 2.25 0.05 2.55 0.15 3.05 0.4 3.1 0.5 2.85 0.75 M1.5 2.4 L1.75 2.5 1.85 2.5 1.85 0.9 1.15 0.9 1.15 2.5 1.5 2.4" fill="url(#gradient0)" fill-rule="evenodd" stroke="none"/>
  </g>
  <defs>
    <linearGradient gradientTransform="matrix(0.0, -0.0032, 0.0016, 0.0, 3.6, 2.6)" gradientUnits="userSpaceOnUse" id="gradient0" spreadMethod="pad" x1="-819.2" x2="819.2">
      <stop offset="0.0" stop-color="#d57500"/>
      <stop offset="0.28627450980392155" stop-color="#fec643"/>
      <stop offset="0.49411764705882355" stop-color="#fdea82"/>
      <stop offset="0.6941176470588235" stop-color="#fdc137"/>
      <stop offset="1.0" stop-color="#ffecae"/>
    </linearGradient>
  </defs>
</svg>
