<?xml version="1.0" encoding="UTF-8" standalone="no"?>
<svg xmlns:xlink="http://www.w3.org/1999/xlink" height="5.35px" width="5.55px" xmlns="http://www.w3.org/2000/svg">
  <g transform="matrix(1.0, 0.0, 0.0, 1.0, 0.0, 0.0)">
    <path d="M3.15 0.9 Q4.8 1.15 5.0 1.75 L5.0 1.85 4.85 2.15 4.55 2.25 4.4 2.25 3.7 1.85 2.9 1.4 2.55 1.75 3.3 1.85 3.75 2.1 3.45 2.5 3.45 2.55 4.55 2.55 4.7 2.45 4.85 2.4 5.35 2.65 5.5 2.85 5.55 2.95 5.5 3.05 5.15 3.2 4.45 3.2 4.7 3.3 4.95 3.4 5.15 3.55 4.95 4.0 4.95 4.55 5.25 4.7 5.05 5.2 4.65 5.35 4.3 5.2 4.0 5.35 3.65 5.2 3.5 4.7 3.7 4.6 3.75 4.45 3.75 4.1 1.35 4.1 1.05 4.45 0.85 4.5 0.4 4.25 0.3 4.0 0.5 3.65 0.75 3.55 0.7 3.4 0.65 3.2 1.25 3.4 3.8 3.4 Q3.9 3.3 3.95 3.3 4.05 3.2 4.1 3.2 L0.85 3.2 0.3 3.25 0.0 2.5 0.35 2.55 0.65 2.55 2.25 2.55 2.25 1.9 0.85 2.3 Q0.6 2.3 0.45 2.1 L0.3 1.75 Q0.3 1.35 0.6 1.35 L0.85 1.45 1.0 1.65 1.0 1.75 1.5 1.4 1.9 0.85 1.1 0.85 0.65 0.95 0.4 0.2 0.75 0.25 1.1 0.25 3.85 0.25 4.2 0.0 Q4.45 0.05 4.7 0.25 L5.0 0.65 4.7 0.85 3.25 0.85 3.15 0.9" fill="url(#gradient0)" fill-rule="evenodd" stroke="none"/>
  </g>
  <defs>
    <linearGradient gradientTransform="matrix(0.0, -0.0032, 0.0016, 0.0, -1.8, 2.6)" gradientUnits="userSpaceOnUse" id="gradient0" spreadMethod="pad" x1="-819.2" x2="819.2">
      <stop offset="0.0" stop-color="#d57500"/>
      <stop offset="0.28627450980392155" stop-color="#fec643"/>
      <stop offset="0.49411764705882355" stop-color="#fdea82"/>
      <stop offset="0.6941176470588235" stop-color="#fdc137"/>
      <stop offset="1.0" stop-color="#ffecae"/>
    </linearGradient>
  </defs>
</svg>
