<?xml version="1.0" encoding="UTF-8" standalone="no"?>
<svg xmlns:xlink="http://www.w3.org/1999/xlink" height="15.05px" width="181.45px" xmlns="http://www.w3.org/2000/svg">
  <g transform="matrix(1.0, 0.0, 0.0, 1.0, 0.0, 0.0)">
    <path d="M61.6 0.75 Q61.2 0.75 60.85 1.1 60.5 1.45 60.5 1.9 60.5 2.35 60.85 2.7 L61.55 3.05 61.6 3.05 62.35 2.75 62.7 1.9 62.6 1.35 62.35 1.05 Q62.05 0.7 61.6 0.75 M61.85 3.6 L61.6 3.6 Q61.0 3.6 60.5 3.1 59.95 2.55 59.95 1.9 59.95 1.25 60.5 0.7 61.0 0.15 61.6 0.2 62.3 0.2 62.75 0.65 L63.2 1.3 63.3 1.9 Q63.3 2.7 62.75 3.2 L62.75 3.15 Q62.35 3.55 61.85 3.6 M63.15 4.15 L63.15 4.8 63.15 13.1 63.1 13.3 62.9 13.4 61.6 13.4 60.35 13.4 60.15 13.3 60.05 13.1 60.05 3.95 60.15 3.75 60.35 3.7 61.9 3.7 62.9 3.7 63.1 3.75 63.15 3.95 63.15 4.15 M53.75 5.25 L53.75 4.55 53.85 4.35 Q53.9 4.25 54.0 4.3 L56.35 4.3 56.55 4.35 56.65 4.55 Q57.35 4.1 58.7 4.1 L58.85 4.2 58.95 4.4 58.95 5.3 58.95 7.05 58.9 7.25 58.75 7.35 58.55 7.3 57.8 6.9 57.05 6.8 Q56.85 6.8 56.7 7.15 L56.7 13.1 56.6 13.3 56.4 13.4 55.3 13.4 54.0 13.4 53.85 13.3 53.75 13.1 53.75 5.25 M56.05 5.1 L56.05 4.85 54.3 4.85 54.3 12.8 56.15 12.8 56.15 7.1 56.15 7.0 Q56.5 6.2 57.05 6.25 L58.0 6.4 58.4 6.6 58.4 4.7 Q57.1 4.75 56.55 5.3 L56.4 5.4 56.3 5.4 56.25 5.35 56.15 5.3 56.05 5.1 M49.15 11.6 L49.55 11.4 49.7 10.85 49.75 4.4 49.85 4.2 50.05 4.1 52.6 4.1 52.75 4.2 52.85 4.4 52.85 5.25 52.85 13.1 52.75 13.3 52.6 13.4 50.05 13.4 49.85 13.3 49.8 13.2 48.55 13.5 47.5 13.4 Q45.0 13.0 45.05 10.45 L45.05 4.4 45.15 4.2 Q45.2 4.1 45.3 4.1 L47.85 4.1 48.05 4.2 48.15 4.4 48.15 5.25 48.15 10.5 Q48.15 11.2 48.3 11.45 L49.0 11.6 49.15 11.6 M52.3 4.7 L50.3 4.7 50.25 10.85 50.0 11.7 49.95 11.75 49.25 12.15 49.0 12.15 Q48.2 12.15 47.9 11.8 L47.85 11.75 Q47.55 11.45 47.6 10.5 L47.6 4.7 45.6 4.7 45.6 10.45 Q45.6 12.05 46.85 12.65 L48.55 12.95 49.65 12.65 49.85 12.5 50.05 12.45 50.2 12.5 50.3 12.7 50.3 12.8 52.3 12.8 52.3 4.7 M66.9 13.4 L65.6 13.4 65.4 13.3 Q65.3 13.2 65.35 13.1 L65.35 4.6 65.4 4.45 65.6 4.35 68.0 4.35 68.2 4.45 68.25 4.55 Q68.65 4.3 69.0 4.35 70.3 4.3 71.1 5.1 72.05 4.25 73.5 4.3 74.65 4.3 75.6 4.95 L76.4 5.85 Q76.75 6.4 76.75 7.1 L76.75 13.1 76.65 13.3 76.45 13.4 75.3 13.4 74.05 13.4 73.85 13.3 73.75 13.1 73.75 7.55 73.75 7.1 73.65 6.4 Q73.55 6.1 73.2 6.1 L72.8 6.15 Q72.65 6.4 72.65 7.4 L72.65 13.1 72.55 13.3 72.35 13.4 71.2 13.4 69.95 13.4 69.75 13.3 69.65 13.1 69.65 7.5 69.6 7.05 69.45 6.4 Q69.2 6.15 68.8 6.15 L68.55 6.4 Q68.3 6.7 68.3 7.25 L68.3 13.1 68.25 13.3 68.05 13.4 66.9 13.4 M67.95 5.35 L67.8 5.25 67.7 5.05 67.7 4.9 65.9 4.9 65.9 12.8 67.75 12.8 67.75 7.25 Q67.75 6.5 68.1 6.05 68.4 5.6 68.8 5.6 L69.25 5.65 69.45 5.75 69.85 6.05 70.15 6.75 70.2 7.5 70.2 12.8 72.1 12.8 72.1 7.4 72.2 6.15 72.35 5.85 Q72.5 5.55 73.2 5.55 L73.55 5.6 Q74.0 5.7 74.15 6.15 L74.3 6.65 74.3 7.55 74.3 12.8 76.2 12.8 76.2 7.1 Q76.15 6.05 75.3 5.45 L75.25 5.4 Q74.5 4.8 73.5 4.85 72.2 4.8 71.35 5.65 L71.3 5.7 71.15 5.8 71.0 5.8 70.85 5.7 70.65 5.5 Q69.95 4.9 69.0 4.9 68.6 4.9 68.15 5.3 L67.95 5.35 M62.6 4.25 L60.6 4.25 60.6 12.8 62.6 12.8 62.6 4.25 M81.2 1.05 L80.45 0.75 Q80.05 0.75 79.7 1.1 79.35 1.45 79.35 1.9 79.35 2.35 79.7 2.7 L80.4 3.05 80.45 3.05 81.2 2.75 81.55 1.9 81.45 1.35 81.2 1.05 M80.7 3.6 L80.45 3.6 Q79.85 3.6 79.3 3.1 78.75 2.55 78.8 1.9 78.75 1.25 79.3 0.7 79.85 0.15 80.45 0.2 81.1 0.2 81.6 0.65 L82.05 1.3 82.1 1.9 Q82.1 2.7 81.6 3.2 L81.6 3.15 Q81.2 3.55 80.7 3.6 M82.0 4.15 L82.0 4.8 82.0 13.1 81.95 13.3 81.75 13.4 80.45 13.4 79.2 13.4 79.0 13.3 78.9 13.1 78.9 3.95 79.0 3.75 79.2 3.7 80.75 3.7 81.75 3.7 81.95 3.75 82.0 3.95 82.0 4.15 M87.5 5.6 L87.85 5.65 88.1 5.7 88.4 5.95 88.65 6.75 88.65 7.45 88.65 12.8 90.6 12.8 90.6 7.45 Q90.6 6.1 89.9 5.5 L89.7 5.4 Q89.05 4.9 87.65 4.9 87.2 4.9 86.7 5.25 L86.55 5.3 86.35 5.2 86.3 5.0 86.3 4.9 84.55 4.9 84.55 12.8 86.35 12.8 86.35 7.15 Q86.3 6.45 86.65 6.05 86.95 5.6 87.5 5.6 M79.45 4.25 L79.45 12.8 81.45 12.8 81.45 4.25 79.45 4.25 M85.55 13.4 L84.3 13.4 84.1 13.3 84.0 13.1 84.0 4.6 84.1 4.45 Q84.15 4.35 84.3 4.35 L86.55 4.35 86.75 4.45 86.85 4.55 87.65 4.35 Q89.25 4.35 90.05 4.95 L90.8 5.8 Q91.15 6.45 91.15 7.45 L91.15 13.1 91.05 13.3 90.9 13.4 89.65 13.4 88.4 13.4 88.2 13.3 88.1 13.1 88.1 7.45 88.1 7.15 87.95 6.3 87.9 6.25 87.5 6.15 Q87.25 6.15 87.1 6.4 L86.9 7.15 86.9 13.1 86.8 13.3 86.6 13.4 85.55 13.4 M110.0 8.05 L110.0 0.3 110.1 0.1 Q110.15 0.0 110.3 0.0 L112.75 0.0 112.95 0.1 113.05 0.3 113.05 1.15 113.05 6.05 114.05 4.6 115.15 2.95 115.25 2.85 115.4 2.85 116.8 2.85 117.0 2.9 117.1 3.05 117.05 3.25 116.4 4.3 114.8 6.85 118.0 12.95 118.05 13.15 117.95 13.3 117.75 13.4 115.95 13.4 114.95 13.4 114.8 13.3 114.7 13.2 114.05 11.85 113.05 9.7 113.05 13.05 112.95 13.25 112.75 13.3 111.55 13.3 110.3 13.3 110.1 13.25 110.0 13.05 110.0 11.05 110.0 8.05 M98.95 5.4 L98.95 4.95 93.95 4.95 93.95 5.75 96.5 5.75 96.65 5.8 96.75 5.95 96.75 6.15 93.6 12.45 93.6 12.8 99.15 12.8 99.15 12.05 96.2 12.05 96.05 12.0 95.9 11.85 95.95 11.65 98.95 5.4 M99.5 5.5 L99.5 5.55 96.65 11.5 98.0 11.5 99.4 11.5 99.6 11.6 99.7 11.75 99.7 12.6 99.7 13.1 99.6 13.3 99.4 13.4 94.6 13.4 93.3 13.4 93.1 13.3 93.05 13.1 93.05 12.4 93.05 12.25 95.75 6.85 96.05 6.3 94.9 6.3 93.65 6.3 93.45 6.2 93.35 6.0 93.35 4.7 93.45 4.5 93.65 4.4 99.25 4.4 99.45 4.5 99.5 4.7 99.5 5.5 M104.35 13.4 Q103.0 13.15 102.15 12.0 101.05 10.65 101.1 8.7 101.05 6.8 102.0 5.5 103.15 4.1 105.05 4.1 107.1 4.1 108.25 5.4 L108.25 5.45 108.4 5.75 Q109.15 6.9 109.15 8.85 109.15 10.75 108.1 12.05 106.95 13.4 105.05 13.45 L104.35 13.4 M106.3 6.3 L106.4 6.45 106.8 8.85 Q106.8 11.75 105.5 12.1 L105.05 12.1 Q103.5 12.15 103.5 8.7 103.5 6.9 103.95 6.05 104.3 5.3 105.05 5.35 L105.3 5.35 Q105.9 5.45 106.3 6.3 M107.8 5.8 L107.25 5.3 Q106.35 4.65 105.05 4.7 103.4 4.65 102.45 5.85 101.6 6.95 101.65 8.7 101.6 10.45 102.55 11.65 L103.5 12.45 105.05 12.9 106.4 12.65 Q107.0 12.65 107.35 12.1 L107.65 11.7 Q108.6 10.55 108.6 8.85 108.6 6.9 107.8 5.8 M105.85 6.6 L105.8 6.5 Q105.5 5.9 105.05 5.9 104.05 5.95 104.05 8.7 104.05 11.45 105.05 11.55 L105.25 11.5 Q106.2 11.25 106.25 8.85 106.2 7.4 105.85 6.6 M122.35 4.6 L123.45 2.95 123.55 2.85 123.7 2.85 125.15 2.85 125.3 2.9 125.4 3.05 125.4 3.25 124.7 4.35 123.15 6.85 126.3 12.95 126.35 13.15 126.25 13.3 126.05 13.4 124.25 13.4 123.25 13.4 123.1 13.3 123.0 13.2 122.35 11.85 121.35 9.7 121.35 13.05 121.3 13.25 121.1 13.3 119.85 13.3 118.75 13.3 118.6 13.3 118.4 13.25 118.3 13.05 118.3 12.55 118.3 0.3 118.4 0.1 Q118.45 0.0 118.6 0.0 L121.1 0.0 121.3 0.1 121.35 0.3 121.35 1.15 121.35 6.05 122.35 4.6 M129.1 3.6 L128.9 3.6 Q128.3 3.6 127.75 3.1 127.2 2.55 127.25 1.9 127.2 1.25 127.75 0.7 128.3 0.15 128.9 0.2 129.55 0.2 130.05 0.65 L130.5 1.3 130.55 1.9 Q130.55 2.7 130.05 3.2 L130.05 3.15 Q129.65 3.55 129.1 3.6 M130.45 4.15 L130.45 4.8 130.45 13.1 130.35 13.3 130.15 13.4 128.9 13.4 127.6 13.4 127.45 13.3 127.35 13.1 127.35 3.95 127.45 3.75 Q127.5 3.65 127.6 3.7 L129.2 3.7 130.15 3.7 130.35 3.75 130.45 3.95 130.45 4.15 M112.5 0.55 L110.55 0.55 110.55 12.75 112.5 12.75 112.5 8.65 112.55 8.6 112.6 8.45 112.75 8.35 112.95 8.35 113.1 8.5 115.1 12.8 117.3 12.8 114.25 7.0 114.2 6.85 114.25 6.7 116.3 3.4 115.5 3.4 113.0 7.1 112.85 7.2 112.7 7.25 112.55 7.1 112.5 6.95 112.5 0.55 M129.65 1.05 Q129.3 0.7 128.9 0.75 128.5 0.75 128.15 1.1 127.8 1.45 127.8 1.9 127.8 2.35 128.15 2.7 L128.8 3.05 128.9 3.05 Q129.3 3.05 129.65 2.75 L130.0 1.9 129.85 1.35 129.65 1.05 M124.65 3.4 L123.85 3.4 121.3 7.1 121.15 7.2 121.0 7.25 120.85 7.1 120.8 6.95 120.8 0.55 118.85 0.55 118.85 12.75 120.8 12.75 120.8 8.65 120.85 8.6 120.9 8.45 Q120.95 8.35 121.1 8.35 L121.25 8.35 121.4 8.5 123.4 12.8 125.6 12.8 122.55 7.0 122.55 6.85 122.55 6.7 124.65 3.4 M129.9 4.25 L127.9 4.25 127.9 12.8 129.9 12.8 129.9 4.25 M141.0 1.3 L141.1 1.9 Q141.1 2.7 140.55 3.2 L140.55 3.15 Q140.15 3.55 139.65 3.6 L139.45 3.6 Q138.8 3.6 138.3 3.1 137.75 2.55 137.75 1.9 137.75 1.25 138.3 0.7 138.8 0.15 139.45 0.2 140.1 0.2 140.55 0.65 L141.0 1.3 M139.7 3.7 L140.7 3.7 140.9 3.75 141.0 3.95 141.0 4.15 141.0 4.8 141.0 13.1 140.9 13.3 140.7 13.4 139.45 13.4 138.15 13.4 137.95 13.3 137.9 13.1 137.9 3.95 137.95 3.75 138.15 3.7 139.7 3.7 M140.2 1.05 L139.45 0.75 Q139.05 0.75 138.7 1.1 138.3 1.45 138.3 1.9 138.3 2.35 138.7 2.7 L139.35 3.05 139.45 3.05 140.2 2.75 140.55 1.9 140.4 1.35 140.2 1.05 M140.45 4.25 L138.45 4.25 138.45 12.8 140.45 12.8 140.45 4.25 M133.1 13.4 L131.85 13.4 131.65 13.3 131.55 13.1 131.55 4.55 131.65 4.35 131.85 4.3 134.15 4.3 134.35 4.35 134.45 4.55 Q135.15 4.1 136.5 4.1 L136.7 4.2 136.75 4.4 136.75 5.3 136.75 7.05 136.7 7.25 136.55 7.35 136.4 7.3 135.6 6.9 134.9 6.8 Q134.65 6.8 134.5 7.15 L134.5 13.1 134.4 13.3 134.2 13.4 133.1 13.4 M135.85 6.4 L136.2 6.6 136.2 4.7 Q134.9 4.75 134.35 5.3 L134.2 5.4 134.15 5.4 134.05 5.35 133.95 5.3 133.9 5.1 133.9 4.85 132.1 4.85 132.1 12.8 133.95 12.8 133.95 7.1 133.95 7.0 Q134.3 6.2 134.9 6.25 L135.85 6.4 M144.85 11.95 L144.85 12.0 144.1 11.7 Q143.7 11.7 143.35 12.05 L143.35 12.0 Q142.9 12.35 142.9 12.9 142.9 13.3 143.25 13.65 143.5 13.9 143.95 13.95 L144.1 13.95 Q145.15 13.95 145.2 12.9 L145.1 12.3 144.85 11.95 M144.15 14.5 L144.1 14.5 Q143.3 14.45 142.85 14.0 142.35 13.55 142.35 12.9 142.35 12.15 142.95 11.65 L142.95 11.6 Q143.45 11.15 144.1 11.15 144.75 11.15 145.2 11.55 L145.2 11.6 145.65 12.3 145.75 12.9 Q145.75 14.45 144.15 14.5 M156.9 5.0 L156.7 4.85 Q156.0 4.3 154.6 4.35 153.0 4.3 152.05 5.55 151.15 6.75 151.2 8.7 151.15 10.75 152.2 11.85 L152.95 12.45 Q153.65 12.85 154.65 12.9 L155.7 12.75 156.55 12.45 156.65 12.4 157.35 11.5 157.6 10.95 155.75 10.95 155.55 11.85 155.0 12.25 154.8 12.25 Q153.75 12.25 153.3 11.2 153.0 10.45 153.0 8.7 153.0 6.75 153.45 5.85 153.85 4.95 154.65 5.0 L154.9 5.05 Q155.45 5.1 155.6 5.65 L155.7 6.15 155.7 6.3 157.65 6.3 Q157.35 5.4 156.9 5.0 M153.85 13.35 Q152.65 13.1 151.8 12.25 150.6 11.0 150.65 8.7 150.6 6.55 151.6 5.25 152.75 3.8 154.6 3.8 156.2 3.75 157.05 4.4 L157.8 5.25 158.25 6.5 158.25 6.65 158.15 6.8 158.0 6.85 156.65 6.85 155.45 6.85 155.25 6.75 155.15 6.55 155.15 6.5 155.05 5.8 Q154.95 5.55 154.65 5.55 153.55 5.6 153.55 8.7 153.55 10.3 153.8 11.0 154.1 11.7 154.75 11.7 L154.8 11.7 155.05 11.6 155.25 10.65 155.3 10.45 155.5 10.4 157.95 10.4 158.1 10.45 158.2 10.55 158.2 10.7 157.95 11.5 156.9 12.9 Q156.1 13.4 154.65 13.45 L153.85 13.35 M159.25 7.3 Q159.45 6.3 160.05 5.5 161.15 4.1 163.1 4.1 165.1 4.1 166.25 5.4 L166.25 5.45 166.45 5.75 Q167.15 6.9 167.2 8.85 167.2 10.75 166.15 12.05 165.0 13.4 163.1 13.45 L162.4 13.4 Q161.05 13.15 160.15 12.0 159.1 10.65 159.1 8.7 L159.2 7.4 159.25 7.3 M160.5 5.85 Q159.65 6.95 159.65 8.7 159.65 10.45 160.6 11.65 L161.5 12.45 163.1 12.9 164.45 12.65 Q165.0 12.65 165.35 12.1 L165.7 11.7 Q166.65 10.55 166.65 8.85 166.65 6.9 165.8 5.8 L165.25 5.3 Q164.4 4.65 163.1 4.7 161.45 4.65 160.5 5.85 M170.6 13.4 L169.3 13.4 169.1 13.3 169.05 13.1 169.05 4.6 Q169.0 4.5 169.1 4.45 L169.3 4.35 171.7 4.35 171.9 4.45 171.95 4.55 172.7 4.35 Q174.0 4.3 174.8 5.1 175.75 4.25 177.15 4.3 178.35 4.3 179.3 4.95 L180.1 5.85 Q180.45 6.4 180.45 7.1 L180.45 13.1 180.35 13.3 180.15 13.4 179.0 13.4 177.75 13.4 177.55 13.3 177.45 13.1 177.45 7.55 177.45 7.1 177.35 6.4 Q177.25 6.1 176.9 6.1 L176.5 6.15 Q176.35 6.4 176.35 7.4 L176.35 13.1 176.25 13.3 176.05 13.4 174.9 13.4 173.65 13.4 173.45 13.3 173.35 13.1 173.35 7.5 173.3 7.05 173.15 6.4 Q172.9 6.15 172.5 6.15 L172.25 6.4 Q172.0 6.7 172.0 7.25 L172.0 13.1 171.95 13.3 171.75 13.4 170.6 13.4 M163.1 5.35 L163.3 5.35 Q163.9 5.45 164.35 6.3 L164.45 6.45 Q164.8 7.35 164.8 8.85 164.8 11.75 163.5 12.1 L163.1 12.1 Q161.5 12.15 161.55 8.7 161.55 6.9 162.0 6.05 162.35 5.3 163.1 5.35 M163.3 11.5 Q164.25 11.25 164.25 8.85 164.25 7.4 163.85 6.6 L163.85 6.5 Q163.55 5.9 163.1 5.9 162.1 5.95 162.1 8.7 162.1 11.45 163.1 11.55 L163.3 11.5 M169.6 4.9 L169.6 12.8 171.45 12.8 171.45 7.25 Q171.45 6.5 171.8 6.05 172.1 5.6 172.5 5.6 L172.95 5.65 173.15 5.75 173.55 6.05 173.85 6.75 173.9 7.5 173.9 12.8 175.8 12.8 175.8 7.4 175.9 6.15 176.05 5.85 Q176.2 5.55 176.9 5.55 L177.25 5.6 177.85 6.15 178.0 6.65 178.0 7.55 178.0 12.8 179.9 12.8 179.9 7.1 Q179.85 6.05 179.0 5.45 L178.95 5.4 Q178.15 4.8 177.15 4.85 175.9 4.8 175.05 5.65 L175.0 5.7 174.85 5.8 174.7 5.8 174.55 5.7 174.35 5.5 Q173.65 4.9 172.7 4.9 172.3 4.9 171.85 5.3 L171.65 5.35 171.5 5.25 171.4 5.05 171.4 4.9 169.6 4.9 M8.2 7.05 L8.7 4.85 8.8 4.7 8.95 4.6 11.5 4.6 11.7 4.7 11.75 4.8 11.8 4.95 11.6 5.75 9.8 13.15 9.7 13.3 9.5 13.4 8.55 13.4 7.4 13.4 7.25 13.3 7.15 13.2 6.6 11.0 5.95 8.75 4.8 13.2 4.7 13.3 4.55 13.4 3.5 13.4 2.35 13.4 2.2 13.3 2.1 13.15 0.05 4.95 0.05 4.8 0.15 4.7 Q0.2 4.6 0.3 4.6 L2.9 4.6 3.1 4.7 3.2 4.85 3.4 5.75 4.05 8.6 4.45 7.0 5.05 4.8 5.15 4.7 Q5.2 4.6 5.3 4.6 L6.6 4.6 6.75 4.7 6.85 4.8 7.1 5.75 7.9 8.55 8.2 7.05 M12.25 5.75 L12.05 4.95 12.1 4.8 12.2 4.7 Q12.25 4.6 12.35 4.6 L14.95 4.6 15.1 4.7 15.2 4.85 15.4 5.75 16.1 8.6 16.5 7.0 17.05 4.8 17.15 4.7 17.35 4.6 18.6 4.6 18.75 4.7 18.9 4.8 19.15 5.75 19.95 8.55 20.25 7.05 20.7 4.85 20.8 4.7 21.0 4.6 23.55 4.6 23.7 4.7 23.8 4.8 23.8 4.95 23.6 5.75 21.8 13.15 21.7 13.3 21.55 13.4 20.55 13.4 19.45 13.4 19.25 13.3 19.15 13.2 18.6 11.0 18.0 8.75 16.85 13.2 16.7 13.3 16.55 13.4 15.55 13.4 14.4 13.4 14.25 13.3 14.1 13.15 12.55 6.8 12.25 5.75 M24.3 5.75 L24.1 4.95 24.1 4.8 24.2 4.7 Q24.25 4.6 24.35 4.6 L26.95 4.6 27.15 4.7 27.25 4.85 27.45 5.75 28.1 8.6 28.55 7.0 29.1 4.8 29.2 4.7 29.35 4.6 30.65 4.6 30.8 4.7 30.9 4.8 31.15 5.75 31.95 8.55 32.25 7.05 32.75 4.85 32.85 4.7 Q32.9 4.6 33.0 4.6 L35.55 4.6 35.75 4.7 35.8 4.8 35.85 4.95 35.65 5.75 33.85 13.15 33.75 13.3 33.55 13.4 32.6 13.4 31.45 13.4 31.3 13.3 31.2 13.2 30.6 11.0 30.0 8.75 28.85 13.2 28.75 13.3 28.6 13.4 27.55 13.4 26.4 13.4 26.25 13.3 26.15 13.15 24.55 6.8 24.3 5.75 M6.35 5.15 L5.5 5.15 4.3 9.9 4.2 10.05 4.05 10.1 3.85 10.05 3.75 9.9 2.7 5.15 0.7 5.15 2.6 12.8 4.3 12.8 5.7 7.55 5.8 7.4 Q5.85 7.3 5.95 7.35 L6.15 7.4 6.25 7.55 7.65 12.8 9.3 12.8 11.15 5.15 9.2 5.15 8.25 9.85 8.15 10.0 7.95 10.05 7.8 10.0 7.7 9.85 6.35 5.15 M18.4 5.15 L17.55 5.15 16.35 9.9 16.2 10.05 16.05 10.1 15.9 10.05 15.8 9.9 14.75 5.15 12.7 5.15 14.6 12.8 16.35 12.8 17.7 7.55 17.85 7.4 Q17.9 7.3 18.0 7.35 L18.15 7.4 18.25 7.55 19.65 12.8 21.3 12.8 23.2 5.15 21.2 5.15 20.25 9.85 20.15 10.0 20.0 10.05 19.8 10.0 19.7 9.85 18.4 5.15 M26.75 5.15 L24.75 5.15 26.65 12.8 28.35 12.8 29.75 7.55 29.85 7.4 Q29.9 7.3 30.0 7.35 L30.2 7.4 30.3 7.55 31.7 12.8 33.35 12.8 35.2 5.15 33.25 5.15 32.3 9.85 32.2 10.0 32.0 10.05 31.85 10.0 31.75 9.85 30.4 5.15 29.6 5.15 28.35 9.9 28.25 10.05 28.1 10.1 27.9 10.05 27.8 9.9 26.75 5.15 M39.15 12.3 L38.9 11.95 38.9 12.0 Q38.6 11.7 38.15 11.7 37.75 11.7 37.4 12.05 L37.4 12.0 Q37.0 12.35 37.0 12.9 L37.3 13.65 38.05 13.95 38.15 13.95 Q39.25 13.95 39.3 12.9 L39.15 12.3 M38.25 14.5 L38.15 14.5 Q37.35 14.45 36.9 14.0 36.45 13.55 36.45 12.9 36.45 12.15 37.05 11.65 L37.05 11.6 Q37.55 11.15 38.15 11.15 38.8 11.15 39.3 11.55 L39.3 11.6 39.75 12.3 39.85 12.9 Q39.85 14.45 38.25 14.5" fill="#ffffff" fill-rule="evenodd" stroke="none"/>
    <path d="M61.6 0.75 Q62.05 0.7 62.35 1.05 L62.6 1.35 62.7 1.9 62.35 2.75 61.6 3.05 61.55 3.05 60.85 2.7 Q60.5 2.35 60.5 1.9 60.5 1.45 60.85 1.1 61.2 0.75 61.6 0.75 M56.05 5.1 L56.15 5.3 56.25 5.35 56.3 5.4 56.4 5.4 56.55 5.3 Q57.1 4.75 58.4 4.7 L58.4 6.6 58.0 6.4 57.05 6.25 Q56.5 6.2 56.15 7.0 L56.15 7.1 56.15 12.8 54.3 12.8 54.3 4.85 56.05 4.85 56.05 5.1 M52.3 4.7 L52.3 12.8 50.3 12.8 50.3 12.7 50.2 12.5 50.05 12.45 49.85 12.5 49.65 12.65 48.55 12.95 46.85 12.65 Q45.6 12.05 45.6 10.45 L45.6 4.7 47.6 4.7 47.6 10.5 Q47.55 11.45 47.85 11.75 L47.9 11.8 Q48.2 12.15 49.0 12.15 L49.25 12.15 49.95 11.75 50.0 11.7 50.25 10.85 50.3 4.7 52.3 4.7 M67.95 5.35 L68.15 5.3 Q68.6 4.9 69.0 4.9 69.95 4.9 70.65 5.5 L70.85 5.7 71.0 5.8 71.15 5.8 71.3 5.7 71.35 5.65 Q72.2 4.8 73.5 4.85 74.5 4.8 75.25 5.4 L75.3 5.45 Q76.15 6.05 76.2 7.1 L76.2 12.8 74.3 12.8 74.3 7.55 74.3 6.65 74.15 6.15 Q74.0 5.7 73.55 5.6 L73.2 5.55 Q72.5 5.55 72.35 5.85 L72.2 6.15 72.1 7.4 72.1 12.8 70.2 12.8 70.2 7.5 70.15 6.75 69.85 6.05 69.45 5.75 69.25 5.65 68.8 5.6 Q68.4 5.6 68.1 6.05 67.75 6.5 67.75 7.25 L67.75 12.8 65.9 12.8 65.9 4.9 67.7 4.9 67.7 5.05 67.8 5.25 67.95 5.35 M62.6 4.25 L62.6 12.8 60.6 12.8 60.6 4.25 62.6 4.25 M81.2 1.05 L81.45 1.35 81.55 1.9 81.2 2.75 80.45 3.05 80.4 3.05 79.7 2.7 Q79.35 2.35 79.35 1.9 79.35 1.45 79.7 1.1 80.05 0.75 80.45 0.75 L81.2 1.05 M79.45 4.25 L81.45 4.25 81.45 12.8 79.45 12.8 79.45 4.25 M87.5 5.6 Q86.95 5.6 86.65 6.05 86.3 6.45 86.35 7.15 L86.35 12.8 84.55 12.8 84.55 4.9 86.3 4.9 86.3 5.0 86.35 5.2 86.55 5.3 86.7 5.25 Q87.2 4.9 87.65 4.9 89.05 4.9 89.7 5.4 L89.9 5.5 Q90.6 6.1 90.6 7.45 L90.6 12.8 88.65 12.8 88.65 7.45 88.65 6.75 88.4 5.95 88.1 5.7 87.85 5.65 87.5 5.6 M98.95 5.4 L95.95 11.65 95.9 11.85 96.05 12.0 96.2 12.05 99.15 12.05 99.15 12.8 93.6 12.8 93.6 12.45 96.75 6.15 96.75 5.95 96.65 5.8 96.5 5.75 93.95 5.75 93.95 4.95 98.95 4.95 98.95 5.4 M107.8 5.8 Q108.6 6.9 108.6 8.85 108.6 10.55 107.65 11.7 L107.35 12.1 Q107.0 12.65 106.4 12.65 L105.05 12.9 103.5 12.45 102.55 11.65 Q101.6 10.45 101.65 8.7 101.6 6.95 102.45 5.85 103.4 4.65 105.05 4.7 106.35 4.65 107.25 5.3 L107.8 5.8 M106.3 6.3 Q105.9 5.45 105.3 5.35 L105.05 5.35 Q104.3 5.3 103.95 6.05 103.5 6.9 103.5 8.7 103.5 12.15 105.05 12.1 L105.5 12.1 Q106.8 11.75 106.8 8.85 L106.4 6.45 106.3 6.3 M129.65 1.05 L129.85 1.35 130.0 1.9 129.65 2.75 Q129.3 3.05 128.9 3.05 L128.8 3.05 128.15 2.7 Q127.8 2.35 127.8 1.9 127.8 1.45 128.15 1.1 128.5 0.75 128.9 0.75 129.3 0.7 129.65 1.05 M112.5 0.55 L112.5 6.95 112.55 7.1 112.7 7.25 112.85 7.2 113.0 7.1 115.5 3.4 116.3 3.4 114.25 6.7 114.2 6.85 114.25 7.0 117.3 12.8 115.1 12.8 113.1 8.5 112.95 8.35 112.75 8.35 112.6 8.45 112.55 8.6 112.5 8.65 112.5 12.75 110.55 12.75 110.55 0.55 112.5 0.55 M129.9 4.25 L129.9 12.8 127.9 12.8 127.9 4.25 129.9 4.25 M124.65 3.4 L122.55 6.7 122.55 6.85 122.55 7.0 125.6 12.8 123.4 12.8 121.4 8.5 121.25 8.35 121.1 8.35 Q120.95 8.35 120.9 8.45 L120.85 8.6 120.8 8.65 120.8 12.75 118.85 12.75 118.85 0.55 120.8 0.55 120.8 6.95 120.85 7.1 121.0 7.25 121.15 7.2 121.3 7.1 123.85 3.4 124.65 3.4 M140.2 1.05 L140.4 1.35 140.55 1.9 140.2 2.75 139.45 3.05 139.35 3.05 138.7 2.7 Q138.3 2.35 138.3 1.9 138.3 1.45 138.7 1.1 139.05 0.75 139.45 0.75 L140.2 1.05 M140.45 4.25 L140.45 12.8 138.45 12.8 138.45 4.25 140.45 4.25 M135.85 6.4 L134.9 6.25 Q134.3 6.2 133.95 7.0 L133.95 7.1 133.95 12.8 132.1 12.8 132.1 4.85 133.9 4.85 133.9 5.1 133.95 5.3 134.05 5.35 134.15 5.4 134.2 5.4 134.35 5.3 Q134.9 4.75 136.2 4.7 L136.2 6.6 135.85 6.4 M144.85 11.95 L145.1 12.3 145.2 12.9 Q145.15 13.95 144.1 13.95 L143.95 13.95 Q143.5 13.9 143.25 13.65 142.9 13.3 142.9 12.9 142.9 12.35 143.35 12.0 L143.35 12.05 Q143.7 11.7 144.1 11.7 L144.85 12.0 144.85 11.95 M156.9 5.0 Q157.35 5.4 157.65 6.3 L155.7 6.3 155.7 6.15 155.6 5.65 Q155.45 5.1 154.9 5.05 L154.65 5.0 Q153.85 4.95 153.45 5.85 153.0 6.75 153.0 8.7 153.0 10.45 153.3 11.2 153.75 12.25 154.8 12.25 L155.0 12.25 155.55 11.85 155.75 10.95 157.6 10.95 157.35 11.5 156.65 12.4 156.55 12.45 155.7 12.75 154.65 12.9 Q153.65 12.85 152.95 12.45 L152.2 11.85 Q151.15 10.75 151.2 8.7 151.15 6.75 152.05 5.55 153.0 4.3 154.6 4.35 156.0 4.3 156.7 4.85 L156.9 5.0 M160.5 5.85 Q161.45 4.65 163.1 4.7 164.4 4.65 165.25 5.3 L165.8 5.8 Q166.65 6.9 166.65 8.85 166.65 10.55 165.7 11.7 L165.35 12.1 Q165.0 12.65 164.45 12.65 L163.1 12.9 161.5 12.45 160.6 11.65 Q159.65 10.45 159.65 8.7 159.65 6.95 160.5 5.85 M163.1 5.35 Q162.35 5.3 162.0 6.05 161.55 6.9 161.55 8.7 161.5 12.15 163.1 12.1 L163.5 12.1 Q164.8 11.75 164.8 8.85 164.8 7.35 164.45 6.45 L164.35 6.3 Q163.9 5.45 163.3 5.35 L163.1 5.35 M169.6 4.9 L171.4 4.9 171.4 5.05 171.5 5.25 171.65 5.35 171.85 5.3 Q172.3 4.9 172.7 4.9 173.65 4.9 174.35 5.5 L174.55 5.7 174.7 5.8 174.85 5.8 175.0 5.7 175.05 5.65 Q175.9 4.8 177.15 4.85 178.15 4.8 178.95 5.4 L179.0 5.45 Q179.85 6.05 179.9 7.1 L179.9 12.8 178.0 12.8 178.0 7.55 178.0 6.65 177.85 6.15 177.25 5.6 176.9 5.55 Q176.2 5.55 176.05 5.85 L175.9 6.15 175.8 7.4 175.8 12.8 173.9 12.8 173.9 7.5 173.85 6.75 173.55 6.05 173.15 5.75 172.95 5.65 172.5 5.6 Q172.1 5.6 171.8 6.05 171.45 6.5 171.45 7.25 L171.45 12.8 169.6 12.8 169.6 4.9 M6.35 5.15 L7.7 9.85 7.8 10.0 7.95 10.05 8.15 10.0 8.25 9.85 9.2 5.15 11.15 5.15 9.3 12.8 7.65 12.8 6.25 7.55 6.15 7.4 5.95 7.35 Q5.85 7.3 5.8 7.4 L5.7 7.55 4.3 12.8 2.6 12.8 0.7 5.15 2.7 5.15 3.75 9.9 3.85 10.05 4.05 10.1 4.2 10.05 4.3 9.9 5.5 5.15 6.35 5.15 M18.4 5.15 L19.7 9.85 19.8 10.0 20.0 10.05 20.15 10.0 20.25 9.85 21.2 5.15 23.2 5.15 21.3 12.8 19.65 12.8 18.25 7.55 18.15 7.4 18.0 7.35 Q17.9 7.3 17.85 7.4 L17.7 7.55 16.35 12.8 14.6 12.8 12.7 5.15 14.75 5.15 15.8 9.9 15.9 10.05 16.05 10.1 16.2 10.05 16.35 9.9 17.55 5.15 18.4 5.15 M26.75 5.15 L27.8 9.9 27.9 10.05 28.1 10.1 28.25 10.05 28.35 9.9 29.6 5.15 30.4 5.15 31.75 9.85 31.85 10.0 32.0 10.05 32.2 10.0 32.3 9.85 33.25 5.15 35.2 5.15 33.35 12.8 31.7 12.8 30.3 7.55 30.2 7.4 30.0 7.35 Q29.9 7.3 29.85 7.4 L29.75 7.55 28.35 12.8 26.65 12.8 24.75 5.15 26.75 5.15 M39.15 12.3 L39.3 12.9 Q39.25 13.95 38.15 13.95 L38.05 13.95 37.3 13.65 37.0 12.9 Q37.0 12.35 37.4 12.0 L37.4 12.05 Q37.75 11.7 38.15 11.7 38.6 11.7 38.9 12.0 L38.9 11.95 39.15 12.3" fill="#4945ef" fill-rule="evenodd" stroke="none"/>
    <path d="M61.85 3.6 Q62.35 3.55 62.75 3.15 L62.75 3.2 Q63.3 2.7 63.3 1.9 L63.2 1.3 63.85 1.7 Q64.25 2.05 64.25 2.75 64.25 3.4 63.85 3.8 L63.15 4.15 63.15 3.95 63.1 3.75 62.9 3.7 61.9 3.7 61.85 3.6 M63.15 4.8 L64.15 4.8 64.15 13.95 61.6 13.95 61.6 13.4 62.9 13.4 63.1 13.3 63.15 13.1 63.15 4.8 M53.75 5.25 L53.75 13.1 53.85 13.3 53.85 13.95 51.3 13.95 51.3 13.55 Q50.6 14.0 49.8 14.05 48.25 14.05 47.5 13.4 L48.55 13.5 49.8 13.2 49.85 13.3 50.05 13.4 52.6 13.4 52.75 13.3 52.85 13.1 52.85 5.25 53.75 5.25 M55.3 13.4 L56.4 13.4 56.6 13.3 56.7 13.1 56.7 7.15 Q56.85 6.8 57.05 6.8 L57.8 6.9 58.55 7.3 58.75 7.35 58.9 7.25 58.95 7.05 58.95 5.3 59.95 5.25 59.95 7.9 59.2 7.5 58.35 7.35 Q57.95 7.3 57.7 7.95 L57.7 13.95 55.3 13.95 55.3 13.4 M49.15 11.6 L49.0 11.6 48.3 11.45 Q48.15 11.2 48.15 10.5 L48.15 5.25 49.15 5.25 49.15 11.35 49.15 11.6 M66.9 13.4 L68.05 13.4 68.25 13.3 68.3 13.1 68.3 7.25 Q68.3 6.7 68.55 6.4 L68.8 6.15 Q69.2 6.15 69.45 6.4 L69.6 7.05 Q69.3 7.45 69.3 8.05 L69.3 13.95 66.9 13.95 66.9 13.4 M71.2 13.4 L72.35 13.4 72.55 13.3 72.65 13.1 72.65 7.4 Q72.65 6.4 72.8 6.15 L73.2 6.1 Q73.55 6.1 73.65 6.4 L73.75 7.1 73.65 8.2 73.65 13.95 71.2 13.95 71.2 13.4 M75.3 13.4 L76.45 13.4 76.65 13.3 76.75 13.1 76.75 7.1 Q76.75 6.4 76.4 5.85 L76.7 6.0 Q77.75 6.7 77.75 7.95 L77.75 13.95 75.3 13.95 75.3 13.4 M80.7 3.6 Q81.2 3.55 81.6 3.15 L81.6 3.2 Q82.1 2.7 82.1 1.9 L82.05 1.3 82.7 1.7 Q83.1 2.05 83.1 2.75 83.1 3.4 82.7 3.8 L82.0 4.15 82.0 3.95 81.95 3.75 81.75 3.7 80.75 3.7 80.7 3.6 M82.0 4.8 L83.0 4.8 83.0 13.95 80.45 13.95 80.45 13.4 81.75 13.4 81.95 13.3 82.0 13.1 82.0 4.8 M85.55 13.4 L86.6 13.4 86.8 13.3 86.9 13.1 86.9 7.15 87.1 6.4 Q87.25 6.15 87.5 6.15 L87.9 6.25 87.95 6.3 88.1 7.15 87.9 8.0 87.9 13.95 85.55 13.95 85.55 13.4 M89.65 13.4 L90.9 13.4 91.05 13.3 91.15 13.1 91.15 7.45 Q91.15 6.45 90.8 5.8 L91.15 6.0 Q92.15 6.65 92.15 8.3 L92.15 13.95 89.65 13.95 89.65 13.4 M110.0 8.05 L110.0 11.05 109.15 12.7 Q108.1 13.95 106.35 14.0 105.2 14.0 104.35 13.4 L105.05 13.45 Q106.95 13.4 108.1 12.05 109.15 10.75 109.15 8.85 109.15 6.9 108.4 5.75 L109.3 6.45 110.0 8.05 M111.55 13.3 L112.75 13.3 112.95 13.25 113.05 13.05 113.05 9.7 114.05 11.85 114.05 13.9 111.55 13.9 111.55 13.3 M115.95 13.4 L117.75 13.4 117.95 13.3 118.05 13.15 118.0 12.95 114.8 6.85 116.4 4.3 116.65 3.95 118.1 3.95 115.75 7.65 118.3 12.55 118.3 13.05 118.4 13.25 118.6 13.3 118.75 13.3 119.05 13.95 116.2 13.95 115.95 13.4 M114.05 4.6 L113.05 6.05 113.05 1.15 114.05 1.15 114.05 4.6 M98.0 11.5 L96.65 11.5 99.5 5.55 99.5 5.5 100.5 5.5 100.5 6.3 98.0 11.5 M94.9 6.3 L96.05 6.3 95.75 6.85 94.9 6.85 94.9 6.3 M94.6 13.4 L99.4 13.4 99.6 13.3 99.7 13.1 99.7 12.6 100.7 12.6 100.7 13.95 94.6 13.95 94.6 13.4 M105.25 11.5 L105.05 11.55 Q104.05 11.45 104.05 8.7 104.05 5.95 105.05 5.9 105.5 5.9 105.8 6.5 L105.85 6.6 Q105.05 7.1 105.05 9.55 L105.25 11.5 M121.35 1.15 L122.35 1.15 122.35 4.6 121.35 6.05 121.35 1.15 M124.7 4.35 L124.95 3.95 126.4 3.95 124.1 7.65 127.35 13.95 124.5 13.95 124.25 13.4 126.05 13.4 126.25 13.3 126.35 13.15 126.3 12.95 123.15 6.85 124.7 4.35 M122.35 11.85 L122.35 13.9 119.85 13.9 119.85 13.3 121.1 13.3 121.3 13.25 121.35 13.05 121.35 9.7 122.35 11.85 M129.1 3.6 Q129.65 3.55 130.05 3.15 L130.05 3.2 Q130.55 2.7 130.55 1.9 L130.5 1.3 131.1 1.7 Q131.55 2.05 131.55 2.75 131.55 3.4 131.1 3.8 L130.45 4.15 130.45 3.95 130.35 3.75 130.15 3.7 129.2 3.7 129.1 3.6 M130.45 4.8 L131.45 4.8 131.45 13.95 128.9 13.95 128.9 13.4 130.15 13.4 130.35 13.3 130.45 13.1 130.45 4.8 M139.65 3.6 Q140.15 3.55 140.55 3.15 L140.55 3.2 Q141.1 2.7 141.1 1.9 L141.0 1.3 141.65 1.7 Q142.05 2.05 142.1 2.75 L141.65 3.8 141.0 4.15 141.0 3.95 140.9 3.75 140.7 3.7 139.7 3.7 139.65 3.6 M136.75 5.3 L137.75 5.25 137.75 7.9 137.0 7.5 136.15 7.35 Q135.75 7.3 135.5 7.95 L135.5 13.95 133.1 13.95 133.1 13.4 134.2 13.4 134.4 13.3 134.5 13.1 134.5 7.15 Q134.65 6.8 134.9 6.8 L135.6 6.9 136.4 7.3 136.55 7.35 136.7 7.25 136.75 7.05 136.75 5.3 M141.0 4.8 L142.0 4.8 142.0 13.95 139.45 13.95 139.45 13.4 140.7 13.4 140.9 13.3 141.0 13.1 141.0 4.8 M144.15 14.5 Q145.75 14.45 145.75 12.9 L145.65 12.3 146.3 12.6 Q146.75 13.05 146.75 13.7 146.75 15.05 145.35 15.05 144.7 15.05 144.3 14.65 L144.15 14.5 M153.85 13.35 L154.65 13.45 Q156.1 13.4 156.9 12.9 L157.95 11.5 159.2 11.5 Q158.85 12.85 158.0 13.5 157.25 13.95 155.95 14.0 154.7 14.0 153.85 13.35 M154.75 11.7 Q154.1 11.7 153.8 11.0 153.55 10.3 153.55 8.7 153.55 5.6 154.65 5.55 154.95 5.55 155.05 5.8 L155.15 6.5 Q154.55 7.3 154.55 9.55 L154.75 11.7 M156.65 6.85 L158.0 6.85 158.15 6.8 158.25 6.65 158.25 6.5 157.8 5.25 158.15 5.45 Q158.9 6.0 159.25 7.3 L159.2 7.4 156.7 7.4 156.65 6.85 M166.45 5.75 L167.3 6.45 Q168.2 7.6 168.2 9.65 168.15 11.5 167.2 12.7 166.1 13.95 164.35 14.0 163.25 14.0 162.4 13.4 L163.1 13.45 Q165.0 13.4 166.15 12.05 167.2 10.75 167.2 8.85 167.15 6.9 166.45 5.75 M170.6 13.4 L171.75 13.4 171.95 13.3 172.0 13.1 172.0 7.25 Q172.0 6.7 172.25 6.4 L172.5 6.15 Q172.9 6.15 173.15 6.4 L173.3 7.05 Q173.0 7.45 173.0 8.05 L173.0 13.95 170.6 13.95 170.6 13.4 M174.9 13.4 L176.05 13.4 176.25 13.3 176.35 13.1 176.35 7.4 Q176.35 6.4 176.5 6.15 L176.9 6.1 Q177.25 6.1 177.35 6.4 L177.45 7.1 177.35 8.2 177.35 13.95 174.9 13.95 174.9 13.4 M179.0 13.4 L180.15 13.4 180.35 13.3 180.45 13.1 180.45 7.1 Q180.45 6.4 180.1 5.85 L180.4 6.0 Q181.45 6.7 181.45 7.95 L181.45 13.95 179.0 13.95 179.0 13.4 M163.3 11.5 L163.1 11.55 Q162.1 11.45 162.1 8.7 162.1 5.95 163.1 5.9 163.55 5.9 163.85 6.5 L163.85 6.6 Q163.05 7.1 163.1 9.55 L163.3 11.5 M7.1 5.75 L7.85 5.75 8.2 7.05 7.9 8.55 7.1 5.75 M11.6 5.75 L12.25 5.75 12.55 6.8 10.8 13.95 8.7 13.95 8.55 13.4 9.5 13.4 9.7 13.3 9.8 13.15 11.6 5.75 M15.4 5.75 L16.2 5.75 16.5 7.0 16.1 8.6 15.4 5.75 M19.15 5.75 L19.9 5.75 20.25 7.05 19.95 8.55 19.15 5.75 M23.6 5.75 L24.3 5.75 24.55 6.8 22.8 13.95 20.7 13.95 20.55 13.4 21.55 13.4 21.7 13.3 21.8 13.15 23.6 5.75 M27.45 5.75 L28.25 5.75 28.55 7.0 28.1 8.6 27.45 5.75 M31.15 5.75 L31.9 5.75 32.25 7.05 31.95 8.55 31.15 5.75 M35.65 5.75 L36.85 5.75 34.85 13.95 32.75 13.95 32.6 13.4 33.55 13.4 33.75 13.3 33.85 13.15 35.65 5.75 M30.6 11.0 L29.85 13.95 27.7 13.95 27.55 13.4 28.6 13.4 28.75 13.3 28.85 13.2 30.0 8.75 30.6 11.0 M18.6 11.0 L17.85 13.95 15.65 13.95 15.55 13.4 16.55 13.4 16.7 13.3 16.85 13.2 18.0 8.75 18.6 11.0 M6.6 11.0 L5.8 13.95 3.65 13.95 3.5 13.4 4.55 13.4 4.7 13.3 4.8 13.2 5.95 8.75 6.6 11.0 M3.4 5.75 L4.2 5.75 4.45 7.0 4.05 8.6 3.4 5.75 M38.25 14.5 Q39.85 14.45 39.85 12.9 L39.75 12.3 40.4 12.6 Q40.8 13.05 40.85 13.7 40.8 15.05 39.45 15.05 38.75 15.05 38.4 14.65 L38.25 14.5" fill="#000000" fill-opacity="0.4" fill-rule="evenodd" stroke="none"/>
  </g>
</svg>
