<?xml version="1.0" encoding="UTF-8" standalone="no"?>
<svg xmlns:xlink="http://www.w3.org/1999/xlink" height="71.85px" width="320.75px" xmlns="http://www.w3.org/2000/svg">
  <g transform="matrix(1.0, 0.0, 0.0, 1.0, 52.4, -3.5)">
    <path d="M236.15 55.8 L237.95 55.8 238.25 55.85 238.55 56.0 238.85 56.45 238.75 57.05 231.35 70.8 230.8 71.35 230.1 71.55 163.4 71.55 163.25 71.55 162.8 71.4 162.5 70.9 162.65 70.3 172.05 52.85 Q172.2 52.5 172.6 52.3 L173.3 52.1 179.15 52.1 215.2 52.1 217.3 48.9 176.1 48.9 175.5 48.75 175.2 48.3 175.15 48.0 175.25 47.7 175.75 46.65 177.65 42.85 162.25 42.85 161.5 42.85 160.85 42.7 160.55 42.2 160.7 41.6 161.15 41.1 195.65 18.7 201.55 14.9 176.95 14.9 176.4 14.75 176.1 14.3 Q176.0 14.0 176.2 13.7 L178.95 8.0 179.45 7.45 180.2 7.2 237.2 7.2 237.75 7.4 238.05 7.85 237.95 8.45 237.65 9.05 235.1 14.15 234.6 14.7 233.85 14.9 225.15 14.9 184.75 41.1 193.95 41.1 221.75 41.1 233.95 18.7 238.3 10.75 238.35 10.65 238.55 10.3 239.85 7.95 Q240.0 7.6 240.35 7.4 L241.1 7.2 265.05 7.2 265.65 7.4 265.95 7.85 265.85 8.4 265.3 9.65 263.15 14.1 262.65 14.7 261.9 14.9 254.15 14.9 239.05 42.15 238.5 42.65 238.3 42.75 231.25 55.8 236.15 55.8 M235.6 40.85 L237.4 40.85 252.5 13.65 Q252.7 13.3 253.05 13.1 L253.8 12.9 261.5 12.9 263.2 9.2 261.8 9.05 261.75 9.2 241.45 9.2 224.25 40.85 235.6 40.85 M180.7 40.85 L181.75 40.85 224.45 13.15 225.2 12.9 233.4 12.9 235.25 9.2 234.15 9.05 234.05 9.2 180.65 9.2 179.3 12.0 178.85 12.9 205.05 12.9 205.6 13.1 205.7 13.15 205.95 13.55 205.8 14.15 205.35 14.65 164.95 40.85 180.7 40.85 M178.35 46.1 L177.95 46.9 219.35 46.9 219.95 47.1 220.15 47.35 220.25 47.65 220.1 48.25 216.75 53.45 216.25 53.95 215.55 54.1 173.65 54.1 166.1 68.2 166.05 68.2 165.7 68.9 165.35 69.55 177.55 69.45 229.7 69.55 236.0 57.8 234.35 57.8 231.55 57.8 227.6 65.0 227.05 65.5 226.35 65.7 183.45 65.7 182.85 65.5 182.8 65.45 182.55 65.0 182.7 64.4 186.4 58.45 186.9 57.95 187.0 57.9 187.6 57.75 226.1 57.75 226.75 57.75 227.85 57.75 235.75 43.1 233.9 43.1 179.8 43.1 178.35 46.1 M226.05 63.55 L228.1 59.75 187.9 59.75 185.5 63.7 190.8 63.7 225.95 63.7 226.05 63.55 M156.85 9.2 L135.75 9.2 102.55 69.55 113.9 69.55 115.7 69.55 128.85 45.9 129.35 45.35 130.1 45.15 142.35 45.15 150.15 30.85 148.95 30.85 145.85 30.85 140.3 40.65 139.8 41.15 139.05 41.35 132.55 41.35 132.0 41.2 131.8 41.0 131.7 40.7 131.85 40.1 146.9 13.65 Q147.1 13.3 147.45 13.1 L148.15 12.9 155.85 12.9 157.6 9.2 156.85 9.2 M131.45 12.75 L134.1 7.95 Q134.25 7.6 134.65 7.4 L135.35 7.2 159.45 7.2 160.05 7.4 160.35 7.85 160.25 8.4 159.9 9.25 157.55 14.1 157.0 14.7 156.25 14.9 148.5 14.9 134.55 39.35 138.7 39.35 144.25 29.6 144.75 29.05 145.5 28.85 145.65 28.85 152.05 28.85 152.45 28.95 152.65 29.05 152.95 29.5 152.85 30.1 144.0 46.4 143.45 46.95 142.75 47.15 130.5 47.15 117.35 70.85 116.8 71.35 Q116.45 71.55 116.1 71.55 L100.6 71.55 100.45 71.55 100.2 71.5 99.95 71.4 99.7 70.9 Q99.6 70.6 99.8 70.3 L100.4 69.2 126.0 22.6 131.45 12.75 M122.9 9.2 L122.25 9.2 122.1 9.45 120.5 12.25 119.95 12.75 119.25 12.95 109.7 12.95 109.25 12.85 109.05 12.75 108.8 12.2 Q108.75 11.85 109.05 11.5 L110.5 9.7 Q110.65 9.45 111.0 9.3 L111.65 9.15 116.5 9.15 118.25 5.5 117.35 5.5 97.45 5.5 93.55 12.25 93.0 12.75 Q92.65 12.95 92.3 12.95 L72.95 12.95 71.5 15.85 71.25 16.4 71.05 16.8 89.5 16.8 Q89.9 16.8 90.15 17.05 L90.3 17.3 90.4 17.65 90.05 18.35 42.35 69.55 55.05 69.55 57.6 69.55 81.95 42.3 Q82.2 42.05 82.55 41.9 L83.25 41.85 83.8 42.1 83.95 42.65 82.25 69.55 85.8 69.55 94.1 69.55 95.95 65.9 94.8 65.6 94.7 65.9 88.1 65.9 87.45 65.65 87.3 65.45 87.2 65.05 88.95 36.35 Q88.95 36.0 89.25 35.7 L106.3 17.3 106.8 16.95 107.4 16.8 122.25 16.8 122.3 16.75 126.45 9.2 125.45 9.2 122.9 9.2 M121.3 7.35 L121.9 7.2 128.45 7.2 129.05 7.4 129.35 7.9 129.25 8.5 128.35 10.1 123.9 18.1 123.35 18.6 122.65 18.8 107.5 18.8 91.2 36.45 89.55 63.9 92.2 63.9 97.85 63.9 97.95 63.9 98.4 64.1 98.5 64.15 98.7 64.55 98.75 64.65 98.65 65.15 95.8 70.8 95.25 71.35 94.5 71.55 81.05 71.55 80.8 71.55 80.1 71.3 79.85 70.7 81.0 53.65 81.0 53.6 81.5 45.75 58.85 71.05 58.35 71.45 57.75 71.55 39.85 71.55 39.2 71.3 38.9 70.85 38.9 70.7 39.25 70.05 83.45 22.6 87.0 18.8 70.85 18.8 69.2 18.8 68.6 18.65 68.3 18.2 Q68.2 17.9 68.4 17.6 L71.25 11.75 Q71.4 11.4 71.8 11.2 72.15 10.95 72.55 10.95 L91.95 10.95 95.85 4.2 96.4 3.7 97.1 3.5 120.1 3.5 120.65 3.7 120.95 4.15 120.9 4.7 120.15 6.25 118.2 10.35 117.65 10.95 117.6 10.95 118.9 10.95 120.7 7.9 121.2 7.4 121.3 7.35 M10.2 15.55 L22.4 15.55 26.6 7.95 Q26.8 7.6 27.15 7.4 L27.85 7.2 51.85 7.2 52.4 7.4 Q52.65 7.55 52.7 7.85 L52.65 8.4 52.6 8.5 49.95 14.1 49.4 14.7 48.65 14.9 40.9 14.9 26.1 41.35 25.55 41.85 25.4 41.95 25.25 42.35 18.0 55.8 22.95 55.8 24.7 55.8 25.3 56.0 25.6 56.45 25.6 56.75 25.5 57.05 18.1 70.8 17.55 71.35 16.85 71.55 -48.0 71.55 -49.85 71.55 -50.45 71.4 -50.75 70.9 -50.6 70.3 -41.2 52.85 -40.65 52.3 -39.95 52.1 -33.8 52.1 1.95 52.1 4.05 48.9 -35.85 48.9 -37.15 48.9 -37.75 48.75 -38.05 48.3 -37.95 47.7 -37.4 46.55 -37.35 46.45 -37.05 45.85 -35.2 42.05 -49.6 42.05 -51.45 42.05 -52.05 41.9 -52.35 41.4 -52.25 40.8 -41.2 20.4 -40.65 19.85 -39.9 19.65 -15.7 19.65 -15.1 18.7 -12.8 14.9 -35.8 14.9 -36.25 14.9 -36.85 14.75 -37.15 14.3 -37.05 13.7 -34.3 8.0 -33.75 7.45 -33.0 7.2 8.25 7.2 8.85 7.4 9.15 7.85 9.15 8.35 9.05 8.45 4.85 16.2 -1.05 27.0 -1.6 27.55 -2.3 27.75 -26.65 27.75 -30.55 34.05 -25.25 34.05 -10.15 34.05 -8.7 31.55 -7.95 30.25 -7.45 29.75 -6.7 29.55 -2.15 29.55 -0.95 27.1 0.0 25.15 Q0.15 24.8 0.55 24.6 0.9 24.35 1.3 24.35 L17.55 24.35 18.3 23.2 2.95 23.2 2.35 23.05 2.1 22.55 2.15 21.95 5.05 16.3 Q5.2 15.95 5.6 15.75 L6.3 15.55 10.2 15.55 M22.9 40.05 L24.5 40.05 39.3 13.65 39.8 13.1 40.55 12.9 48.25 12.9 50.0 9.2 48.3 9.2 28.2 9.2 23.95 16.85 23.45 17.35 22.75 17.55 6.75 17.55 5.6 19.8 4.85 21.2 20.4 21.2 21.0 21.4 21.05 21.45 21.2 21.6 21.3 21.95 21.1 22.55 19.0 25.7 18.5 26.2 17.8 26.35 1.7 26.35 0.55 28.75 -0.1 30.1 0.1 30.05 15.4 30.05 15.95 30.2 16.0 30.25 Q16.25 30.4 16.3 30.75 L16.3 30.8 16.15 31.35 11.3 40.05 22.9 40.05 M6.2 9.4 L6.3 9.2 4.85 9.2 -32.6 9.2 -33.8 11.65 -34.4 12.9 -10.8 12.9 -10.7 12.9 -10.15 13.1 -9.9 13.6 Q-9.85 13.9 -10.05 14.2 L-14.15 20.95 -14.65 21.45 -15.35 21.65 -39.55 21.65 -48.9 38.9 -49.5 40.05 -6.05 40.05 -1.55 31.55 -1.75 31.55 -2.75 31.55 -6.4 31.55 -8.65 35.35 -9.15 35.85 -9.85 36.05 -32.6 36.05 -33.25 35.85 -33.5 35.35 -33.5 35.25 -33.35 34.75 -28.2 26.45 -27.7 25.95 -27.0 25.75 -12.65 25.7 -3.45 25.75 -2.7 25.75 -1.95 24.45 -1.85 24.4 -1.95 24.4 6.3 9.4 6.2 9.4 M11.35 35.85 L13.45 32.05 0.5 32.05 -4.3 41.1 0.6 41.1 8.45 41.1 8.6 40.8 11.35 35.85 M-34.8 45.85 L-35.3 46.9 6.1 46.9 6.7 47.1 7.0 47.65 7.0 47.75 6.85 48.25 3.55 53.45 3.0 53.95 2.3 54.1 -39.55 54.1 -47.9 69.55 -32.65 69.55 16.45 69.55 22.8 57.8 21.55 57.8 18.3 57.8 14.35 65.0 13.8 65.5 13.1 65.7 -29.8 65.7 -30.4 65.5 -30.45 65.5 -30.65 65.0 -30.55 64.4 -26.85 58.45 -26.35 57.95 -26.2 57.9 -25.65 57.75 14.6 57.75 22.5 43.1 20.6 42.9 20.45 43.1 -33.45 43.1 -34.8 45.85 M-22.45 63.7 L12.75 63.7 12.85 63.55 14.85 59.75 -25.3 59.75 -27.75 63.7 -22.45 63.7" fill="#ffffff" fill-rule="evenodd" stroke="none"/>
    <path d="M261.75 9.2 L261.8 9.05 263.2 9.2 261.5 12.9 253.8 12.9 253.05 13.1 Q252.7 13.3 252.5 13.65 L237.4 40.85 235.6 40.85 252.35 11.65 260.35 11.65 261.75 9.2 M234.05 9.2 L234.15 9.05 235.25 9.2 233.4 12.9 225.2 12.9 224.45 13.15 181.75 40.85 180.7 40.85 223.35 12.0 232.4 12.0 234.05 9.2 M205.7 13.15 L205.6 13.1 205.05 12.9 178.85 12.9 179.3 12.0 205.7 12.0 205.7 13.15 M220.15 47.35 L219.95 47.1 219.35 46.9 177.95 46.9 178.35 46.1 220.15 46.1 220.15 47.35 M235.75 43.1 L227.85 57.75 226.75 57.75 228.0 57.2 226.1 57.75 187.6 57.75 187.0 57.9 186.9 57.95 186.4 58.45 182.7 64.4 182.55 65.0 182.8 65.45 180.35 65.45 186.15 56.35 227.35 56.5 233.9 43.25 235.75 43.1 M234.35 57.8 L236.0 57.8 229.7 69.55 177.55 69.45 165.5 69.3 165.7 68.9 166.05 68.2 166.1 68.2 228.8 68.2 234.35 57.8 M131.8 41.0 L130.25 41.0 146.85 12.0 155.55 12.0 156.85 9.2 157.6 9.2 155.85 12.9 148.15 12.9 147.45 13.1 Q147.1 13.3 146.9 13.65 L131.85 40.1 131.7 40.7 131.8 41.0 M113.9 69.55 L128.45 44.2 141.25 44.2 148.95 30.85 150.15 30.85 142.35 45.15 130.1 45.15 129.35 45.35 128.85 45.9 115.7 69.55 113.9 69.55 M122.1 9.45 L122.25 9.2 122.9 9.2 122.1 9.45 M125.45 9.2 L126.45 9.2 122.3 16.75 122.25 16.8 107.4 16.8 106.8 16.95 106.3 17.3 89.25 35.7 Q88.95 36.0 88.95 36.35 L87.2 65.05 87.3 65.45 86.1 65.45 88.15 35.0 106.4 15.7 108.1 15.85 108.1 15.75 121.55 15.75 125.45 9.2 M94.7 65.9 L94.8 65.6 95.95 65.9 94.1 69.55 85.8 69.55 85.9 68.5 93.5 68.5 94.7 65.9 M81.95 42.3 L57.6 69.55 55.05 69.55 81.95 40.8 81.95 42.3 M90.3 17.3 L90.15 17.05 Q89.9 16.8 89.5 16.8 L71.05 16.8 71.25 16.4 71.55 15.85 90.3 15.85 90.3 17.3 M117.35 5.5 L118.25 5.5 116.5 9.15 111.65 9.15 111.0 9.3 Q110.65 9.45 110.5 9.7 L109.05 11.5 Q108.75 11.85 108.8 12.2 L109.05 12.75 109.25 12.85 107.1 13.0 110.4 8.2 116.05 8.2 117.35 5.5 M48.3 9.2 L50.0 9.2 48.25 12.9 40.55 12.9 39.8 13.1 39.3 13.65 24.5 40.05 22.9 40.05 39.0 11.65 46.85 11.65 48.3 9.2 M16.3 30.8 L16.3 30.75 Q16.25 30.4 16.0 30.25 L15.95 30.2 15.4 30.05 0.1 30.05 -0.1 30.1 0.55 28.75 17.95 28.75 16.3 30.8 M21.2 21.6 L21.05 21.45 21.0 21.4 20.4 21.2 4.85 21.2 5.6 19.8 22.05 19.8 21.2 21.6 M4.85 9.4 L6.2 9.4 6.3 9.4 -1.95 24.4 -1.85 24.4 -1.95 24.45 -2.7 25.75 -3.45 25.75 -4.1 25.65 -4.05 25.55 -12.65 25.7 -27.0 25.75 -27.7 25.95 -28.2 26.45 -33.35 34.75 -33.5 35.25 -34.55 35.25 -27.75 24.4 -3.4 24.4 4.85 9.4 M-33.8 11.65 L-10.7 11.65 -10.7 12.9 -10.8 12.9 -34.4 12.9 -33.8 11.65 M-48.9 38.9 L-6.8 38.9 -2.75 31.55 -1.75 31.55 -1.55 31.55 -6.05 40.05 -49.5 40.05 -48.9 38.9 M7.0 47.75 L7.0 47.65 6.7 47.1 6.1 46.9 -35.3 46.9 -34.8 45.85 8.1 45.85 7.0 47.75 M20.45 43.1 L20.6 42.9 22.5 43.1 14.6 57.75 -25.65 57.75 -26.2 57.9 -26.35 57.95 -26.85 58.45 -30.55 64.4 -30.65 65.0 -30.45 65.5 -32.4 65.8 -32.35 64.9 -26.85 56.55 13.05 56.55 20.45 43.1 M21.55 57.8 L22.8 57.8 16.45 69.55 -32.65 69.55 -32.55 68.4 15.05 68.4 21.55 57.8" fill="#000000" fill-rule="evenodd" stroke="none"/>
    <path d="M261.75 9.2 L260.35 11.65 252.35 11.65 235.6 40.85 224.25 40.85 241.45 9.2 261.75 9.2 M180.7 40.85 L164.95 40.85 205.35 14.65 205.8 14.15 205.95 13.55 205.7 13.15 205.7 12.0 179.3 12.0 180.65 9.2 234.05 9.2 232.4 12.0 223.35 12.0 180.7 40.85 M178.35 46.1 L179.8 43.1 233.9 43.1 233.9 43.25 227.35 56.5 186.15 56.35 180.35 65.45 182.8 65.45 182.85 65.5 183.45 65.7 226.35 65.7 227.05 65.5 227.6 65.0 231.55 57.8 234.35 57.8 228.8 68.2 166.1 68.2 173.65 54.1 215.55 54.1 216.25 53.95 216.75 53.45 220.1 48.25 220.25 47.65 220.15 47.35 220.15 46.1 178.35 46.1 M156.85 9.2 L155.55 12.0 146.85 12.0 130.25 41.0 131.8 41.0 132.0 41.2 132.55 41.35 139.05 41.35 139.8 41.15 140.3 40.65 145.85 30.85 148.95 30.85 141.25 44.2 128.45 44.2 113.9 69.55 102.55 69.55 135.75 9.2 156.85 9.2 M122.9 9.2 L125.45 9.2 121.55 15.75 108.1 15.75 108.1 15.85 106.4 15.7 88.15 35.0 86.1 65.45 87.3 65.45 87.45 65.65 88.1 65.9 94.7 65.9 93.5 68.5 85.9 68.5 85.8 69.55 82.25 69.55 83.95 42.65 83.8 42.1 83.25 41.85 82.55 41.9 Q82.2 42.05 81.95 42.3 L81.95 40.8 55.05 69.55 42.35 69.55 90.05 18.35 90.4 17.65 90.3 17.3 90.3 15.85 71.55 15.85 71.5 15.85 72.95 12.95 92.3 12.95 Q92.65 12.95 93.0 12.75 L93.55 12.25 97.45 5.5 117.35 5.5 116.05 8.2 110.4 8.2 107.1 13.0 109.25 12.85 109.7 12.95 119.25 12.95 119.95 12.75 120.5 12.25 122.1 9.45 122.9 9.2 M22.9 40.05 L11.3 40.05 16.15 31.35 16.3 30.8 17.95 28.75 0.55 28.75 1.7 26.35 17.8 26.35 18.5 26.2 19.0 25.7 21.1 22.55 21.3 21.95 21.2 21.6 22.05 19.8 5.6 19.8 6.75 17.55 22.75 17.55 23.45 17.35 23.95 16.85 28.2 9.2 48.3 9.2 46.85 11.65 39.0 11.65 22.9 40.05 M4.85 9.2 L4.85 9.4 -3.4 24.4 -27.75 24.4 -34.55 35.25 -33.5 35.25 -33.5 35.35 -33.25 35.85 -32.6 36.05 -9.85 36.05 -9.15 35.85 -8.65 35.35 -6.4 31.55 -2.75 31.55 -6.8 38.9 -48.9 38.9 -39.55 21.65 -15.35 21.65 -14.65 21.45 -14.15 20.95 -10.05 14.2 Q-9.85 13.9 -9.9 13.6 L-10.15 13.1 -10.7 12.9 -10.7 11.65 -33.8 11.65 -32.6 9.2 4.85 9.2 M-34.8 45.85 L-33.45 43.1 20.45 43.1 13.05 56.55 -26.85 56.55 -32.35 64.9 -32.4 65.8 -30.45 65.5 -30.4 65.5 -29.8 65.7 13.1 65.7 13.8 65.5 14.35 65.0 18.3 57.8 21.55 57.8 15.05 68.4 -32.55 68.4 -32.65 69.55 -47.9 69.55 -39.55 54.1 2.3 54.1 3.0 53.95 3.55 53.45 6.85 48.25 7.0 47.75 8.1 45.85 -34.8 45.85" fill="#ff6600" fill-rule="evenodd" stroke="none"/>
    <path d="M233.9 43.1 L235.75 43.1 233.9 43.25 233.9 43.1 M226.75 57.75 L226.1 57.75 228.0 57.2 226.75 57.75 M177.55 69.45 L165.35 69.55 165.7 68.9 165.5 69.3 177.55 69.45 M71.25 16.4 L71.5 15.85 71.55 15.85 71.25 16.4 M4.85 9.4 L4.85 9.2 6.3 9.2 6.2 9.4 4.85 9.4 M-3.45 25.75 L-12.65 25.7 -4.05 25.55 -4.1 25.65 -3.45 25.75" fill="#3333cc" fill-rule="evenodd" stroke="none"/>
    <path d="M238.25 55.85 L238.45 55.5 239.1 56.9 238.75 57.05 238.85 56.45 238.55 56.0 238.25 55.85 M163.35 71.65 L163.25 71.55 163.4 71.55 163.35 71.65 M175.85 49.15 L174.65 48.05 175.15 48.0 175.2 48.3 175.5 48.75 176.1 48.9 175.85 49.15 M100.45 71.55 L100.6 71.55 100.55 71.65 100.45 71.55 M152.95 29.5 L152.65 29.05 152.45 28.95 152.85 28.3 153.3 29.4 152.95 29.5 M38.9 70.85 L39.2 71.3 39.85 71.55 39.6 71.8 38.75 71.0 38.9 70.85 M98.65 65.15 L98.75 64.65 98.9 65.0 98.65 65.15 M98.5 64.15 L98.4 64.1 97.95 63.9 98.25 63.6 98.5 64.15 M5.05 16.3 L2.15 21.95 2.1 22.55 2.35 23.05 2.95 23.2 18.3 23.2 17.55 24.35 1.3 24.35 Q0.9 24.35 0.55 24.6 0.15 24.8 0.0 25.15 L-0.95 27.1 -1.05 27.0 4.85 16.2 5.05 16.3 M9.05 8.45 L9.15 8.35 9.15 8.4 9.05 8.45 M-37.35 46.45 L-37.4 46.55 -37.5 46.45 -37.35 46.45 M25.5 57.05 L25.6 56.75 25.7 56.95 25.5 57.05 M25.25 42.35 L25.4 41.95 25.55 41.85 25.25 42.35" fill="#252696" fill-rule="evenodd" stroke="none"/>
    <path d="M100.4 69.2 L99.8 70.3 Q99.6 70.6 99.7 70.9 L99.95 71.4 100.2 71.5 98.25 75.35 84.55 75.35 81.05 71.55 94.5 71.55 95.25 71.35 95.8 70.8 98.65 65.15 98.9 65.0 100.65 68.7 100.4 69.2 M39.85 71.55 L57.75 71.55 58.35 71.45 58.85 71.05 81.5 45.75 81.0 53.6 81.0 53.65 61.5 75.35 43.6 75.35 39.6 71.8 39.85 71.55" fill="url(#gradient0)" fill-rule="evenodd" stroke="none"/>
    <path d="M121.3 7.35 L121.2 7.4 120.7 7.9 118.9 10.95 117.6 10.95 117.65 10.95 118.2 10.35 120.15 6.25 121.3 7.35" fill="url(#gradient1)" fill-rule="evenodd" stroke="none"/>
    <path d="M131.45 12.75 L126.0 22.6 110.65 22.6 93.6 41.0 92.2 63.9 89.55 63.9 91.2 36.45 107.5 18.8 122.65 18.8 123.35 18.6 123.9 18.1 128.35 10.1 131.45 12.75 M100.6 71.55 L116.1 71.55 Q116.45 71.55 116.8 71.35 L117.35 70.85 130.5 47.15 142.75 47.15 143.45 46.95 144.0 46.4 152.85 30.1 152.95 29.5 153.3 29.4 155.35 34.65 146.5 50.95 133.4 50.95 119.85 75.35 104.35 75.35 100.55 71.65 100.6 71.55 M145.65 28.85 L145.5 28.85 144.75 29.05 144.25 29.6 138.7 39.35 134.55 39.35 148.5 14.9 156.25 14.9 157.0 14.7 157.55 14.1 159.9 9.25 162.75 13.0 160.05 18.7 151.45 18.7 145.65 28.85 M70.85 18.8 L87.0 18.8 83.45 22.6 72.95 22.6 70.85 18.8" fill="url(#gradient2)" fill-rule="evenodd" stroke="none"/>
    <path d="M10.2 15.55 L6.3 15.55 5.6 15.75 Q5.2 15.95 5.05 16.3 L4.85 16.2 9.05 8.45 9.15 8.4 11.55 13.0 10.2 15.55 M-0.95 27.1 L-2.15 29.55 -6.7 29.55 -7.45 29.75 -7.95 30.25 -8.7 31.55 -23.7 31.55 -25.25 34.05 -30.55 34.05 -26.65 27.75 -2.3 27.75 -1.6 27.55 -1.05 27.0 -0.95 27.1 M-35.8 14.9 L-12.8 14.9 -15.1 18.7 -32.5 18.7 -35.8 14.9 M22.95 55.8 L18.0 55.8 25.25 42.35 25.55 41.85 26.1 41.35 40.9 14.9 48.65 14.9 49.4 14.7 49.95 14.1 52.6 8.5 55.15 13.0 52.4 18.7 43.8 18.7 28.6 45.85 26.85 45.85 27.75 46.9 22.95 55.8 M0.6 41.1 L-4.3 41.1 0.5 32.05 13.45 32.05 11.35 35.85 3.4 35.85 0.6 41.1" fill="url(#gradient3)" fill-rule="evenodd" stroke="none"/>
    <path d="M-49.6 42.05 L-35.2 42.05 -37.05 45.85 -47.7 45.85 -49.6 42.05 M-35.85 48.9 L4.05 48.9 1.95 52.1 -33.8 52.1 -35.85 48.9 M-48.0 71.55 L16.85 71.55 17.55 71.35 18.1 70.8 25.5 57.05 25.7 56.95 28.0 61.6 20.6 75.35 -46.05 75.35 -48.0 71.55 M-22.45 63.7 L-27.75 63.7 -25.3 59.75 14.85 59.75 12.85 63.55 -22.35 63.55 -22.45 63.7" fill="url(#gradient4)" fill-rule="evenodd" stroke="none"/>
    <path d="M265.3 9.65 L265.65 8.95 268.35 13.0 265.65 18.7 257.05 18.7 241.55 46.65 240.8 46.65 241.0 46.9 236.15 55.8 231.25 55.8 238.3 42.75 238.5 42.65 239.05 42.15 254.15 14.9 261.9 14.9 262.65 14.7 263.15 14.1 265.3 9.65 M239.1 56.9 L241.25 61.6 233.85 75.35 167.2 75.35 163.35 71.65 163.4 71.55 230.1 71.55 230.8 71.35 231.35 70.8 238.75 57.05 239.1 56.9 M195.65 18.7 L180.75 18.7 176.95 14.9 201.55 14.9 195.65 18.7 M237.65 9.05 L238.55 10.3 238.35 10.65 238.3 10.75 233.95 18.7 228.5 18.7 193.95 41.1 184.75 41.1 225.15 14.9 233.85 14.9 234.6 14.7 235.1 14.15 237.65 9.05" fill="url(#gradient5)" fill-rule="evenodd" stroke="none"/>
    <path d="M179.15 52.1 L175.85 49.15 176.1 48.9 217.3 48.9 215.2 52.1 179.15 52.1 M175.75 46.65 L165.25 46.65 162.25 42.85 177.65 42.85 175.75 46.65 M190.8 63.7 L185.5 63.7 187.9 59.75 228.1 59.75 226.05 63.55 190.9 63.55 190.8 63.7" fill="url(#gradient6)" fill-rule="evenodd" stroke="none"/>
  </g>
  <defs>
    <linearGradient gradientTransform="matrix(3.0E-4, -0.0443, 0.0074, 1.0E-4, 214.25, 42.15)" gradientUnits="userSpaceOnUse" id="gradient0" spreadMethod="pad" x1="-819.2" x2="819.2">
      <stop offset="0.4745098039215686" stop-color="#422102"/>
      <stop offset="0.803921568627451" stop-color="#f4ac0b"/>
      <stop offset="0.9725490196078431" stop-color="#342510"/>
    </linearGradient>
    <linearGradient gradientTransform="matrix(0.0023, 0.0, 0.0, 0.0029, 119.45, 8.6)" gradientUnits="userSpaceOnUse" id="gradient1" spreadMethod="pad" x1="-819.2" x2="819.2">
      <stop offset="0.4745098039215686" stop-color="#422102"/>
      <stop offset="0.803921568627451" stop-color="#f4ac0b"/>
      <stop offset="0.9725490196078431" stop-color="#342510"/>
    </linearGradient>
    <linearGradient gradientTransform="matrix(3.0E-4, -0.0443, 0.0074, 1.0E-4, 214.25, 42.15)" gradientUnits="userSpaceOnUse" id="gradient2" spreadMethod="pad" x1="-819.2" x2="819.2">
      <stop offset="0.4745098039215686" stop-color="#422102"/>
      <stop offset="0.803921568627451" stop-color="#f07e0f"/>
      <stop offset="0.9725490196078431" stop-color="#342510"/>
    </linearGradient>
    <linearGradient gradientTransform="matrix(3.0E-4, -0.0443, 0.0074, 1.0E-4, 218.25, 42.15)" gradientUnits="userSpaceOnUse" id="gradient3" spreadMethod="pad" x1="-819.2" x2="819.2">
      <stop offset="0.4745098039215686" stop-color="#422102"/>
      <stop offset="0.803921568627451" stop-color="#f07e0f"/>
      <stop offset="0.9725490196078431" stop-color="#342510"/>
    </linearGradient>
    <linearGradient gradientTransform="matrix(3.0E-4, -0.0443, 0.0074, 1.0E-4, 218.25, 42.15)" gradientUnits="userSpaceOnUse" id="gradient4" spreadMethod="pad" x1="-819.2" x2="819.2">
      <stop offset="0.4745098039215686" stop-color="#422102"/>
      <stop offset="0.803921568627451" stop-color="#f4ac0b"/>
      <stop offset="0.9725490196078431" stop-color="#342510"/>
    </linearGradient>
    <linearGradient gradientTransform="matrix(3.0E-4, -0.0443, 0.0074, 1.0E-4, 208.25, 42.15)" gradientUnits="userSpaceOnUse" id="gradient5" spreadMethod="pad" x1="-819.2" x2="819.2">
      <stop offset="0.4745098039215686" stop-color="#422102"/>
      <stop offset="0.803921568627451" stop-color="#f07e0f"/>
      <stop offset="0.9725490196078431" stop-color="#342510"/>
    </linearGradient>
    <linearGradient gradientTransform="matrix(3.0E-4, -0.0443, 0.0074, 1.0E-4, 208.25, 42.15)" gradientUnits="userSpaceOnUse" id="gradient6" spreadMethod="pad" x1="-819.2" x2="819.2">
      <stop offset="0.4745098039215686" stop-color="#422102"/>
      <stop offset="0.803921568627451" stop-color="#f4ac0b"/>
      <stop offset="0.9725490196078431" stop-color="#342510"/>
    </linearGradient>
  </defs>
</svg>
