<?xml version="1.0" encoding="UTF-8" standalone="no"?>
<svg xmlns:xlink="http://www.w3.org/1999/xlink" height="73.25px" width="82.15px" xmlns="http://www.w3.org/2000/svg">
  <g transform="matrix(1.0, 0.0, 0.0, 1.0, 34.5, 35.2)">
    <path d="M-10.2 31.5 L-10.15 31.8 -10.2 31.8 -10.2 31.5" fill="#02f402" fill-rule="evenodd" stroke="none"/>
    <path d="M28.45 -31.55 Q29.2 -31.4 29.25 -30.9 L29.2 -30.15 Q29.1 -29.55 27.2 -29.6 25.3 -29.65 24.8 -28.75 24.3 -27.9 23.85 -24.05 L23.25 -19.6 Q23.05 -19.0 23.1 -21.2 L23.1 -25.4 Q23.05 -27.4 23.6 -29.25 24.15 -31.1 26.15 -31.35 L28.45 -31.55 M23.35 -2.15 L23.6 -0.35 24.05 0.65 25.15 2.45 Q25.6 2.95 26.6 3.2 27.35 3.35 27.35 3.8 27.35 4.3 26.9 4.3 24.85 4.3 23.7 2.05 22.85 0.4 22.85 -1.05 22.8 -2.5 23.0 -3.1 23.2 -3.7 23.35 -2.15 M0.65 12.6 L-0.1 12.85 -1.95 12.95 -3.9 13.1 -4.8 13.2 -5.45 13.25 -7.4 13.6 Q-9.15 14.0 -9.4 14.75 L-10.1 15.55 -10.1 14.8 Q-10.3 13.75 -8.8 13.0 -7.3 12.25 -6.3 12.25 L-2.3 12.35 0.15 12.45 0.45 12.5 0.65 12.6 M-25.85 -29.4 L-22.9 -29.65 -22.8 -29.15 Q-22.8 -27.95 -24.45 -27.4 L-27.8 -25.95 Q-29.55 -25.0 -29.2 -19.8 -28.85 -14.6 -29.4 -15.05 -29.95 -15.55 -30.4 -19.85 -30.85 -24.2 -29.7 -26.4 -28.55 -28.65 -25.85 -29.4 M-27.25 -2.1 Q-26.45 0.3 -25.45 1.25 -25.45 1.75 -25.85 1.75 -26.8 1.75 -28.0 -3.35 L-28.0 -4.3 -27.25 -2.1" fill="#ffffff" fill-rule="evenodd" stroke="none"/>
    <path d="M21.6 -25.4 L21.6 -0.55 Q21.6 2.35 23.4 4.45 25.25 6.5 27.8 6.5 L39.6 6.5 Q41.9 6.5 43.65 5.3 45.25 4.05 45.35 2.15 L45.35 1.95 Q45.35 0.15 44.55 -1.4 43.7 -2.95 42.3 -2.95 L37.4 -2.95 Q34.2 -2.95 34.2 -6.05 L34.2 -26.5 Q34.2 -29.1 32.3 -31.0 30.35 -32.95 27.65 -32.95 21.6 -32.95 21.6 -25.4 M29.25 -30.9 Q29.2 -31.4 28.45 -31.55 30.55 -31.25 31.8 -29.55 33.0 -27.8 33.0 -25.55 L33.0 -4.8 32.05 -4.8 32.05 -25.45 Q32.05 -28.8 29.25 -30.9 M33.95 -32.5 Q36.5 -29.75 36.5 -26.5 L36.5 -6.3 Q36.5 -5.3 37.4 -5.25 L42.3 -5.25 Q45.15 -5.3 46.6 -2.4 47.65 -0.45 47.65 1.95 47.65 5.1 45.1 7.0 42.7 8.8 39.6 8.8 L27.8 8.8 Q24.0 8.8 21.7 6.3 19.35 3.85 19.35 0.25 L19.35 -25.4 Q19.35 -35.3 27.65 -35.2 31.45 -35.2 33.95 -32.5 M6.2 -27.4 Q6.9 -26.0 6.9 -23.2 L6.8 -21.85 3.7 -0.55 Q3.45 1.05 1.7 2.75 -0.55 4.75 -3.45 4.75 L-21.15 4.75 -23.85 4.3 Q-24.95 3.8 -25.6 2.85 L-25.1 2.35 Q-23.65 4.1 -20.7 4.1 L-3.45 4.1 Q-1.25 4.1 0.8 2.15 2.55 0.5 2.7 -0.6 L5.9 -22.2 Q6.5 -26.15 4.05 -28.85 5.5 -28.85 6.2 -27.4 M4.15 -30.35 Q1.35 -31.7 -5.45 -31.7 L-20.3 -31.7 Q-25.65 -31.7 -28.85 -29.1 -32.0 -26.5 -32.0 -22.5 L-31.9 -21.1 -28.95 -2.65 Q-28.0 3.3 -24.4 5.15 -22.8 5.95 -20.65 5.95 L-4.25 5.95 Q3.3 5.95 4.7 -0.15 L4.9 -1.2 7.75 -21.45 7.9 -23.8 Q7.9 -26.35 6.9 -28.0 5.95 -29.55 4.15 -30.35 M5.2 -32.6 L5.25 -32.6 Q10.4 -30.2 10.45 -23.85 L10.25 -21.05 7.3 -0.8 Q6.05 8.4 -4.25 8.4 L-20.65 8.4 Q-29.7 8.45 -31.4 -2.25 L-34.35 -20.7 -34.3 -20.65 -34.5 -22.5 Q-34.5 -27.6 -30.45 -30.9 -26.6 -34.1 -20.3 -34.1 L-5.45 -34.1 Q1.9 -34.1 5.2 -32.6 M28.15 4.35 L38.3 4.35 Q41.6 4.35 42.7 3.25 43.75 2.15 43.45 -0.8 44.55 0.4 44.55 1.95 44.55 5.35 39.15 5.35 L28.15 5.35 28.15 4.35 M27.95 15.4 L27.9 16.85 27.3 17.95 Q26.35 18.85 25.05 18.85 L15.2 18.85 15.2 17.95 24.45 17.95 Q27.25 17.95 27.0 15.4 L27.95 15.4 M-10.2 31.8 Q-10.05 35.6 -6.1 35.6 -4.45 35.6 -2.9 34.7 -1.2 33.7 0.35 31.65 3.8 27.2 8.75 27.2 13.55 27.2 16.6 31.3 18.25 33.5 19.75 34.55 21.1 35.45 22.35 35.45 26.45 35.45 26.45 31.2 26.45 29.5 25.35 27.75 L24.7 26.8 Q22.95 24.55 20.5 23.1 L15.2 19.95 25.4 19.95 Q28.2 19.95 28.85 16.95 L29.0 14.95 Q29.0 11.5 25.25 11.5 L-7.8 11.5 Q-11.55 11.5 -11.55 15.4 -11.55 17.55 -10.2 18.75 L-9.55 19.25 Q-8.5 19.95 -7.15 19.95 L4.7 19.95 -3.15 23.1 Q-5.7 24.05 -7.95 26.7 -10.2 29.3 -10.2 31.5 L-10.2 31.8 M25.4 22.4 L23.75 22.4 Q25.3 23.65 26.5 25.25 28.8 28.35 28.75 31.2 28.75 37.85 22.35 37.85 18.15 37.95 14.7 32.6 L14.75 32.6 Q12.75 29.65 8.75 29.65 5.1 29.7 2.2 33.0 -2.4 38.15 -6.1 38.05 -12.5 38.05 -12.5 31.5 -12.55 28.5 -9.75 25.15 L-9.75 25.1 -6.9 22.4 -7.15 22.4 Q-9.65 22.4 -11.55 20.75 L-11.55 20.7 Q-13.85 18.8 -13.85 15.4 -13.85 12.45 -12.0 10.8 L-11.95 10.75 Q-10.2 9.05 -7.8 9.05 L25.25 9.05 Q31.25 9.05 31.25 14.95 31.25 22.5 25.4 22.4 M18.9 23.35 Q23.65 26.3 24.55 28.1 25.55 29.9 25.55 31.2 25.55 34.35 22.1 34.35 L20.05 34.0 Q19.25 33.6 18.85 32.8 L22.45 33.25 Q24.35 33.25 24.35 30.7 24.35 28.65 20.6 25.85 L14.05 21.55 14.4 20.7 Q17.0 22.05 18.9 23.35 M5.05 18.05 L5.05 19.05 -5.7 19.05 Q-7.85 19.05 -9.0 18.45 -10.2 17.8 -10.35 16.55 L-9.75 16.05 -9.6 16.05 Q-8.65 18.05 -5.2 18.05 L5.05 18.05 M8.35 25.1 L8.35 26.1 4.15 26.85 Q2.3 27.35 -1.0 31.9 -2.05 33.35 -3.2 34.05 -4.45 34.75 -5.8 34.75 -9.15 34.75 -9.3 31.65 L-8.65 31.05 Q-7.85 33.85 -5.6 33.85 -3.35 33.85 -0.5 29.45 1.45 26.55 4.15 25.75 L8.35 25.1 M-22.05 -17.95 Q-22.05 -23.15 -17.45 -23.15 L-5.2 -23.15 -5.2 -22.1 -17.3 -22.1 Q-21.0 -22.1 -21.0 -18.5 L-20.7 -15.7 -19.3 -4.8 -20.45 -4.4 -21.9 -15.8 -22.05 -17.95 M-3.75 -17.45 L-4.35 -7.65 Q-4.5 -4.4 -7.55 -4.4 L-15.35 -4.4 Q-18.45 -4.4 -18.8 -7.6 L-19.9 -17.05 Q-20.4 -21.35 -17.0 -21.35 L-5.95 -21.35 Q-3.55 -21.35 -3.75 -17.45 M-6.4 -19.05 L-6.4 -19.1 -17.0 -19.1 -17.35 -18.85 Q-17.6 -18.2 -17.45 -16.85 L-16.65 -7.95 Q-16.55 -6.7 -15.35 -6.65 L-7.8 -6.65 Q-6.95 -6.75 -6.85 -7.95 L-6.3 -17.2 -6.4 -19.05" fill="#074e1c" fill-rule="evenodd" stroke="none"/>
    <path d="M21.6 -25.4 Q21.6 -32.95 27.65 -32.95 30.35 -32.95 32.3 -31.0 34.2 -29.1 34.2 -26.5 L34.2 -6.05 Q34.2 -2.95 37.4 -2.95 L42.3 -2.95 Q43.7 -2.95 44.55 -1.4 45.35 0.15 45.35 1.95 L45.35 2.15 Q45.25 4.05 43.65 5.3 41.9 6.5 39.6 6.5 L27.8 6.5 Q25.25 6.5 23.4 4.45 21.6 2.35 21.6 -0.55 L21.6 -25.4 M29.25 -30.9 Q32.05 -28.8 32.05 -25.45 L32.05 -4.8 33.0 -4.8 33.0 -25.55 Q33.0 -27.8 31.8 -29.55 30.55 -31.25 28.45 -31.55 L26.15 -31.35 Q24.15 -31.1 23.6 -29.25 23.05 -27.4 23.1 -25.4 L23.1 -21.2 Q23.05 -19.0 23.25 -19.6 L23.85 -24.05 Q24.3 -27.9 24.8 -28.75 25.3 -29.65 27.2 -29.6 29.1 -29.55 29.2 -30.15 L29.25 -30.9 M4.15 -30.35 Q5.95 -29.55 6.9 -28.0 7.9 -26.35 7.9 -23.8 L7.75 -21.45 4.9 -1.2 4.7 -0.15 Q3.3 5.95 -4.25 5.95 L-20.65 5.95 Q-22.8 5.95 -24.4 5.15 -28.0 3.3 -28.95 -2.65 L-31.9 -21.1 -32.0 -22.5 Q-32.0 -26.5 -28.85 -29.1 -25.65 -31.7 -20.3 -31.7 L-5.45 -31.7 Q1.35 -31.7 4.15 -30.35 M6.2 -27.4 Q5.5 -28.85 4.05 -28.85 6.5 -26.15 5.9 -22.2 L2.7 -0.6 Q2.55 0.5 0.8 2.15 -1.25 4.1 -3.45 4.1 L-20.7 4.1 Q-23.65 4.1 -25.1 2.35 L-25.6 2.85 Q-24.95 3.8 -23.85 4.3 L-21.15 4.75 -3.45 4.75 Q-0.55 4.75 1.7 2.75 3.45 1.05 3.7 -0.55 L6.8 -21.85 6.9 -23.2 Q6.9 -26.0 6.2 -27.4 M23.35 -2.15 Q23.2 -3.7 23.0 -3.1 22.8 -2.5 22.85 -1.05 22.85 0.4 23.7 2.05 24.85 4.3 26.9 4.3 27.35 4.3 27.35 3.8 27.35 3.35 26.6 3.2 25.6 2.95 25.15 2.45 L24.05 0.65 23.6 -0.35 23.35 -2.15 M-10.2 31.5 Q-10.2 29.3 -7.95 26.7 -5.7 24.05 -3.15 23.1 L4.7 19.95 -7.15 19.95 Q-8.5 19.95 -9.55 19.25 L-10.2 18.75 Q-11.55 17.55 -11.55 15.4 -11.55 11.5 -7.8 11.5 L25.25 11.5 Q29.0 11.5 29.0 14.95 L28.85 16.95 Q28.2 19.95 25.4 19.95 L15.2 19.95 20.5 23.1 Q22.95 24.55 24.7 26.8 L25.35 27.75 Q26.45 29.5 26.45 31.2 26.45 35.45 22.35 35.45 21.1 35.45 19.75 34.55 18.25 33.5 16.6 31.3 13.55 27.2 8.75 27.2 3.8 27.2 0.35 31.65 -1.2 33.7 -2.9 34.7 -4.45 35.6 -6.1 35.6 -10.05 35.6 -10.2 31.8 L-10.15 31.8 -10.2 31.5 M27.95 15.4 L27.0 15.4 Q27.25 17.95 24.45 17.95 L15.2 17.95 15.2 18.85 25.05 18.85 Q26.35 18.85 27.3 17.95 L27.9 16.85 27.95 15.4 M28.15 4.35 L28.15 5.35 39.15 5.35 Q44.55 5.35 44.55 1.95 44.55 0.4 43.45 -0.8 43.75 2.15 42.7 3.25 41.6 4.35 38.3 4.35 L28.15 4.35 M18.9 23.35 Q17.0 22.05 14.4 20.7 L14.05 21.55 20.6 25.85 Q24.35 28.65 24.35 30.7 24.35 33.25 22.45 33.25 L18.85 32.8 Q19.25 33.6 20.05 34.0 L22.1 34.35 Q25.55 34.35 25.55 31.2 25.55 29.9 24.55 28.1 23.65 26.3 18.9 23.35 M5.05 18.05 L-5.2 18.05 Q-8.65 18.05 -9.6 16.05 L-9.75 16.05 -10.35 16.55 Q-10.2 17.8 -9.0 18.45 -7.85 19.05 -5.7 19.05 L5.05 19.05 5.05 18.05 M0.65 12.6 L0.45 12.5 0.15 12.45 -2.3 12.35 -6.3 12.25 Q-7.3 12.25 -8.8 13.0 -10.3 13.75 -10.1 14.8 L-10.1 15.55 -9.4 14.75 Q-9.15 14.0 -7.4 13.6 L-5.45 13.25 -4.8 13.2 -3.9 13.1 -1.95 12.95 -0.1 12.85 0.65 12.6 M8.35 25.1 L4.15 25.75 Q1.45 26.55 -0.5 29.45 -3.35 33.85 -5.6 33.85 -7.85 33.85 -8.65 31.05 L-9.3 31.65 Q-9.15 34.75 -5.8 34.75 -4.45 34.75 -3.2 34.05 -2.05 33.35 -1.0 31.9 2.3 27.35 4.15 26.85 L8.35 26.1 8.35 25.1 M-25.85 -29.4 Q-28.55 -28.65 -29.7 -26.4 -30.85 -24.2 -30.4 -19.85 -29.95 -15.55 -29.4 -15.05 -28.85 -14.6 -29.2 -19.8 -29.55 -25.0 -27.8 -25.95 L-24.45 -27.4 Q-22.8 -27.95 -22.8 -29.15 L-22.9 -29.65 -25.85 -29.4 M-22.05 -17.95 L-21.9 -15.8 -20.45 -4.4 -19.3 -4.8 -20.7 -15.7 -21.0 -18.5 Q-21.0 -22.1 -17.3 -22.1 L-5.2 -22.1 -5.2 -23.15 -17.45 -23.15 Q-22.05 -23.15 -22.05 -17.95 M-27.25 -2.1 L-28.0 -4.3 -28.0 -3.35 Q-26.8 1.75 -25.85 1.75 -25.45 1.75 -25.45 1.25 -26.45 0.3 -27.25 -2.1 M-3.75 -17.45 Q-3.55 -21.35 -5.95 -21.35 L-17.0 -21.35 Q-20.4 -21.35 -19.9 -17.05 L-18.8 -7.6 Q-18.45 -4.4 -15.35 -4.4 L-7.55 -4.4 Q-4.5 -4.4 -4.35 -7.65 L-3.75 -17.45" fill="url(#gradient0)" fill-rule="evenodd" stroke="none"/>
  </g>
  <defs>
    <radialGradient cx="0" cy="0" gradientTransform="matrix(0.0474, 0.0, 0.0, 0.0474, 3.75, -2.0)" gradientUnits="userSpaceOnUse" id="gradient0" r="819.2" spreadMethod="pad">
      <stop offset="0.5803921568627451" stop-color="#00ff00"/>
      <stop offset="1.0" stop-color="#049d04"/>
    </radialGradient>
  </defs>
</svg>
