<?xml version="1.0" encoding="UTF-8" standalone="no"?>
<svg xmlns:xlink="http://www.w3.org/1999/xlink" height="76.85px" width="77.0px" xmlns="http://www.w3.org/2000/svg">
  <g transform="matrix(1.0, 0.0, 0.0, 1.0, 23.15, 37.75)">
    <path d="M22.6 -28.65 L22.05 -28.65 22.05 -29.1 22.25 -28.9 22.6 -28.65 M10.0 -29.9 L10.0 -28.65 9.25 -28.65 9.55 -28.9 Q10.0 -29.3 10.0 -29.9 M2.7 -17.9 L7.5 -17.9 Q5.2 -17.45 3.1 -16.65 L3.1 -17.0 2.7 -17.9 M-6.85 1.65 Q-8.35 1.65 -9.2 0.65 L-9.05 0.3 -8.95 0.05 -8.85 0.1 Q-8.0 0.8 -6.65 0.8 -3.75 0.8 -1.65 -1.65 L1.45 -5.25 Q5.75 -10.3 10.95 -10.2 L20.2 -10.1 20.2 -9.4 19.35 -9.4 11.3 -9.4 8.75 -9.05 Q5.3 -8.2 2.3 -4.9 L-0.75 -1.55 Q-2.15 0.05 -3.7 0.85 -5.2 1.65 -6.85 1.65 M22.35 -8.1 L24.4 -6.85 23.9 -7.2 22.35 -8.1 M35.55 1.4 Q33.65 1.4 32.6 0.45 L33.2 -0.05 34.95 0.65 Q38.4 0.65 38.4 -2.3 L38.15 -3.25 34.2 -10.3 Q33.65 -11.35 31.3 -13.4 L27.55 -16.25 29.2 -15.65 31.25 -14.4 Q34.15 -12.45 35.25 -10.45 L38.95 -3.7 39.25 -2.3 Q39.25 -0.85 38.3 0.15 L37.15 1.1 35.55 1.4 M40.15 -1.65 L40.15 -2.1 39.95 -3.6 40.2 -2.3 40.15 -1.65 M29.1 -16.8 L26.45 -17.9 29.55 -17.9 Q29.2 -17.6 29.15 -17.15 L29.1 -16.8 M20.95 -28.65 L20.05 -28.65 20.05 -29.6 Q20.05 -32.8 14.65 -33.7 L16.25 -33.95 Q18.0 -33.95 19.5 -32.9 20.95 -31.85 20.95 -30.25 L20.95 -28.65 M39.0 -24.95 Q39.35 -24.2 39.35 -23.05 39.35 -21.7 38.15 -20.55 36.7 -19.0 34.4 -19.0 L26.15 -19.0 26.15 -19.6 34.45 -19.6 Q36.0 -19.6 37.2 -20.65 38.4 -21.7 38.4 -22.65 38.4 -24.9 37.5 -25.6 L37.9 -26.05 Q38.65 -25.7 39.0 -24.95 M7.5 -19.0 L-3.25 -19.0 Q-7.3 -19.0 -7.7 -21.6 L-7.45 -22.45 Q-6.45 -19.6 -3.05 -19.6 L7.5 -19.6 7.5 -19.0 M49.95 12.0 Q49.95 12.85 49.45 13.55 L48.35 14.4 Q46.25 15.5 41.45 15.5 L19.35 15.5 19.35 30.35 Q19.35 32.5 17.9 33.85 16.4 35.25 14.65 35.25 L13.05 34.9 Q18.45 35.0 18.45 29.95 L18.45 14.75 41.6 14.75 Q49.25 14.75 49.5 10.4 L49.95 12.0 M21.1 16.6 L21.0 16.7 Q20.55 17.15 20.55 17.75 L20.55 31.45 Q20.55 32.75 19.95 33.75 20.5 32.6 20.5 31.25 L20.5 16.6 21.1 16.6 M9.35 16.95 L9.15 16.7 9.05 16.6 9.35 16.6 9.35 16.95 M9.35 15.45 L-10.65 15.45 Q-17.55 15.45 -19.0 12.25 -15.25 14.5 -9.8 14.5 L9.35 14.5 9.35 15.45" fill="#000000" fill-rule="evenodd" stroke="none"/>
    <path d="M-6.85 2.0 L-6.85 1.65 Q-5.2 1.65 -3.7 0.85 L-3.6 1.1 Q-5.25 1.95 -6.75 2.0 L-6.85 2.0 M20.2 -9.4 L20.15 -8.85 19.35 -8.95 19.35 -9.4 20.2 -9.4 M35.7 2.0 L35.55 1.4 37.15 1.1 37.35 1.45 36.75 1.7 35.7 2.0" fill="#02f402" fill-rule="evenodd" stroke="none"/>
    <path d="M22.05 -29.1 L22.05 -28.65 22.6 -28.65 23.3 -28.45 30.1 -28.45 Q36.1 -28.45 38.3 -27.15 L38.3 -27.1 Q39.95 -25.95 39.95 -22.95 39.9 -21.15 38.35 -19.8 36.65 -18.4 34.85 -18.35 L30.6 -18.35 29.65 -18.0 29.55 -17.9 26.45 -17.9 29.1 -16.8 29.3 -16.15 Q29.5 -15.7 30.0 -15.45 34.2 -13.65 35.85 -10.9 L39.75 -4.0 39.95 -3.6 40.15 -2.1 40.15 -1.65 Q39.75 0.4 37.35 1.45 L37.15 1.1 38.3 0.15 Q39.25 -0.85 39.25 -2.3 L38.95 -3.7 35.25 -10.45 Q34.15 -12.45 31.25 -14.4 L29.2 -15.65 27.55 -16.25 31.3 -13.4 Q33.65 -11.35 34.2 -10.3 L38.15 -3.25 38.4 -2.3 Q38.4 0.65 34.95 0.65 L33.2 -0.05 32.6 0.45 Q33.65 1.4 35.55 1.4 L35.7 2.0 34.2 2.15 Q30.65 2.1 28.45 -1.6 L28.5 -1.55 27.15 -3.95 27.1 -3.95 Q26.35 -5.4 24.4 -6.85 L22.35 -8.1 20.15 -8.85 20.2 -9.4 20.2 -10.1 10.95 -10.2 Q5.75 -10.3 1.45 -5.25 L-1.65 -1.65 Q-3.75 0.8 -6.65 0.8 -8.0 0.8 -8.85 0.1 -8.7 -0.1 -8.7 -0.45 -9.5 -1.25 -9.3 -2.45 -9.15 -3.65 -7.85 -5.75 L-6.45 -7.95 -6.5 -8.0 -9.3 -5.05 -9.9 -4.25 Q-10.45 -3.0 -10.35 -1.2 -10.3 0.6 -9.5 0.45 L-9.05 0.3 -9.2 0.65 Q-8.35 1.65 -6.85 1.65 L-6.85 2.0 -8.7 1.7 Q-11.35 0.6 -11.35 -2.3 L-11.05 -3.15 -11.0 -3.25 -7.3 -8.2 Q-2.9 -14.2 1.95 -15.35 L2.85 -15.95 3.1 -16.65 Q5.2 -17.45 7.5 -17.9 L2.7 -17.9 2.6 -17.95 Q2.15 -18.35 1.6 -18.35 L-4.25 -18.35 Q-8.95 -18.35 -8.95 -23.2 -8.75 -28.45 -1.4 -28.45 L8.5 -28.45 9.25 -28.65 10.0 -28.65 10.0 -29.9 10.0 -30.4 Q10.05 -32.15 11.85 -33.3 13.95 -34.75 16.6 -34.75 18.8 -34.75 20.4 -33.4 21.75 -32.25 21.8 -30.7 L21.8 -29.95 Q21.8 -29.5 22.05 -29.1 M39.0 -24.95 Q38.65 -25.7 37.9 -26.05 L37.5 -25.6 Q38.4 -24.9 38.4 -22.65 38.4 -21.7 37.2 -20.65 36.0 -19.6 34.45 -19.6 L26.15 -19.6 26.15 -19.0 34.4 -19.0 Q36.7 -19.0 38.15 -20.55 39.35 -21.7 39.35 -23.05 39.35 -24.2 39.0 -24.95 M20.95 -28.65 L20.95 -30.25 Q20.95 -31.85 19.5 -32.9 18.0 -33.95 16.25 -33.95 L14.65 -33.7 Q20.05 -32.8 20.05 -29.6 L20.05 -28.65 20.95 -28.65 M11.4 -18.2 Q11.35 -20.0 10.15 -20.0 9.0 -20.0 9.1 -19.55 9.15 -19.15 9.55 -19.05 9.95 -18.95 10.05 -18.35 10.15 -17.75 8.6 -17.4 7.05 -17.05 4.7 -15.9 2.35 -14.8 2.05 -14.1 1.7 -13.5 2.25 -13.95 L3.15 -14.35 5.45 -15.45 Q6.7 -16.05 9.1 -16.25 11.45 -16.45 11.4 -18.2 M15.0 -33.4 Q15.45 -33.65 14.1 -33.65 11.25 -33.65 11.25 -29.55 L11.35 -29.1 Q11.55 -28.65 12.15 -28.65 13.7 -28.65 13.2 -30.4 12.65 -32.2 13.6 -32.7 L15.0 -33.4 M7.5 -19.0 L7.5 -19.6 -3.05 -19.6 Q-6.45 -19.6 -7.45 -22.45 L-7.7 -21.6 Q-7.3 -19.0 -3.25 -19.0 L7.5 -19.0 M-3.7 0.85 Q-2.15 0.05 -0.75 -1.55 L2.3 -4.9 Q5.3 -8.2 8.75 -9.05 L11.3 -9.4 19.35 -9.4 19.35 -8.95 18.85 -9.0 11.3 -9.0 Q6.75 -9.05 2.8 -4.65 L1.35 -3.05 Q-1.25 -0.15 -3.6 1.1 L-3.7 0.85 M49.95 12.0 L49.5 10.4 Q49.25 14.75 41.6 14.75 L18.45 14.75 18.45 29.95 Q18.45 35.0 13.05 34.9 L14.65 35.25 Q16.4 35.25 17.9 33.85 19.35 32.5 19.35 30.35 L19.35 15.5 41.45 15.5 Q46.25 15.5 48.35 14.4 L49.45 13.55 Q49.95 12.85 49.95 12.0 M9.05 16.6 Q8.65 16.25 8.1 16.25 L-11.95 16.25 Q-19.9 16.25 -20.15 11.65 -19.9 7.35 -11.4 7.35 L42.95 7.35 Q50.6 7.35 50.85 11.9 50.8 13.8 48.9 14.9 L48.95 14.9 Q46.45 16.25 42.7 16.25 L22.05 16.25 Q21.5 16.25 21.1 16.6 L20.5 16.6 20.5 31.25 Q20.5 32.6 19.95 33.75 L19.05 34.75 Q17.4 36.1 15.05 36.1 12.65 36.1 11.05 34.75 L11.05 34.8 Q9.6 33.5 9.6 31.45 L9.6 17.75 9.35 16.95 9.35 16.6 9.05 16.6 M9.35 15.45 L9.35 14.5 -9.8 14.5 Q-15.25 14.5 -19.0 12.25 -17.55 15.45 -10.65 15.45 L9.35 15.45 M-3.5 -27.6 Q-5.1 -27.6 -6.6 -26.45 -8.1 -25.35 -8.2 -24.0 L-8.05 -23.05 Q-7.7 -22.4 -6.9 -22.4 -6.4 -22.4 -6.4 -22.9 L-6.7 -24.2 Q-6.75 -25.35 -5.55 -25.95 L-2.9 -26.75 Q-1.45 -27.0 -1.7 -27.3 L-3.5 -27.6 M10.75 23.75 Q10.25 23.55 10.45 24.05 L10.6 26.0 10.6 29.4 Q10.75 31.5 11.5 33.1 12.25 34.7 13.1 34.45 13.95 34.15 13.9 33.5 13.85 32.85 13.55 32.75 L12.8 32.15 12.15 31.15 Q11.9 30.6 11.75 28.75 L11.4 25.4 Q11.2 23.95 10.75 23.75 M-18.35 12.0 L-17.7 10.95 Q-17.15 10.2 -15.8 9.7 L-13.05 8.95 -10.95 8.5 Q-10.3 8.25 -12.2 8.0 -14.15 7.75 -16.45 8.55 -18.85 9.35 -19.2 10.75 -19.55 12.1 -18.4 12.0 L-18.35 12.0" fill="url(#gradient0)" fill-rule="evenodd" stroke="none"/>
    <path d="M-9.05 0.3 L-9.5 0.45 Q-10.3 0.6 -10.35 -1.2 -10.45 -3.0 -9.9 -4.25 L-9.3 -5.05 -6.5 -8.0 -6.45 -7.95 -7.85 -5.75 Q-9.15 -3.65 -9.3 -2.45 -9.5 -1.25 -8.7 -0.45 -8.7 -0.1 -8.85 0.1 L-8.95 0.05 -9.05 0.3 M15.0 -33.4 L13.6 -32.7 Q12.65 -32.2 13.2 -30.4 13.7 -28.65 12.15 -28.65 11.55 -28.65 11.35 -29.1 L11.25 -29.55 Q11.25 -33.65 14.1 -33.65 15.45 -33.65 15.0 -33.4 M11.4 -18.2 Q11.45 -16.45 9.1 -16.25 6.7 -16.05 5.45 -15.45 L3.15 -14.35 2.25 -13.95 Q1.7 -13.5 2.05 -14.1 2.35 -14.8 4.7 -15.9 7.05 -17.05 8.6 -17.4 10.15 -17.75 10.05 -18.35 9.95 -18.95 9.55 -19.05 9.15 -19.15 9.1 -19.55 9.0 -20.0 10.15 -20.0 11.35 -20.0 11.4 -18.2 M10.75 23.75 Q11.2 23.95 11.4 25.4 L11.75 28.75 Q11.9 30.6 12.15 31.15 L12.8 32.15 13.55 32.75 Q13.85 32.85 13.9 33.5 13.95 34.15 13.1 34.45 12.25 34.7 11.5 33.1 10.75 31.5 10.6 29.4 L10.6 26.0 10.45 24.05 Q10.25 23.55 10.75 23.75 M-3.5 -27.6 L-1.7 -27.3 Q-1.45 -27.0 -2.9 -26.75 L-5.55 -25.95 Q-6.75 -25.35 -6.7 -24.2 L-6.4 -22.9 Q-6.4 -22.4 -6.9 -22.4 -7.7 -22.4 -8.05 -23.05 L-8.2 -24.0 Q-8.1 -25.35 -6.6 -26.45 -5.1 -27.6 -3.5 -27.6 M-18.35 12.0 L-18.4 12.0 Q-19.55 12.1 -19.2 10.75 -18.85 9.35 -16.45 8.55 -14.15 7.75 -12.2 8.0 -10.3 8.25 -10.95 8.5 L-13.05 8.95 -15.8 9.7 Q-17.15 10.2 -17.7 10.95 L-18.35 12.0" fill="#ffffff" fill-rule="evenodd" stroke="none"/>
    <path d="M22.35 -35.7 Q24.5 -33.85 24.8 -31.45 L30.1 -31.45 Q37.3 -31.45 39.95 -29.65 L39.9 -29.65 Q42.95 -27.85 42.95 -22.95 43.0 -19.8 40.3 -17.5 38.15 -15.75 35.9 -15.4 37.55 -14.05 38.45 -12.4 L42.35 -5.5 42.4 -5.45 Q43.2 -3.9 43.2 -2.3 43.3 2.35 38.15 4.35 L42.95 4.35 Q54.1 4.35 53.85 11.9 53.9 15.5 50.4 17.5 47.35 19.25 42.7 19.25 L23.55 19.25 23.55 31.45 Q23.55 34.9 20.95 37.05 18.5 39.1 15.05 39.1 11.45 39.1 9.1 37.05 6.6 34.9 6.6 31.45 L6.6 19.25 -11.95 19.25 Q-23.4 19.25 -23.15 11.65 -23.45 4.35 -11.4 4.35 L-10.1 4.35 Q-14.35 2.5 -14.35 -2.3 -14.35 -4.0 -13.3 -5.1 L-13.4 -5.05 -9.7 -10.0 -9.7 -9.95 Q-7.25 -13.3 -4.7 -15.35 -11.95 -15.55 -11.95 -23.2 -12.15 -31.45 -1.4 -31.45 L7.1 -31.45 Q7.5 -34.0 10.2 -35.8 L10.15 -35.75 Q12.95 -37.75 16.6 -37.75 19.9 -37.75 22.35 -35.7 M22.05 -29.1 Q21.8 -29.5 21.8 -29.95 L21.8 -30.7 Q21.75 -32.25 20.4 -33.4 18.8 -34.75 16.6 -34.75 13.95 -34.75 11.85 -33.3 10.05 -32.15 10.0 -30.4 L10.0 -29.9 Q10.0 -29.3 9.55 -28.9 L9.25 -28.65 8.5 -28.45 -1.4 -28.45 Q-8.75 -28.45 -8.95 -23.2 -8.95 -18.35 -4.25 -18.35 L1.6 -18.35 Q2.15 -18.35 2.6 -17.95 L2.7 -17.9 3.1 -17.0 3.1 -16.65 2.85 -15.95 1.95 -15.35 Q-2.9 -14.2 -7.3 -8.2 L-11.0 -3.25 -11.05 -3.15 -11.35 -2.3 Q-11.35 0.6 -8.7 1.7 L-6.85 2.0 -6.75 2.0 Q-5.25 1.95 -3.6 1.1 -1.25 -0.15 1.35 -3.05 L2.8 -4.65 Q6.75 -9.05 11.3 -9.0 L18.85 -9.0 19.35 -8.95 20.15 -8.85 22.35 -8.1 23.9 -7.2 24.4 -6.85 Q26.35 -5.4 27.1 -3.95 L27.15 -3.95 28.5 -1.55 28.45 -1.6 Q30.65 2.1 34.2 2.15 L35.7 2.0 36.75 1.7 37.35 1.45 Q39.75 0.4 40.15 -1.65 L40.2 -2.3 39.95 -3.6 39.75 -4.0 35.85 -10.9 Q34.2 -13.65 30.0 -15.45 29.5 -15.7 29.3 -16.15 L29.1 -16.8 29.15 -17.15 Q29.2 -17.6 29.55 -17.9 L29.65 -18.0 30.6 -18.35 34.85 -18.35 Q36.65 -18.4 38.35 -19.8 39.9 -21.15 39.95 -22.95 39.95 -25.95 38.3 -27.1 L38.3 -27.15 Q36.1 -28.45 30.1 -28.45 L23.3 -28.45 22.6 -28.65 22.25 -28.9 22.05 -29.1 M5.05 -2.65 L3.6 -1.05 Q-0.05 3.0 -3.35 4.35 L30.4 4.35 Q27.75 3.1 25.85 -0.1 L24.5 -2.5 Q23.85 -3.6 22.2 -4.7 20.35 -5.95 18.85 -6.0 L11.3 -6.0 Q7.95 -5.95 5.05 -2.65 M21.1 16.6 Q21.5 16.25 22.05 16.25 L42.7 16.25 Q46.45 16.25 48.95 14.9 L48.9 14.9 Q50.8 13.8 50.85 11.9 50.6 7.35 42.95 7.35 L-11.4 7.35 Q-19.9 7.35 -20.15 11.65 -19.9 16.25 -11.95 16.25 L8.1 16.25 Q8.65 16.25 9.05 16.6 L9.15 16.7 9.35 16.95 9.6 17.75 9.6 31.45 Q9.6 33.5 11.05 34.8 L11.05 34.75 Q12.65 36.1 15.05 36.1 17.4 36.1 19.05 34.75 L19.95 33.75 Q20.55 32.75 20.55 31.45 L20.55 17.75 Q20.55 17.15 21.0 16.7 L21.1 16.6" fill="#074e1c" fill-rule="evenodd" stroke="none"/>
  </g>
  <defs>
    <radialGradient cx="0" cy="0" gradientTransform="matrix(0.0458, 0.0, 0.0, 0.0458, 15.0, -2.0)" gradientUnits="userSpaceOnUse" id="gradient0" r="819.2" spreadMethod="pad">
      <stop offset="0.5803921568627451" stop-color="#00ff00"/>
      <stop offset="1.0" stop-color="#049d04"/>
    </radialGradient>
  </defs>
</svg>
