<?xml version="1.0" encoding="UTF-8" standalone="no"?>
<svg xmlns:xlink="http://www.w3.org/1999/xlink" height="73.5px" width="72.05px" xmlns="http://www.w3.org/2000/svg">
  <g transform="matrix(1.0, 0.0, 0.0, 1.0, 10.25, 34.8)">
    <path d="M13.6 -30.6 Q22.0 -30.85 26.7 -24.25 30.85 -18.4 30.85 -9.5 30.85 6.55 24.6 17.95 16.95 32.1 2.5 32.1 L-2.9 31.7 -2.9 30.55 2.3 30.9 Q16.7 30.9 24.0 16.95 29.7 5.95 29.7 -10.1 29.7 -18.5 25.4 -24.0 21.05 -29.55 13.6 -30.35 L13.6 -30.6 M16.35 -13.75 Q14.65 -15.5 7.2 -15.5 L3.2 -15.4 0.25 -15.3 Q-1.3 -15.3 -2.6 -15.85 -4.3 -16.5 -4.3 -17.5 L-0.25 -16.15 3.45 -16.25 7.1 -16.3 Q15.85 -16.3 17.2 -14.0 L16.35 -13.75 M57.75 -26.4 L57.95 -21.55 57.95 26.25 Q57.95 29.6 56.95 31.8 55.5 34.9 52.8 34.9 L50.8 34.35 Q54.4 34.4 56.0 31.55 56.95 29.85 56.95 25.95 L56.95 -22.2 Q56.95 -27.75 55.1 -30.35 57.2 -29.3 57.75 -26.4" fill="#000000" fill-rule="evenodd" stroke="none"/>
    <path d="M26.35 -26.0 Q31.85 -20.2 31.85 -11.45 31.85 6.65 25.4 18.5 17.5 32.9 1.35 32.9 -7.0 32.9 -7.25 28.0 -7.25 25.95 -6.25 24.4 L-6.25 24.35 Q-5.35 22.85 -3.95 22.8 7.3 22.8 13.7 14.95 L13.7 15.0 Q19.8 7.8 19.8 -3.9 19.8 -9.3 17.0 -11.9 14.25 -14.65 8.8 -14.6 L0.4 -14.55 Q-2.2 -14.55 -4.05 -16.05 L-4.05 -16.1 Q-6.15 -17.95 -6.15 -20.95 -6.15 -26.2 -2.7 -29.05 L-2.7 -29.1 Q0.6 -31.8 5.7 -31.8 L12.5 -31.8 Q20.8 -31.8 26.35 -26.0 M13.6 -30.6 L13.6 -30.35 Q21.05 -29.55 25.4 -24.0 29.7 -18.5 29.7 -10.1 29.7 5.95 24.0 16.95 16.7 30.9 2.3 30.9 L-2.9 30.55 -2.9 31.7 2.5 32.1 Q16.95 32.1 24.6 17.95 30.85 6.55 30.85 -9.5 30.85 -18.4 26.7 -24.25 22.0 -30.85 13.6 -30.6 M1.2 -27.3 Q2.5 -28.35 4.3 -28.6 L6.5 -29.1 Q6.9 -29.3 6.9 -30.15 7.25 -31.2 4.8 -31.2 2.8 -31.2 1.25 -30.55 L-0.75 -29.5 Q-3.35 -27.75 -3.95 -25.55 -4.55 -23.35 -2.8 -20.25 -2.65 -23.65 -0.85 -25.5 L1.2 -27.3 M16.35 -13.75 L17.2 -14.0 Q15.85 -16.3 7.1 -16.3 L3.45 -16.25 -0.25 -16.15 -4.3 -17.5 Q-4.3 -16.5 -2.6 -15.85 -1.3 -15.3 0.25 -15.3 L3.2 -15.4 7.2 -15.5 Q14.65 -15.5 16.35 -13.75 M19.3 -12.6 Q17.95 -13.65 18.35 -13.05 L19.85 -10.15 Q20.9 -7.9 20.9 -6.7 L20.65 -2.9 Q20.45 -0.3 21.6 -0.6 22.75 -0.9 22.15 -7.45 20.65 -11.55 19.3 -12.6 M48.6 -29.85 Q50.25 -31.8 52.65 -31.8 58.8 -31.65 58.8 -23.6 L58.8 27.75 Q58.8 31.25 57.05 33.6 L57.0 33.6 Q55.4 35.7 52.9 35.7 46.7 35.6 46.7 28.0 L46.7 -23.3 Q46.7 -27.5 48.6 -29.9 L48.6 -29.85 M49.85 -29.7 Q48.1 -27.95 47.85 -25.6 47.55 -23.25 47.65 -21.45 47.75 -19.7 47.95 -20.35 L48.7 -23.2 49.5 -26.15 Q49.75 -27.2 50.85 -27.95 51.9 -28.7 53.35 -28.85 54.75 -29.0 55.0 -29.85 55.25 -30.75 53.45 -31.1 51.6 -31.45 49.85 -29.7 M57.75 -26.4 Q57.2 -29.3 55.1 -30.35 56.95 -27.75 56.95 -22.2 L56.95 25.95 Q56.95 29.85 56.0 31.55 54.4 34.4 50.8 34.35 L52.8 34.9 Q55.5 34.9 56.95 31.8 57.95 29.6 57.95 26.25 L57.95 -21.55 57.75 -26.4 M48.75 21.55 Q48.6 19.85 48.2 20.8 47.75 21.75 47.55 23.85 L47.55 26.3 47.8 30.45 Q48.75 34.1 50.3 34.15 51.85 34.2 51.4 32.65 L49.5 30.3 49.0 26.6 48.75 21.55" fill="url(#gradient0)" fill-rule="evenodd" stroke="none"/>
    <path d="M1.2 -27.3 L-0.85 -25.5 Q-2.65 -23.65 -2.8 -20.25 -4.55 -23.35 -3.95 -25.55 -3.35 -27.75 -0.75 -29.5 L1.25 -30.55 Q2.8 -31.2 4.8 -31.2 7.25 -31.2 6.9 -30.15 6.9 -29.3 6.5 -29.1 L4.3 -28.6 Q2.5 -28.35 1.2 -27.3 M19.3 -12.6 Q20.65 -11.55 22.15 -7.45 22.75 -0.9 21.6 -0.6 20.45 -0.3 20.65 -2.9 L20.9 -6.7 Q20.9 -7.9 19.85 -10.15 L18.35 -13.05 Q17.95 -13.65 19.3 -12.6 M49.85 -29.7 Q51.6 -31.45 53.45 -31.1 55.25 -30.75 55.0 -29.85 54.75 -29.0 53.35 -28.85 51.9 -28.7 50.85 -27.95 49.75 -27.2 49.5 -26.15 L48.7 -23.2 47.95 -20.35 Q47.75 -19.7 47.65 -21.45 47.55 -23.25 47.85 -25.6 48.1 -27.95 49.85 -29.7 M48.75 21.55 L49.0 26.6 49.5 30.3 51.4 32.65 Q51.85 34.2 50.3 34.15 48.75 34.1 47.8 30.45 L47.55 26.3 47.55 23.85 Q47.75 21.75 48.2 20.8 48.6 19.85 48.75 21.55" fill="#ffffff" fill-rule="evenodd" stroke="none"/>
    <path d="M28.5 -28.05 L28.5 -28.1 Q34.85 -21.5 34.85 -11.45 34.85 7.55 28.05 19.95 19.3 35.9 1.35 35.9 -10.5 35.9 -10.25 28.0 -10.25 25.05 -8.85 22.85 L-8.8 22.8 Q-7.0 19.75 -3.95 19.8 5.8 19.8 11.4 13.05 16.8 6.6 16.8 -3.9 16.8 -7.8 14.9 -9.75 12.85 -11.65 8.85 -11.6 L0.4 -11.55 Q-3.35 -11.55 -6.0 -13.8 L-6.05 -13.8 Q-9.15 -16.55 -9.15 -20.95 -9.15 -27.8 -4.6 -31.4 -0.6 -34.8 5.7 -34.8 L12.5 -34.8 Q22.1 -34.8 28.5 -28.05 M26.35 -26.0 Q20.8 -31.8 12.5 -31.8 L5.7 -31.8 Q0.6 -31.8 -2.7 -29.1 L-2.7 -29.05 Q-6.15 -26.2 -6.15 -20.95 -6.15 -17.95 -4.05 -16.1 L-4.05 -16.05 Q-2.2 -14.55 0.4 -14.55 L8.8 -14.6 Q14.25 -14.65 17.0 -11.9 19.8 -9.3 19.8 -3.9 19.8 7.8 13.7 15.0 L13.7 14.95 Q7.3 22.8 -3.95 22.8 -5.35 22.85 -6.25 24.35 L-6.25 24.4 Q-7.25 25.95 -7.25 28.0 -7.0 32.9 1.35 32.9 17.5 32.9 25.4 18.5 31.85 6.65 31.85 -11.45 31.85 -20.2 26.35 -26.0 M48.6 -29.85 L48.6 -29.9 Q46.7 -27.5 46.7 -23.3 L46.7 28.0 Q46.7 35.6 52.9 35.7 55.4 35.7 57.0 33.6 L57.05 33.6 Q58.8 31.25 58.8 27.75 L58.8 -23.6 Q58.8 -31.65 52.65 -31.8 50.25 -31.8 48.6 -29.85 M46.3 -31.8 Q48.85 -34.8 52.65 -34.8 61.8 -34.95 61.8 -23.6 L61.8 27.75 Q61.8 32.35 59.4 35.4 L59.4 35.45 Q56.85 38.7 52.9 38.7 43.7 38.8 43.7 28.0 L43.7 -23.3 Q43.7 -28.7 46.3 -31.8" fill="#074e1c" fill-rule="evenodd" stroke="none"/>
  </g>
  <defs>
    <radialGradient cx="0" cy="0" gradientTransform="matrix(0.0492, 0.0, 0.0, 0.0492, 29.0, -3.5)" gradientUnits="userSpaceOnUse" id="gradient0" r="819.2" spreadMethod="pad">
      <stop offset="0.5803921568627451" stop-color="#00ff00"/>
      <stop offset="1.0" stop-color="#049d04"/>
    </radialGradient>
  </defs>
</svg>
