<?xml version="1.0" encoding="UTF-8" standalone="no"?>
<svg xmlns:xlink="http://www.w3.org/1999/xlink" height="20.15px" width="94.9px" xmlns="http://www.w3.org/2000/svg">
  <g transform="matrix(1.0, 0.0, 0.0, 1.0, 1.0, 1.0)">
    <path d="M91.9 9.1 Q91.9 12.45 89.55 14.8 87.2 17.15 83.85 17.15 L9.05 17.15 Q5.7 17.15 3.35 14.8 1.0 12.45 1.0 9.1 L1.0 9.05 Q1.0 5.7 3.35 3.35 5.7 1.0 9.05 1.0 L83.85 1.0 Q87.2 1.0 89.55 3.35 91.9 5.7 91.9 9.05 L91.9 9.1 M67.3 2.9 L67.25 2.9 65.4 3.15 Q65.2 3.15 65.1 3.3 L64.95 3.45 64.9 3.7 64.9 3.75 65.05 6.8 65.05 7.85 63.7 6.8 Q64.6 5.45 64.7 4.65 64.85 3.7 64.25 3.35 63.75 2.95 62.75 2.95 L60.3 3.3 58.0 4.0 57.95 4.05 57.75 4.2 Q57.6 4.3 57.6 4.5 L57.7 4.75 58.45 6.25 58.7 6.55 58.8 6.55 58.9 6.55 59.05 6.55 59.2 6.55 Q60.65 5.65 61.95 5.25 L61.1 6.35 61.05 6.35 59.6 8.0 59.55 8.05 57.35 9.75 57.35 9.8 57.2 9.95 57.15 10.2 57.35 10.55 58.15 11.35 58.4 11.45 58.55 11.45 58.7 11.4 58.75 11.4 59.5 12.55 59.55 12.6 59.75 12.75 59.85 12.75 60.0 12.75 60.1 12.75 Q63.6 11.35 64.85 11.35 65.3 11.35 65.35 11.55 L65.05 12.8 64.25 14.15 64.2 14.15 64.05 14.45 64.25 14.85 64.5 14.95 66.35 15.2 66.4 15.2 66.5 15.2 66.7 15.15 66.8 15.05 67.6 13.35 67.9 11.5 67.9 11.45 Q67.95 10.45 67.3 9.95 L67.5 9.85 67.6 9.75 67.65 9.55 67.65 9.45 67.55 8.55 68.15 8.8 68.2 8.8 68.35 8.8 68.55 8.75 68.65 8.65 68.65 8.6 69.45 7.35 69.55 7.05 69.55 6.95 69.55 6.85 69.3 6.6 67.55 5.5 67.8 3.5 67.8 3.45 67.8 3.3 67.8 3.2 Q67.65 2.95 67.5 2.95 L67.3 2.9 M62.95 8.95 L63.6 9.55 62.05 9.75 60.5 10.1 60.8 9.85 60.85 9.85 62.35 8.4 62.95 8.95 M55.85 3.25 L55.85 3.15 55.55 2.9 55.35 2.85 53.5 3.0 53.25 3.1 53.05 3.35 53.0 3.55 53.0 3.6 53.15 8.9 53.15 11.75 51.5 9.8 50.05 7.5 50.55 3.85 50.55 3.8 50.55 3.65 50.5 3.5 50.4 3.4 Q50.25 3.25 50.1 3.25 L48.3 3.2 48.1 3.25 47.85 3.45 47.75 3.7 Q47.7 6.45 47.15 8.6 46.55 10.85 45.25 13.15 L45.15 13.35 45.3 13.7 45.4 13.8 45.45 13.85 46.3 14.2 46.4 14.2 46.6 14.2 46.8 14.15 46.9 14.05 46.9 14.0 Q48.35 11.95 49.2 10.0 L49.95 11.4 51.45 13.8 51.5 13.85 51.7 14.0 51.8 14.0 51.9 14.0 52.15 13.95 52.25 13.9 53.1 13.05 53.0 14.6 53.05 14.8 53.3 15.1 53.4 15.1 53.55 15.1 53.6 15.1 55.4 14.95 55.45 14.95 55.7 14.85 55.8 14.75 55.85 14.55 55.85 14.45 Q55.6 12.8 55.6 8.9 55.6 5.4 55.85 3.45 L55.85 3.4 55.85 3.25 M43.4 2.85 L43.35 2.85 41.5 3.1 41.25 3.3 41.05 3.6 41.0 9.4 39.45 9.55 39.8 9.25 39.95 9.2 Q41.0 8.2 41.0 6.7 41.0 5.6 40.4 4.9 L39.55 4.15 39.6 3.9 39.5 3.6 39.25 3.45 37.3 3.05 Q35.75 3.05 34.8 4.15 33.8 5.15 33.8 6.75 33.8 8.2 34.85 9.2 L35.65 9.75 35.0 9.95 Q34.8 9.95 34.7 10.15 L34.55 10.45 34.55 10.5 34.7 12.0 Q34.9 13.7 35.85 14.4 36.65 15.15 38.4 15.15 L40.65 14.65 40.65 14.9 40.9 15.25 41.0 15.25 41.2 15.25 41.25 15.25 42.3 15.0 42.4 14.95 42.55 14.9 42.6 14.75 42.65 14.7 Q43.55 12.25 43.8 9.7 L43.8 9.65 43.8 9.5 43.75 9.35 43.75 9.25 43.65 7.05 Q43.65 4.8 43.9 3.45 L43.9 3.4 43.9 3.25 43.9 3.15 43.6 2.9 43.4 2.85 M40.95 12.15 Q39.7 13.25 38.45 13.25 37.7 13.25 37.5 12.75 L37.45 12.7 37.3 11.8 41.0 11.5 40.95 12.15 M37.4 5.5 Q38.45 5.5 38.45 6.8 38.45 7.35 38.1 7.8 37.8 8.2 37.35 8.2 36.9 8.2 36.65 7.8 36.3 7.3 36.3 6.7 36.3 5.6 36.9 5.15 L37.0 5.3 37.1 5.4 37.4 5.5 M31.6 2.85 L31.55 2.85 29.85 3.1 29.8 3.15 29.6 3.0 29.4 2.95 29.35 2.95 27.8 3.2 Q27.5 3.25 27.45 3.45 L27.4 3.6 Q26.8 3.15 25.8 3.2 L23.85 3.4 22.0 3.9 21.75 4.1 21.6 4.35 21.7 4.65 22.35 6.15 22.5 6.4 22.8 6.5 22.95 6.5 23.1 6.5 Q24.75 5.5 25.5 5.3 L25.6 5.3 25.0 7.1 23.95 9.0 21.35 12.1 21.15 12.45 21.25 12.75 21.25 12.8 21.9 13.7 21.95 13.75 22.05 13.85 22.2 13.9 22.35 13.9 22.6 13.85 22.7 13.8 25.8 10.2 26.1 9.8 26.35 9.9 26.5 9.9 26.6 9.9 27.5 9.65 27.3 14.55 27.35 14.75 27.6 15.05 27.7 15.05 27.85 15.05 27.9 15.05 29.45 14.85 29.5 14.85 29.55 14.85 29.55 14.9 29.65 15.1 29.8 15.15 29.95 15.15 30.0 15.15 31.6 14.9 31.65 14.9 32.0 14.65 32.05 14.4 Q31.75 11.75 31.85 8.6 L32.1 3.45 32.1 3.4 32.1 3.25 32.1 3.15 31.8 2.9 31.6 2.85 M29.8 7.05 L29.8 8.55 29.75 10.5 29.75 9.75 29.8 7.05 M27.3 7.5 L27.5 7.05 27.5 7.5 27.3 7.5" fill="url(#gradient0)" fill-rule="evenodd" stroke="none"/>
    <path d="M67.3 2.9 L67.5 2.95 Q67.65 2.95 67.8 3.2 L67.8 3.3 67.8 3.45 67.8 3.5 67.55 5.5 69.3 6.6 69.55 6.85 69.55 6.95 69.55 7.05 69.45 7.35 68.65 8.6 68.65 8.65 68.55 8.75 68.35 8.8 68.2 8.8 68.15 8.8 67.55 8.55 67.65 9.45 67.65 9.55 67.6 9.75 67.5 9.85 67.3 9.95 Q67.95 10.45 67.9 11.45 L67.9 11.5 67.6 13.35 66.8 15.05 66.7 15.15 66.5 15.2 66.4 15.2 66.35 15.2 64.5 14.95 64.25 14.85 64.05 14.45 64.2 14.15 64.25 14.15 65.05 12.8 65.35 11.55 Q65.3 11.35 64.85 11.35 63.6 11.35 60.1 12.75 L60.0 12.75 59.85 12.75 59.75 12.75 59.55 12.6 59.5 12.55 58.75 11.4 58.7 11.4 58.55 11.45 58.4 11.45 58.15 11.35 57.35 10.55 57.15 10.2 57.2 9.95 57.35 9.8 57.35 9.75 59.55 8.05 59.6 8.0 61.05 6.35 61.1 6.35 61.95 5.25 Q60.65 5.65 59.2 6.55 L59.05 6.55 58.9 6.55 58.8 6.55 58.7 6.55 58.45 6.25 57.7 4.75 57.6 4.5 Q57.6 4.3 57.75 4.2 L57.95 4.05 58.0 4.0 60.3 3.3 62.75 2.95 Q63.75 2.95 64.25 3.35 64.85 3.7 64.7 4.65 64.6 5.45 63.7 6.8 L65.05 7.85 65.05 6.8 64.9 3.75 64.9 3.7 64.95 3.45 65.1 3.3 Q65.2 3.15 65.4 3.15 L67.25 2.9 67.3 2.9 M62.55 7.85 L63.3 8.6 64.35 9.6 64.4 9.75 64.35 9.95 64.2 10.0 62.15 10.25 59.6 10.8 59.45 10.8 59.35 10.7 59.3 10.5 59.4 10.4 60.5 9.5 60.5 9.45 62.2 7.9 62.35 7.8 62.55 7.85 M65.0 9.1 L65.15 8.95 65.3 8.9 65.5 9.05 65.5 9.2 65.4 9.6 65.4 9.65 65.35 9.85 65.15 9.9 64.8 9.95 64.65 9.95 64.5 9.75 Q64.45 9.65 64.55 9.6 L64.7 9.45 64.95 9.4 65.0 9.1 M67.1 5.8 L67.05 5.7 67.0 5.6 67.3 3.4 65.45 3.65 65.4 3.7 65.55 6.8 65.5 8.3 65.45 8.45 65.3 8.5 65.15 8.45 Q64.0 7.75 63.2 7.05 L63.1 6.9 63.15 6.7 Q64.1 5.35 64.2 4.6 64.25 4.0 63.95 3.75 63.55 3.45 62.75 3.45 L60.45 3.8 58.15 4.5 58.1 4.5 58.9 6.05 59.0 6.05 Q60.5 5.1 61.9 4.7 L61.85 4.75 62.35 4.6 62.5 4.65 62.6 4.8 62.6 4.95 62.5 5.2 62.5 5.25 61.45 6.7 61.45 6.65 60.0 8.3 59.95 8.4 57.7 10.15 57.7 10.2 58.5 11.0 58.5 10.95 58.8 10.85 58.95 10.85 59.1 10.95 59.9 12.25 59.95 12.3 60.0 12.25 Q63.55 10.85 64.85 10.85 65.8 10.85 65.85 11.5 L65.5 13.0 64.6 14.45 66.4 14.7 66.45 14.7 67.1 13.2 67.4 11.5 67.4 11.45 Q67.45 10.6 66.8 10.25 L66.3 10.05 66.15 9.95 66.1 9.8 66.2 9.65 Q66.25 9.55 66.35 9.55 L67.15 9.45 67.2 9.45 67.25 9.4 67.15 9.45 67.0 8.1 67.05 7.9 67.25 7.8 67.4 7.85 68.25 8.3 68.3 8.3 69.05 7.05 67.1 5.85 67.15 5.85 67.1 5.8 M55.85 3.25 L55.85 3.4 55.85 3.45 Q55.6 5.4 55.6 8.9 55.6 12.8 55.85 14.45 L55.85 14.55 55.8 14.75 55.7 14.85 55.45 14.95 55.4 14.95 53.6 15.1 53.55 15.1 53.4 15.1 53.3 15.1 53.05 14.8 53.0 14.6 53.1 13.05 52.25 13.9 52.15 13.95 51.9 14.0 51.8 14.0 51.7 14.0 51.5 13.85 51.45 13.8 49.95 11.4 49.2 10.0 Q48.35 11.95 46.9 14.0 L46.9 14.05 46.8 14.15 46.6 14.2 46.4 14.2 46.3 14.2 45.45 13.85 45.4 13.8 45.3 13.7 45.15 13.35 45.25 13.15 Q46.55 10.85 47.15 8.6 47.7 6.45 47.75 3.7 L47.85 3.45 48.1 3.25 48.3 3.2 50.1 3.25 Q50.25 3.25 50.4 3.4 L50.5 3.5 50.55 3.65 50.55 3.8 50.55 3.85 50.05 7.5 51.5 9.8 53.15 11.75 53.15 8.9 53.0 3.6 53.0 3.55 53.05 3.35 53.25 3.1 53.5 3.0 55.35 2.85 55.55 2.9 55.85 3.15 55.85 3.25 M62.95 8.95 L62.35 8.4 60.85 9.85 60.8 9.85 60.5 10.1 62.05 9.75 63.6 9.55 62.95 8.95 M53.15 12.35 L53.1 12.3 51.1 10.1 49.6 7.7 49.55 7.55 50.05 3.8 50.05 3.75 48.3 3.7 48.3 3.75 48.25 3.75 Q48.2 6.55 47.65 8.7 L47.65 8.75 Q47.05 11.05 45.7 13.4 L46.45 13.7 46.45 13.75 46.5 13.75 46.55 13.7 Q48.15 11.45 48.95 9.35 L49.05 9.2 49.25 9.2 49.4 9.3 50.4 11.15 51.85 13.5 51.9 13.55 53.15 12.35 M53.55 3.5 L53.55 3.55 53.5 3.55 53.65 8.9 53.65 11.9 53.6 12.1 53.55 12.1 53.6 12.15 53.6 12.25 53.6 12.35 53.55 12.6 53.55 12.65 53.6 12.85 53.5 14.6 53.55 14.6 55.35 14.45 55.4 14.45 55.45 14.4 55.35 14.45 Q55.1 12.8 55.1 8.9 55.1 5.4 55.35 3.4 L55.35 3.35 53.55 3.5 M43.4 2.85 L43.6 2.9 43.9 3.15 43.9 3.25 43.9 3.4 43.9 3.45 Q43.65 4.8 43.65 7.05 L43.75 9.25 43.75 9.35 43.8 9.5 43.8 9.65 43.8 9.7 Q43.55 12.25 42.65 14.7 L42.6 14.75 42.55 14.9 42.4 14.95 42.3 15.0 41.25 15.25 41.2 15.25 41.0 15.25 40.9 15.25 40.65 14.9 40.65 14.65 38.4 15.15 Q36.65 15.15 35.85 14.4 34.9 13.7 34.7 12.0 L34.55 10.5 34.55 10.45 34.7 10.15 Q34.8 9.95 35.0 9.95 L35.65 9.75 34.85 9.2 Q33.8 8.2 33.8 6.75 33.8 5.15 34.8 4.15 35.75 3.05 37.3 3.05 L39.25 3.45 39.5 3.6 39.6 3.9 39.55 4.15 40.4 4.9 Q41.0 5.6 41.0 6.7 41.0 8.2 39.95 9.2 L39.8 9.25 39.45 9.55 41.0 9.4 41.05 3.6 41.25 3.3 41.5 3.1 43.35 2.85 43.4 2.85 M41.5 11.1 L41.5 11.2 41.4 12.3 41.35 12.45 Q39.9 13.75 38.45 13.75 37.4 13.75 37.1 13.1 L37.05 13.0 Q36.8 12.45 36.8 11.55 L36.9 11.4 37.05 11.3 41.25 10.95 41.4 11.0 41.5 11.1 M41.6 3.6 L41.55 3.6 41.55 3.65 41.5 9.5 41.5 9.6 41.45 9.8 41.3 9.85 37.05 10.25 36.9 10.25 36.8 10.15 36.75 10.0 36.75 9.85 36.85 9.7 37.0 9.6 37.25 9.6 Q38.65 9.6 39.55 8.85 L39.65 8.75 Q40.5 7.95 40.5 6.7 40.5 5.8 40.0 5.2 39.65 4.7 39.05 4.5 L38.95 4.4 38.9 4.25 39.0 4.1 39.1 3.95 37.3 3.55 Q35.95 3.55 35.15 4.5 34.3 5.35 34.3 6.75 34.3 8.0 35.2 8.85 L36.4 9.55 36.5 9.6 36.55 9.75 36.5 9.9 36.4 10.0 35.1 10.45 35.05 10.45 35.2 11.95 Q35.4 13.4 36.15 14.0 L36.2 14.05 Q36.85 14.65 38.4 14.65 39.55 14.65 40.9 14.0 L41.1 13.95 41.25 14.1 41.25 14.25 41.15 14.75 42.15 14.55 42.2 14.5 42.2 14.45 Q43.05 12.1 43.3 9.65 L43.3 9.6 43.2 9.45 43.25 9.3 43.25 9.25 43.15 7.05 Q43.15 4.7 43.4 3.35 L41.6 3.6 M40.95 12.15 L41.0 11.5 37.3 11.8 37.45 12.7 37.5 12.75 Q37.7 13.25 38.45 13.25 39.7 13.25 40.95 12.15 M36.85 4.6 L36.8 4.6 37.3 4.4 37.45 4.45 37.6 4.55 37.6 4.7 37.55 4.85 37.45 5.0 Q38.95 5.0 38.95 6.8 38.95 7.55 38.5 8.1 38.0 8.7 37.35 8.7 36.7 8.7 36.25 8.1 35.8 7.5 35.8 6.7 35.8 5.15 36.85 4.6 M31.6 2.85 L31.8 2.9 32.1 3.15 32.1 3.25 32.1 3.4 32.1 3.45 31.85 8.6 Q31.75 11.75 32.05 14.4 L32.0 14.65 31.65 14.9 31.6 14.9 30.0 15.15 29.95 15.15 29.8 15.15 29.65 15.1 29.55 14.9 29.55 14.85 29.5 14.85 29.45 14.85 27.9 15.05 27.85 15.05 27.7 15.05 27.6 15.05 27.35 14.75 27.3 14.55 27.5 9.65 26.6 9.9 26.5 9.9 26.35 9.9 26.1 9.8 25.8 10.2 22.7 13.8 22.6 13.85 22.35 13.9 22.2 13.9 22.05 13.85 21.95 13.75 21.9 13.7 21.25 12.8 21.25 12.75 21.15 12.45 21.35 12.1 23.95 9.0 25.0 7.1 25.6 5.3 25.5 5.3 Q24.75 5.5 23.1 6.5 L22.95 6.5 22.8 6.5 22.5 6.4 22.35 6.15 21.7 4.65 21.6 4.35 21.75 4.1 22.0 3.9 23.85 3.4 25.8 3.2 Q26.8 3.15 27.4 3.6 L27.45 3.45 Q27.5 3.25 27.8 3.2 L29.35 2.95 29.4 2.95 29.6 3.0 29.8 3.15 29.85 3.1 31.55 2.85 31.6 2.85 M37.4 5.5 L37.1 5.4 37.0 5.3 36.9 5.15 Q36.3 5.6 36.3 6.7 36.3 7.3 36.65 7.8 36.9 8.2 37.35 8.2 37.8 8.2 38.1 7.8 38.45 7.35 38.45 6.8 38.45 5.5 37.4 5.5 M29.75 10.5 Q29.75 12.55 29.9 14.35 L29.85 14.6 29.8 14.65 29.95 14.65 31.55 14.4 Q31.25 11.75 31.35 8.6 L31.6 3.4 31.6 3.35 29.95 3.6 29.9 3.6 29.8 7.05 29.75 9.75 29.75 10.5 M27.6 5.15 L27.8 5.1 27.95 5.2 28.0 5.35 28.0 5.4 28.0 7.7 27.95 7.9 27.8 7.95 26.95 8.0 26.75 7.95 26.65 7.85 26.7 7.65 27.5 5.3 27.6 5.15 M27.7 4.6 L27.55 4.55 27.4 4.45 27.1 4.0 25.85 3.7 25.8 3.7 23.95 3.9 22.2 4.4 22.15 4.4 22.15 4.45 22.85 6.0 22.85 6.05 22.9 6.0 Q24.6 5.0 25.4 4.8 L25.45 4.8 25.65 4.8 Q26.15 4.8 26.1 5.2 L25.45 7.3 24.35 9.3 Q22.55 11.8 21.65 12.5 L21.7 12.55 22.3 13.4 22.35 13.45 22.35 13.4 25.4 9.9 25.9 9.15 26.05 9.05 26.2 9.1 26.35 9.2 26.4 9.4 26.5 9.4 27.7 9.05 27.85 9.1 27.95 9.15 28.0 9.3 27.8 14.55 27.85 14.55 29.4 14.35 Q29.25 12.25 29.25 9.75 L29.4 3.5 29.4 3.45 29.35 3.45 27.9 3.7 27.85 3.7 27.85 3.75 27.9 4.3 27.9 4.35 27.85 4.55 27.7 4.6 M27.3 7.5 L27.5 7.5 27.5 7.05 27.3 7.5" fill="#ffffff" fill-rule="evenodd" stroke="none"/>
    <path d="M36.5 10.15 L36.5 10.25 36.5 10.15" fill="#ff0000" fill-rule="evenodd" stroke="none"/>
    <path d="M9.05 -1.0 L83.85 -1.0 Q88.0 -1.0 90.95 1.95 93.9 4.9 93.9 9.05 L93.9 9.1 Q93.9 13.25 90.95 16.2 88.0 19.15 83.85 19.15 L9.05 19.15 Q4.9 19.15 1.95 16.2 -1.0 13.25 -1.0 9.1 L-1.0 9.05 Q-1.0 4.9 1.95 1.95 4.9 -1.0 9.05 -1.0 M91.9 9.1 L91.9 9.05 Q91.9 5.7 89.55 3.35 87.2 1.0 83.85 1.0 L9.05 1.0 Q5.7 1.0 3.35 3.35 1.0 5.7 1.0 9.05 L1.0 9.1 Q1.0 12.45 3.35 14.8 5.7 17.15 9.05 17.15 L83.85 17.15 Q87.2 17.15 89.55 14.8 91.9 12.45 91.9 9.1" fill="url(#gradient1)" fill-rule="evenodd" stroke="none"/>
    <path d="M67.1 5.8 L67.15 5.85 67.1 5.85 69.05 7.05 68.3 8.3 68.25 8.3 67.4 7.85 67.25 7.8 67.05 7.9 67.0 8.1 67.15 9.45 67.25 9.4 67.2 9.45 67.15 9.45 66.35 9.55 Q66.25 9.55 66.2 9.65 L66.1 9.8 66.15 9.95 66.3 10.05 66.8 10.25 Q67.45 10.6 67.4 11.45 L67.4 11.5 67.1 13.2 66.45 14.7 66.4 14.7 64.6 14.45 65.5 13.0 65.85 11.5 Q65.8 10.85 64.85 10.85 63.55 10.85 60.0 12.25 L59.95 12.3 59.9 12.25 59.1 10.95 58.95 10.85 58.8 10.85 58.5 10.95 58.5 11.0 57.7 10.2 57.7 10.15 59.95 8.4 60.0 8.3 61.45 6.65 61.45 6.7 62.5 5.25 62.5 5.2 62.6 4.95 62.6 4.8 62.5 4.65 62.35 4.6 61.85 4.75 61.9 4.7 Q60.5 5.1 59.0 6.05 L58.9 6.05 58.1 4.5 58.15 4.5 60.45 3.8 62.75 3.45 Q63.55 3.45 63.95 3.75 64.25 4.0 64.2 4.6 64.1 5.35 63.15 6.7 L63.1 6.9 63.2 7.05 Q64.0 7.75 65.15 8.45 L65.3 8.5 65.45 8.45 65.5 8.3 65.55 6.8 65.4 3.7 65.45 3.65 67.3 3.4 67.0 5.6 67.05 5.7 67.1 5.8 M65.0 9.1 L64.95 9.4 64.7 9.45 64.55 9.6 Q64.45 9.65 64.5 9.75 L64.65 9.95 64.8 9.95 65.15 9.9 65.35 9.85 65.4 9.65 65.4 9.6 65.5 9.2 65.5 9.05 65.3 8.9 65.15 8.95 65.0 9.1 M62.55 7.85 L62.35 7.8 62.2 7.9 60.5 9.45 60.5 9.5 59.4 10.4 59.3 10.5 59.35 10.7 59.45 10.8 59.6 10.8 62.15 10.25 64.2 10.0 64.35 9.95 64.4 9.75 64.35 9.6 63.3 8.6 62.55 7.85 M53.55 3.5 L55.35 3.35 55.35 3.4 Q55.1 5.4 55.1 8.9 55.1 12.8 55.35 14.45 L55.45 14.4 55.4 14.45 55.35 14.45 53.55 14.6 53.5 14.6 53.6 12.85 53.55 12.65 53.55 12.6 53.6 12.35 53.6 12.25 53.6 12.15 53.55 12.1 53.6 12.1 53.65 11.9 53.65 8.9 53.5 3.55 53.55 3.55 53.55 3.5 M53.15 12.35 L51.9 13.55 51.85 13.5 50.4 11.15 49.4 9.3 49.25 9.2 49.05 9.2 48.95 9.35 Q48.15 11.45 46.55 13.7 L46.5 13.75 46.45 13.75 46.45 13.7 45.7 13.4 Q47.05 11.05 47.65 8.75 L47.65 8.7 Q48.2 6.55 48.25 3.75 L48.3 3.75 48.3 3.7 50.05 3.75 50.05 3.8 49.55 7.55 49.6 7.7 51.1 10.1 53.1 12.3 53.15 12.35 M41.6 3.6 L43.4 3.35 Q43.15 4.7 43.15 7.05 L43.25 9.25 43.25 9.3 43.2 9.45 43.3 9.6 43.3 9.65 Q43.05 12.1 42.2 14.45 L42.2 14.5 42.15 14.55 41.15 14.75 41.25 14.25 41.25 14.1 41.1 13.95 40.9 14.0 Q39.55 14.65 38.4 14.65 36.85 14.65 36.2 14.05 L36.15 14.0 Q35.4 13.4 35.2 11.95 L35.05 10.45 35.1 10.45 36.4 10.0 36.5 9.9 36.55 9.75 36.5 9.6 36.4 9.55 35.2 8.85 Q34.3 8.0 34.3 6.75 34.3 5.35 35.15 4.5 35.95 3.55 37.3 3.55 L39.1 3.95 39.0 4.1 38.9 4.25 38.95 4.4 39.05 4.5 Q39.65 4.7 40.0 5.2 40.5 5.8 40.5 6.7 40.5 7.95 39.65 8.75 L39.55 8.85 Q38.65 9.6 37.25 9.6 L37.0 9.6 36.85 9.7 36.75 9.85 36.75 10.0 36.8 10.15 36.9 10.25 37.05 10.25 41.3 9.85 41.45 9.8 41.5 9.6 41.5 9.5 41.55 3.65 41.55 3.6 41.6 3.6 M41.5 11.1 L41.4 11.0 41.25 10.95 37.05 11.3 36.9 11.4 36.8 11.55 Q36.8 12.45 37.05 13.0 L37.1 13.1 Q37.4 13.75 38.45 13.75 39.9 13.75 41.35 12.45 L41.4 12.3 41.5 11.2 41.5 11.1 M36.85 4.6 Q35.8 5.15 35.8 6.7 35.8 7.5 36.25 8.1 36.7 8.7 37.35 8.7 38.0 8.7 38.5 8.1 38.95 7.55 38.95 6.8 38.95 5.0 37.45 5.0 L37.55 4.85 37.6 4.7 37.6 4.55 37.45 4.45 37.3 4.4 36.8 4.6 36.85 4.6 M29.8 7.05 L29.9 3.6 29.95 3.6 31.6 3.35 31.6 3.4 31.35 8.6 Q31.25 11.75 31.55 14.4 L29.95 14.65 29.8 14.65 29.85 14.6 29.9 14.35 Q29.75 12.55 29.75 10.5 L29.8 8.55 29.8 7.05 M36.5 10.15 L36.5 10.25 36.5 10.15 M27.7 4.6 L27.85 4.55 27.9 4.35 27.9 4.3 27.85 3.75 27.85 3.7 27.9 3.7 29.35 3.45 29.4 3.45 29.4 3.5 29.25 9.75 Q29.25 12.25 29.4 14.35 L27.85 14.55 27.8 14.55 28.0 9.3 27.95 9.15 27.85 9.1 27.7 9.05 26.5 9.4 26.4 9.4 26.35 9.2 26.2 9.1 26.05 9.05 25.9 9.15 25.4 9.9 22.35 13.4 22.35 13.45 22.3 13.4 21.7 12.55 21.65 12.5 Q22.55 11.8 24.35 9.3 L25.45 7.3 26.1 5.2 Q26.15 4.8 25.65 4.8 L25.45 4.8 25.4 4.8 Q24.6 5.0 22.9 6.0 L22.85 6.05 22.85 6.0 22.15 4.45 22.15 4.4 22.2 4.4 23.95 3.9 25.8 3.7 25.85 3.7 27.1 4.0 27.4 4.45 27.55 4.55 27.7 4.6 M27.6 5.15 L27.5 5.3 26.7 7.65 26.65 7.85 26.75 7.95 26.95 8.0 27.8 7.95 27.95 7.9 28.0 7.7 28.0 5.4 28.0 5.35 27.95 5.2 27.8 5.1 27.6 5.15" fill="#ca0202" fill-rule="evenodd" stroke="none"/>
  </g>
  <defs>
    <linearGradient gradientTransform="matrix(0.0, -0.0099, 0.0111, 0.0, 46.4, 9.1)" gradientUnits="userSpaceOnUse" id="gradient0" spreadMethod="pad" x1="-819.2" x2="819.2">
      <stop offset="0.0" stop-color="#cc33cc"/>
      <stop offset="0.21176470588235294" stop-color="#e184de"/>
      <stop offset="0.5058823529411764" stop-color="#f8d3f1"/>
      <stop offset="0.7450980392156863" stop-color="#faabda"/>
      <stop offset="1.0" stop-color="#fe78bb"/>
    </linearGradient>
    <linearGradient gradientTransform="matrix(0.0579, 0.0, 0.0, 0.0123, 46.45, 9.05)" gradientUnits="userSpaceOnUse" id="gradient1" spreadMethod="pad" x1="-819.2" x2="819.2">
      <stop offset="0.0" stop-color="#681717"/>
      <stop offset="0.5098039215686274" stop-color="#fe70b7"/>
      <stop offset="1.0" stop-color="#56181f"/>
    </linearGradient>
  </defs>
</svg>
