<?xml version="1.0" encoding="UTF-8" standalone="no"?>
<svg xmlns:xlink="http://www.w3.org/1999/xlink" height="20.15px" width="94.9px" xmlns="http://www.w3.org/2000/svg">
  <g transform="matrix(1.0, 0.0, 0.0, 1.0, -0.6, -1.0)">
    <path d="M10.65 1.0 L85.45 1.0 Q89.6 1.0 92.55 3.95 95.5 6.9 95.5 11.05 L95.5 11.1 Q95.5 15.25 92.55 18.2 89.6 21.15 85.45 21.15 L10.65 21.15 Q6.5 21.15 3.55 18.2 0.6 15.25 0.6 11.1 L0.6 11.05 Q0.6 6.9 3.55 3.95 6.5 1.0 10.65 1.0 M93.5 11.1 L93.5 11.05 Q93.5 7.7 91.15 5.35 88.8 3.0 85.45 3.0 L10.65 3.0 Q7.3 3.0 4.95 5.35 2.6 7.7 2.6 11.05 L2.6 11.1 Q2.6 14.45 4.95 16.8 7.3 19.15 10.65 19.15 L85.45 19.15 Q88.8 19.15 91.15 16.8 93.5 14.45 93.5 11.1" fill="url(#gradient0)" fill-rule="evenodd" stroke="none"/>
    <path d="M93.5 11.1 Q93.5 14.45 91.15 16.8 88.8 19.15 85.45 19.15 L10.65 19.15 Q7.3 19.15 4.95 16.8 2.6 14.45 2.6 11.1 L2.6 11.05 Q2.6 7.7 4.95 5.35 7.3 3.0 10.65 3.0 L85.45 3.0 Q88.8 3.0 91.15 5.35 93.5 7.7 93.5 11.05 L93.5 11.1 M68.85 4.9 L67.0 5.15 Q66.8 5.15 66.7 5.3 L66.55 5.45 66.5 5.7 66.5 5.75 66.65 8.8 66.65 9.85 65.3 8.8 Q66.2 7.45 66.3 6.65 66.45 5.7 65.85 5.35 65.35 4.95 64.35 4.95 L61.9 5.3 59.6 6.0 59.55 6.05 59.35 6.2 Q59.2 6.3 59.2 6.5 L59.3 6.75 60.05 8.25 60.3 8.55 60.4 8.55 60.5 8.55 60.65 8.55 60.8 8.55 Q62.25 7.65 63.55 7.25 L62.7 8.35 62.65 8.35 61.2 10.0 61.15 10.05 58.95 11.75 58.95 11.8 58.8 11.95 58.75 12.2 58.95 12.55 59.75 13.35 60.0 13.45 60.15 13.45 60.3 13.4 60.35 13.4 61.1 14.55 61.15 14.6 61.35 14.75 61.45 14.75 61.6 14.75 61.7 14.75 Q65.2 13.35 66.45 13.35 L66.95 13.55 66.65 14.8 65.85 16.15 65.8 16.15 65.65 16.45 65.85 16.85 66.1 16.95 67.95 17.2 68.0 17.2 68.1 17.2 68.3 17.15 68.4 17.05 69.2 15.35 69.5 13.5 69.5 13.45 Q69.55 12.45 68.9 11.95 L69.1 11.85 69.2 11.75 69.25 11.55 69.25 11.45 69.15 10.55 69.75 10.8 69.8 10.8 69.95 10.8 70.15 10.75 70.25 10.65 70.25 10.6 71.05 9.35 71.15 9.05 71.15 8.95 71.15 8.85 70.9 8.6 69.15 7.5 69.4 5.5 69.4 5.45 69.4 5.3 69.4 5.2 69.1 4.95 68.9 4.9 68.85 4.9 M64.55 10.95 L65.2 11.55 63.65 11.75 62.1 12.1 62.4 11.85 62.45 11.85 63.95 10.4 64.55 10.95 M57.45 5.4 L57.45 5.25 57.45 5.15 57.15 4.9 56.95 4.85 55.1 5.0 54.85 5.1 54.65 5.35 54.6 5.55 54.6 5.6 54.75 10.9 54.75 13.75 53.1 11.8 51.65 9.5 52.15 5.85 52.15 5.8 52.15 5.65 52.1 5.5 52.0 5.4 Q51.85 5.25 51.7 5.25 L49.9 5.2 49.7 5.25 49.45 5.45 49.35 5.7 Q49.3 8.45 48.75 10.6 48.15 12.85 46.85 15.15 L46.75 15.35 46.9 15.7 47.0 15.8 47.05 15.85 47.9 16.2 48.0 16.2 48.2 16.2 48.4 16.15 48.5 16.05 48.5 16.0 Q49.95 13.95 50.8 12.0 L51.55 13.4 53.05 15.8 53.1 15.85 53.3 16.0 53.4 16.0 53.5 16.0 53.75 15.95 53.85 15.9 54.7 15.05 54.6 16.6 54.65 16.8 54.9 17.1 55.0 17.1 55.15 17.1 55.2 17.1 57.0 16.95 57.05 16.95 57.3 16.85 57.4 16.75 57.45 16.55 57.45 16.45 Q57.2 14.8 57.2 10.9 57.2 7.4 57.45 5.45 L57.45 5.4 M45.0 4.85 L44.95 4.85 43.1 5.1 42.85 5.3 42.65 5.6 42.6 11.4 41.05 11.55 41.4 11.25 41.55 11.2 Q42.6 10.2 42.6 8.7 42.6 7.6 42.0 6.9 L41.15 6.15 41.2 5.9 41.1 5.6 Q40.95 5.45 40.85 5.45 L38.9 5.05 Q37.35 5.05 36.4 6.15 35.4 7.15 35.4 8.75 35.4 10.2 36.45 11.2 L37.25 11.75 36.6 11.95 Q36.4 11.95 36.3 12.15 L36.15 12.45 36.15 12.5 36.3 14.0 Q36.5 15.7 37.45 16.4 38.25 17.15 40.0 17.15 L42.25 16.65 42.25 16.9 42.5 17.25 42.6 17.25 42.8 17.25 42.85 17.25 43.9 17.0 44.0 16.95 44.15 16.9 44.2 16.75 44.25 16.7 Q45.15 14.25 45.4 11.7 L45.4 11.65 45.4 11.5 45.35 11.35 45.35 11.25 45.25 9.05 Q45.25 6.8 45.5 5.45 L45.5 5.4 45.5 5.25 45.5 5.15 45.2 4.9 45.0 4.85 M42.55 14.15 Q41.3 15.25 40.05 15.25 39.3 15.25 39.1 14.75 L39.05 14.7 Q38.9 14.3 38.9 13.8 L42.6 13.5 42.55 14.15 M39.0 7.5 Q40.05 7.5 40.05 8.8 L39.7 9.8 Q39.4 10.2 38.95 10.2 38.5 10.2 38.25 9.8 37.9 9.3 37.9 8.7 37.9 7.6 38.5 7.15 L38.6 7.3 38.7 7.4 39.0 7.5 M33.4 4.9 L33.2 4.85 33.15 4.85 31.45 5.1 31.4 5.15 31.2 5.0 31.0 4.95 30.95 4.95 29.4 5.2 Q29.1 5.25 29.05 5.45 L29.0 5.6 Q28.4 5.15 27.4 5.2 L25.45 5.4 23.6 5.9 23.35 6.1 23.2 6.35 23.3 6.65 23.95 8.15 24.1 8.4 24.4 8.5 24.55 8.5 24.7 8.5 Q26.35 7.5 27.1 7.3 L27.2 7.3 26.6 9.1 25.55 11.0 Q23.85 13.4 22.95 14.1 L22.75 14.45 22.85 14.75 22.85 14.8 23.5 15.7 23.55 15.75 23.65 15.85 23.8 15.9 23.95 15.9 24.2 15.85 24.3 15.8 27.4 12.2 27.7 11.8 27.95 11.9 28.1 11.9 28.2 11.9 29.1 11.65 28.9 16.55 28.95 16.75 29.2 17.05 29.3 17.05 29.45 17.05 29.5 17.05 31.05 16.85 31.1 16.85 31.15 16.85 31.15 16.9 31.25 17.1 31.4 17.15 31.55 17.15 31.6 17.15 33.2 16.9 33.25 16.9 33.6 16.65 33.65 16.4 Q33.35 13.75 33.45 10.6 L33.7 5.45 33.7 5.4 33.7 5.25 33.7 5.15 33.4 4.9 M31.4 9.05 L31.4 10.55 31.35 12.5 31.35 11.75 31.4 9.05 M29.1 9.5 L28.9 9.5 29.1 9.05 29.1 9.5" fill="url(#gradient1)" fill-rule="evenodd" stroke="none"/>
    <path d="M68.85 4.9 L68.9 4.9 69.1 4.95 69.4 5.2 69.4 5.3 69.4 5.45 69.4 5.5 69.15 7.5 70.9 8.6 71.15 8.85 71.15 8.95 71.15 9.05 71.05 9.35 70.25 10.6 70.25 10.65 70.15 10.75 69.95 10.8 69.8 10.8 69.75 10.8 69.15 10.55 69.25 11.45 69.25 11.55 69.2 11.75 69.1 11.85 68.9 11.95 Q69.55 12.45 69.5 13.45 L69.5 13.5 69.2 15.35 68.4 17.05 68.3 17.15 68.1 17.2 68.0 17.2 67.95 17.2 66.1 16.95 65.85 16.85 65.65 16.45 65.8 16.15 65.85 16.15 66.65 14.8 66.95 13.55 66.45 13.35 Q65.2 13.35 61.7 14.75 L61.6 14.75 61.45 14.75 61.35 14.75 61.15 14.6 61.1 14.55 60.35 13.4 60.3 13.4 60.15 13.45 60.0 13.45 59.75 13.35 58.95 12.55 58.75 12.2 58.8 11.95 58.95 11.8 58.95 11.75 61.15 10.05 61.2 10.0 62.65 8.35 62.7 8.35 63.55 7.25 Q62.25 7.65 60.8 8.55 L60.65 8.55 60.5 8.55 60.4 8.55 60.3 8.55 60.05 8.25 59.3 6.75 59.2 6.5 Q59.2 6.3 59.35 6.2 L59.55 6.05 59.6 6.0 61.9 5.3 64.35 4.95 Q65.35 4.95 65.85 5.35 66.45 5.7 66.3 6.65 66.2 7.45 65.3 8.8 L66.65 9.85 66.65 8.8 66.5 5.75 66.5 5.7 66.55 5.45 66.7 5.3 Q66.8 5.15 67.0 5.15 L68.85 4.9 M68.7 7.8 L68.65 7.7 68.6 7.6 68.9 5.4 67.05 5.65 67.0 5.7 67.15 8.8 67.1 10.3 67.05 10.45 66.9 10.5 66.75 10.45 64.8 9.05 64.7 8.9 64.75 8.7 Q65.7 7.35 65.8 6.6 65.85 6.0 65.55 5.75 65.15 5.45 64.35 5.45 L62.05 5.8 59.75 6.5 59.7 6.5 60.5 8.05 60.6 8.05 Q62.1 7.1 63.5 6.7 L63.45 6.75 Q63.75 6.6 63.95 6.6 L64.1 6.65 64.2 6.8 64.2 6.95 64.1 7.2 64.1 7.25 63.05 8.7 63.05 8.65 61.6 10.3 61.55 10.4 59.3 12.15 59.3 12.2 60.1 13.0 60.1 12.95 60.4 12.85 60.55 12.85 60.7 12.95 61.5 14.25 61.55 14.3 61.6 14.25 Q65.15 12.85 66.45 12.85 67.4 12.85 67.45 13.5 L67.1 15.0 66.2 16.45 68.0 16.7 68.05 16.7 68.7 15.2 69.0 13.5 69.0 13.45 Q69.05 12.6 68.4 12.25 L67.9 12.05 67.75 11.95 67.7 11.8 67.8 11.65 67.95 11.55 68.75 11.45 68.6 10.1 68.65 9.9 68.85 9.8 69.0 9.85 Q69.4 10.15 69.85 10.3 L69.9 10.3 70.65 9.05 68.7 7.85 68.75 7.85 68.7 7.8 M68.75 11.45 L68.8 11.45 68.85 11.4 68.75 11.45 M63.8 9.9 Q63.85 9.8 63.95 9.8 L64.15 9.85 64.9 10.6 65.95 11.6 66.0 11.75 65.95 11.95 65.8 12.0 63.75 12.25 61.2 12.8 61.05 12.8 60.95 12.7 60.9 12.5 61.0 12.4 62.1 11.5 62.1 11.45 63.8 9.9 M67.1 11.05 L67.1 11.2 67.0 11.6 67.0 11.65 66.95 11.85 66.75 11.9 66.4 11.95 66.25 11.95 66.1 11.75 66.15 11.6 66.3 11.45 66.55 11.4 66.6 11.1 66.75 10.95 Q66.8 10.85 66.9 10.9 L67.1 11.05 M64.55 10.95 L63.95 10.4 62.45 11.85 62.4 11.85 62.1 12.1 63.65 11.75 65.2 11.55 64.55 10.95 M57.45 5.4 L57.45 5.45 Q57.2 7.4 57.2 10.9 57.2 14.8 57.45 16.45 L57.45 16.55 57.4 16.75 57.3 16.85 57.05 16.95 57.0 16.95 55.2 17.1 55.15 17.1 55.0 17.1 54.9 17.1 54.65 16.8 54.6 16.6 54.7 15.05 53.85 15.9 53.75 15.95 53.5 16.0 53.4 16.0 53.3 16.0 53.1 15.85 53.05 15.8 51.55 13.4 50.8 12.0 Q49.95 13.95 48.5 16.0 L48.5 16.05 48.4 16.15 48.2 16.2 48.0 16.2 47.9 16.2 47.05 15.85 47.0 15.8 46.9 15.7 46.75 15.35 46.85 15.15 Q48.15 12.85 48.75 10.6 49.3 8.45 49.35 5.7 L49.45 5.45 49.7 5.25 49.9 5.2 51.7 5.25 Q51.85 5.25 52.0 5.4 L52.1 5.5 52.15 5.65 52.15 5.8 52.15 5.85 51.65 9.5 53.1 11.8 54.75 13.75 54.75 10.9 54.6 5.6 54.6 5.55 54.65 5.35 54.85 5.1 55.1 5.0 56.95 4.85 57.15 4.9 57.45 5.15 57.45 5.25 57.45 5.4 M55.15 5.5 L55.15 5.55 55.1 5.55 55.25 10.9 55.25 13.9 55.2 14.1 55.15 14.1 55.2 14.15 55.2 14.25 55.2 14.35 55.15 14.6 55.15 14.65 55.2 14.85 55.1 16.6 55.15 16.6 56.95 16.45 Q56.7 14.8 56.7 10.9 56.7 7.4 56.95 5.4 L56.95 5.35 55.15 5.5 M49.85 5.75 Q49.8 8.55 49.25 10.7 L49.25 10.75 Q48.65 13.05 47.3 15.4 L48.05 15.7 48.05 15.75 48.1 15.75 48.15 15.7 Q49.75 13.45 50.55 11.35 L50.65 11.2 50.85 11.2 51.0 11.3 52.0 13.15 53.45 15.5 53.5 15.55 54.75 14.35 54.7 14.3 52.7 12.1 51.2 9.7 51.15 9.55 51.65 5.8 51.65 5.75 49.9 5.7 49.9 5.75 49.85 5.75 M45.0 4.85 L45.2 4.9 45.5 5.15 45.5 5.25 45.5 5.4 45.5 5.45 Q45.25 6.8 45.25 9.05 L45.35 11.25 45.35 11.35 45.4 11.5 45.4 11.65 45.4 11.7 Q45.15 14.25 44.25 16.7 L44.2 16.75 44.15 16.9 44.0 16.95 43.9 17.0 42.85 17.25 42.8 17.25 42.6 17.25 42.5 17.25 42.25 16.9 42.25 16.65 40.0 17.15 Q38.25 17.15 37.45 16.4 36.5 15.7 36.3 14.0 L36.15 12.5 36.15 12.45 36.3 12.15 Q36.4 11.95 36.6 11.95 L37.25 11.75 36.45 11.2 Q35.4 10.2 35.4 8.75 35.4 7.15 36.4 6.15 37.35 5.05 38.9 5.05 L40.85 5.45 Q40.95 5.45 41.1 5.6 L41.2 5.9 41.15 6.15 42.0 6.9 Q42.6 7.6 42.6 8.7 42.6 10.2 41.55 11.2 L41.4 11.25 41.05 11.55 42.6 11.4 42.65 5.6 42.85 5.3 43.1 5.1 44.95 4.85 45.0 4.85 M43.2 5.6 L43.15 5.6 43.15 5.65 43.1 11.5 43.1 11.6 43.05 11.8 42.9 11.85 38.65 12.25 38.5 12.25 38.4 12.15 38.35 12.0 38.35 11.85 38.45 11.7 Q38.5 11.6 38.6 11.6 L38.85 11.6 Q40.25 11.6 41.15 10.85 L41.25 10.75 Q42.1 9.95 42.1 8.7 42.1 7.8 41.6 7.2 L40.65 6.5 40.55 6.4 40.5 6.25 40.6 6.1 40.7 5.95 38.9 5.55 Q37.55 5.55 36.75 6.5 35.9 7.35 35.9 8.75 35.9 10.0 36.8 10.85 L38.0 11.55 38.1 11.6 38.15 11.75 38.1 11.9 38.0 12.0 36.7 12.45 36.65 12.45 36.8 13.95 Q37.0 15.4 37.75 16.0 L37.8 16.05 Q38.45 16.65 40.0 16.65 41.15 16.65 42.5 16.0 L42.7 15.95 42.85 16.1 42.85 16.25 42.75 16.75 43.75 16.55 43.8 16.5 43.8 16.45 Q44.65 14.1 44.9 11.65 L44.9 11.6 44.8 11.45 44.85 11.3 44.85 11.25 44.75 9.05 Q44.75 6.7 45.0 5.35 L43.2 5.6 M42.55 14.15 L42.6 13.5 38.9 13.8 Q38.9 14.3 39.05 14.7 L39.1 14.75 Q39.3 15.25 40.05 15.25 41.3 15.25 42.55 14.15 M43.1 13.2 L43.0 14.3 42.95 14.45 Q41.5 15.75 40.05 15.75 39.0 15.75 38.7 15.1 L38.65 15.0 Q38.4 14.45 38.4 13.55 L38.5 13.4 38.65 13.3 42.85 12.95 43.0 13.0 43.1 13.1 43.1 13.2 M56.95 16.45 L57.0 16.45 57.05 16.4 56.95 16.45 M38.9 6.4 L39.05 6.45 39.2 6.55 39.2 6.7 39.15 6.85 39.05 7.0 Q40.55 7.0 40.55 8.8 40.55 9.55 40.1 10.1 39.6 10.7 38.95 10.7 38.3 10.7 37.85 10.1 37.4 9.5 37.4 8.7 37.4 7.15 38.45 6.6 L38.4 6.6 38.9 6.4 M33.4 4.9 L33.7 5.15 33.7 5.25 33.7 5.4 33.7 5.45 33.45 10.6 Q33.35 13.75 33.65 16.4 L33.6 16.65 33.25 16.9 33.2 16.9 31.6 17.15 31.55 17.15 31.4 17.15 31.25 17.1 31.15 16.9 31.15 16.85 31.1 16.85 31.05 16.85 29.5 17.05 29.45 17.05 29.3 17.05 29.2 17.05 28.95 16.75 28.9 16.55 29.1 11.65 28.2 11.9 28.1 11.9 27.95 11.9 27.7 11.8 27.4 12.2 24.3 15.8 24.2 15.85 23.95 15.9 23.8 15.9 23.65 15.85 23.55 15.75 23.5 15.7 22.85 14.8 22.85 14.75 22.75 14.45 22.95 14.1 Q23.85 13.4 25.55 11.0 L26.6 9.1 27.2 7.3 27.1 7.3 Q26.35 7.5 24.7 8.5 L24.55 8.5 24.4 8.5 24.1 8.4 23.95 8.15 23.3 6.65 23.2 6.35 23.35 6.1 23.6 5.9 25.45 5.4 27.4 5.2 Q28.4 5.15 29.0 5.6 L29.05 5.45 Q29.1 5.25 29.4 5.2 L30.95 4.95 31.0 4.95 31.2 5.0 31.4 5.15 31.45 5.1 33.15 4.85 33.2 4.85 33.4 4.9 M39.0 7.5 L38.7 7.4 38.6 7.3 38.5 7.15 Q37.9 7.6 37.9 8.7 37.9 9.3 38.25 9.8 38.5 10.2 38.95 10.2 39.4 10.2 39.7 9.8 L40.05 8.8 Q40.05 7.5 39.0 7.5 M31.35 12.5 Q31.35 14.55 31.5 16.35 L31.45 16.6 31.4 16.65 31.55 16.65 33.15 16.4 Q32.85 13.75 32.95 10.6 L33.2 5.4 33.2 5.35 31.55 5.6 31.5 5.6 31.4 9.05 31.35 11.75 31.35 12.5 M29.45 5.75 L29.5 6.3 29.5 6.35 29.45 6.55 29.3 6.6 29.15 6.55 29.0 6.45 28.7 6.0 27.45 5.7 27.4 5.7 25.55 5.9 23.8 6.4 23.75 6.4 23.75 6.45 24.45 8.0 24.45 8.05 24.5 8.0 Q26.2 7.0 27.0 6.8 L27.05 6.8 27.25 6.8 Q27.75 6.8 27.7 7.2 L27.05 9.3 25.95 11.3 Q24.15 13.8 23.25 14.5 L23.3 14.55 23.9 15.4 23.95 15.45 23.95 15.4 27.0 11.9 27.5 11.15 27.65 11.05 27.8 11.1 27.95 11.2 28.0 11.4 28.1 11.4 29.3 11.05 29.45 11.1 29.55 11.15 29.6 11.3 29.4 16.55 29.45 16.55 31.0 16.35 Q30.85 14.25 30.85 11.75 L31.0 5.5 31.0 5.45 30.95 5.45 29.5 5.7 29.45 5.7 29.45 5.75 M29.1 7.3 L29.2 7.15 29.4 7.1 29.55 7.2 29.6 7.35 29.6 7.4 29.6 9.7 29.55 9.9 29.4 9.95 28.55 10.0 28.35 9.95 28.25 9.85 28.3 9.65 29.1 7.3 M29.1 9.5 L29.1 9.05 28.9 9.5 29.1 9.5" fill="#ffffff" fill-rule="evenodd" stroke="none"/>
    <path d="M67.05 5.65 L68.9 5.4 68.6 7.6 68.65 7.7 68.7 7.8 68.7 7.85 70.65 9.05 69.9 10.3 69.85 10.3 Q69.4 10.15 69.0 9.85 L68.85 9.8 68.65 9.9 68.6 10.1 68.75 11.45 67.95 11.55 67.8 11.65 67.7 11.8 67.75 11.95 67.9 12.05 68.4 12.25 Q69.05 12.6 69.0 13.45 L69.0 13.5 68.7 15.2 68.05 16.7 68.0 16.7 66.2 16.45 67.1 15.0 67.45 13.5 Q67.4 12.85 66.45 12.85 65.15 12.85 61.6 14.25 L61.5 14.25 60.7 12.95 60.55 12.85 60.4 12.85 60.1 12.95 60.1 13.0 59.3 12.2 59.3 12.15 61.55 10.4 61.6 10.3 63.05 8.65 63.05 8.7 64.1 7.25 64.1 7.2 64.2 6.95 64.2 6.8 64.1 6.65 63.95 6.6 Q63.75 6.6 63.45 6.75 L63.5 6.7 Q62.1 7.1 60.6 8.05 L60.5 8.05 59.7 6.5 59.75 6.5 62.05 5.8 64.35 5.45 Q65.15 5.45 65.55 5.75 65.85 6.0 65.8 6.6 65.7 7.35 64.75 8.7 L64.7 8.9 64.8 9.05 66.75 10.45 66.9 10.5 67.05 10.45 67.1 10.3 67.15 8.8 67.0 5.7 67.05 5.65 M67.1 11.05 L66.9 10.9 Q66.8 10.85 66.75 10.95 L66.6 11.1 66.55 11.4 66.3 11.45 66.15 11.6 66.1 11.75 66.25 11.95 66.4 11.95 66.75 11.9 66.95 11.85 67.0 11.65 67.0 11.6 67.1 11.2 67.1 11.05 M63.8 9.9 L62.1 11.45 62.1 11.5 61.0 12.4 60.9 12.5 60.95 12.7 61.05 12.8 61.2 12.8 63.75 12.25 65.8 12.0 65.95 11.95 66.0 11.75 65.95 11.6 64.9 10.6 64.15 9.85 63.95 9.8 Q63.85 9.8 63.8 9.9 M55.15 5.55 L55.15 5.5 56.95 5.35 56.95 5.4 Q56.7 7.4 56.7 10.9 56.7 14.8 56.95 16.45 L55.15 16.6 55.1 16.6 55.2 14.85 55.15 14.65 55.15 14.6 55.2 14.35 55.2 14.25 55.2 14.15 55.15 14.1 55.2 14.1 55.25 13.9 55.25 10.9 55.1 5.55 55.15 5.55 M49.9 5.75 L49.9 5.7 51.65 5.75 51.65 5.8 51.15 9.55 51.2 9.7 52.7 12.1 54.7 14.3 54.75 14.35 53.5 15.55 53.45 15.5 52.0 13.15 51.0 11.3 50.85 11.2 50.65 11.2 50.55 11.35 Q49.75 13.45 48.15 15.7 L48.1 15.75 48.05 15.75 48.05 15.7 47.3 15.4 Q48.65 13.05 49.25 10.75 L49.25 10.7 Q49.8 8.55 49.85 5.75 L49.9 5.75 M43.15 5.65 L43.2 5.6 45.0 5.35 Q44.75 6.7 44.75 9.05 L44.85 11.25 44.85 11.3 44.8 11.45 44.9 11.6 44.9 11.65 Q44.65 14.1 43.8 16.45 L43.75 16.55 42.75 16.75 42.85 16.25 42.85 16.1 42.7 15.95 42.5 16.0 Q41.15 16.65 40.0 16.65 38.45 16.65 37.8 16.05 L37.75 16.0 Q37.0 15.4 36.8 13.95 L36.65 12.45 36.7 12.45 38.0 12.0 38.1 11.9 38.15 11.75 38.1 11.6 38.0 11.55 36.8 10.85 Q35.9 10.0 35.9 8.75 35.9 7.35 36.75 6.5 37.55 5.55 38.9 5.55 L40.7 5.95 40.6 6.1 40.5 6.25 40.55 6.4 40.65 6.5 41.6 7.2 Q42.1 7.8 42.1 8.7 42.1 9.95 41.25 10.75 L41.15 10.85 Q40.25 11.6 38.85 11.6 L38.6 11.6 Q38.5 11.6 38.45 11.7 L38.35 11.85 38.35 12.0 38.4 12.15 38.5 12.25 38.65 12.25 42.9 11.85 43.05 11.8 43.1 11.6 43.1 11.5 43.15 5.65 M43.1 13.2 L43.1 13.1 43.0 13.0 42.85 12.95 38.65 13.3 38.5 13.4 38.4 13.55 Q38.4 14.45 38.65 15.0 L38.7 15.1 Q39.0 15.75 40.05 15.75 41.5 15.75 42.95 14.45 L43.0 14.3 43.1 13.2 M38.9 6.4 L38.4 6.6 38.45 6.6 Q37.4 7.15 37.4 8.7 37.4 9.5 37.85 10.1 38.3 10.7 38.95 10.7 39.6 10.7 40.1 10.1 40.55 9.55 40.55 8.8 40.55 7.0 39.05 7.0 L39.15 6.85 39.2 6.7 39.2 6.55 39.05 6.45 38.9 6.4 M31.4 9.05 L31.5 5.6 31.55 5.6 33.2 5.35 33.2 5.4 32.95 10.6 Q32.85 13.75 33.15 16.4 L31.55 16.65 31.4 16.65 31.45 16.6 31.5 16.35 Q31.35 14.55 31.35 12.5 L31.4 10.55 31.4 9.05 M38.1 12.25 L38.1 12.15 38.1 12.25 M23.8 6.4 L25.55 5.9 27.4 5.7 27.45 5.7 28.7 6.0 29.0 6.45 29.15 6.55 29.3 6.6 29.45 6.55 29.5 6.35 29.5 6.3 29.45 5.75 29.5 5.7 30.95 5.45 31.0 5.5 30.85 11.75 Q30.85 14.25 31.0 16.35 L29.45 16.55 29.4 16.55 29.6 11.3 29.55 11.15 29.45 11.1 29.3 11.05 28.1 11.4 28.0 11.4 27.95 11.2 27.8 11.1 27.65 11.05 27.5 11.15 27.0 11.9 23.95 15.4 23.9 15.4 23.3 14.55 23.25 14.5 Q24.15 13.8 25.95 11.3 L27.05 9.3 27.7 7.2 Q27.75 6.8 27.25 6.8 L27.05 6.8 27.0 6.8 Q26.2 7.0 24.5 8.0 L24.45 8.0 23.75 6.45 23.8 6.4 M29.1 7.3 L28.3 9.65 28.25 9.85 28.35 9.95 28.55 10.0 29.4 9.95 29.55 9.9 29.6 9.7 29.6 7.4 29.6 7.35 29.55 7.2 29.4 7.1 29.2 7.15 29.1 7.3" fill="#ff3300" fill-rule="evenodd" stroke="none"/>
    <path d="M68.7 7.8 L68.75 7.85 68.7 7.85 68.7 7.8 M68.75 11.45 L68.85 11.4 68.8 11.45 68.75 11.45 M61.6 14.25 L61.55 14.3 61.5 14.25 61.6 14.25 M59.7 6.5 L59.75 6.5 59.7 6.5 M67.0 5.7 L67.05 5.65 67.0 5.7 M55.15 5.5 L55.15 5.55 55.15 5.5 M49.85 5.75 L49.9 5.75 49.85 5.75 M43.15 5.65 L43.15 5.6 43.2 5.6 43.15 5.65 M43.8 16.45 L43.8 16.5 43.75 16.55 43.8 16.45 M56.95 16.45 L57.05 16.4 57.0 16.45 56.95 16.45 M29.45 5.75 L29.45 5.7 29.5 5.7 29.45 5.75 M30.95 5.45 L31.0 5.45 31.0 5.5 30.95 5.45 M23.95 15.4 L23.95 15.45 23.9 15.4 23.95 15.4 M24.5 8.0 L24.45 8.05 24.45 8.0 24.5 8.0 M23.75 6.45 L23.75 6.4 23.8 6.4 23.75 6.45" fill="#ca0202" fill-rule="evenodd" stroke="none"/>
    <path d="M38.1 12.25 L38.1 12.15 38.1 12.25" fill="#ff0000" fill-rule="evenodd" stroke="none"/>
  </g>
  <defs>
    <linearGradient gradientTransform="matrix(0.0579, 0.0, 0.0, 0.0123, 48.05, 11.05)" gradientUnits="userSpaceOnUse" id="gradient0" spreadMethod="pad" x1="-819.2" x2="819.2">
      <stop offset="0.0" stop-color="#681717"/>
      <stop offset="0.5098039215686274" stop-color="#fe70b7"/>
      <stop offset="1.0" stop-color="#56181f"/>
    </linearGradient>
    <linearGradient gradientTransform="matrix(0.0, -0.0099, 0.0111, 0.0, 48.0, 11.1)" gradientUnits="userSpaceOnUse" id="gradient1" spreadMethod="pad" x1="-819.2" x2="819.2">
      <stop offset="0.0" stop-color="#cc33cc"/>
      <stop offset="0.21176470588235294" stop-color="#e184de"/>
      <stop offset="0.5058823529411764" stop-color="#f8d3f1"/>
      <stop offset="0.7450980392156863" stop-color="#faabda"/>
      <stop offset="1.0" stop-color="#fe78bb"/>
    </linearGradient>
  </defs>
</svg>
