<?xml version="1.0" encoding="UTF-8" standalone="no"?>
<svg xmlns:xlink="http://www.w3.org/1999/xlink" height="20.15px" width="94.9px" xmlns="http://www.w3.org/2000/svg">
  <g transform="matrix(1.0, 0.0, 0.0, 1.0, 1.0, 1.0)">
    <path d="M9.05 -1.0 L83.85 -1.0 Q88.0 -1.0 90.95 1.95 93.9 4.9 93.9 9.05 L93.9 9.1 Q93.9 13.25 90.95 16.2 88.0 19.15 83.85 19.15 L9.05 19.15 Q4.9 19.15 1.95 16.2 -1.0 13.25 -1.0 9.1 L-1.0 9.05 Q-1.0 4.9 1.95 1.95 4.9 -1.0 9.05 -1.0 M91.9 9.1 L91.9 9.05 Q91.9 5.7 89.55 3.35 87.2 1.0 83.85 1.0 L9.05 1.0 Q5.7 1.0 3.35 3.35 1.0 5.7 1.0 9.05 L1.0 9.1 Q1.0 12.45 3.35 14.8 5.7 17.15 9.05 17.15 L83.85 17.15 Q87.2 17.15 89.55 14.8 91.9 12.45 91.9 9.1" fill="url(#gradient0)" fill-rule="evenodd" stroke="none"/>
    <path d="M91.9 9.1 Q91.9 12.45 89.55 14.8 87.2 17.15 83.85 17.15 L9.05 17.15 Q5.7 17.15 3.35 14.8 1.0 12.45 1.0 9.1 L1.0 9.05 Q1.0 5.7 3.35 3.35 5.7 1.0 9.05 1.0 L83.85 1.0 Q87.2 1.0 89.55 3.35 91.9 5.7 91.9 9.05 L91.9 9.1 M67.2 3.6 Q66.25 3.1 65.2 3.2 L62.05 3.6 Q60.35 3.9 59.35 4.4 L59.2 4.55 59.05 4.85 59.15 5.1 59.75 6.3 59.95 6.5 60.05 6.6 59.75 6.65 59.7 6.7 59.5 6.85 59.35 7.15 Q59.35 8.65 59.9 9.75 60.4 11.0 61.35 11.4 L61.45 12.6 60.0 12.6 58.15 12.45 58.1 12.45 57.85 12.5 57.6 12.8 57.55 13.05 57.6 13.15 58.05 14.55 58.1 14.65 58.2 14.75 58.25 14.8 58.55 14.85 58.6 14.85 63.6 14.6 65.5 14.6 67.3 14.6 69.05 14.6 69.4 14.5 69.5 14.4 69.55 14.3 70.0 12.8 70.0 12.7 70.0 12.5 70.0 12.4 69.7 12.15 69.5 12.1 66.55 12.45 66.6 11.3 68.6 10.45 68.7 10.3 68.75 10.25 68.8 10.05 68.8 9.85 68.8 9.75 68.25 8.7 67.95 8.45 67.75 8.4 Q67.6 8.4 67.5 8.55 65.7 9.65 64.1 9.65 L62.55 9.35 Q62.15 9.1 62.05 8.65 L64.6 8.45 64.65 8.55 64.95 8.65 66.9 8.75 67.15 8.7 67.4 8.35 67.9 7.2 68.3 5.85 68.35 5.35 Q68.35 4.2 67.25 3.65 L67.2 3.6 M65.8 5.3 L65.85 5.45 65.5 6.4 62.05 6.75 62.05 6.7 61.95 6.4 61.75 6.25 61.5 6.2 61.45 6.2 61.0 6.35 Q61.6 6.05 62.55 5.8 64.0 5.35 65.2 5.25 L65.8 5.3 M64.25 11.7 L64.3 12.55 63.75 12.55 63.75 11.7 64.25 11.7 M55.7 4.05 Q55.7 3.4 55.05 3.1 L53.35 2.8 52.45 2.85 47.75 3.65 47.7 3.7 47.5 3.85 Q47.25 4.0 47.4 4.35 L47.35 4.35 47.75 5.8 47.95 6.05 48.2 6.15 48.35 6.15 48.45 6.15 Q49.4 5.75 50.7 5.35 L52.25 4.9 49.7 6.25 46.8 7.45 Q46.65 7.45 46.55 7.65 46.4 7.75 46.4 7.95 L46.6 8.3 46.9 8.6 46.25 8.55 46.2 8.55 45.9 8.65 45.75 8.9 Q45.6 9.0 45.75 9.25 L46.25 10.75 46.45 11.05 46.6 11.1 46.75 11.1 46.8 11.1 48.6 10.75 Q47.75 11.5 47.75 12.45 47.75 13.7 48.75 14.35 49.8 15.1 51.8 15.1 L54.55 14.8 Q56.35 14.1 56.35 12.45 56.35 11.35 55.25 10.85 L55.25 10.8 55.15 10.75 54.45 10.45 54.55 10.35 54.65 10.15 57.05 10.15 57.4 10.05 57.5 9.95 57.55 9.85 58.05 8.45 58.05 8.35 58.05 8.2 58.05 8.1 57.9 7.9 57.8 7.85 57.55 7.75 56.5 7.85 57.25 7.25 57.45 6.9 57.35 6.6 57.25 6.45 57.15 6.35 54.7 5.65 Q55.75 4.8 55.7 4.1 L55.7 4.05 M53.45 7.45 L54.6 8.0 53.35 8.15 53.45 7.45 M51.1 8.4 L49.65 8.5 51.0 7.85 51.1 8.4 M50.75 11.55 L51.0 11.85 51.1 11.85 51.25 11.85 51.3 11.85 52.3 11.8 Q53.6 11.8 53.7 12.55 L53.25 13.25 52.05 13.45 50.75 13.25 50.8 13.25 Q50.25 12.95 50.25 12.5 50.25 11.9 50.75 11.55 M43.85 2.8 L43.8 2.8 41.95 3.05 41.7 3.25 41.5 3.55 41.45 9.35 39.9 9.5 40.25 9.2 40.4 9.15 Q41.45 8.15 41.45 6.65 41.45 5.55 40.85 4.85 L40.0 4.1 40.05 3.85 39.95 3.55 Q39.8 3.4 39.7 3.4 L37.75 3.0 Q36.2 3.0 35.25 4.1 34.25 5.1 34.25 6.7 34.25 8.15 35.3 9.15 L36.05 9.65 35.4 9.85 35.35 9.9 35.15 10.05 35.1 10.1 35.0 10.4 35.0 10.45 35.15 11.95 Q35.35 13.65 36.3 14.35 37.1 15.1 38.85 15.1 L41.1 14.6 41.1 14.85 41.35 15.2 41.45 15.2 41.65 15.2 41.7 15.2 42.75 14.95 42.85 14.9 43.0 14.85 43.05 14.7 43.1 14.65 Q44.0 12.2 44.25 9.65 L44.25 9.6 44.25 9.45 44.2 9.3 44.2 9.2 44.1 7.0 Q44.1 4.75 44.35 3.4 L44.35 3.35 44.35 3.2 44.35 3.1 44.05 2.85 43.85 2.8 M41.4 12.1 Q40.15 13.2 38.9 13.2 38.15 13.2 37.95 12.7 L37.9 12.65 37.75 11.75 41.45 11.45 41.4 12.1 M37.45 5.25 L37.55 5.35 37.85 5.45 Q38.9 5.45 38.9 6.75 L38.55 7.75 37.8 8.15 Q37.35 8.15 37.1 7.75 36.75 7.25 36.75 6.65 36.75 5.55 37.35 5.1 L37.45 5.25 M30.2 14.75 L30.15 14.9 30.25 15.05 30.45 15.1 32.05 14.85 32.1 14.85 32.45 14.6 32.5 14.35 Q32.2 11.7 32.3 8.55 L32.55 3.4 32.55 3.35 32.55 3.2 32.55 3.1 Q32.4 2.85 32.25 2.85 L32.05 2.8 32.0 2.8 30.3 3.05 30.25 3.1 30.05 2.95 29.85 2.9 29.8 2.9 28.25 3.15 27.9 3.4 27.85 3.55 Q27.25 3.1 26.25 3.15 L24.3 3.35 22.45 3.85 Q22.25 3.9 22.2 4.05 L22.05 4.3 22.15 4.6 22.8 6.1 22.95 6.35 23.25 6.45 23.4 6.45 23.55 6.45 Q25.2 5.45 25.95 5.25 L26.05 5.25 25.45 7.05 24.4 8.95 Q22.7 11.35 21.8 12.05 L21.6 12.4 21.7 12.7 21.7 12.75 22.35 13.65 22.4 13.7 22.5 13.8 22.65 13.85 22.8 13.85 23.05 13.8 23.15 13.75 26.25 10.15 26.55 9.75 26.8 9.85 26.95 9.85 27.05 9.85 27.95 9.6 27.75 14.5 27.8 14.7 28.05 15.0 28.15 15.0 28.3 15.0 28.35 15.0 29.9 14.8 29.95 14.8 30.15 14.75 30.2 14.75 M30.2 10.45 L30.2 9.7 30.25 7.0 30.25 8.5 30.2 10.45 M27.95 7.45 L27.75 7.45 27.95 7.0 27.95 7.45" fill="url(#gradient1)" fill-rule="evenodd" stroke="none"/>
    <path d="M66.9 4.05 L66.85 4.0 Q66.1 3.6 65.25 3.7 L62.15 4.1 Q60.5 4.4 59.6 4.9 L60.25 6.1 60.25 6.15 60.3 6.1 62.4 5.3 Q63.9 4.85 65.15 4.75 L66.05 4.9 66.1 4.9 66.35 5.45 65.85 6.8 65.8 6.9 65.7 6.9 61.85 7.25 61.7 7.25 61.6 7.15 61.55 7.0 61.55 6.7 61.55 6.75 59.9 7.15 59.85 7.15 Q59.85 8.55 60.35 9.55 60.8 10.7 61.7 11.05 L61.8 11.1 61.85 11.25 61.95 12.85 61.95 13.0 61.85 13.1 61.7 13.1 60.0 13.1 58.1 12.95 58.1 13.0 58.05 13.05 58.45 14.3 58.45 14.35 58.5 14.35 58.55 14.35 63.6 14.1 65.5 14.1 67.3 14.1 69.05 14.1 69.1 14.05 69.5 12.7 69.5 12.6 66.25 12.95 66.15 12.95 66.05 12.85 66.0 12.7 66.1 11.1 66.15 10.95 66.3 10.9 68.3 10.0 68.35 9.95 67.8 8.9 Q65.85 10.15 64.1 10.15 62.85 10.15 62.3 9.75 61.6 9.35 61.5 8.45 L61.55 8.3 61.6 8.2 61.75 8.15 64.7 7.95 64.85 8.0 64.95 8.1 64.95 8.15 64.95 8.2 65.0 8.2 64.95 8.15 66.9 8.25 67.45 7.0 67.8 5.75 67.85 5.35 Q67.85 4.45 66.9 4.05 M64.25 11.7 L63.75 11.7 63.75 12.55 64.3 12.55 64.25 11.7 M65.8 5.3 L65.2 5.25 Q64.0 5.35 62.55 5.8 61.6 6.05 61.0 6.35 L61.45 6.2 61.5 6.2 61.75 6.25 61.95 6.4 62.05 6.7 62.05 6.75 65.5 6.4 65.85 5.45 65.8 5.3 M67.2 3.6 L67.25 3.65 Q68.35 4.2 68.35 5.35 L68.3 5.85 67.9 7.2 67.4 8.35 67.15 8.7 66.9 8.75 64.95 8.65 64.65 8.55 64.6 8.45 62.05 8.65 Q62.15 9.1 62.55 9.35 L64.1 9.65 Q65.7 9.65 67.5 8.55 67.6 8.4 67.75 8.4 L67.95 8.45 68.25 8.7 68.8 9.75 68.8 9.85 68.8 10.05 68.75 10.25 68.7 10.3 68.6 10.45 66.6 11.3 66.55 12.45 69.5 12.1 69.7 12.15 70.0 12.4 70.0 12.5 70.0 12.7 70.0 12.8 69.55 14.3 69.5 14.4 69.4 14.5 69.05 14.6 67.3 14.6 65.5 14.6 63.6 14.6 58.6 14.85 58.55 14.85 58.25 14.8 58.2 14.75 58.1 14.65 58.05 14.55 57.6 13.15 57.55 13.05 57.6 12.8 57.85 12.5 58.1 12.45 58.15 12.45 60.0 12.6 61.45 12.6 61.35 11.4 Q60.4 11.0 59.9 9.75 59.35 8.65 59.35 7.15 L59.5 6.85 59.7 6.7 59.75 6.65 60.05 6.6 59.95 6.5 59.75 6.3 59.15 5.1 59.05 4.85 59.2 4.55 59.35 4.4 Q60.35 3.9 62.05 3.6 L65.2 3.2 Q66.25 3.1 67.2 3.6 M64.5 11.2 L64.7 11.3 64.75 11.45 64.8 12.75 64.8 12.85 64.7 12.95 64.6 13.0 63.45 13.05 63.35 13.05 63.25 12.95 63.2 12.8 63.25 11.45 63.35 11.3 Q63.4 11.2 63.5 11.2 L64.5 11.2 M55.7 4.05 L55.7 4.1 Q55.75 4.8 54.7 5.65 L57.15 6.35 57.25 6.45 57.35 6.6 57.45 6.9 57.25 7.25 56.5 7.85 57.55 7.75 57.8 7.85 57.9 7.9 58.05 8.1 58.05 8.2 58.05 8.35 58.05 8.45 57.55 9.85 57.5 9.95 57.4 10.05 57.05 10.15 54.65 10.15 54.55 10.35 54.45 10.45 55.15 10.75 55.25 10.8 55.25 10.85 Q56.35 11.35 56.35 12.45 56.35 14.1 54.55 14.8 L51.8 15.1 Q49.8 15.1 48.75 14.35 47.75 13.7 47.75 12.45 47.75 11.5 48.6 10.75 L46.8 11.1 46.75 11.1 46.6 11.1 46.45 11.05 46.25 10.75 45.75 9.25 Q45.6 9.0 45.75 8.9 L45.9 8.65 46.2 8.55 46.25 8.55 46.9 8.6 46.6 8.3 46.4 7.95 Q46.4 7.75 46.55 7.65 46.65 7.45 46.8 7.45 L49.7 6.25 52.25 4.9 50.7 5.35 Q49.4 5.75 48.45 6.15 L48.35 6.15 48.2 6.15 47.95 6.05 47.75 5.8 47.35 4.35 47.4 4.35 Q47.25 4.0 47.5 3.85 L47.7 3.7 47.75 3.65 52.45 2.85 53.35 2.8 55.05 3.1 Q55.7 3.4 55.7 4.05 M52.85 4.4 Q52.9 4.3 53.0 4.3 L53.15 4.35 53.25 4.5 53.25 4.65 53.2 4.75 Q52.75 5.3 49.9 6.7 L46.95 7.95 47.7 8.7 47.75 8.85 47.7 9.05 47.5 9.1 47.35 9.1 46.2 9.05 46.2 9.1 46.75 10.6 48.85 10.2 51.25 9.9 Q52.4 9.75 51.9 9.95 L51.85 9.95 50.8 10.15 Q49.95 10.35 49.9 10.45 L49.65 10.6 49.4 10.75 Q48.25 11.45 48.25 12.45 48.25 13.4 49.05 13.95 50.0 14.6 51.8 14.6 L54.4 14.3 54.4 14.35 Q55.85 13.8 55.85 12.45 55.85 11.6 54.9 11.2 L54.85 11.15 53.95 10.85 53.8 10.75 53.75 10.6 53.85 10.45 51.95 9.95 54.15 9.9 54.95 9.85 56.4 9.75 57.1 9.6 57.55 8.35 57.55 8.25 55.75 8.45 55.65 8.45 55.05 8.55 53.65 8.7 52.95 8.7 52.85 8.6 52.8 8.45 53.0 7.0 53.1 6.9 53.25 6.8 53.35 6.85 55.55 7.95 55.6 7.95 56.95 6.9 56.95 6.85 57.0 6.85 56.95 6.85 54.1 6.0 53.95 5.9 53.9 5.7 54.0 5.55 Q55.2 4.7 55.2 4.1 L55.2 4.05 Q55.2 3.7 54.85 3.55 L53.35 3.3 52.5 3.35 Q49.9 3.6 47.9 4.15 L47.85 4.2 48.25 5.65 48.3 5.7 48.3 5.65 50.55 4.85 50.55 4.9 Q52.1 4.35 52.8 4.35 L52.85 4.4 M53.45 7.45 L53.35 8.15 54.6 8.0 53.45 7.45 M51.05 7.3 L51.2 7.25 51.35 7.35 51.4 7.45 51.65 8.55 51.65 8.7 51.55 8.8 51.45 8.85 49.55 9.0 48.25 9.1 48.05 9.05 47.95 8.9 48.0 8.75 48.1 8.65 51.05 7.3 M51.1 8.4 L51.0 7.85 49.65 8.5 51.1 8.4 M51.0 10.85 L51.15 10.85 51.3 10.95 51.3 11.1 51.25 11.25 51.2 11.3 51.25 11.35 52.3 11.3 Q54.2 11.3 54.2 12.55 54.2 13.25 53.5 13.7 L53.45 13.7 52.05 13.95 50.55 13.7 Q49.75 13.25 49.75 12.5 49.75 11.6 50.65 11.05 50.75 10.9 51.0 10.85 M43.85 2.8 L44.05 2.85 44.35 3.1 44.35 3.2 44.35 3.35 44.35 3.4 Q44.1 4.75 44.1 7.0 L44.2 9.2 44.2 9.3 44.25 9.45 44.25 9.6 44.25 9.65 Q44.0 12.2 43.1 14.65 L43.05 14.7 43.0 14.85 42.85 14.9 42.75 14.95 41.7 15.2 41.65 15.2 41.45 15.2 41.35 15.2 41.1 14.85 41.1 14.6 38.85 15.1 Q37.1 15.1 36.3 14.35 35.35 13.65 35.15 11.95 L35.0 10.45 35.0 10.4 35.1 10.1 35.15 10.05 35.35 9.9 35.4 9.85 36.05 9.65 35.3 9.15 Q34.25 8.15 34.25 6.7 34.25 5.1 35.25 4.1 36.2 3.0 37.75 3.0 L39.7 3.4 Q39.8 3.4 39.95 3.55 L40.05 3.85 40.0 4.1 40.85 4.85 Q41.45 5.55 41.45 6.65 41.45 8.15 40.4 9.15 L40.25 9.2 39.9 9.5 41.45 9.35 41.5 3.55 41.7 3.25 41.95 3.05 43.8 2.8 43.85 2.8 M50.75 11.55 Q50.25 11.9 50.25 12.5 50.25 12.95 50.8 13.25 L50.75 13.25 52.05 13.45 53.25 13.25 53.7 12.55 Q53.6 11.8 52.3 11.8 L51.3 11.85 51.25 11.85 51.1 11.85 51.0 11.85 50.75 11.55 M42.05 3.55 L42.0 3.55 42.0 3.6 41.95 9.45 41.95 9.55 41.9 9.75 41.75 9.8 37.5 10.2 37.35 10.2 37.25 10.1 37.2 9.95 37.2 9.8 37.3 9.65 37.45 9.55 37.7 9.55 Q39.1 9.55 40.0 8.8 L40.1 8.7 Q40.95 7.9 40.95 6.65 40.95 5.75 40.45 5.15 40.1 4.65 39.5 4.45 L39.4 4.35 39.35 4.2 39.45 4.05 39.55 3.9 37.75 3.5 Q36.4 3.5 35.6 4.45 34.75 5.3 34.75 6.7 34.75 7.95 35.65 8.8 36.15 9.25 36.85 9.5 L36.95 9.55 37.0 9.7 36.95 9.85 36.85 9.95 35.55 10.35 35.5 10.35 35.5 10.4 35.65 11.9 Q35.85 13.35 36.6 13.95 L36.65 14.0 Q37.3 14.6 38.85 14.6 L41.35 13.95 41.55 13.9 41.7 14.05 41.7 14.2 41.6 14.7 42.6 14.5 42.65 14.45 42.65 14.4 Q43.5 12.05 43.75 9.6 L43.75 9.55 43.65 9.4 43.7 9.25 43.7 9.2 43.6 7.0 Q43.6 4.65 43.85 3.3 L42.05 3.55 M41.4 12.1 L41.45 11.45 37.75 11.75 37.9 12.65 37.95 12.7 Q38.15 13.2 38.9 13.2 40.15 13.2 41.4 12.1 M37.25 4.55 L37.75 4.35 37.9 4.4 38.05 4.5 38.05 4.65 38.0 4.8 37.9 4.95 Q39.4 4.95 39.4 6.75 39.4 7.5 38.95 8.05 38.45 8.65 37.8 8.65 37.15 8.65 36.7 8.05 36.25 7.45 36.25 6.65 36.25 5.1 37.3 4.55 L37.25 4.55 M46.75 10.65 L46.75 10.7 46.8 10.7 46.75 10.65 M41.7 10.9 L41.85 10.95 41.95 11.05 41.95 11.15 41.85 12.25 41.8 12.4 Q40.35 13.7 38.9 13.7 37.85 13.7 37.55 13.05 L37.5 12.95 Q37.25 12.4 37.25 11.5 L37.35 11.35 Q37.4 11.25 37.5 11.25 L41.7 10.9 M37.45 5.25 L37.35 5.1 Q36.75 5.55 36.75 6.65 36.75 7.25 37.1 7.75 37.35 8.15 37.8 8.15 L38.55 7.75 38.9 6.75 Q38.9 5.45 37.85 5.45 L37.55 5.35 37.45 5.25 M30.2 14.75 L30.2 14.7 Q30.25 14.6 30.4 14.6 L32.0 14.35 Q31.7 11.7 31.8 8.55 L32.05 3.35 32.05 3.3 30.4 3.55 30.35 3.55 30.25 7.0 30.2 9.7 30.2 10.45 Q30.2 12.5 30.35 14.3 L30.3 14.55 30.15 14.75 29.95 14.8 29.9 14.8 28.35 15.0 28.3 15.0 28.15 15.0 28.05 15.0 27.8 14.7 27.75 14.5 27.95 9.6 27.05 9.85 26.95 9.85 26.8 9.85 26.55 9.75 26.25 10.15 23.15 13.75 23.05 13.8 22.8 13.85 22.65 13.85 22.5 13.8 22.4 13.7 22.35 13.65 21.7 12.75 21.7 12.7 21.6 12.4 21.8 12.05 Q22.7 11.35 24.4 8.95 L25.45 7.05 26.05 5.25 25.95 5.25 Q25.2 5.45 23.55 6.45 L23.4 6.45 23.25 6.45 22.95 6.35 22.8 6.1 22.15 4.6 22.05 4.3 22.2 4.05 Q22.25 3.9 22.45 3.85 L24.3 3.35 26.25 3.15 Q27.25 3.1 27.85 3.55 L27.9 3.4 28.25 3.15 29.8 2.9 29.85 2.9 30.05 2.95 30.25 3.1 30.3 3.05 32.0 2.8 32.05 2.8 32.25 2.85 Q32.4 2.85 32.55 3.1 L32.55 3.2 32.55 3.35 32.55 3.4 32.3 8.55 Q32.2 11.7 32.5 14.35 L32.45 14.6 32.1 14.85 32.05 14.85 30.45 15.1 30.25 15.05 30.15 14.9 30.2 14.75 M27.95 5.25 L28.05 5.1 28.25 5.05 28.4 5.15 28.45 5.3 28.45 5.35 28.45 7.65 28.4 7.85 28.25 7.9 27.4 7.95 27.2 7.9 27.1 7.8 27.15 7.6 27.95 5.25 M27.55 3.95 Q27.1 3.6 26.3 3.65 L26.25 3.65 24.4 3.85 22.65 4.35 22.6 4.35 22.6 4.4 23.3 5.95 23.3 6.0 23.35 5.95 Q25.05 4.95 25.85 4.75 L25.9 4.75 26.1 4.75 Q26.6 4.75 26.55 5.15 L25.9 7.25 24.8 9.25 Q23.0 11.75 22.1 12.45 L22.15 12.5 22.75 13.35 22.8 13.4 22.8 13.35 25.85 9.85 26.35 9.1 26.5 9.0 26.65 9.05 26.8 9.15 26.85 9.35 26.95 9.35 28.15 9.0 28.3 9.05 28.4 9.1 28.45 9.25 28.25 14.5 28.3 14.5 29.85 14.3 Q29.7 12.2 29.7 9.7 L29.85 3.45 29.85 3.4 29.8 3.4 28.35 3.65 28.3 3.65 28.3 3.7 28.35 4.25 28.35 4.3 28.3 4.5 28.15 4.55 28.0 4.5 27.85 4.4 27.55 3.95 M27.95 7.45 L27.95 7.0 27.75 7.45 27.95 7.45" fill="#ffffff" fill-rule="evenodd" stroke="none"/>
    <path d="M66.9 4.05 Q67.85 4.45 67.85 5.35 L67.8 5.75 67.45 7.0 66.9 8.25 64.95 8.15 65.0 8.2 64.95 8.2 64.95 8.15 64.95 8.1 64.85 8.0 64.7 7.95 61.75 8.15 61.6 8.2 61.55 8.3 61.5 8.45 Q61.6 9.35 62.3 9.75 62.85 10.15 64.1 10.15 65.85 10.15 67.8 8.9 L68.35 9.95 68.3 10.0 66.3 10.9 66.15 10.95 66.1 11.1 66.0 12.7 66.05 12.85 66.15 12.95 66.25 12.95 69.5 12.6 69.5 12.7 69.1 14.05 69.05 14.1 67.3 14.1 65.5 14.1 63.6 14.1 58.55 14.35 58.5 14.35 58.45 14.35 58.45 14.3 58.05 13.05 58.1 13.0 58.1 12.95 60.0 13.1 61.7 13.1 61.85 13.1 61.95 13.0 61.95 12.85 61.85 11.25 61.8 11.1 61.7 11.05 Q60.8 10.7 60.35 9.55 59.85 8.55 59.85 7.15 L59.9 7.15 61.55 6.75 61.55 6.7 61.55 7.0 61.6 7.15 61.7 7.25 61.85 7.25 65.7 6.9 65.8 6.9 65.85 6.8 66.35 5.45 66.1 4.9 66.05 4.9 65.15 4.75 Q63.9 4.85 62.4 5.3 L60.3 6.1 60.25 6.15 60.25 6.1 59.6 4.9 Q60.5 4.4 62.15 4.1 L65.25 3.7 Q66.1 3.6 66.85 4.0 L66.9 4.05 M64.5 11.2 L63.5 11.2 Q63.4 11.2 63.35 11.3 L63.25 11.45 63.2 12.8 63.25 12.95 63.35 13.05 63.45 13.05 64.6 13.0 64.7 12.95 64.8 12.85 64.8 12.75 64.75 11.45 64.7 11.3 64.5 11.2 M52.85 4.4 L52.8 4.35 Q52.1 4.35 50.55 4.9 L50.55 4.85 48.3 5.65 48.3 5.7 48.25 5.65 47.85 4.2 47.9 4.15 Q49.9 3.6 52.5 3.35 L53.35 3.3 54.85 3.55 Q55.2 3.7 55.2 4.05 L55.2 4.1 Q55.2 4.7 54.0 5.55 L53.9 5.7 53.95 5.9 54.1 6.0 56.95 6.85 57.0 6.85 56.95 6.85 56.95 6.9 55.6 7.95 55.55 7.95 53.35 6.85 53.25 6.8 53.1 6.9 53.0 7.0 52.8 8.45 52.85 8.6 52.95 8.7 53.65 8.7 55.05 8.55 55.65 8.45 55.75 8.45 57.55 8.25 57.55 8.35 57.1 9.6 56.4 9.75 54.95 9.85 54.15 9.9 51.95 9.95 53.85 10.45 53.75 10.6 53.8 10.75 53.95 10.85 54.85 11.15 54.9 11.2 Q55.85 11.6 55.85 12.45 55.85 13.8 54.4 14.35 L54.4 14.3 51.8 14.6 Q50.0 14.6 49.05 13.95 48.25 13.4 48.25 12.45 48.25 11.45 49.4 10.75 L49.65 10.6 49.9 10.45 Q49.95 10.35 50.8 10.15 L51.85 9.95 51.9 9.95 Q52.4 9.75 51.25 9.9 L48.85 10.2 46.75 10.6 46.2 9.1 46.2 9.05 47.35 9.1 47.5 9.1 47.7 9.05 47.75 8.85 47.7 8.7 46.95 7.95 49.9 6.7 Q52.75 5.3 53.2 4.75 L53.25 4.65 53.25 4.5 53.15 4.35 53.0 4.3 Q52.9 4.3 52.85 4.4 M51.05 7.3 L48.1 8.65 48.0 8.75 47.95 8.9 48.05 9.05 48.25 9.1 49.55 9.0 51.45 8.85 51.55 8.8 51.65 8.7 51.65 8.55 51.4 7.45 51.35 7.35 51.2 7.25 51.05 7.3 M51.0 10.85 Q50.75 10.9 50.65 11.05 49.75 11.6 49.75 12.5 49.75 13.25 50.55 13.7 L52.05 13.95 53.45 13.7 53.5 13.7 Q54.2 13.25 54.2 12.55 54.2 11.3 52.3 11.3 L51.25 11.35 51.2 11.3 51.25 11.25 51.3 11.1 51.3 10.95 51.15 10.85 51.0 10.85 M42.05 3.55 L43.85 3.3 Q43.6 4.65 43.6 7.0 L43.7 9.2 43.7 9.25 43.65 9.4 43.75 9.55 43.75 9.6 Q43.5 12.05 42.65 14.4 L42.65 14.45 42.6 14.5 41.6 14.7 41.7 14.2 41.7 14.05 41.55 13.9 41.35 13.95 38.85 14.6 Q37.3 14.6 36.65 14.0 L36.6 13.95 Q35.85 13.35 35.65 11.9 L35.5 10.4 35.5 10.35 35.55 10.35 36.85 9.95 36.95 9.85 37.0 9.7 36.95 9.55 36.85 9.5 Q36.15 9.25 35.65 8.8 34.75 7.95 34.75 6.7 34.75 5.3 35.6 4.45 36.4 3.5 37.75 3.5 L39.55 3.9 39.45 4.05 39.35 4.2 39.4 4.35 39.5 4.45 Q40.1 4.65 40.45 5.15 40.95 5.75 40.95 6.65 40.95 7.9 40.1 8.7 L40.0 8.8 Q39.1 9.55 37.7 9.55 L37.45 9.55 37.3 9.65 37.2 9.8 37.2 9.95 37.25 10.1 37.35 10.2 37.5 10.2 41.75 9.8 41.9 9.75 41.95 9.55 41.95 9.45 42.0 3.6 42.0 3.55 42.05 3.55 M41.7 10.9 L37.5 11.25 Q37.4 11.25 37.35 11.35 L37.25 11.5 Q37.25 12.4 37.5 12.95 L37.55 13.05 Q37.85 13.7 38.9 13.7 40.35 13.7 41.8 12.4 L41.85 12.25 41.95 11.15 41.95 11.05 41.85 10.95 41.7 10.9 M46.75 10.65 L46.8 10.7 46.75 10.7 46.75 10.65 M37.25 4.55 L37.3 4.55 Q36.25 5.1 36.25 6.65 36.25 7.45 36.7 8.05 37.15 8.65 37.8 8.65 38.45 8.65 38.95 8.05 39.4 7.5 39.4 6.75 39.4 4.95 37.9 4.95 L38.0 4.8 38.05 4.65 38.05 4.5 37.9 4.4 37.75 4.35 37.25 4.55 M30.25 7.0 L30.35 3.55 30.4 3.55 32.05 3.3 32.05 3.35 31.8 8.55 Q31.7 11.7 32.0 14.35 L30.4 14.6 Q30.25 14.6 30.2 14.7 L30.2 14.75 30.15 14.75 30.3 14.55 30.35 14.3 Q30.2 12.5 30.2 10.45 L30.25 8.5 30.25 7.0 M36.95 10.15 L36.95 10.2 36.95 10.15 M27.55 3.95 L27.85 4.4 28.0 4.5 28.15 4.55 28.3 4.5 28.35 4.3 28.35 4.25 28.3 3.7 28.3 3.65 28.35 3.65 29.8 3.4 29.85 3.4 29.85 3.45 29.7 9.7 Q29.7 12.2 29.85 14.3 L28.3 14.5 28.25 14.5 28.45 9.25 28.4 9.1 28.3 9.05 28.15 9.0 26.95 9.35 26.85 9.35 26.8 9.15 26.65 9.05 26.5 9.0 26.35 9.1 25.85 9.85 22.8 13.35 22.8 13.4 22.75 13.35 22.15 12.5 22.1 12.45 Q23.0 11.75 24.8 9.25 L25.9 7.25 26.55 5.15 Q26.6 4.75 26.1 4.75 L25.9 4.75 25.85 4.75 Q25.05 4.95 23.35 5.95 L23.3 6.0 23.3 5.95 22.6 4.4 22.6 4.35 22.65 4.35 24.4 3.85 26.25 3.65 26.3 3.65 Q27.1 3.6 27.55 3.95 M27.95 5.25 L27.15 7.6 27.1 7.8 27.2 7.9 27.4 7.95 28.25 7.9 28.4 7.85 28.45 7.65 28.45 5.35 28.45 5.3 28.4 5.15 28.25 5.05 28.05 5.1 27.95 5.25" fill="#d20202" fill-rule="evenodd" stroke="none"/>
    <path d="M36.95 10.15 L36.95 10.2 36.95 10.15" fill="#ff0000" fill-rule="evenodd" stroke="none"/>
  </g>
  <defs>
    <linearGradient gradientTransform="matrix(0.0579, 0.0, 0.0, 0.0123, 46.45, 9.05)" gradientUnits="userSpaceOnUse" id="gradient0" spreadMethod="pad" x1="-819.2" x2="819.2">
      <stop offset="0.0" stop-color="#681717"/>
      <stop offset="0.5098039215686274" stop-color="#fe70b7"/>
      <stop offset="1.0" stop-color="#56181f"/>
    </linearGradient>
    <linearGradient gradientTransform="matrix(0.0, -0.0099, 0.0111, 0.0, 46.4, 9.1)" gradientUnits="userSpaceOnUse" id="gradient1" spreadMethod="pad" x1="-819.2" x2="819.2">
      <stop offset="0.0" stop-color="#cc33cc"/>
      <stop offset="0.21176470588235294" stop-color="#e184de"/>
      <stop offset="0.5058823529411764" stop-color="#f8d3f1"/>
      <stop offset="0.7450980392156863" stop-color="#faabda"/>
      <stop offset="1.0" stop-color="#fe78bb"/>
    </linearGradient>
  </defs>
</svg>
