<?xml version="1.0" encoding="UTF-8" standalone="no"?>
<svg xmlns:xlink="http://www.w3.org/1999/xlink" height="20.15px" width="94.9px" xmlns="http://www.w3.org/2000/svg">
  <g transform="matrix(1.0, 0.0, 0.0, 1.0, -0.6, -1.0)">
    <path d="M10.65 1.0 L85.45 1.0 Q89.6 1.0 92.55 3.95 95.5 6.9 95.5 11.05 L95.5 11.1 Q95.5 15.25 92.55 18.2 89.6 21.15 85.45 21.15 L10.65 21.15 Q6.5 21.15 3.55 18.2 0.6 15.25 0.6 11.1 L0.6 11.05 Q0.6 6.9 3.55 3.95 6.5 1.0 10.65 1.0 M93.5 11.1 L93.5 11.05 Q93.5 7.7 91.15 5.35 88.8 3.0 85.45 3.0 L10.65 3.0 Q7.3 3.0 4.95 5.35 2.6 7.7 2.6 11.05 L2.6 11.1 Q2.6 14.45 4.95 16.8 7.3 19.15 10.65 19.15 L85.45 19.15 Q88.8 19.15 91.15 16.8 93.5 14.45 93.5 11.1" fill="url(#gradient0)" fill-rule="evenodd" stroke="none"/>
    <path d="M93.5 11.1 Q93.5 14.45 91.15 16.8 88.8 19.15 85.45 19.15 L10.65 19.15 Q7.3 19.15 4.95 16.8 2.6 14.45 2.6 11.1 L2.6 11.05 Q2.6 7.7 4.95 5.35 7.3 3.0 10.65 3.0 L85.45 3.0 Q88.8 3.0 91.15 5.35 93.5 7.7 93.5 11.05 L93.5 11.1 M69.95 7.35 Q69.95 6.2 68.85 5.65 L68.8 5.6 Q67.85 5.1 66.8 5.2 L63.65 5.6 Q61.95 5.9 60.95 6.4 L60.8 6.55 60.65 6.85 60.75 7.1 61.35 8.3 61.55 8.5 61.65 8.6 61.35 8.65 61.3 8.7 61.1 8.85 60.95 9.15 Q60.95 10.65 61.5 11.75 62.0 13.0 62.95 13.4 L63.05 14.6 61.6 14.6 59.75 14.45 59.7 14.45 59.45 14.5 59.2 14.8 59.15 15.05 59.2 15.15 59.65 16.55 59.7 16.65 59.8 16.75 59.85 16.8 60.15 16.85 60.2 16.85 65.2 16.6 67.1 16.6 68.9 16.6 70.65 16.6 71.0 16.5 71.1 16.4 71.15 16.3 71.6 14.8 71.6 14.7 71.6 14.5 71.6 14.4 71.3 14.15 71.1 14.1 68.15 14.45 68.2 13.3 70.2 12.45 70.3 12.3 70.35 12.25 70.4 12.05 70.4 11.85 70.4 11.75 69.85 10.7 69.55 10.45 69.35 10.4 69.1 10.55 Q67.3 11.65 65.7 11.65 L64.15 11.35 Q63.75 11.1 63.65 10.65 L66.2 10.45 66.25 10.55 66.55 10.65 68.5 10.75 68.75 10.7 69.0 10.35 69.5 9.2 69.9 7.85 69.95 7.35 M66.8 7.25 L67.4 7.3 67.45 7.45 67.1 8.4 63.65 8.75 63.65 8.7 63.55 8.4 63.35 8.25 63.1 8.2 63.05 8.2 62.6 8.35 64.15 7.8 66.8 7.25 M65.85 13.7 L65.9 14.55 65.35 14.55 65.35 13.7 65.85 13.7 M57.3 6.05 Q57.3 5.4 56.65 5.1 L54.95 4.8 54.05 4.85 49.35 5.65 49.3 5.7 49.1 5.85 Q48.85 6.0 49.0 6.35 L48.95 6.35 49.35 7.8 49.55 8.05 49.8 8.15 49.95 8.15 50.05 8.15 52.3 7.35 53.85 6.9 51.3 8.25 48.4 9.45 48.15 9.65 Q48.0 9.75 48.0 9.95 L48.2 10.3 48.5 10.6 47.85 10.55 47.8 10.55 Q47.6 10.55 47.5 10.65 L47.35 10.9 Q47.2 11.0 47.35 11.25 L47.85 12.75 48.05 13.05 48.2 13.1 48.35 13.1 48.4 13.1 50.2 12.75 Q49.35 13.5 49.35 14.45 49.35 15.7 50.35 16.35 51.4 17.1 53.4 17.1 L56.15 16.8 Q57.95 16.1 57.95 14.45 57.95 13.35 56.85 12.85 L56.85 12.8 56.75 12.75 Q56.4 12.55 56.05 12.45 L56.15 12.35 56.25 12.15 58.65 12.15 59.0 12.05 59.1 11.95 59.15 11.85 59.65 10.45 59.65 10.35 59.65 10.2 59.65 10.1 59.5 9.9 59.4 9.85 59.15 9.75 58.1 9.85 58.85 9.25 59.05 8.9 58.95 8.6 58.85 8.45 58.75 8.35 56.3 7.65 Q57.35 6.8 57.3 6.1 L57.3 6.05 M54.95 10.15 L55.05 9.45 56.2 10.0 54.95 10.15 M52.7 10.4 L51.25 10.5 Q51.95 10.15 52.6 9.85 L52.7 10.4 M52.35 13.55 L52.6 13.85 52.7 13.85 52.85 13.85 52.9 13.85 53.9 13.8 Q55.2 13.8 55.3 14.55 L54.85 15.25 53.65 15.45 52.35 15.25 52.4 15.25 Q51.85 14.95 51.85 14.5 51.85 13.9 52.35 13.55 M45.45 4.8 L45.4 4.8 43.55 5.05 43.3 5.25 43.1 5.55 43.05 11.35 41.5 11.5 41.85 11.2 42.0 11.15 Q43.05 10.15 43.05 8.65 43.05 7.55 42.45 6.85 L41.6 6.1 41.65 5.85 41.55 5.55 41.3 5.4 39.35 5.0 Q37.8 5.0 36.85 6.1 35.85 7.1 35.85 8.7 35.85 10.15 36.9 11.15 L37.65 11.65 37.0 11.85 36.95 11.9 36.75 12.05 36.7 12.1 36.6 12.4 36.6 12.45 36.75 13.95 Q36.95 15.65 37.9 16.35 38.7 17.1 40.45 17.1 L42.7 16.6 42.7 16.85 42.95 17.2 43.05 17.2 43.25 17.2 43.3 17.2 44.35 16.95 44.45 16.9 44.6 16.85 44.65 16.7 44.7 16.65 Q45.6 14.2 45.85 11.65 L45.85 11.6 45.85 11.45 45.8 11.3 45.8 11.2 45.7 9.0 Q45.7 6.75 45.95 5.4 L45.95 5.35 45.95 5.2 45.95 5.1 45.65 4.85 45.45 4.8 M43.0 14.1 Q41.75 15.2 40.5 15.2 39.75 15.2 39.55 14.7 L39.5 14.65 39.35 13.75 43.05 13.45 43.0 14.1 M39.45 7.45 Q40.5 7.45 40.5 8.75 L40.15 9.75 39.4 10.15 Q38.95 10.15 38.7 9.75 38.35 9.25 38.35 8.65 38.35 7.55 38.95 7.1 L39.05 7.25 39.15 7.35 39.45 7.45 M31.8 16.75 L31.75 16.9 31.85 17.05 32.05 17.1 33.65 16.85 33.7 16.85 34.05 16.6 34.1 16.35 Q33.8 13.7 33.9 10.55 L34.15 5.4 34.15 5.35 34.15 5.2 34.15 5.1 33.85 4.85 33.65 4.8 33.6 4.8 31.9 5.05 31.85 5.1 31.65 4.95 31.45 4.9 31.4 4.9 29.85 5.15 29.5 5.4 29.45 5.55 Q28.85 5.1 27.85 5.15 L25.9 5.35 24.05 5.85 Q23.85 5.9 23.8 6.05 L23.65 6.3 23.75 6.6 24.4 8.1 24.55 8.35 24.85 8.45 25.0 8.45 25.15 8.45 Q26.8 7.45 27.55 7.25 L27.65 7.25 27.05 9.05 26.0 10.95 Q24.3 13.35 23.4 14.05 23.2 14.15 23.2 14.4 L23.3 14.7 23.3 14.75 23.95 15.65 24.0 15.7 24.1 15.8 24.25 15.85 24.4 15.85 24.65 15.8 24.75 15.75 27.85 12.15 28.15 11.75 28.4 11.85 28.55 11.85 28.65 11.85 29.55 11.6 29.35 16.5 29.4 16.7 29.65 17.0 29.75 17.0 29.9 17.0 29.95 17.0 31.5 16.8 31.55 16.8 31.75 16.75 31.8 16.75 M31.8 12.45 L31.8 11.7 31.85 9.0 31.85 10.5 31.8 12.45 M29.55 9.45 L29.35 9.45 29.55 9.0 29.55 9.45" fill="url(#gradient1)" fill-rule="evenodd" stroke="none"/>
    <path d="M69.95 7.35 L69.9 7.85 69.5 9.2 69.0 10.35 68.75 10.7 68.5 10.75 66.55 10.65 66.25 10.55 66.2 10.45 63.65 10.65 Q63.75 11.1 64.15 11.35 L65.7 11.65 Q67.3 11.65 69.1 10.55 L69.35 10.4 69.55 10.45 69.85 10.7 70.4 11.75 70.4 11.85 70.4 12.05 70.35 12.25 70.3 12.3 70.2 12.45 68.2 13.3 68.15 14.45 71.1 14.1 71.3 14.15 71.6 14.4 71.6 14.5 71.6 14.7 71.6 14.8 71.15 16.3 71.1 16.4 71.0 16.5 70.65 16.6 68.9 16.6 67.1 16.6 65.2 16.6 60.2 16.85 60.15 16.85 59.85 16.8 59.8 16.75 59.7 16.65 59.65 16.55 59.2 15.15 59.15 15.05 59.2 14.8 59.45 14.5 59.7 14.45 59.75 14.45 61.6 14.6 63.05 14.6 62.95 13.4 Q62.0 13.0 61.5 11.75 60.95 10.65 60.95 9.15 L61.1 8.85 61.3 8.7 61.35 8.65 61.65 8.6 61.55 8.5 61.35 8.3 60.75 7.1 60.65 6.85 60.8 6.55 60.95 6.4 Q61.95 5.9 63.65 5.6 L66.8 5.2 Q67.85 5.1 68.8 5.6 L68.85 5.65 Q69.95 6.2 69.95 7.35 M66.55 10.15 L68.5 10.25 69.05 9.0 69.4 7.75 69.45 7.35 Q69.45 6.45 68.5 6.05 L68.45 6.0 66.85 5.7 63.75 6.1 Q62.1 6.4 61.2 6.9 L61.85 8.1 61.9 8.1 Q62.55 7.7 64.0 7.3 L66.75 6.75 67.65 6.9 67.7 6.9 67.95 7.45 67.45 8.8 67.4 8.9 67.3 8.9 63.45 9.25 63.3 9.25 63.2 9.15 63.15 9.0 63.15 8.7 63.15 8.75 61.5 9.15 61.45 9.15 Q61.45 10.55 61.95 11.55 62.4 12.7 63.3 13.05 L63.4 13.1 63.45 13.25 63.55 14.85 63.55 15.0 63.45 15.1 63.3 15.1 61.6 15.1 59.7 14.95 59.7 15.0 59.65 15.05 60.05 16.3 60.05 16.35 60.1 16.35 60.15 16.35 65.2 16.1 67.1 16.1 68.9 16.1 70.65 16.1 70.7 16.05 71.1 14.7 71.1 14.6 67.85 14.95 67.75 14.95 67.65 14.85 67.6 14.7 67.7 13.1 67.75 12.95 67.9 12.9 69.9 12.0 69.95 11.95 69.4 10.9 Q67.45 12.15 65.7 12.15 64.45 12.15 63.9 11.75 63.2 11.35 63.1 10.45 L63.15 10.3 63.2 10.2 63.35 10.15 66.3 9.95 66.45 10.0 66.55 10.1 66.55 10.15 66.55 10.2 66.6 10.2 66.55 10.15 M66.8 7.25 L64.15 7.8 62.6 8.35 63.05 8.2 63.1 8.2 63.35 8.25 63.55 8.4 63.65 8.7 63.65 8.75 67.1 8.4 67.45 7.45 67.4 7.3 66.8 7.25 M64.95 13.3 Q65.0 13.2 65.1 13.2 L66.1 13.2 66.3 13.3 66.35 13.45 66.4 14.75 66.4 14.85 66.3 14.95 66.2 15.0 65.05 15.05 64.95 15.05 64.85 14.95 64.8 14.8 64.85 13.45 64.95 13.3 M65.85 13.7 L65.35 13.7 65.35 14.55 65.9 14.55 65.85 13.7 M57.3 6.05 L57.3 6.1 Q57.35 6.8 56.3 7.65 L58.75 8.35 58.85 8.45 58.95 8.6 59.05 8.9 58.85 9.25 58.1 9.85 59.15 9.75 59.4 9.85 59.5 9.9 59.65 10.1 59.65 10.2 59.65 10.35 59.65 10.45 59.15 11.85 59.1 11.95 59.0 12.05 58.65 12.15 56.25 12.15 56.15 12.35 56.05 12.45 Q56.4 12.55 56.75 12.75 L56.85 12.8 56.85 12.85 Q57.95 13.35 57.95 14.45 57.95 16.1 56.15 16.8 L53.4 17.1 Q51.4 17.1 50.35 16.35 49.35 15.7 49.35 14.45 49.35 13.5 50.2 12.75 L48.4 13.1 48.35 13.1 48.2 13.1 48.05 13.05 47.85 12.75 47.35 11.25 Q47.2 11.0 47.35 10.9 L47.5 10.65 Q47.6 10.55 47.8 10.55 L47.85 10.55 48.5 10.6 48.2 10.3 48.0 9.95 Q48.0 9.75 48.15 9.65 L48.4 9.45 51.3 8.25 53.85 6.9 52.3 7.35 50.05 8.15 49.95 8.15 49.8 8.15 49.55 8.05 49.35 7.8 48.95 6.35 49.0 6.35 Q48.85 6.0 49.1 5.85 L49.3 5.7 49.35 5.65 54.05 4.85 54.95 4.8 56.65 5.1 Q57.3 5.4 57.3 6.05 M49.9 7.65 L52.15 6.85 52.15 6.9 Q53.7 6.35 54.4 6.35 L54.45 6.4 Q54.5 6.3 54.6 6.3 L54.75 6.35 54.85 6.5 54.85 6.65 54.8 6.75 51.5 8.7 48.55 9.95 49.3 10.7 49.35 10.85 49.3 11.05 49.1 11.1 48.95 11.1 47.8 11.05 47.8 11.1 48.35 12.6 50.45 12.2 52.85 11.9 Q53.85 11.75 53.6 11.9 L53.55 11.95 55.75 11.9 56.55 11.85 58.0 11.75 58.7 11.6 59.15 10.35 59.15 10.25 57.35 10.45 57.25 10.45 56.65 10.55 55.25 10.7 54.55 10.7 54.45 10.6 54.4 10.45 54.6 9.0 54.7 8.9 54.85 8.8 54.95 8.85 57.15 9.95 57.2 9.95 58.55 8.9 58.55 8.85 58.6 8.85 58.55 8.85 55.7 8.0 55.55 7.9 55.5 7.7 55.6 7.55 Q56.8 6.7 56.8 6.1 L56.8 6.05 56.45 5.55 54.95 5.3 54.1 5.35 49.5 6.15 49.45 6.2 49.85 7.65 49.9 7.7 49.9 7.65 M56.0 16.35 Q57.45 15.8 57.45 14.45 57.45 13.6 56.5 13.2 L56.45 13.15 55.55 12.85 55.4 12.75 55.35 12.6 55.45 12.45 53.55 11.95 53.5 11.95 53.45 11.95 52.4 12.15 51.5 12.45 51.25 12.6 51.0 12.75 Q49.85 13.45 49.85 14.45 49.85 15.4 50.65 15.95 51.6 16.6 53.4 16.6 L56.0 16.3 56.0 16.35 M54.95 10.15 L56.2 10.0 55.05 9.45 54.95 10.15 M52.65 9.3 L52.8 9.25 52.95 9.35 53.0 9.45 53.25 10.55 53.25 10.7 53.15 10.8 53.05 10.85 51.15 11.0 49.85 11.1 49.65 11.05 49.55 10.9 49.6 10.75 49.7 10.65 52.65 9.3 M52.7 10.4 L52.6 9.85 Q51.95 10.15 51.25 10.5 L52.7 10.4 M52.6 12.85 L52.75 12.85 52.9 12.95 52.9 13.1 52.85 13.25 52.8 13.3 52.85 13.35 53.9 13.3 Q55.8 13.3 55.8 14.55 55.8 15.25 55.1 15.7 L55.05 15.7 53.65 15.95 52.15 15.7 Q51.35 15.25 51.35 14.5 51.35 13.6 52.25 13.05 52.35 12.9 52.6 12.85 M52.35 13.55 Q51.85 13.9 51.85 14.5 51.85 14.95 52.4 15.25 L52.35 15.25 53.65 15.45 54.85 15.25 55.3 14.55 Q55.2 13.8 53.9 13.8 L52.9 13.85 52.85 13.85 52.7 13.85 52.6 13.85 52.35 13.55 M45.45 4.8 L45.65 4.85 45.95 5.1 45.95 5.2 45.95 5.35 45.95 5.4 Q45.7 6.75 45.7 9.0 L45.8 11.2 45.8 11.3 45.85 11.45 45.85 11.6 45.85 11.65 Q45.6 14.2 44.7 16.65 L44.65 16.7 44.6 16.85 44.45 16.9 44.35 16.95 43.3 17.2 43.25 17.2 43.05 17.2 42.95 17.2 42.7 16.85 42.7 16.6 40.45 17.1 Q38.7 17.1 37.9 16.35 36.95 15.65 36.75 13.95 L36.6 12.45 36.6 12.4 36.7 12.1 36.75 12.05 36.95 11.9 37.0 11.85 37.65 11.65 36.9 11.15 Q35.85 10.15 35.85 8.7 35.85 7.1 36.85 6.1 37.8 5.0 39.35 5.0 L41.3 5.4 41.55 5.55 41.65 5.85 41.6 6.1 42.45 6.85 Q43.05 7.55 43.05 8.65 43.05 10.15 42.0 11.15 L41.85 11.2 41.5 11.5 43.05 11.35 43.1 5.55 43.3 5.25 43.55 5.05 45.4 4.8 45.45 4.8 M43.65 5.55 L43.6 5.55 43.6 5.6 43.55 11.45 43.55 11.55 43.5 11.75 43.35 11.8 39.1 12.2 38.95 12.2 38.85 12.1 38.8 11.95 38.8 11.8 38.9 11.65 Q38.95 11.55 39.05 11.55 L39.3 11.55 Q40.7 11.55 41.6 10.8 L41.7 10.7 Q42.55 9.9 42.55 8.65 42.55 7.75 42.05 7.15 L41.1 6.45 41.0 6.35 40.95 6.2 41.05 6.05 41.15 5.9 39.35 5.5 Q38.0 5.5 37.2 6.45 36.35 7.3 36.35 8.7 36.35 9.95 37.25 10.8 37.75 11.25 38.45 11.5 L38.55 11.55 38.6 11.7 38.55 11.85 38.45 11.95 37.15 12.35 37.1 12.35 37.1 12.4 37.25 13.9 Q37.45 15.35 38.2 15.95 L38.25 16.0 Q38.9 16.6 40.45 16.6 41.6 16.6 42.95 15.95 L43.15 15.9 43.3 16.05 43.3 16.2 43.2 16.7 44.2 16.5 44.25 16.45 44.25 16.4 Q45.1 14.05 45.35 11.6 L45.35 11.55 45.25 11.4 45.3 11.25 45.3 11.2 45.2 9.0 Q45.2 6.65 45.45 5.3 L43.65 5.55 M43.55 13.05 L43.55 13.15 43.45 14.25 43.4 14.4 Q41.95 15.7 40.5 15.7 39.45 15.7 39.15 15.05 L39.1 14.95 Q38.85 14.4 38.85 13.5 L38.95 13.35 39.1 13.25 43.3 12.9 43.45 12.95 43.55 13.05 M43.0 14.1 L43.05 13.45 39.35 13.75 39.5 14.65 39.55 14.7 Q39.75 15.2 40.5 15.2 41.75 15.2 43.0 14.1 M48.35 12.7 L48.4 12.7 48.35 12.65 48.35 12.7 M38.9 6.55 L38.85 6.55 39.35 6.35 39.5 6.4 39.65 6.5 39.65 6.65 39.6 6.8 39.5 6.95 Q41.0 6.95 41.0 8.75 41.0 9.5 40.55 10.05 40.05 10.65 39.4 10.65 38.75 10.65 38.3 10.05 37.85 9.45 37.85 8.65 37.85 7.1 38.9 6.55 M31.75 16.75 L31.55 16.8 31.5 16.8 29.95 17.0 29.9 17.0 29.75 17.0 29.65 17.0 29.4 16.7 29.35 16.5 29.55 11.6 28.65 11.85 28.55 11.85 28.4 11.85 28.15 11.75 27.85 12.15 24.75 15.75 24.65 15.8 24.4 15.85 24.25 15.85 24.1 15.8 24.0 15.7 23.95 15.65 23.3 14.75 23.3 14.7 23.2 14.4 Q23.2 14.15 23.4 14.05 24.3 13.35 26.0 10.95 L27.05 9.05 27.65 7.25 27.55 7.25 Q26.8 7.45 25.15 8.45 L25.0 8.45 24.85 8.45 24.55 8.35 24.4 8.1 23.75 6.6 23.65 6.3 23.8 6.05 Q23.85 5.9 24.05 5.85 L25.9 5.35 27.85 5.15 Q28.85 5.1 29.45 5.55 L29.5 5.4 29.85 5.15 31.4 4.9 31.45 4.9 31.65 4.95 31.85 5.1 31.9 5.05 33.6 4.8 33.65 4.8 33.85 4.85 34.15 5.1 34.15 5.2 34.15 5.35 34.15 5.4 33.9 10.55 Q33.8 13.7 34.1 16.35 L34.05 16.6 33.7 16.85 33.65 16.85 32.05 17.1 31.85 17.05 31.75 16.9 31.8 16.75 31.8 16.7 31.95 16.65 32.0 16.6 33.6 16.35 Q33.3 13.7 33.4 10.55 L33.65 5.35 33.65 5.3 32.0 5.55 31.95 5.55 31.85 9.0 31.8 11.7 31.8 12.45 Q31.8 14.5 31.95 16.3 L31.9 16.55 31.75 16.75 M39.45 7.45 L39.15 7.35 39.05 7.25 38.95 7.1 Q38.35 7.55 38.35 8.65 38.35 9.25 38.7 9.75 38.95 10.15 39.4 10.15 L40.15 9.75 40.5 8.75 Q40.5 7.45 39.45 7.45 M29.9 5.7 L29.95 6.25 29.95 6.3 29.9 6.5 29.75 6.55 29.6 6.5 29.45 6.4 29.15 5.95 Q28.7 5.6 27.9 5.65 L27.85 5.65 26.0 5.85 24.25 6.35 24.2 6.35 24.2 6.4 24.9 7.95 24.9 8.0 24.95 7.95 Q26.65 6.95 27.45 6.75 L27.5 6.75 27.7 6.75 Q28.2 6.75 28.15 7.15 L27.5 9.25 26.4 11.25 Q24.6 13.75 23.7 14.45 L23.75 14.5 24.35 15.35 24.4 15.4 24.4 15.35 27.45 11.85 27.95 11.1 28.1 11.0 28.25 11.05 28.4 11.15 28.45 11.35 28.55 11.35 29.75 11.0 29.9 11.05 30.0 11.1 30.05 11.25 29.85 16.5 29.9 16.5 31.45 16.3 Q31.3 14.2 31.3 11.7 L31.45 5.45 31.45 5.4 31.4 5.4 29.95 5.65 29.9 5.65 29.9 5.7 M30.05 7.3 L30.05 7.35 30.05 9.65 30.0 9.85 29.85 9.9 29.0 9.95 28.8 9.9 28.7 9.8 28.75 9.6 29.55 7.25 29.65 7.1 29.85 7.05 30.0 7.15 30.05 7.3 M29.55 9.45 L29.55 9.0 29.35 9.45 29.55 9.45" fill="#ffffff" fill-rule="evenodd" stroke="none"/>
    <path d="M61.5 9.15 L63.15 8.75 63.15 8.7 63.15 9.0 63.2 9.15 63.3 9.25 63.45 9.25 67.3 8.9 67.4 8.9 67.45 8.8 67.95 7.45 67.7 6.9 67.65 6.9 66.75 6.75 64.0 7.3 Q62.55 7.7 61.9 8.1 L61.85 8.1 61.2 6.9 Q62.1 6.4 63.75 6.1 L66.85 5.7 68.45 6.0 68.5 6.05 Q69.45 6.45 69.45 7.35 L69.4 7.75 69.05 9.0 68.5 10.25 66.55 10.15 66.55 10.1 66.45 10.0 66.3 9.95 63.35 10.15 63.2 10.2 63.15 10.3 63.1 10.45 Q63.2 11.35 63.9 11.75 64.45 12.15 65.7 12.15 67.45 12.15 69.4 10.9 L69.95 11.95 69.9 12.0 67.9 12.9 67.75 12.95 67.7 13.1 67.6 14.7 67.65 14.85 67.75 14.95 67.85 14.95 71.1 14.6 71.1 14.7 70.7 16.05 70.65 16.1 68.9 16.1 67.1 16.1 65.2 16.1 60.15 16.35 60.05 16.3 59.65 15.05 59.7 15.0 59.7 14.95 61.6 15.1 63.3 15.1 63.45 15.1 63.55 15.0 63.55 14.85 63.45 13.25 63.4 13.1 63.3 13.05 Q62.4 12.7 61.95 11.55 61.45 10.55 61.45 9.15 L61.5 9.15 M64.95 13.3 L64.85 13.45 64.8 14.8 64.85 14.95 64.95 15.05 65.05 15.05 66.2 15.0 66.3 14.95 66.4 14.85 66.4 14.75 66.35 13.45 66.3 13.3 66.1 13.2 65.1 13.2 Q65.0 13.2 64.95 13.3 M48.55 9.95 L51.5 8.7 54.8 6.75 54.85 6.65 54.85 6.5 54.75 6.35 54.6 6.3 Q54.5 6.3 54.45 6.4 L54.4 6.35 Q53.7 6.35 52.15 6.9 L52.15 6.85 49.9 7.65 49.85 7.65 49.45 6.2 49.5 6.15 54.1 5.35 54.95 5.3 56.45 5.55 56.8 6.05 56.8 6.1 Q56.8 6.7 55.6 7.55 L55.5 7.7 55.55 7.9 55.7 8.0 58.55 8.85 58.55 8.9 57.2 9.95 57.15 9.95 54.95 8.85 54.85 8.8 54.7 8.9 54.6 9.0 54.4 10.45 54.45 10.6 54.55 10.7 55.25 10.7 56.65 10.55 57.25 10.45 57.35 10.45 59.15 10.25 59.15 10.35 58.7 11.6 58.0 11.75 56.55 11.85 55.75 11.9 53.55 11.95 55.45 12.45 55.35 12.6 55.4 12.75 55.55 12.85 56.45 13.15 56.5 13.2 Q57.45 13.6 57.45 14.45 57.45 15.8 56.0 16.35 L56.0 16.3 53.4 16.6 Q51.6 16.6 50.65 15.95 49.85 15.4 49.85 14.45 49.85 13.45 51.0 12.75 L51.25 12.6 51.5 12.45 52.4 12.15 53.45 11.95 53.5 11.95 53.55 11.95 53.6 11.9 Q53.85 11.75 52.85 11.9 L50.45 12.2 48.35 12.6 47.8 11.1 47.8 11.05 48.95 11.1 49.1 11.1 49.3 11.05 49.35 10.85 49.3 10.7 48.55 9.95 M52.65 9.3 L49.7 10.65 49.6 10.75 49.55 10.9 49.65 11.05 49.85 11.1 51.15 11.0 53.05 10.85 53.15 10.8 53.25 10.7 53.25 10.55 53.0 9.45 52.95 9.35 52.8 9.25 52.65 9.3 M52.6 12.85 Q52.35 12.9 52.25 13.05 51.35 13.6 51.35 14.5 51.35 15.25 52.15 15.7 L53.65 15.95 55.05 15.7 55.1 15.7 Q55.8 15.25 55.8 14.55 55.8 13.3 53.9 13.3 L52.85 13.35 52.8 13.3 52.85 13.25 52.9 13.1 52.9 12.95 52.75 12.85 52.6 12.85 M43.6 5.6 L43.65 5.55 45.45 5.3 Q45.2 6.65 45.2 9.0 L45.3 11.2 45.3 11.25 45.25 11.4 45.35 11.55 45.35 11.6 Q45.1 14.05 44.25 16.4 L44.2 16.5 43.2 16.7 43.3 16.2 43.3 16.05 43.15 15.9 42.95 15.95 Q41.6 16.6 40.45 16.6 38.9 16.6 38.25 16.0 L38.2 15.95 Q37.45 15.35 37.25 13.9 L37.1 12.4 37.15 12.35 38.45 11.95 38.55 11.85 38.6 11.7 38.55 11.55 38.45 11.5 Q37.75 11.25 37.25 10.8 36.35 9.95 36.35 8.7 36.35 7.3 37.2 6.45 38.0 5.5 39.35 5.5 L41.15 5.9 41.05 6.05 40.95 6.2 41.0 6.35 41.1 6.45 42.05 7.15 Q42.55 7.75 42.55 8.65 42.55 9.9 41.7 10.7 L41.6 10.8 Q40.7 11.55 39.3 11.55 L39.05 11.55 Q38.95 11.55 38.9 11.65 L38.8 11.8 38.8 11.95 38.85 12.1 38.95 12.2 39.1 12.2 43.35 11.8 43.5 11.75 43.55 11.55 43.55 11.45 43.6 5.6 M43.55 13.05 L43.45 12.95 43.3 12.9 39.1 13.25 38.95 13.35 38.85 13.5 Q38.85 14.4 39.1 14.95 L39.15 15.05 Q39.45 15.7 40.5 15.7 41.95 15.7 43.4 14.4 L43.45 14.25 43.55 13.15 43.55 13.05 M38.9 6.55 Q37.85 7.1 37.85 8.65 37.85 9.45 38.3 10.05 38.75 10.65 39.4 10.65 40.05 10.65 40.55 10.05 41.0 9.5 41.0 8.75 41.0 6.95 39.5 6.95 L39.6 6.8 39.65 6.65 39.65 6.5 39.5 6.4 39.35 6.35 38.85 6.55 38.9 6.55 M31.9 16.55 L31.95 16.3 Q31.8 14.5 31.8 12.45 L31.85 10.5 31.85 9.0 31.95 5.55 32.0 5.55 33.65 5.3 33.65 5.35 33.4 10.55 Q33.3 13.7 33.6 16.35 L32.0 16.6 31.95 16.65 31.9 16.55 M38.55 12.2 L38.55 12.15 38.55 12.2 M24.25 6.35 L26.0 5.85 27.85 5.65 27.9 5.65 Q28.7 5.6 29.15 5.95 L29.45 6.4 29.6 6.5 29.75 6.55 29.9 6.5 29.95 6.3 29.95 6.25 29.9 5.7 29.95 5.65 31.4 5.4 31.45 5.45 31.3 11.7 Q31.3 14.2 31.45 16.3 L29.9 16.5 29.85 16.5 30.05 11.25 30.0 11.1 29.9 11.05 29.75 11.0 28.55 11.35 28.45 11.35 28.4 11.15 28.25 11.05 28.1 11.0 27.95 11.1 27.45 11.85 24.4 15.35 24.35 15.35 23.75 14.5 23.7 14.45 Q24.6 13.75 26.4 11.25 L27.5 9.25 28.15 7.15 Q28.2 6.75 27.7 6.75 L27.5 6.75 27.45 6.75 Q26.65 6.95 24.95 7.95 L24.9 7.95 24.2 6.4 24.25 6.35 M30.05 7.3 L30.0 7.15 29.85 7.05 29.65 7.1 29.55 7.25 28.75 9.6 28.7 9.8 28.8 9.9 29.0 9.95 29.85 9.9 30.0 9.85 30.05 9.65 30.05 7.35 30.05 7.3" fill="#ff3300" fill-rule="evenodd" stroke="none"/>
    <path d="M66.55 10.15 L66.6 10.2 66.55 10.2 66.55 10.15 M71.1 14.6 L71.1 14.7 71.1 14.6 M60.15 16.35 L60.1 16.35 60.05 16.35 60.05 16.3 60.15 16.35 M61.45 9.15 L61.5 9.15 61.45 9.15 M49.9 7.65 L49.9 7.7 49.85 7.65 49.9 7.65 M58.55 8.85 L58.6 8.85 58.55 8.85 58.55 8.9 58.55 8.85 M56.0 16.35 L56.0 16.3 56.0 16.35 M53.55 11.95 L53.6 11.9 53.55 11.95 M43.65 5.55 L43.6 5.6 43.6 5.55 43.65 5.55 M37.15 12.35 L37.1 12.4 37.1 12.35 37.15 12.35 M44.2 16.5 L44.25 16.4 44.25 16.45 44.2 16.5 M48.35 12.7 L48.35 12.65 48.4 12.7 48.35 12.7 M31.75 16.75 L31.9 16.55 31.95 16.65 31.8 16.7 31.8 16.75 31.75 16.75 M29.9 5.7 L29.9 5.65 29.95 5.65 29.9 5.7 M31.4 5.4 L31.45 5.4 31.45 5.45 31.4 5.4 M24.4 15.35 L24.4 15.4 24.35 15.35 24.4 15.35 M24.95 7.95 L24.9 8.0 24.9 7.95 24.95 7.95 M24.2 6.4 L24.2 6.35 24.25 6.35 24.2 6.4" fill="#d20202" fill-rule="evenodd" stroke="none"/>
    <path d="M38.55 12.2 L38.55 12.15 38.55 12.2" fill="#ff0000" fill-rule="evenodd" stroke="none"/>
  </g>
  <defs>
    <linearGradient gradientTransform="matrix(0.0579, 0.0, 0.0, 0.0123, 48.05, 11.05)" gradientUnits="userSpaceOnUse" id="gradient0" spreadMethod="pad" x1="-819.2" x2="819.2">
      <stop offset="0.0" stop-color="#681717"/>
      <stop offset="0.5098039215686274" stop-color="#fe70b7"/>
      <stop offset="1.0" stop-color="#56181f"/>
    </linearGradient>
    <linearGradient gradientTransform="matrix(0.0, -0.0099, 0.0111, 0.0, 48.0, 11.1)" gradientUnits="userSpaceOnUse" id="gradient1" spreadMethod="pad" x1="-819.2" x2="819.2">
      <stop offset="0.0" stop-color="#cc33cc"/>
      <stop offset="0.21176470588235294" stop-color="#e184de"/>
      <stop offset="0.5058823529411764" stop-color="#f8d3f1"/>
      <stop offset="0.7450980392156863" stop-color="#faabda"/>
      <stop offset="1.0" stop-color="#fe78bb"/>
    </linearGradient>
  </defs>
</svg>
