<?xml version="1.0" encoding="UTF-8" standalone="no"?>
<svg xmlns:xlink="http://www.w3.org/1999/xlink" height="35.25px" width="22.1px" xmlns="http://www.w3.org/2000/svg">
  <g transform="matrix(1.0, 0.0, 0.0, 1.0, -6.5, -7.9)">
    <path d="M10.4 12.35 L10.7 12.25 Q10.9 12.25 11.0 12.4 L11.15 12.7 11.15 16.1 15.8 16.1 16.15 16.2 16.25 16.5 16.15 16.8 15.8 16.9 6.9 16.9 6.6 16.75 6.5 16.45 6.65 16.2 6.95 16.1 10.25 16.1 10.25 12.7 Q10.25 12.45 10.4 12.35 M13.95 8.25 L14.95 8.55 Q15.35 8.9 15.35 9.5 L15.35 12.05 15.05 13.75 14.4 15.05 13.8 15.1 Q13.45 14.8 13.7 14.45 L14.2 13.5 14.45 12.0 14.45 9.5 14.25 9.15 13.85 9.05 7.7 9.05 Q7.3 9.05 7.3 8.65 7.3 8.25 7.7 8.25 L13.95 8.25 M26.0 14.4 Q26.6 14.4 26.9 14.65 27.25 14.95 27.25 15.5 L27.25 17.2 27.1 17.55 26.8 17.7 26.45 17.55 26.35 17.2 26.35 15.5 26.25 15.3 25.95 15.2 19.65 15.2 Q19.2 15.2 19.2 14.8 19.2 14.4 19.65 14.4 L26.0 14.4 M22.85 11.45 L22.95 11.1 23.25 11.0 23.6 11.1 23.75 11.4 23.75 12.55 27.7 12.55 Q28.15 12.55 28.15 12.95 L27.7 13.3 18.8 13.3 18.5 13.15 18.4 12.9 18.55 12.65 Q18.65 12.55 18.85 12.55 L22.85 12.55 22.85 11.45 M22.85 8.4 L22.95 8.05 Q23.1 7.9 23.3 7.9 23.45 7.9 23.6 8.05 L23.75 8.4 Q23.75 9.25 24.65 9.9 25.85 10.5 27.2 10.55 27.5 10.55 27.65 10.7 L27.75 11.0 27.6 11.3 27.25 11.4 Q25.75 11.3 24.6 10.7 23.55 10.25 23.3 9.6 23.05 10.25 22.0 10.7 20.8 11.3 19.35 11.4 L18.95 11.3 18.85 11.0 18.95 10.7 Q19.05 10.55 19.4 10.55 20.7 10.55 21.95 9.9 22.85 9.25 22.85 8.4" fill="#f7f709" fill-rule="evenodd" stroke="none"/>
    <path d="M26.15 42.05 Q26.9 41.8 26.9 41.35 26.9 40.9 26.2 40.65 L23.65 40.35 21.1 40.65 Q20.45 40.9 20.45 41.35 20.45 41.8 21.15 42.05 L23.65 42.35 26.15 42.05 M26.75 40.05 Q27.8 40.5 27.8 41.35 27.8 42.2 26.6 42.7 L23.65 43.15 20.55 42.65 Q19.55 42.2 19.55 41.35 19.55 40.5 20.55 40.05 L23.65 39.55 Q25.75 39.55 26.75 40.05 M7.05 42.35 Q6.85 42.35 6.75 42.2 L6.7 41.9 6.8 41.65 7.15 41.5 11.15 41.5 11.15 39.25 11.3 38.95 11.6 38.85 11.9 38.95 12.05 39.3 12.05 41.5 16.1 41.5 Q16.3 41.5 16.4 41.65 L16.55 41.95 16.4 42.2 16.1 42.35 7.05 42.35 M8.55 37.55 L8.6 37.85 8.95 37.95 14.25 37.95 14.6 37.85 14.7 37.55 14.7 36.0 8.55 36.0 8.55 37.55 M14.7 33.9 L14.8 33.55 Q14.95 33.4 15.15 33.4 L15.5 33.55 15.65 33.85 15.65 37.65 15.35 38.4 Q14.95 38.75 14.4 38.75 L8.8 38.75 Q8.25 38.75 8.15 38.5 7.6 38.2 7.6 37.7 L7.6 33.9 Q7.6 33.65 7.75 33.55 7.85 33.4 8.05 33.4 L8.4 33.55 8.55 33.9 8.55 35.2 14.7 35.2 14.7 33.9 M19.95 36.8 Q19.65 36.5 19.65 36.05 L19.65 34.5 Q19.65 34.0 19.95 33.7 20.35 33.4 20.85 33.4 L27.35 33.4 27.65 33.5 27.8 33.8 27.7 34.1 27.4 34.25 21.0 34.25 20.65 34.3 20.6 34.5 20.6 34.85 27.2 34.85 Q27.7 34.85 27.7 35.25 L27.25 35.7 20.6 35.7 20.6 36.0 20.7 36.25 20.95 36.3 27.35 36.3 Q27.8 36.3 27.8 36.75 27.8 37.15 27.4 37.15 L24.1 37.15 24.1 38.25 28.15 38.25 28.45 38.4 28.6 38.65 28.5 38.95 28.15 39.05 19.15 39.05 Q18.7 39.05 18.75 38.65 18.75 38.25 19.2 38.25 L23.2 38.25 23.2 37.15 20.85 37.15 Q20.3 37.15 19.95 36.8" fill="#ffffff" fill-rule="evenodd" stroke="none"/>
  </g>
</svg>
