<?xml version="1.0" encoding="UTF-8" standalone="no"?>
<svg xmlns:xlink="http://www.w3.org/1999/xlink" height="23.15px" width="16.45px" xmlns="http://www.w3.org/2000/svg">
  <g transform="matrix(1.0, 0.0, 0.0, 1.0, 8.2, 11.55)">
    <path d="M8.25 -4.95 Q8.25 -3.5 7.45 -2.2 6.6 -0.9 3.9 1.3 2.55 2.5 2.2 3.2 1.85 3.9 1.9 5.7 L-2.1 5.7 -2.1 4.65 Q-2.1 2.7 -1.45 1.45 -0.85 0.2 1.1 -1.35 L3.4 -3.4 Q3.95 -4.15 3.95 -5.1 3.95 -6.35 2.95 -7.25 1.9 -8.2 0.2 -8.2 -1.5 -8.2 -2.6 -7.25 -3.75 -6.3 -4.15 -4.35 L-8.2 -4.85 Q-8.0 -7.65 -5.8 -9.6 -3.6 -11.55 0.0 -11.55 3.8 -11.55 6.0 -9.55 8.25 -7.6 8.25 -4.95 M2.3 11.6 L-2.1 11.6 -2.1 7.2 2.3 7.2 2.3 11.6" fill="#ff0000" fill-rule="evenodd" stroke="none"/>
  </g>
</svg>
