<?xml version="1.0" encoding="UTF-8" standalone="no"?>
<svg xmlns:xlink="http://www.w3.org/1999/xlink" height="181.35px" width="748.7px" xmlns="http://www.w3.org/2000/svg">
  <g transform="matrix(1.0, 0.0, 0.0, 1.0, -143.0, -436.2)">
    <path d="M851.2 444.3 L852.8 444.55 Q865.7 446.6 879.25 446.4 L881.6 446.4 882.8 446.35 881.2 446.0 Q866.75 443.0 854.55 437.3 L863.05 436.2 863.75 437.4 Q868.75 439.6 874.3 440.05 L881.4 439.85 884.9 439.5 889.95 440.9 891.7 441.35 882.7 617.55 145.15 617.55 143.0 573.25 173.5 564.9 193.65 565.2 189.6 565.4 202.4 565.65 224.3 564.5 Q232.0 563.75 263.6 570.9 L234.1 563.25 234.9 563.1 236.7 562.8 238.45 562.5 241.6 561.95 242.8 561.7 261.75 560.85 Q276.4 560.85 270.1 560.2 263.8 559.5 261.25 558.7 258.65 557.85 261.2 557.1 L263.7 556.3 262.2 550.75 266.1 550.15 266.35 550.15 Q276.1 548.5 304.8 548.0 287.55 544.7 289.7 544.3 L298.65 542.65 305.65 541.15 289.05 535.8 295.25 535.6 318.5 536.9 Q333.9 537.95 318.05 532.85 L320.6 532.7 318.9 532.15 Q344.2 532.9 355.25 535.15 344.9 529.35 344.55 529.35 331.1 530.5 318.15 529.1 L327.75 526.9 346.15 526.0 351.05 526.15 360.8 526.0 365.1 530.85 Q369.3 535.65 373.5 530.75 377.75 525.85 390.8 536.05 388.05 531.9 377.65 526.3 L396.4 528.45 Q376.0 517.35 372.8 514.35 L383.8 516.9 412.65 515.75 Q419.4 515.1 409.55 514.65 399.7 514.15 393.95 512.55 L399.9 511.35 404.7 510.35 409.8 510.55 410.5 511.45 449.65 517.4 Q433.2 513.1 434.7 513.25 L435.25 513.3 435.75 513.5 Q436.4 513.5 435.25 513.3 L433.0 512.55 441.35 514.95 Q429.65 511.3 428.5 510.05 426.6 510.35 424.9 509.6 421.45 508.1 417.45 508.35 L430.5 507.25 428.9 507.3 Q425.95 507.45 424.45 506.35 L428.5 506.15 425.2 506.15 426.1 505.95 429.05 505.35 429.75 505.25 433.75 505.9 436.0 506.9 454.55 517.15 447.0 507.5 Q448.2 505.9 450.25 505.85 L452.15 505.35 452.4 505.45 452.4 505.55 Q452.45 506.3 452.8 507.1 L453.55 507.7 Q457.75 508.35 462.35 507.85 465.45 507.25 467.3 508.15 466.45 509.95 462.95 509.9 L457.5 509.7 459.75 510.7 461.5 512.8 469.15 512.4 467.2 505.95 Q464.7 504.95 461.65 504.55 L460.85 504.45 461.25 504.25 462.1 503.45 463.15 501.75 468.2 501.5 473.65 502.85 Q474.6 504.55 476.45 505.5 L476.65 505.75 Q477.55 507.2 478.85 508.1 L478.95 510.3 479.35 510.35 479.5 510.85 479.55 511.05 479.55 510.8 479.4 510.4 479.35 510.35 Q479.25 509.65 480.05 509.7 L480.0 509.35 479.65 508.2 478.8 507.0 476.45 505.5 475.2 503.95 Q473.7 502.55 472.1 501.3 L482.3 500.8 483.3 500.65 490.0 502.75 Q498.45 505.1 504.6 507.35 498.9 504.85 493.05 501.95 490.75 500.7 488.35 499.95 L493.85 499.15 Q501.5 500.75 509.0 504.5 511.65 505.75 514.85 505.25 L514.35 505.1 Q505.35 501.8 496.15 498.75 510.95 496.35 525.75 493.2 L506.05 493.1 511.65 489.55 519.75 488.05 572.5 485.5 547.25 485.7 548.0 485.6 Q550.55 485.05 552.65 483.15 L566.5 482.5 Q578.45 487.1 589.7 490.15 L574.75 482.1 575.85 482.05 Q580.85 483.75 585.65 485.95 L591.95 488.85 593.0 489.4 593.45 489.45 591.95 488.85 Q585.15 485.1 577.8 481.95 L585.55 481.55 591.65 483.1 Q595.2 483.9 598.2 485.35 L604.25 485.6 600.6 484.55 Q611.0 485.35 621.75 484.5 L630.5 483.8 629.45 483.65 Q621.6 480.35 612.7 478.6 L636.6 477.65 643.5 480.95 670.85 480.75 669.2 476.35 677.2 476.0 675.05 475.75 668.6 474.8 667.1 471.05 674.8 470.7 675.0 470.5 721.0 475.0 722.1 474.95 Q713.1 473.95 704.6 469.9 700.9 468.15 697.65 466.95 L717.25 466.4 717.15 465.8 714.8 465.35 716.1 465.4 740.95 465.4 756.85 468.9 753.4 465.8 753.45 465.75 759.95 465.45 753.0 465.4 748.8 461.65 744.4 460.75 742.8 459.3 750.9 459.35 752.0 459.3 Q749.75 455.1 747.2 451.55 L761.3 449.6 784.25 446.45 810.5 445.5 796.85 444.75 799.05 444.45 816.8 442.1 828.65 440.55 833.8 440.25 Q842.05 442.7 850.55 444.2 L851.2 444.3 M852.8 438.35 Q849.45 437.3 846.1 436.4 L848.45 436.2 Q850.55 437.3 852.8 438.15 L856.85 439.5 857.5 439.8 852.8 438.35 M665.8 451.8 L665.9 451.85 665.6 451.85 665.8 451.8 M831.25 437.45 L835.0 437.2 835.95 437.1 843.1 439.5 836.3 438.45 831.25 437.45 M226.45 514.3 L239.05 515.05 218.5 516.4 Q222.35 515.1 226.45 514.3 M308.2 502.35 L304.6 502.05 297.0 501.1 300.3 500.55 308.95 499.05 328.95 502.35 308.2 502.35 M278.4 507.3 L272.9 505.35 276.9 505.6 280.75 507.15 278.4 507.3 M407.9 519.15 L407.8 518.7 Q407.75 517.3 384.25 517.0 409.7 523.1 408.0 525.15 L414.15 519.15 Q438.9 514.95 423.45 517.2 L407.9 519.15 M553.55 469.5 L560.45 469.5 Q561.05 470.75 561.35 472.15 L553.55 469.5" fill="#88a70c" fill-rule="evenodd" stroke="none"/>
  </g>
</svg>
