<?xml version="1.0" encoding="UTF-8" standalone="no"?>
<svg xmlns:xlink="http://www.w3.org/1999/xlink" height="219.55px" width="748.7px" xmlns="http://www.w3.org/2000/svg">
  <g transform="matrix(1.0, 0.0, 0.0, 1.0, 374.35, 109.75)">
    <path d="M340.15 -106.15 L328.75 -109.55 331.1 -109.75 Q335.05 -107.7 339.5 -106.45 L340.15 -106.15 M346.4 -108.55 Q351.4 -106.35 356.95 -105.9 L364.05 -106.1 367.55 -106.45 372.6 -105.05 374.35 -104.6 365.2 74.2 -370.35 109.8 -374.35 27.3 -343.85 18.95 -323.7 19.25 -327.75 19.45 -314.95 19.7 -293.05 18.55 Q-285.35 17.8 -253.75 24.95 L-283.25 17.3 -282.45 17.15 -280.65 16.85 -278.9 16.55 -275.75 16.0 -274.55 15.75 -255.6 14.9 Q-240.95 14.9 -247.25 14.25 -253.55 13.55 -256.1 12.75 -258.7 11.9 -256.15 11.15 L-253.65 10.35 -255.15 4.8 -251.25 4.2 -251.0 4.2 Q-241.25 2.55 -212.55 2.05 -229.8 -1.25 -227.65 -1.65 L-218.7 -3.3 -211.7 -4.8 -228.3 -10.15 -222.1 -10.35 -198.85 -9.05 Q-183.45 -8.0 -199.3 -13.1 L-196.75 -13.25 -198.45 -13.8 Q-173.15 -13.05 -162.1 -10.8 L-172.8 -16.6 Q-186.25 -15.45 -199.2 -16.85 L-189.6 -19.05 -171.2 -19.95 -166.3 -19.8 -156.55 -19.95 -152.25 -15.1 Q-148.05 -10.3 -143.85 -15.2 -139.6 -20.1 -126.55 -9.9 -129.3 -14.05 -139.7 -19.65 L-120.95 -17.5 Q-141.35 -28.6 -144.55 -31.6 L-133.55 -29.05 -104.7 -30.2 Q-97.95 -30.85 -107.8 -31.3 -117.65 -31.8 -123.4 -33.4 L-117.45 -34.6 -112.65 -35.6 -107.55 -35.4 -106.85 -34.5 -67.7 -28.55 Q-84.15 -32.85 -82.65 -32.7 L-82.1 -32.65 -81.6 -32.45 Q-80.95 -32.45 -82.1 -32.65 L-84.35 -33.4 -76.0 -31.0 Q-87.7 -34.65 -88.85 -35.9 -90.75 -35.6 -92.45 -36.35 -95.9 -37.85 -99.9 -37.6 L-86.85 -38.7 -88.45 -38.65 Q-91.4 -38.5 -92.9 -39.6 L-88.85 -39.8 -92.15 -39.8 -91.25 -40.0 -88.3 -40.6 -87.6 -40.7 -83.6 -40.05 -81.35 -39.05 -62.8 -28.8 -70.35 -38.45 Q-69.15 -40.05 -67.1 -40.1 L-65.2 -40.6 -64.95 -40.5 -64.95 -40.4 -64.55 -38.85 -63.8 -38.25 Q-59.6 -37.6 -55.0 -38.1 L-50.05 -37.8 Q-50.9 -36.0 -54.4 -36.05 L-59.85 -36.25 -57.6 -35.25 -55.85 -33.15 -48.2 -33.55 -50.15 -40.0 Q-52.65 -41.0 -55.7 -41.4 L-56.5 -41.5 -56.1 -41.7 -55.25 -42.5 Q-54.65 -43.2 -54.2 -44.2 L-49.15 -44.45 -43.7 -43.1 Q-42.75 -41.4 -40.9 -40.45 L-40.7 -40.2 Q-39.8 -38.75 -38.5 -37.85 L-38.4 -35.65 -38.0 -35.6 -37.85 -35.1 -37.8 -34.9 -37.8 -35.15 -37.95 -35.55 -38.0 -35.6 Q-38.1 -36.3 -37.3 -36.25 L-37.35 -36.6 -37.7 -37.75 -38.55 -38.95 -40.9 -40.45 -42.15 -42.0 -45.25 -44.65 -35.05 -45.15 -34.05 -45.3 -27.35 -43.2 Q-18.9 -40.85 -12.75 -38.6 -18.45 -41.1 -24.3 -44.0 -26.6 -45.25 -29.0 -46.0 L-23.5 -46.8 Q-15.85 -45.2 -8.35 -41.45 -5.7 -40.2 -2.5 -40.7 -2.8 -40.7 -3.0 -40.85 L-21.2 -47.2 Q-6.4 -49.6 8.4 -52.75 L-11.3 -52.85 -5.7 -56.4 2.4 -57.9 55.15 -60.45 29.9 -60.25 30.65 -60.35 Q33.2 -60.9 35.3 -62.8 L49.15 -63.45 Q61.1 -58.85 72.35 -55.8 L57.4 -63.85 58.5 -63.9 Q63.5 -62.2 68.3 -60.0 72.2 -58.15 74.6 -57.1 L75.65 -56.55 76.1 -56.5 74.6 -57.1 Q67.8 -60.85 60.45 -64.0 L68.2 -64.4 74.3 -62.85 Q77.85 -62.05 80.85 -60.6 L86.9 -60.35 83.25 -61.4 Q93.65 -60.6 104.4 -61.45 L113.15 -62.15 112.1 -62.3 Q104.25 -65.6 95.35 -67.35 L119.25 -68.3 126.15 -65.0 153.5 -65.2 151.85 -69.6 159.85 -69.95 157.7 -70.2 151.25 -71.15 149.75 -74.9 157.45 -75.25 157.65 -75.45 Q180.7 -73.7 203.65 -70.95 L204.75 -71.0 Q195.75 -72.0 187.25 -76.05 L180.3 -79.0 Q190.1 -79.05 199.9 -79.55 L199.8 -80.15 197.45 -80.6 198.75 -80.55 223.6 -80.55 239.5 -77.05 236.05 -80.15 236.1 -80.2 242.6 -80.5 235.65 -80.55 231.45 -84.3 227.05 -85.2 225.45 -86.65 233.55 -86.6 234.65 -86.65 Q232.4 -90.85 229.85 -94.4 L243.95 -96.35 266.9 -99.5 293.15 -100.45 279.5 -101.2 281.7 -101.5 299.45 -103.85 311.3 -105.4 316.45 -105.7 Q324.7 -103.25 333.2 -101.75 L333.85 -101.65 Q347.5 -99.35 361.9 -99.55 L364.25 -99.55 365.45 -99.6 363.85 -99.95 Q349.4 -102.95 337.2 -108.65 L345.7 -109.75 346.4 -108.55 M325.75 -106.45 L318.95 -107.5 313.9 -108.5 317.65 -108.75 318.6 -108.85 325.75 -106.45 M-93.9 -28.75 L-109.45 -26.8 -109.55 -27.25 Q-109.6 -28.65 -133.1 -28.95 -107.65 -22.85 -109.35 -20.8 L-103.2 -26.8 Q-78.45 -31.0 -93.9 -28.75 M43.1 -76.45 L44.0 -73.8 36.2 -76.45 43.1 -76.45 M-236.6 -38.8 L-238.95 -38.65 -244.45 -40.6 -240.45 -40.35 -236.6 -38.8 M-209.15 -43.6 L-212.75 -43.9 -220.35 -44.85 -217.05 -45.4 -208.4 -46.9 -188.4 -43.6 -209.15 -43.6 M-278.3 -30.9 L-298.85 -29.55 Q-295.0 -30.85 -290.9 -31.65 L-278.3 -30.9 M148.55 -94.1 L148.25 -94.1 148.45 -94.15 148.55 -94.1" fill="#88a70c" fill-rule="evenodd" stroke="none"/>
  </g>
</svg>
