<?xml version="1.0" encoding="UTF-8" standalone="no"?>
<svg xmlns:xlink="http://www.w3.org/1999/xlink" height="36.05px" width="196.85px" xmlns="http://www.w3.org/2000/svg">
  <g transform="matrix(1.0, 0.0, 0.0, 1.0, -108.95, -86.2)">
    <path d="M274.3 89.65 Q274.75 89.3 275.4 89.25 L301.15 86.4 302.3 86.55 303.75 87.65 Q304.95 89.0 305.2 91.15 L305.75 95.75 Q305.9 97.05 305.7 98.15 L305.2 99.5 Q304.35 101.1 302.9 101.25 L277.15 104.15 Q275.7 104.3 274.5 102.9 273.3 101.5 273.05 99.35 L272.5 94.75 Q272.25 92.6 273.1 91.0 273.6 90.05 274.3 89.65 L302.3 86.55 274.3 89.65 M302.35 92.25 L275.4 95.2 302.35 92.25 M302.75 95.55 L275.8 98.55 302.75 95.55 M302.6 94.0 L275.6 97.0 302.6 94.0 M303.1 98.95 L302.25 99.3 276.2 102.15 302.25 99.3 303.1 98.95 276.15 101.75 303.1 98.95 M302.95 97.35 L276.0 100.35 302.95 97.35 M303.0 97.75 L276.05 100.75 303.0 97.75 M110.8 107.75 Q111.25 107.45 111.85 107.35 L137.65 104.5 138.8 104.65 110.8 107.75 138.8 104.65 Q139.55 104.9 140.25 105.75 141.45 107.1 141.7 109.25 L142.25 113.85 Q142.5 116.0 141.65 117.65 140.8 119.25 139.4 119.4 L113.65 122.25 Q112.2 122.4 111.0 121.05 109.8 119.6 109.55 117.5 L109.0 112.9 Q108.75 110.75 109.6 109.15 110.05 108.2 110.8 107.75 M139.05 112.15 L112.1 115.15 139.05 112.15 M139.25 113.7 L112.25 116.65 139.25 113.7 M138.85 110.35 L111.9 113.35 138.85 110.35 M139.5 115.9 L112.55 118.85 139.5 115.9 M139.65 117.3 L112.7 120.3 139.65 117.3 M139.45 115.5 L112.5 118.5 139.45 115.5 M139.65 116.9 L112.65 119.9 139.65 116.9" fill="#333333" fill-rule="evenodd" stroke="none"/>
    <path d="M273.5 89.7 L274.3 89.65 M302.3 86.55 L302.9 86.45 M302.3 86.55 L274.3 89.65 M275.6 97.0 L302.6 94.0 M275.8 98.55 L302.75 95.55 M275.4 95.2 L302.35 92.25 M303.1 98.95 L276.15 101.75 M276.0 100.35 L302.95 97.35 M138.8 104.65 L139.4 104.6 M110.8 107.75 L138.8 104.65 M110.8 107.75 L110.0 107.85 M111.9 113.35 L138.85 110.35 M112.25 116.65 L139.25 113.7 M112.1 115.15 L139.05 112.15 M112.65 119.9 L139.65 116.9 M112.5 118.5 L139.45 115.5" fill="none" stroke="#999999" stroke-linecap="round" stroke-linejoin="round" stroke-width="0.5"/>
    <path d="M276.2 102.15 L302.25 99.3 303.1 98.95 M276.05 100.75 L303.0 97.75 M112.7 120.3 L139.65 117.3 M112.55 118.85 L139.5 115.9" fill="none" stroke="#666666" stroke-linecap="round" stroke-linejoin="round" stroke-width="0.5"/>
  </g>
</svg>
