<?xml version="1.0" encoding="UTF-8" standalone="no"?>
<svg xmlns:xlink="http://www.w3.org/1999/xlink" height="156.2px" width="470.2px" xmlns="http://www.w3.org/2000/svg">
  <g transform="matrix(1.0, 0.0, 0.0, 1.0, 68.7, 16.95)">
    <path d="M59.8 -5.3 Q62.25 -10.95 58.55 -14.0 L58.5 -15.2 Q74.35 -19.35 106.7 -13.65 103.1 -16.05 112.6 -9.9 L119.3 -10.2 132.75 -9.75 Q139.6 -9.05 154.65 -5.1 L160.5 -5.1 175.8 -2.75 Q159.95 2.5 184.5 12.5 L161.4 8.3 156.3 8.3 Q119.3 1.8 106.05 4.5 101.3 -0.45 92.4 -1.5 L73.7 -2.65 Q64.0 -2.75 60.65 -1.15 57.3 0.4 59.8 -5.3 M160.7 -2.45 L160.35 -2.4 160.2 -2.4 159.95 -1.95 158.65 6.15 Q158.55 6.45 158.75 6.65 L159.2 6.9 159.7 6.8 159.95 6.35 161.3 -1.7 161.15 -2.2 160.7 -2.45 M154.7 -3.05 L154.15 -2.9 153.95 -2.5 153.95 -2.05 154.0 -2.0 Q154.15 -1.75 154.5 -1.7 L157.15 -1.25 156.8 1.0 154.2 0.55 Q153.55 0.45 153.45 1.15 L152.8 4.85 Q152.7 5.5 153.4 5.6 L153.55 5.65 156.45 5.8 157.3 5.7 157.6 5.6 157.9 5.15 157.9 4.85 157.8 4.65 Q157.65 4.4 157.35 4.35 L156.65 4.4 154.95 4.45 154.25 4.35 154.65 2.0 157.25 2.4 Q157.9 2.5 158.0 1.85 L158.6 -1.7 Q158.7 -2.4 158.05 -2.5 L154.7 -3.05 M143.95 -5.4 L143.55 -5.7 143.05 -5.65 142.75 -5.2 140.95 2.7 Q140.85 2.95 141.05 3.2 L141.45 3.45 141.95 3.4 142.25 3.0 144.05 -4.9 143.95 -5.4 M137.35 -6.8 L136.85 -6.7 136.6 -6.3 136.65 -5.85 136.65 -5.8 137.05 -5.55 138.0 -5.35 137.95 -5.1 137.85 -4.7 137.3 -2.9 136.05 -0.6 135.4 0.15 135.1 0.5 134.95 0.7 Q134.8 0.95 135.0 1.25 L135.15 1.4 135.4 1.55 135.7 1.55 135.95 1.35 136.6 0.75 Q137.65 -0.45 138.4 -2.3 L139.05 -4.35 139.15 -5.0 139.25 -5.25 139.25 -5.35 139.3 -5.25 139.7 -4.95 140.5 -4.8 140.4 -4.3 140.25 -3.8 Q139.6 -1.6 138.75 -0.25 L138.1 0.65 137.7 1.1 137.55 1.35 137.6 1.85 137.95 2.1 138.0 2.15 138.35 2.1 138.6 1.95 139.3 1.1 Q140.3 -0.15 140.95 -1.85 L141.5 -3.55 141.8 -4.95 141.9 -5.1 Q142.0 -5.75 141.4 -5.85 L140.0 -6.15 139.5 -6.1 139.35 -5.95 138.9 -6.4 137.35 -6.8 M118.5 -0.3 L118.95 -0.1 124.3 -0.5 124.35 0.5 124.6 1.0 125.05 1.15 125.55 0.9 125.7 0.4 125.55 -1.3 Q125.5 -1.95 124.85 -1.9 L118.85 -1.45 Q118.55 -1.45 118.4 -1.2 L118.3 -0.7 118.5 -0.3 M121.0 -4.0 L121.05 -3.5 117.9 -3.25 Q117.55 -3.25 117.45 -3.05 L117.25 -2.55 117.5 -2.1 Q117.7 -1.9 118.0 -1.95 L125.6 -2.5 Q125.9 -2.55 126.1 -2.75 L126.25 -3.2 126.05 -3.7 125.5 -3.8 122.4 -3.6 122.35 -4.1 122.1 -4.55 121.65 -4.7 Q121.35 -4.7 121.2 -4.5 120.95 -4.3 121.0 -4.0 M118.3 -7.65 L117.85 -7.4 117.7 -6.9 117.9 -6.45 Q118.05 -6.25 118.35 -6.3 L120.55 -6.45 Q119.9 -5.9 118.6 -5.35 L118.1 -5.15 117.8 -5.0 117.65 -4.5 117.85 -4.05 Q118.05 -3.85 118.35 -3.85 L119.1 -4.1 Q120.6 -4.7 121.4 -5.6 122.6 -4.8 124.3 -4.45 L124.85 -4.35 Q125.2 -4.35 125.45 -4.6 L125.6 -5.1 125.35 -5.55 124.95 -5.7 124.55 -5.8 Q123.15 -6.1 122.3 -6.6 L124.6 -6.75 Q124.9 -6.8 125.05 -7.0 L125.2 -7.45 125.0 -7.95 124.45 -8.1 118.3 -7.65 M104.0 -4.2 L104.0 -4.7 103.6 -5.05 103.15 -5.1 102.75 -4.75 102.0 -3.15 Q101.75 -2.55 102.35 -2.25 L108.05 0.3 108.55 0.35 108.9 -0.05 108.95 -0.55 108.55 -0.9 103.55 -3.2 104.0 -4.2 M105.0 -6.45 L106.15 -9.0 108.0 -8.15 106.9 -5.65 105.0 -6.45 M111.15 -8.45 L110.8 -8.15 108.3 -2.6 108.3 -2.1 Q108.4 -1.85 108.65 -1.75 L109.15 -1.7 109.5 -2.05 112.0 -7.55 112.0 -8.1 111.65 -8.4 111.15 -8.45 M109.5 -8.2 Q109.75 -8.85 109.15 -9.1 L106.1 -10.5 Q105.45 -10.8 105.2 -10.15 L103.5 -6.4 Q103.2 -5.8 103.85 -5.55 L106.95 -4.15 Q107.55 -3.85 107.85 -4.45 L109.5 -8.2 M94.65 -13.05 L91.25 -13.45 90.75 -13.3 90.5 -12.85 90.65 -12.35 Q90.8 -12.15 91.1 -12.1 L93.8 -11.8 93.6 -9.5 90.95 -9.8 Q90.3 -9.9 90.2 -9.2 L89.8 -5.5 Q89.75 -4.85 90.4 -4.75 L93.45 -4.7 94.35 -4.85 94.6 -4.95 94.9 -5.4 94.8 -5.9 94.3 -6.15 93.65 -6.1 91.25 -6.0 91.5 -8.4 94.1 -8.1 Q94.75 -8.05 94.85 -8.7 L95.25 -12.35 Q95.3 -13.0 94.65 -13.05 M97.9 -12.45 L97.75 -12.95 97.3 -13.2 96.8 -13.05 96.55 -12.6 95.7 -4.5 Q95.65 -4.2 95.85 -3.95 96.0 -3.75 96.3 -3.75 L96.8 -3.9 97.0 -4.35 97.9 -12.45 M73.5 -7.4 Q73.7 -7.25 74.05 -7.25 L77.2 -7.3 77.25 -5.3 77.45 -4.85 77.9 -4.65 Q78.2 -4.65 78.4 -4.85 L78.5 -5.0 78.6 -5.35 78.55 -7.35 81.7 -7.45 82.15 -7.65 82.35 -8.1 82.15 -8.6 81.65 -8.8 74.0 -8.6 73.5 -8.35 Q73.35 -8.2 73.35 -7.9 73.35 -7.6 73.5 -7.4 M80.8 -13.4 Q80.0 -14.0 78.95 -13.95 L76.4 -13.9 Q75.35 -13.9 74.6 -13.25 73.75 -12.6 73.8 -11.55 73.8 -10.55 74.7 -9.95 75.45 -9.35 76.5 -9.35 L79.1 -9.45 Q80.1 -9.45 80.9 -10.05 81.65 -10.75 81.65 -11.8 81.6 -12.8 80.8 -13.4 M76.45 -12.55 L79.0 -12.65 79.9 -12.45 80.35 -11.75 Q80.35 -11.3 79.95 -11.05 L79.05 -10.8 76.5 -10.7 75.55 -10.9 Q75.15 -11.15 75.15 -11.6 75.15 -12.1 75.6 -12.35 L76.45 -12.55" fill="#0080ff" fill-rule="evenodd" stroke="none"/>
    <path d="M76.45 -12.55 L75.6 -12.35 Q75.15 -12.1 75.15 -11.6 75.15 -11.15 75.55 -10.9 L76.5 -10.7 79.05 -10.8 79.95 -11.05 Q80.35 -11.3 80.35 -11.75 L79.9 -12.45 79.0 -12.65 76.45 -12.55 M80.8 -13.4 Q81.6 -12.8 81.65 -11.8 81.65 -10.75 80.9 -10.05 80.1 -9.45 79.1 -9.45 L76.5 -9.35 Q75.45 -9.35 74.7 -9.95 73.8 -10.55 73.8 -11.55 73.75 -12.6 74.6 -13.25 75.35 -13.9 76.4 -13.9 L78.95 -13.95 Q80.0 -14.0 80.8 -13.4 M73.5 -7.4 Q73.35 -7.6 73.35 -7.9 73.35 -8.2 73.5 -8.35 L74.0 -8.6 81.65 -8.8 82.15 -8.6 82.35 -8.1 82.15 -7.65 81.7 -7.45 78.55 -7.35 78.6 -5.35 78.5 -5.0 78.4 -4.85 Q78.2 -4.65 77.9 -4.65 L77.45 -4.85 77.25 -5.3 77.2 -7.3 74.05 -7.25 Q73.7 -7.25 73.5 -7.4 M97.9 -12.45 L97.0 -4.35 96.8 -3.9 96.3 -3.75 Q96.0 -3.75 95.85 -3.95 95.65 -4.2 95.7 -4.5 L96.55 -12.6 96.8 -13.05 97.3 -13.2 97.75 -12.95 97.9 -12.45 M94.65 -13.05 Q95.3 -13.0 95.25 -12.35 L94.85 -8.7 Q94.75 -8.05 94.1 -8.1 L91.5 -8.4 91.25 -6.0 93.65 -6.1 94.3 -6.15 94.8 -5.9 94.9 -5.4 94.6 -4.95 94.35 -4.85 93.45 -4.7 90.4 -4.75 Q89.75 -4.85 89.8 -5.5 L90.2 -9.2 Q90.3 -9.9 90.95 -9.8 L93.6 -9.5 93.8 -11.8 91.1 -12.1 Q90.8 -12.15 90.65 -12.35 L90.5 -12.85 90.75 -13.3 91.25 -13.45 94.65 -13.05 M109.5 -8.2 L107.85 -4.45 Q107.55 -3.85 106.95 -4.15 L103.85 -5.55 Q103.2 -5.8 103.5 -6.4 L105.2 -10.15 Q105.45 -10.8 106.1 -10.5 L109.15 -9.1 Q109.75 -8.85 109.5 -8.2 M111.15 -8.45 L111.65 -8.4 112.0 -8.1 112.0 -7.55 109.5 -2.05 109.15 -1.7 108.65 -1.75 Q108.4 -1.85 108.3 -2.1 L108.3 -2.6 110.8 -8.15 111.15 -8.45 M105.0 -6.45 L106.9 -5.65 108.0 -8.15 106.15 -9.0 105.0 -6.45 M104.0 -4.2 L103.55 -3.2 108.55 -0.9 108.95 -0.55 108.9 -0.05 108.55 0.35 108.05 0.3 102.35 -2.25 Q101.75 -2.55 102.0 -3.15 L102.75 -4.75 103.15 -5.1 103.6 -5.05 104.0 -4.7 104.0 -4.2 M118.3 -7.65 L124.45 -8.1 125.0 -7.95 125.2 -7.45 125.05 -7.0 Q124.9 -6.8 124.6 -6.75 L122.3 -6.6 Q123.15 -6.1 124.55 -5.8 L124.95 -5.7 125.35 -5.55 125.6 -5.1 125.45 -4.6 Q125.2 -4.35 124.85 -4.35 L124.3 -4.45 Q122.6 -4.8 121.4 -5.6 120.6 -4.7 119.1 -4.1 L118.35 -3.85 Q118.05 -3.85 117.85 -4.05 L117.65 -4.5 117.8 -5.0 118.1 -5.15 118.6 -5.35 Q119.9 -5.9 120.55 -6.45 L118.35 -6.3 Q118.05 -6.25 117.9 -6.45 L117.7 -6.9 117.85 -7.4 118.3 -7.65 M121.0 -4.0 Q120.95 -4.3 121.2 -4.5 121.35 -4.7 121.65 -4.7 L122.1 -4.55 122.35 -4.1 122.4 -3.6 125.5 -3.8 126.05 -3.7 126.25 -3.2 126.1 -2.75 Q125.9 -2.55 125.6 -2.5 L118.0 -1.95 Q117.7 -1.9 117.5 -2.1 L117.25 -2.55 117.45 -3.05 Q117.55 -3.25 117.9 -3.25 L121.05 -3.5 121.0 -4.0 M118.5 -0.3 L118.3 -0.7 118.4 -1.2 Q118.55 -1.45 118.85 -1.45 L124.85 -1.9 Q125.5 -1.95 125.55 -1.3 L125.7 0.4 125.55 0.9 125.05 1.15 124.6 1.0 124.35 0.5 124.3 -0.5 118.95 -0.1 118.5 -0.3 M137.35 -6.8 L138.9 -6.4 139.35 -5.95 139.5 -6.1 140.0 -6.15 141.4 -5.85 Q142.0 -5.75 141.9 -5.1 L141.8 -4.95 141.5 -3.55 140.95 -1.85 Q140.3 -0.15 139.3 1.1 L138.6 1.95 138.35 2.1 138.0 2.15 137.95 2.1 137.6 1.85 137.55 1.35 137.7 1.1 138.1 0.65 138.75 -0.25 Q139.6 -1.6 140.25 -3.8 L140.4 -4.3 140.5 -4.8 139.7 -4.95 139.3 -5.25 139.25 -5.35 139.25 -5.25 139.15 -5.0 139.05 -4.35 138.4 -2.3 Q137.65 -0.45 136.6 0.75 L135.95 1.35 135.7 1.55 135.4 1.55 135.15 1.4 135.0 1.25 Q134.8 0.95 134.95 0.7 L135.1 0.5 135.4 0.15 136.05 -0.6 137.3 -2.9 137.85 -4.7 137.95 -5.1 138.0 -5.35 137.05 -5.55 136.65 -5.8 136.65 -5.85 136.6 -6.3 136.85 -6.7 137.35 -6.8 M143.95 -5.4 L144.05 -4.9 142.25 3.0 141.95 3.4 141.45 3.45 141.05 3.2 Q140.85 2.95 140.95 2.7 L142.75 -5.2 143.05 -5.65 143.55 -5.7 143.95 -5.4 M154.7 -3.05 L158.05 -2.5 Q158.7 -2.4 158.6 -1.7 L158.0 1.85 Q157.9 2.5 157.25 2.4 L154.65 2.0 154.25 4.35 154.95 4.45 156.65 4.4 157.35 4.35 Q157.65 4.4 157.8 4.65 L157.9 4.85 157.9 5.15 157.6 5.6 157.3 5.7 156.45 5.8 153.55 5.65 153.4 5.6 Q152.7 5.5 152.8 4.85 L153.45 1.15 Q153.55 0.45 154.2 0.55 L156.8 1.0 157.15 -1.25 154.5 -1.7 Q154.15 -1.75 154.0 -2.0 L153.95 -2.05 153.95 -2.5 154.15 -2.9 154.7 -3.05 M160.7 -2.45 L161.15 -2.2 161.3 -1.7 159.95 6.35 159.7 6.8 159.2 6.9 158.75 6.65 Q158.55 6.45 158.65 6.15 L159.95 -1.95 160.2 -2.4 160.35 -2.4 160.7 -2.45" fill="#ffffff" fill-rule="evenodd" stroke="none"/>
    <path d="M57.9 -15.2 L58.2 -15.15 58.3 -15.1 58.5 -14.95 58.5 -14.25 58.5 -13.8 58.55 -12.6 58.6 -7.7 58.8 1.4 58.8 1.7 58.85 3.9 58.9 5.9 58.9 6.0 58.9 7.4 57.75 6.55 57.3 -14.9 57.5 -15.1 57.9 -15.2" fill="#666666" fill-rule="evenodd" stroke="none"/>
    <path d="M401.1 71.85 L401.15 72.95 391.7 71.4 391.7 71.3 391.6 71.0 391.3 70.8 275.6 51.6 275.35 51.5 263.8 49.65 132.35 27.85 Q133.15 25.75 136.2 25.85 L278.85 50.85 278.9 50.85 279.1 50.85 288.5 52.55 288.55 52.55 313.05 56.85 313.4 56.75 313.55 56.55 401.1 71.85" fill="#6699ff" fill-rule="evenodd" stroke="none"/>
    <path d="M62.35 124.1 L62.3 124.35 62.15 124.15 61.9 123.8 61.8 123.65 61.95 123.65 62.2 123.75 62.4 124.0 62.4 124.05 62.35 124.1 M61.8 124.5 L61.9 124.65 61.8 124.65 61.75 124.65 61.5 124.55 61.35 124.3 61.35 124.25 61.45 124.0 61.8 124.5 M60.35 128.2 L60.6 128.35 60.75 128.55 60.55 128.95 60.25 128.45 60.1 128.2 60.25 128.2 60.35 128.2 M60.2 128.5 L60.25 128.55 60.3 128.6 60.35 128.7 60.4 128.9 60.4 128.95 60.4 129.15 60.45 129.1 60.55 129.05 60.45 129.2 60.35 129.2 60.25 129.3 59.9 129.45 59.65 129.4 59.65 129.35 59.6 129.35 59.55 129.3 59.45 129.15 56.3 129.95 44.15 132.25 23.05 136.15 Q10.3 138.4 -9.55 139.0 -29.55 139.6 -35.15 138.7 L-46.35 137.45 -51.8 136.3 Q-61.35 133.2 -61.65 130.45 L-64.25 126.55 Q-69.6 117.25 -64.2 103.65 L-64.0 103.9 -63.95 103.95 -63.85 104.05 -63.5 104.55 Q-68.35 117.3 -63.4 126.05 L-60.75 129.95 -60.65 130.25 Q-60.4 132.45 -51.5 135.35 L-46.25 136.45 -35.05 137.7 -35.0 137.7 Q-29.45 138.6 -9.6 138.0 10.15 137.4 22.85 135.15 L43.95 131.25 56.1 128.95 59.6 128.5 59.7 128.5 59.7 128.45 59.9 128.4 60.2 128.5 M60.2 128.55 L60.25 128.6 60.25 128.55 60.2 128.55 M59.45 129.05 L59.4 128.95 59.45 129.1 59.45 129.05" fill="#666666" fill-rule="evenodd" stroke="none"/>
    <path d="M279.85 58.3 L279.85 63.7 276.05 63.45 276.05 57.8 279.85 58.3 M269.9 57.0 L269.9 63.0 266.05 62.7 266.05 56.5 269.9 57.0 M254.25 54.95 L259.65 55.65 259.65 62.25 254.25 61.85 254.25 54.95 M247.05 61.3 L240.25 60.8 240.25 53.15 247.05 54.0 247.05 61.3 M305.65 65.65 L302.85 65.45 302.85 61.3 305.65 61.65 305.65 65.65 M298.25 60.7 L298.25 65.1 294.45 64.85 294.45 60.2 298.25 60.7 M177.15 44.9 L177.15 49.7 177.1 52.0 177.15 52.25 177.15 56.1 166.75 55.35 166.75 52.2 166.8 51.95 Q166.65 51.05 166.75 49.8 L166.75 43.6 177.15 44.9 M199.35 47.8 L199.35 49.8 199.3 52.0 199.35 52.25 199.35 57.75 189.75 57.05 189.75 52.3 189.85 52.2 189.85 51.9 Q189.65 51.0 189.75 49.8 L189.75 46.6 199.35 47.8 M219.25 52.25 L219.25 59.25 211.35 58.65 211.35 52.0 211.35 49.85 211.35 49.4 218.95 50.35 219.05 50.35 219.35 50.4 219.2 51.95 219.25 52.25 M152.55 41.7 L152.55 49.9 152.45 51.95 152.5 52.2 152.55 52.3 152.55 54.25 141.35 53.45 141.35 52.3 141.45 52.15 141.45 51.85 Q141.2 51.15 141.35 49.95 L141.35 40.35 152.55 41.7 M116.3 23.6 Q117.6 23.85 118.6 24.85 119.95 26.2 120.0 28.1 L120.0 30.35 120.0 30.7 120.0 31.0 120.0 31.5 Q119.9 32.75 119.25 33.75 L118.6 34.45 Q117.75 35.35 116.65 35.7 L115.3 35.85 115.25 35.85 Q113.55 35.85 112.25 34.8 L111.9 34.45 110.9 33.0 110.55 31.5 110.55 31.0 110.55 30.7 110.55 30.35 110.55 28.1 Q110.6 26.2 111.9 24.85 L113.05 24.05 Q114.05 23.5 115.2 23.55 L115.3 23.5 116.3 23.6 M78.3 29.25 Q77.0 27.95 76.95 26.05 L76.95 22.85 Q77.0 21.0 78.3 19.65 L79.45 18.85 Q80.45 18.3 81.6 18.35 L81.7 18.3 Q83.65 18.3 85.0 19.65 L85.55 20.3 85.6 20.4 Q86.35 21.45 86.4 22.85 L86.4 26.05 Q86.35 27.95 85.0 29.25 83.65 30.65 81.7 30.65 L81.65 30.65 Q80.25 30.65 79.2 29.95 L78.65 29.6 78.3 29.25 M95.45 32.0 L95.1 31.65 Q93.85 30.4 93.75 28.7 L93.75 28.35 93.75 26.7 93.75 26.35 93.75 25.3 Q93.8 23.4 95.1 22.05 L96.0 21.4 96.25 21.25 Q97.05 20.8 98.0 20.75 L98.4 20.75 98.5 20.75 98.5 20.7 100.4 21.1 Q101.15 21.4 101.8 22.05 103.0 23.25 103.2 24.9 L103.2 25.3 103.2 27.95 103.2 28.3 103.2 28.35 103.2 28.7 102.8 30.3 101.8 31.65 Q100.45 33.05 98.5 33.05 L98.45 33.05 Q97.4 33.05 96.5 32.65 L95.8 32.25 95.45 32.0" fill="#686780" fill-rule="evenodd" stroke="none"/>
    <path d="M33.05 75.85 L33.9 76.45 34.0 76.5 Q37.1 78.85 37.1 82.2 37.1 85.55 34.0 87.9 L33.9 88.0 33.05 88.55 32.7 88.6 Q31.5 88.6 30.65 86.75 29.85 84.85 29.85 82.2 29.85 79.55 30.65 77.7 31.5 75.8 32.7 75.8 L33.05 75.85" fill="#040404" fill-rule="evenodd" stroke="none"/>
    <path d="M390.9 86.35 L401.4 85.75 401.5 90.3 62.35 124.1 62.4 124.05 62.4 124.0 62.2 123.75 61.95 123.65 65.3 114.6 Q66.3 111.75 67.95 110.4 L68.9 110.3 309.5 90.9 333.65 89.2 390.9 86.35 M62.15 124.15 L61.9 124.15 61.8 124.15 61.9 123.8 62.15 124.15 M69.55 118.45 Q71.8 117.8 70.5 118.15 L69.55 118.45 M51.2 124.75 L51.2 124.8 51.1 124.85 51.15 124.8 51.2 124.75" fill="url(#gradient0)" fill-rule="evenodd" stroke="none"/>
    <path d="M372.5 66.6 L391.15 69.55 391.2 69.55 391.2 69.9 372.5 66.6 M-61.95 67.8 L-61.7 67.35 -61.65 67.4 -61.9 67.8 -61.95 67.8 M44.7 18.0 L44.7 17.95 44.7 18.0 M33.9 76.45 L34.0 76.5 33.9 76.45 M34.0 87.9 L33.9 88.0 34.0 87.9" fill="url(#gradient1)" fill-rule="evenodd" stroke="none"/>
    <path d="M54.35 10.6 Q55.2 11.9 54.6 14.1 53.25 18.5 52.35 19.65 L48.45 19.8 43.6 18.45 43.65 18.5 43.55 18.45 43.5 18.45 37.95 17.4 32.3 16.65 32.2 16.65 28.75 16.5 24.75 16.3 15.25 16.75 20.25 9.3 Q26.7 7.9 35.85 7.6 45.0 7.25 50.95 8.9 L51.0 8.9 Q53.45 9.3 54.35 10.6 M44.7 18.0 L44.7 17.95 44.7 18.0 M38.75 16.45 L38.8 16.5 38.8 16.45 38.75 16.45 M38.15 16.7 L38.1 16.8 38.15 16.8 38.15 16.7" fill="url(#gradient2)" fill-rule="evenodd" stroke="none"/>
    <path d="M-6.85 19.8 L-6.75 19.75 -6.5 19.35 -6.25 19.05 -6.1 18.95 -6.1 18.85 -5.25 17.65 -5.15 17.7 -5.1 17.65 -4.0 16.1 -3.85 16.1 -3.5 16.0 Q-1.7 14.45 1.75 13.15 L4.45 12.2 4.55 12.15 5.85 11.75 5.95 11.7 8.5 10.95 11.25 10.15 11.3 10.15 12.7 9.8 7.45 17.0 4.15 17.75 3.95 17.85 2.35 18.15 2.3 18.15 2.25 18.2 -0.2 18.7 -4.0 19.55 -4.4 19.6 -4.6 19.65 -4.75 19.7 -5.1 19.8 -5.1 19.75 -6.7 20.15 -6.8 20.2 -6.9 20.25 -7.15 20.35 -7.3 20.4 -6.85 19.8" fill="url(#gradient3)" fill-rule="evenodd" stroke="none"/>
    <path d="M16.6 68.5 L16.5 68.45 16.6 68.5" fill="url(#gradient4)" fill-rule="evenodd" stroke="none"/>
    <path d="M21.4 89.25 L19.1 87.9 Q16.0 85.55 16.0 82.2 16.0 81.1 16.35 80.1 17.05 78.05 19.1 76.5 L19.35 76.3 Q20.25 75.7 21.25 75.25 30.3 80.45 21.4 89.25" fill="url(#gradient5)" fill-rule="evenodd" stroke="none"/>
    <path d="M21.25 75.25 Q23.6 74.15 26.55 74.15 30.25 74.15 33.05 75.85 L32.7 75.8 Q31.5 75.8 30.65 77.7 29.85 79.55 29.85 82.2 29.85 84.85 30.65 86.75 31.5 88.6 32.7 88.6 L33.05 88.55 Q30.25 90.25 26.55 90.25 23.7 90.25 21.4 89.25 30.3 80.45 21.25 75.25" fill="url(#gradient6)" fill-rule="evenodd" stroke="none"/>
    <path d="M46.05 35.5 Q40.05 38.25 27.0 36.6 L27.05 36.65 Q-5.0 28.05 -26.05 32.55 L-14.4 24.8 Q13.85 15.75 50.7 26.15 51.6 32.85 46.05 35.5" fill="url(#gradient7)" fill-rule="evenodd" stroke="none"/>
    <path d="M-33.9 114.65 L-34.0 114.7 -33.95 114.45 -33.8 114.45 -33.6 114.35 -33.5 114.3 Q-32.45 114.2 -33.9 114.65" fill="url(#gradient8)" fill-rule="evenodd" stroke="none"/>
    <path d="M-30.3 113.9 L-30.6 113.85 -30.6 113.75 -30.85 113.5 -31.25 113.45 -32.8 113.85 -32.7 113.95 -32.55 114.3 -33.9 114.65 Q-32.45 114.2 -33.5 114.3 L-33.6 114.35 -33.8 114.45 -33.95 114.45 -33.95 114.4 -34.0 114.2 -34.05 114.2 -33.4 113.95 -33.4 114.05 -32.8 113.85 -33.05 113.8 -33.5 113.8 -33.55 113.8 -33.8 113.9 -33.9 113.95 -35.9 113.95 -37.3 113.95 -37.5 113.95 -38.45 114.0 -38.5 114.0 Q-43.55 114.25 -49.05 113.0 -54.6 111.65 -56.25 110.45 L-59.7 107.4 -63.25 103.2 -63.45 103.05 -63.8 102.6 -63.8 102.55 -65.5 99.4 -66.6 96.6 -67.25 94.0 -67.7 90.8 -67.45 84.7 Q-65.7 74.05 -61.75 68.55 L-61.65 68.2 -61.85 67.85 -61.6 67.45 -61.3 67.55 -60.95 67.4 -60.8 67.05 -60.75 67.0 -60.85 67.3 Q-56.55 61.25 -51.5 58.3 -46.0 55.05 -37.2 56.4 L-34.6 57.0 Q-27.1 59.25 -19.25 69.2 -11.45 79.1 -15.4 92.85 -19.45 106.6 -23.6 109.6 -27.95 112.55 -30.0 113.4 L-30.2 113.6 -30.3 113.9 M-28.9 89.85 L-28.85 89.85 -28.9 89.85 M-29.7 92.15 L-29.65 92.15 -29.7 92.15" fill="url(#gradient9)" fill-rule="evenodd" stroke="none"/>
    <path d="M-7.4 20.4 L-6.85 19.8 -7.3 20.4 -7.4 20.4 M-61.65 67.4 L-61.6 67.45 -61.85 67.85 -61.9 67.8 -61.65 67.4" fill="url(#gradient10)" fill-rule="evenodd" stroke="none"/>
    <path d="M166.5 24.05 L176.75 26.0 180.05 26.65 180.15 26.65 207.75 32.0 210.1 32.5 219.1 34.2 220.4 34.4 262.95 42.55 270.95 44.1 310.0 51.55 Q315.25 52.7 310.5 52.2 L300.0 50.8 300.6 50.7 299.2 50.7 297.05 50.65 287.1 48.9 285.05 48.5 118.4 17.95 Q118.15 16.95 118.3 16.4 118.9 16.1 142.25 20.15 L148.25 20.85 156.0 22.05 166.5 24.05" fill="#d0e8ea" fill-rule="evenodd" stroke="none"/>
    <path d="M291.55 52.05 L288.7 51.55 282.35 50.4 297.05 50.65 299.2 50.7 300.6 50.7 300.0 50.8 Q299.7 50.9 300.05 51.1 L300.8 51.6 291.55 52.05 M260.4 50.15 L263.65 50.65 271.9 52.0 220.25 52.0 220.25 51.85 220.35 50.6 220.45 50.15 220.3 49.85 225.4 49.85 260.4 50.15 M210.35 49.8 L210.35 52.0 200.35 52.0 200.3 51.8 200.35 49.8 210.35 49.8 M165.75 49.75 Q165.65 50.95 165.8 51.85 L165.75 52.0 153.55 52.0 153.5 51.8 153.55 49.85 165.75 49.75 M178.15 52.0 L178.1 51.8 178.15 49.7 178.3 49.7 188.75 49.75 Q188.65 50.9 188.8 51.8 L188.75 52.0 178.15 52.0 M140.35 49.9 Q140.2 51.05 140.4 51.85 L140.35 52.0 117.0 52.0 116.6 50.5 Q117.15 50.1 140.35 49.9" fill="#ffffff" fill-rule="evenodd" stroke="none"/>
    <path d="M310.0 51.55 L391.15 67.1 391.1 67.75 313.6 56.3 313.5 56.1 313.2 55.85 291.55 52.05 300.8 51.6 300.05 51.1 Q299.7 50.9 300.0 50.8 L310.5 52.2 Q315.25 52.7 310.0 51.55 M282.35 50.4 L279.25 49.85 279.15 49.85 279.0 49.85 136.35 24.85 136.3 24.85 Q131.95 24.7 131.25 28.15 L131.25 28.4 131.4 28.65 131.65 28.75 260.4 50.15 225.4 49.85 220.3 49.85 220.1 49.65 Q219.85 49.45 219.2 49.35 L219.1 49.35 219.05 49.35 210.9 48.3 210.65 48.35 210.45 48.55 210.35 48.8 210.35 49.8 200.35 49.8 200.35 47.35 200.25 47.05 199.95 46.85 189.35 45.5 189.05 45.55 188.85 45.75 188.75 46.0 188.75 49.75 178.3 49.7 178.15 49.7 178.15 44.45 178.05 44.15 177.75 43.95 166.35 42.5 166.05 42.55 165.85 42.75 165.75 43.0 165.75 49.75 153.55 49.85 153.55 41.25 153.45 40.95 153.1 40.75 140.9 39.25 140.65 39.3 140.45 39.5 140.35 39.75 140.35 49.9 Q117.15 50.1 116.6 50.5 L117.0 52.0 140.35 52.0 140.35 53.9 140.5 54.25 140.85 54.4 153.05 55.3 153.3 55.25 153.5 55.05 153.55 54.8 153.55 52.0 165.75 52.0 165.75 55.8 165.9 56.15 Q166.0 56.3 166.25 56.3 L177.65 57.15 177.9 57.1 178.1 56.9 178.15 56.65 178.15 52.0 188.75 52.0 188.75 57.5 188.9 57.85 189.2 58.0 199.8 58.8 200.1 58.75 200.3 58.55 200.35 58.3 200.35 52.0 210.35 52.0 210.35 59.1 210.5 59.45 210.8 59.6 219.7 60.3 220.0 60.25 220.2 60.05 220.25 59.8 220.25 52.0 271.9 52.0 274.55 52.4 274.8 52.5 390.7 71.75 390.45 84.15 389.35 83.9 389.05 83.95 388.85 84.15 388.8 84.3 309.45 89.9 309.4 89.9 68.8 109.3 17.0 114.5 Q-10.8 115.2 -13.6 114.65 L-19.35 114.1 -28.0 113.55 -23.05 110.45 -23.05 110.4 Q-18.65 107.4 -14.45 93.15 -10.35 78.9 -18.45 68.6 -26.5 58.35 -34.3 56.05 L-37.05 55.4 Q-46.3 53.95 -52.0 57.45 -54.75 59.0 -57.25 61.5 L-52.25 55.95 -46.05 49.1 -41.0 44.05 -38.35 41.6 -37.75 41.1 -37.5 40.95 -34.8 38.65 -34.8 38.6 -28.5 34.15 -28.35 34.1 Q-6.9 28.55 26.8 37.6 L26.85 37.6 Q40.3 39.3 46.45 36.4 52.85 33.4 51.65 25.7 L51.55 25.45 51.3 25.3 Q16.35 15.35 -10.95 22.75 -8.65 21.45 -7.9 21.4 L-7.5 21.4 -6.85 21.3 -6.25 21.15 -5.9 21.05 -5.65 20.95 -4.9 20.75 -4.85 20.75 -4.6 20.7 -4.35 20.65 -4.2 20.6 -4.0 20.55 -3.85 20.55 0.0 19.7 2.4 19.15 2.5 19.15 4.25 18.8 4.4 18.75 7.9 17.9 8.15 17.7 14.25 9.35 14.35 9.1 14.3 8.8 14.05 8.6 13.8 8.55 10.95 9.2 11.0 9.2 8.2 10.0 8.25 10.0 5.75 10.7 5.5 10.8 4.35 11.15 4.05 11.25 1.4 12.2 Q-0.55 12.9 -2.0 13.75 L0.4 11.1 3.9 8.55 Q8.5 5.7 23.4 3.25 38.3 0.75 60.6 3.65 L166.5 24.05 156.0 22.05 148.25 20.85 142.25 20.15 Q118.9 16.1 118.3 16.4 118.15 16.95 118.4 17.95 L285.05 48.5 287.1 48.9 297.05 50.65 282.35 50.4 M176.75 26.0 L180.15 26.65 180.05 26.65 176.75 26.0 M207.75 32.0 L218.15 34.0 218.1 33.95 218.15 33.95 218.2 34.0 218.7 34.05 218.75 34.1 218.85 34.1 218.95 34.15 220.4 34.4 219.1 34.2 210.1 32.5 207.75 32.0 M275.05 57.2 L275.05 63.9 275.2 64.25 275.55 64.4 280.35 64.75 280.6 64.7 280.8 64.5 280.85 64.25 280.85 57.85 280.75 57.55 Q280.6 57.4 280.45 57.35 L275.65 56.7 275.35 56.75 275.15 56.95 275.05 57.2 M265.35 55.45 L265.15 55.65 265.05 55.9 265.05 63.15 265.2 63.5 265.5 63.65 270.35 64.05 270.65 64.0 270.85 63.8 270.9 63.55 270.9 56.55 270.8 56.25 270.5 56.05 265.65 55.4 265.35 55.45 M260.25 54.7 L253.85 53.85 253.55 53.9 253.35 54.1 253.25 54.35 253.25 62.3 253.4 62.65 253.75 62.8 260.15 63.25 260.4 63.2 260.6 63.0 260.65 62.75 260.65 55.2 260.55 54.9 260.25 54.7 M247.65 53.05 L239.85 52.05 239.55 52.1 239.35 52.3 239.25 52.55 239.25 61.25 239.4 61.6 239.7 61.75 247.5 62.35 247.8 62.3 248.0 62.1 248.05 61.85 248.05 53.55 247.95 53.25 247.65 53.05 M306.25 60.7 L302.45 60.2 302.15 60.25 301.95 60.45 301.85 60.7 301.85 65.9 302.0 66.25 302.3 66.4 306.1 66.7 306.4 66.65 306.6 66.45 306.65 66.2 306.65 61.2 306.55 60.9 Q306.4 60.75 306.25 60.7 M306.15 70.0 L306.15 69.05 306.15 70.0 M293.75 59.15 L293.55 59.35 293.45 59.6 293.45 65.3 293.6 65.65 Q293.7 65.8 293.95 65.8 L298.75 66.15 299.0 66.1 299.2 65.9 299.25 65.65 299.25 60.25 299.15 59.95 298.85 59.75 294.05 59.1 293.75 59.15 M302.35 70.0 L302.35 68.35 302.35 70.0 M116.3 23.6 L115.3 23.5 115.2 23.55 Q114.05 23.5 113.05 24.05 L111.9 24.85 Q110.6 26.2 110.55 28.1 L110.55 30.35 110.55 30.7 110.55 31.0 110.55 31.5 110.9 33.0 111.9 34.45 112.25 34.8 Q113.55 35.85 115.25 35.85 L115.3 35.85 116.65 35.7 Q117.75 35.35 118.6 34.45 L119.25 33.75 Q119.9 32.75 120.0 31.5 L120.0 31.0 120.0 30.7 120.0 30.35 120.0 28.1 Q119.95 26.2 118.6 24.85 117.6 23.85 116.3 23.6 M85.55 20.3 L85.0 19.65 Q83.65 18.3 81.7 18.3 L81.6 18.35 Q80.45 18.3 79.45 18.85 L78.3 19.65 Q77.0 21.0 76.95 22.85 L76.95 26.05 Q77.0 27.95 78.3 29.25 L78.2 29.45 78.6 29.7 79.2 29.95 Q80.25 30.65 81.65 30.65 L81.7 30.65 Q83.65 30.65 85.0 29.25 86.35 27.95 86.4 26.05 L86.4 22.85 Q86.35 21.45 85.6 20.4 L85.6 20.2 85.55 20.3 M103.2 24.9 Q103.0 23.25 101.8 22.05 101.15 21.4 100.4 21.1 L98.5 20.7 98.5 20.75 98.4 20.75 98.0 20.75 Q97.05 20.8 96.25 21.25 L96.0 21.4 95.1 22.05 Q93.8 23.4 93.75 25.3 L93.75 26.35 93.75 26.7 93.75 28.35 93.75 28.7 Q93.85 30.4 95.1 31.65 L95.45 32.0 95.4 32.25 95.8 32.25 96.5 32.65 Q97.4 33.05 98.45 33.05 L98.5 33.05 Q100.45 33.05 101.8 31.65 L102.8 30.3 103.2 28.7 103.2 28.35 103.2 28.3 103.2 27.95 103.2 25.3 103.2 24.9 M51.2 7.95 Q45.1 6.25 35.8 6.6 26.45 6.9 19.85 8.35 L19.55 8.6 14.4 16.25 13.65 17.0 13.5 17.25 13.55 17.55 13.75 17.8 14.05 17.85 24.7 17.3 28.65 17.5 32.15 17.65 37.8 18.4 43.3 19.4 43.4 19.45 43.5 19.5 Q45.9 20.0 48.2 20.8 L48.4 20.8 52.6 20.65 52.9 20.5 Q54.0 19.5 55.55 14.4 56.35 11.65 55.2 10.05 54.1 8.4 51.15 7.9 L51.2 7.95 M16.6 68.5 L16.5 68.45 16.6 68.5 M21.25 75.25 Q20.25 75.7 19.35 76.3 L19.1 76.5 Q17.05 78.05 16.35 80.1 16.0 81.1 16.0 82.2 16.0 85.55 19.1 87.9 L21.4 89.25 Q23.7 90.25 26.55 90.25 30.25 90.25 33.05 88.55 L33.9 88.0 34.0 87.9 Q37.1 85.55 37.1 82.2 37.1 78.85 34.0 76.5 L33.9 76.45 33.05 75.85 Q30.25 74.15 26.55 74.15 23.6 74.15 21.25 75.25 M67.8 88.7 Q66.45 84.1 69.45 79.5 66.45 84.1 67.8 88.7 M74.45 88.3 Q73.3 84.05 75.85 79.8 73.3 84.05 74.45 88.3 M71.3 88.5 Q70.05 84.05 72.8 79.65 70.05 84.05 71.3 88.5 M59.9 89.25 Q58.35 84.45 61.4 79.65 L61.75 79.15 61.4 79.65 Q58.35 84.45 59.9 89.25 M55.35 89.5 Q53.5 84.2 57.4 78.95 53.5 84.2 55.35 89.5 M50.35 89.85 Q48.25 84.3 52.55 78.75 48.25 84.3 50.35 89.85 M-6.5 21.15 L-6.45 21.15 -6.6 21.15 -6.5 21.15" fill="url(#gradient11)" fill-rule="evenodd" stroke="none"/>
    <path d="M-5.25 17.65 L-5.3 17.6 -5.3 17.5 -4.2 15.95 -4.35 15.6 Q-4.35 15.35 -4.15 15.25 L-2.7 14.15 0.25 10.9 3.75 8.35 Q8.4 5.5 23.35 3.0 38.3 0.45 60.65 3.4 L218.7 33.8 218.75 33.8 218.85 33.85 218.9 33.85 218.95 33.85 391.3 66.9 391.35 66.95 391.4 67.0 391.35 67.9 391.3 68.0 391.25 68.05 391.2 68.05 322.7 57.9 372.5 66.6 391.2 69.9 401.1 71.6 401.1 71.85 313.55 56.55 313.4 56.75 313.05 56.85 288.55 52.55 288.5 52.55 279.1 50.85 278.9 50.85 278.85 50.85 136.2 25.85 Q133.15 25.75 132.35 27.85 L263.8 49.65 275.35 51.5 275.6 51.6 391.3 70.8 391.6 71.0 391.7 71.3 391.7 71.4 391.45 84.75 391.4 85.05 391.15 85.2 390.95 85.25 390.9 85.25 389.65 85.0 389.6 85.1 389.25 85.25 333.65 89.2 309.5 90.9 68.9 110.3 67.95 110.4 17.05 115.5 Q-11.0 116.2 -13.8 115.65 L-19.35 115.1 -29.85 114.35 -30.15 114.2 -30.3 113.95 -30.3 113.9 -30.2 113.6 -30.0 113.4 Q-27.95 112.55 -23.6 109.6 -19.45 106.6 -15.4 92.85 -11.45 79.1 -19.25 69.2 -27.1 59.25 -34.6 57.0 L-37.2 56.4 Q-46.0 55.05 -51.5 58.3 -56.55 61.25 -60.85 67.3 L-60.75 67.0 -60.8 67.05 -60.95 67.4 -61.3 67.55 -61.6 67.45 -61.65 67.4 -61.7 67.35 -61.8 67.3 -61.95 67.0 -61.85 66.7 -59.0 62.2 Q-57.85 60.35 -53.0 55.25 L-46.8 48.45 Q-45.35 46.65 -41.7 43.3 L-39.0 40.85 -38.3 40.3 -38.05 40.15 Q-36.55 38.55 -35.35 37.8 L-29.05 33.35 -28.9 33.25 -14.9 23.95 -14.9 23.9 Q-9.2 20.35 -7.9 20.4 L-7.5 20.4 -7.4 20.4 -7.3 20.4 -7.15 20.35 -6.9 20.25 -6.8 20.2 -6.7 20.15 -5.1 19.75 -5.1 19.8 -4.75 19.7 -4.6 19.65 -4.4 19.6 -4.0 19.55 -0.2 18.7 2.25 18.2 2.3 18.15 2.35 18.15 3.95 17.85 4.15 17.75 7.45 17.0 12.7 9.8 11.3 10.15 11.25 10.15 8.5 10.95 5.95 11.7 5.85 11.75 4.55 12.15 4.45 12.2 1.75 13.15 Q-1.7 14.45 -3.5 16.0 L-3.85 16.1 -4.0 16.1 -5.1 17.65 -5.15 17.7 -5.25 17.65 M-64.2 103.65 L-64.6 103.15 Q-65.6 101.75 -66.4 99.8 L-67.55 96.9 -68.25 94.2 -68.7 90.85 -68.45 84.6 -68.45 84.55 Q-66.6 73.65 -62.55 67.95 L-62.2 67.75 -61.95 67.8 -61.9 67.8 -61.85 67.85 -61.65 68.2 -61.75 68.55 Q-65.7 74.05 -67.45 84.7 L-67.7 90.8 -67.25 94.0 -66.6 96.6 -65.5 99.4 -63.8 102.55 -63.8 102.6 -63.45 103.05 -63.25 103.2 -59.7 107.4 -56.25 110.45 Q-54.6 111.65 -49.05 113.0 -43.55 114.25 -38.5 114.0 L-38.45 114.0 -37.5 113.95 -37.3 113.95 -35.9 113.95 -33.9 113.95 -33.8 113.9 -33.55 113.8 -33.5 113.8 -33.05 113.8 -32.8 113.85 -33.4 114.05 -33.4 113.95 -34.05 114.2 -34.0 114.2 -33.95 114.4 -33.95 114.45 -34.0 114.7 -34.05 114.75 -34.3 114.95 -34.4 114.95 -34.35 114.95 -34.65 115.05 -34.85 115.05 -34.7 115.45 -34.75 115.45 -35.1 115.4 -35.35 115.15 -35.4 114.95 -35.9 114.95 -37.3 114.95 -37.5 114.95 -38.4 115.0 Q-43.65 115.25 -49.3 113.95 -55.1 112.55 -56.85 111.25 L-60.4 108.1 -63.5 104.55 -63.85 104.05 -63.95 103.95 -64.0 103.9 -64.2 103.65 M291.55 52.05 L313.2 55.85 313.5 56.1 313.6 56.3 391.1 67.75 391.15 67.1 310.0 51.55 270.95 44.1 262.95 42.55 220.4 34.4 218.95 34.15 218.85 34.1 218.75 34.1 218.7 34.05 218.2 34.0 218.15 33.95 218.1 33.95 218.15 34.0 207.75 32.0 180.15 26.65 176.75 26.0 166.5 24.05 60.6 3.65 Q38.3 0.75 23.4 3.25 8.5 5.7 3.9 8.55 L0.4 11.1 -2.0 13.75 Q-0.55 12.9 1.4 12.2 L4.05 11.25 4.35 11.15 5.5 10.8 5.75 10.7 8.25 10.0 8.2 10.0 11.0 9.2 10.95 9.2 13.8 8.55 14.05 8.6 14.3 8.8 14.35 9.1 14.25 9.35 8.15 17.7 7.9 17.9 4.4 18.75 4.25 18.8 2.5 19.15 2.4 19.15 0.0 19.7 -3.85 20.55 -4.0 20.55 -4.2 20.6 -4.35 20.65 -4.6 20.7 -4.85 20.75 -4.9 20.75 -5.65 20.95 -5.9 21.05 -6.25 21.15 -6.85 21.3 -7.5 21.4 -7.9 21.4 Q-8.65 21.45 -10.95 22.75 16.35 15.35 51.3 25.3 L51.55 25.45 51.65 25.7 Q52.85 33.4 46.45 36.4 40.3 39.3 26.85 37.6 L26.8 37.6 Q-6.9 28.55 -28.35 34.1 L-28.5 34.15 -34.8 38.6 -34.8 38.65 -37.5 40.95 -37.75 41.1 -38.35 41.6 -41.0 44.05 -46.05 49.1 -52.25 55.95 -57.25 61.5 Q-54.75 59.0 -52.0 57.45 -46.3 53.95 -37.05 55.4 L-34.3 56.05 Q-26.5 58.35 -18.45 68.6 -10.35 78.9 -14.45 93.15 -18.65 107.4 -23.05 110.4 L-23.05 110.45 -28.0 113.55 -19.35 114.1 -13.6 114.65 Q-10.8 115.2 17.0 114.5 L68.8 109.3 309.4 89.9 309.45 89.9 388.8 84.3 388.85 84.15 389.05 83.95 389.35 83.9 390.45 84.15 390.7 71.75 274.8 52.5 274.55 52.4 271.9 52.0 263.65 50.65 260.4 50.15 131.65 28.75 131.4 28.65 131.25 28.4 131.25 28.15 Q131.95 24.7 136.3 24.85 L136.35 24.85 279.0 49.85 279.15 49.85 279.25 49.85 282.35 50.4 288.7 51.55 291.55 52.05 M275.05 57.2 L275.15 56.95 275.35 56.75 275.65 56.7 280.45 57.35 Q280.6 57.4 280.75 57.55 L280.85 57.85 280.85 64.25 280.8 64.5 280.6 64.7 280.35 64.75 275.55 64.4 275.2 64.25 275.05 63.9 275.05 57.2 M279.85 58.3 L276.05 57.8 276.05 63.45 279.85 63.7 279.85 58.3 M265.35 55.45 L265.65 55.4 270.5 56.05 270.8 56.25 270.9 56.55 270.9 63.55 270.85 63.8 270.65 64.0 270.35 64.05 265.5 63.65 265.2 63.5 265.05 63.15 265.05 55.9 265.15 55.65 265.35 55.45 M269.9 57.0 L266.05 56.5 266.05 62.7 269.9 63.0 269.9 57.0 M260.25 54.7 L260.55 54.9 260.65 55.2 260.65 62.75 260.6 63.0 260.4 63.2 260.15 63.25 253.75 62.8 253.4 62.65 253.25 62.3 253.25 54.35 253.35 54.1 253.55 53.9 253.85 53.85 260.25 54.7 M254.25 54.95 L254.25 61.85 259.65 62.25 259.65 55.65 254.25 54.95 M247.65 53.05 L247.95 53.25 248.05 53.55 248.05 61.85 248.0 62.1 247.8 62.3 247.5 62.35 239.7 61.75 239.4 61.6 239.25 61.25 239.25 52.55 239.35 52.3 239.55 52.1 239.85 52.05 247.65 53.05 M247.05 61.3 L247.05 54.0 240.25 53.15 240.25 60.8 247.05 61.3 M306.25 60.7 Q306.4 60.75 306.55 60.9 L306.65 61.2 306.65 66.2 306.6 66.45 306.4 66.65 306.1 66.7 302.3 66.4 302.0 66.25 301.85 65.9 301.85 60.7 301.95 60.45 302.15 60.25 302.45 60.2 306.25 60.7 M305.65 65.65 L305.65 61.65 302.85 61.3 302.85 65.45 305.65 65.65 M298.25 60.7 L294.45 60.2 294.45 64.85 298.25 65.1 298.25 60.7 M293.75 59.15 L294.05 59.1 298.85 59.75 299.15 59.95 299.25 60.25 299.25 65.65 299.2 65.9 299.0 66.1 298.75 66.15 293.95 65.8 Q293.7 65.8 293.6 65.65 L293.45 65.3 293.45 59.6 293.55 59.35 293.75 59.15 M210.35 49.8 L210.35 48.8 210.45 48.55 210.65 48.35 210.9 48.3 219.05 49.35 219.1 49.35 219.2 49.35 Q219.85 49.45 220.1 49.65 L220.3 49.85 220.45 50.15 220.35 50.6 220.25 51.85 220.25 52.0 220.25 59.8 220.2 60.05 220.0 60.25 219.7 60.3 210.8 59.6 210.5 59.45 210.35 59.1 210.35 52.0 210.35 49.8 M165.75 49.75 L165.75 43.0 165.85 42.75 166.05 42.55 166.35 42.5 177.75 43.95 178.05 44.15 178.15 44.45 178.15 49.7 178.1 51.8 178.15 52.0 178.15 56.65 178.1 56.9 177.9 57.1 177.65 57.15 166.25 56.3 Q166.0 56.3 165.9 56.15 L165.75 55.8 165.75 52.0 165.8 51.85 Q165.65 50.95 165.75 49.75 M188.75 49.75 L188.75 46.0 188.85 45.75 189.05 45.55 189.35 45.5 199.95 46.85 200.25 47.05 200.35 47.35 200.35 49.8 200.3 51.8 200.35 52.0 200.35 58.3 200.3 58.55 200.1 58.75 199.8 58.8 189.2 58.0 188.9 57.85 188.75 57.5 188.75 52.0 188.8 51.8 Q188.65 50.9 188.75 49.75 M199.35 47.8 L189.75 46.6 189.75 49.8 Q189.65 51.0 189.85 51.9 L189.85 52.2 189.75 52.3 189.75 57.05 199.35 57.75 199.35 52.25 199.3 52.0 199.35 49.8 199.35 47.8 M177.15 44.9 L166.75 43.6 166.75 49.8 Q166.65 51.05 166.8 51.95 L166.75 52.2 166.75 55.35 177.15 56.1 177.15 52.25 177.1 52.0 177.15 49.7 177.15 44.9 M219.25 52.25 L219.2 51.95 219.35 50.4 219.05 50.35 218.95 50.35 211.35 49.4 211.35 49.85 211.35 52.0 211.35 58.65 219.25 59.25 219.25 52.25 M140.35 49.9 L140.35 39.75 140.45 39.5 140.65 39.3 140.9 39.25 153.1 40.75 153.45 40.95 153.55 41.25 153.55 49.85 153.5 51.8 153.55 52.0 153.55 54.8 153.5 55.05 153.3 55.25 153.05 55.3 140.85 54.4 140.5 54.25 140.35 53.9 140.35 52.0 140.4 51.85 Q140.2 51.05 140.35 49.9 M152.55 41.7 L141.35 40.35 141.35 49.95 Q141.2 51.15 141.45 51.85 L141.45 52.15 141.35 52.3 141.35 53.45 152.55 54.25 152.55 52.3 152.5 52.2 152.45 51.95 152.55 49.9 152.55 41.7 M51.2 7.95 L51.15 7.9 Q54.1 8.4 55.2 10.05 56.35 11.65 55.55 14.4 54.0 19.5 52.9 20.5 L52.6 20.65 48.4 20.8 48.2 20.8 Q45.9 20.0 43.5 19.5 L43.4 19.45 43.3 19.4 37.8 18.4 32.15 17.65 28.65 17.5 24.7 17.3 14.05 17.85 13.75 17.8 13.55 17.55 13.5 17.25 13.65 17.0 14.4 16.25 19.55 8.6 19.85 8.35 Q26.45 6.9 35.8 6.6 45.1 6.25 51.2 7.95 M54.35 10.6 Q53.45 9.3 51.0 8.9 L50.95 8.9 Q45.0 7.25 35.85 7.6 26.7 7.9 20.25 9.3 L15.25 16.75 24.75 16.3 28.75 16.5 32.2 16.65 32.3 16.65 37.95 17.4 43.5 18.45 43.55 18.45 43.65 18.5 43.6 18.45 48.45 19.8 52.35 19.65 Q53.25 18.5 54.6 14.1 55.2 11.9 54.35 10.6 M46.05 35.5 Q51.6 32.85 50.7 26.15 13.85 15.75 -14.4 24.8 L-26.05 32.55 Q-5.0 28.05 27.05 36.65 L27.0 36.6 Q40.05 38.25 46.05 35.5 M-30.6 113.85 L-30.65 114.15 -30.95 114.4 -34.3 115.3 -33.8 115.15 -33.75 115.15 -32.75 114.75 -32.55 114.5 -32.55 114.3 -32.7 113.95 -32.8 113.85 -31.25 113.45 -30.85 113.5 -30.6 113.75 -30.6 113.85 M-6.5 21.15 L-6.6 21.15 -6.45 21.15 -6.5 21.15 M-33.4 114.7 L-33.3 114.7 -33.25 114.7 -33.25 114.75 -33.15 114.8 -33.35 114.8 -33.45 114.8 -33.5 114.8 -33.35 114.75 -33.4 114.7" fill="#9f9f9f" fill-rule="evenodd" stroke="none"/>
    <path d="M61.9 124.15 L61.8 124.5 61.45 124.0 61.35 124.25 61.35 124.3 61.5 124.55 61.75 124.65 60.35 128.2 60.25 128.2 60.1 128.2 60.25 128.45 60.2 128.5 59.9 128.4 59.7 128.45 59.7 128.5 59.6 128.5 56.1 128.95 43.95 131.25 22.85 135.15 Q10.15 137.4 -9.6 138.0 -29.45 138.6 -35.0 137.7 L-35.05 137.7 -46.25 136.45 -51.5 135.35 Q-60.4 132.45 -60.65 130.25 L-60.75 129.95 -63.4 126.05 Q-68.35 117.3 -63.5 104.55 L-60.4 108.1 -56.85 111.25 Q-55.1 112.55 -49.3 113.95 -43.65 115.25 -38.4 115.0 L-37.5 114.95 -37.3 114.95 -35.9 114.95 -35.4 114.95 -35.35 115.15 -35.1 115.4 -34.75 115.45 -34.7 115.45 -34.85 115.05 -34.65 115.05 -34.35 114.95 -34.4 114.95 -34.3 114.95 -34.05 114.75 -34.0 114.7 -32.55 114.3 -32.55 114.5 -32.75 114.75 -33.75 115.15 -33.8 115.15 -34.3 115.3 -30.95 114.4 -30.65 114.15 -30.6 113.85 -30.3 113.9 -30.3 113.95 -30.15 114.2 -29.85 114.35 -19.35 115.1 -13.8 115.65 Q-11.0 116.2 17.05 115.5 L67.95 110.4 Q66.3 111.75 65.3 114.6 L61.95 123.65 61.8 123.65 61.9 123.8 61.8 124.15 61.9 124.15 M51.15 124.8 L51.1 124.85 51.2 124.8 51.2 124.75 51.2 124.65 51.15 124.8 M-33.4 114.7 L-33.35 114.75 -33.5 114.8 -33.45 114.8 -33.35 114.8 -33.15 114.8 -33.25 114.75 -33.25 114.7 -33.3 114.7 -33.4 114.7" fill="url(#gradient12)" fill-rule="evenodd" stroke="none"/>
    <path d="M391.15 69.55 L391.2 69.55 391.2 69.9 M390.95 85.25 L390.9 86.35" fill="none" stroke="#000000" stroke-linecap="round" stroke-linejoin="round" stroke-width="0.1"/>
    <path d="M401.15 72.95 L391.7 71.4 M-61.95 67.8 L-61.7 67.35 M-6.25 19.05 L-6.1 18.85 M95.45 32.0 L95.8 32.25 M103.2 25.3 L103.2 24.9 M-61.9 67.8 L-61.65 67.4 M-61.85 67.85 L-61.6 67.45" fill="none" stroke="#9f9f9f" stroke-linecap="round" stroke-linejoin="round" stroke-width="0.1"/>
    <path d="M306.15 69.05 L306.15 70.0 M302.35 68.35 L302.35 70.0 M116.3 23.6 Q117.6 23.85 118.6 24.85 119.95 26.2 120.0 28.1 L120.0 30.35 120.0 30.7 120.0 31.0 120.0 31.5 Q119.9 32.75 119.25 33.75 L118.6 34.45 Q117.75 35.35 116.65 35.7 L115.3 35.85 115.25 35.85 Q113.55 35.85 112.25 34.8 L111.9 34.45 110.9 33.0 110.55 31.5 110.55 31.0 110.55 30.7 110.55 30.35 110.55 28.1 Q110.6 26.2 111.9 24.85 L113.05 24.05 Q114.05 23.5 115.2 23.55 L115.3 23.5 116.3 23.6 M85.55 20.3 L85.0 19.65 Q83.65 18.3 81.7 18.3 L81.6 18.35 Q80.45 18.3 79.45 18.85 L78.3 19.65 Q77.0 21.0 76.95 22.85 L76.95 26.05 Q77.0 27.95 78.3 29.25 L78.2 29.45 78.6 29.7 79.2 29.95 Q80.25 30.65 81.65 30.65 L81.7 30.65 Q83.65 30.65 85.0 29.25 86.35 27.95 86.4 26.05 L86.4 22.85 Q86.35 21.45 85.6 20.4 M85.55 20.3 L85.6 20.2 85.6 20.4 M103.2 24.9 Q103.0 23.25 101.8 22.05 101.15 21.4 100.4 21.1 L98.5 20.7 98.5 20.75 98.4 20.75 98.0 20.75 Q97.05 20.8 96.25 21.25 L96.0 21.4 95.1 22.05 Q93.8 23.4 93.75 25.3 L93.75 26.35 93.75 26.7 93.75 28.35 93.75 28.7 Q93.85 30.4 95.1 31.65 L95.45 32.0 95.4 32.25 95.8 32.25 96.5 32.65 Q97.4 33.05 98.45 33.05 L98.5 33.05 Q100.45 33.05 101.8 31.65 L102.8 30.3 103.2 28.7 103.2 28.35 103.2 28.3 103.2 27.95 103.2 25.3 M103.2 24.9 L103.2 25.3 M21.4 89.25 L19.1 87.9 Q16.0 85.55 16.0 82.2 16.0 81.1 16.35 80.1 17.05 78.05 19.1 76.5 L19.35 76.3 Q20.25 75.7 21.25 75.25 23.6 74.15 26.55 74.15 30.25 74.15 33.05 75.85 L33.9 76.45 34.0 76.5 Q37.1 78.85 37.1 82.2 37.1 85.55 34.0 87.9 L33.9 88.0 33.05 88.55 Q30.25 90.25 26.55 90.25 23.7 90.25 21.4 89.25 M52.55 78.75 Q48.25 84.3 50.35 89.85 M57.4 78.95 Q53.5 84.2 55.35 89.5 M61.75 79.15 L61.4 79.65 Q58.35 84.45 59.9 89.25 M72.8 79.65 Q70.05 84.05 71.3 88.5 M75.85 79.8 Q73.3 84.05 74.45 88.3 M69.45 79.5 Q66.45 84.1 67.8 88.7" fill="none" stroke="#9f9f9f" stroke-linecap="round" stroke-linejoin="round" stroke-width="1.0"/>
    <path d="M78.3 29.25 L78.65 29.6 79.2 29.95 M85.6 20.4 L85.55 20.3" fill="none" stroke="#666666" stroke-linecap="round" stroke-linejoin="round" stroke-width="0.5"/>
    <path d="M-30.3 113.9 L-30.6 113.85 M51.15 124.8 L51.1 124.85 51.2 124.8 51.2 124.75 M51.15 124.8 L51.2 124.65 51.2 124.75" fill="none" stroke="#666666" stroke-linecap="round" stroke-linejoin="round" stroke-width="1.0"/>
    <path d="M26.45 84.9 Q25.15 86.15 23.4 86.15 21.6 86.15 20.3 84.9 19.0 83.6 19.05 81.8 19.0 80.0 20.3 78.75 21.6 77.45 23.4 77.45 25.15 77.45 26.45 78.75 27.75 80.0 27.75 81.8 27.75 83.6 26.45 84.9" fill="url(#gradient13)" fill-rule="evenodd" stroke="none"/>
    <path d="M39.6 121.85 L39.85 121.55 40.2 121.45 40.45 121.55 40.45 121.8 37.85 128.4 37.6 128.7 37.25 128.8 37.0 128.75 37.0 128.45 39.6 121.85 M38.25 122.1 L38.45 121.8 Q38.6 121.65 38.8 121.65 L39.05 121.75 39.1 122.05 36.45 128.6 36.2 128.9 35.85 129.05 35.6 128.95 35.6 128.7 38.25 122.1 M36.85 122.3 L37.1 122.05 37.4 121.85 Q37.6 121.85 37.7 122.0 L37.7 122.25 35.05 128.85 34.8 129.15 34.5 129.25 34.25 129.2 34.2 128.9 36.85 122.3 M36.25 122.35 L36.25 122.6 33.6 129.25 33.4 129.5 33.05 129.65 32.8 129.55 32.8 129.3 35.45 122.65 35.65 122.4 35.95 122.25 36.25 122.35 M34.6 122.45 L34.85 122.6 34.85 122.85 32.25 129.45 32.0 129.7 31.65 129.85 31.4 129.75 31.4 129.5 34.05 122.9 34.25 122.6 Q34.4 122.45 34.6 122.45 M32.65 123.1 L32.9 122.85 Q33.05 122.7 33.25 122.7 L33.5 122.8 33.5 123.05 30.85 129.65 30.6 129.95 30.3 130.05 30.0 130.0 Q29.95 129.9 30.05 129.75 L32.65 123.1 M31.5 123.05 Q31.65 122.9 31.85 122.9 L32.1 123.0 32.1 123.3 29.45 129.9 29.25 130.2 28.9 130.3 28.65 130.2 28.65 129.95 31.25 123.35 Q31.3 123.15 31.5 123.05 M50.9 119.7 L51.25 119.55 51.5 119.65 51.55 119.95 48.9 126.55 48.65 126.85 48.3 126.95 48.05 126.85 48.05 126.6 50.7 120.0 50.9 119.7 M52.65 119.35 L52.9 119.45 52.9 119.7 50.3 126.3 50.05 126.6 49.7 126.7 49.45 126.65 49.45 126.35 52.05 119.75 52.3 119.45 52.65 119.35 M46.7 120.5 L47.05 120.4 47.3 120.5 47.3 120.75 44.7 127.35 44.45 127.65 44.1 127.75 43.85 127.7 43.85 127.4 46.5 120.8 46.7 120.5 M50.1 119.9 L50.15 120.15 47.5 126.75 47.25 127.05 46.9 127.15 46.7 127.1 46.65 126.8 49.3 120.2 49.5 119.95 Q49.65 119.8 49.85 119.8 L50.1 119.9 M48.15 120.15 Q48.3 120.0 48.5 120.0 L48.75 120.1 48.75 120.35 46.15 127.0 45.85 127.25 45.55 127.4 45.3 127.3 45.3 127.05 47.9 120.45 48.15 120.15 M45.1 121.05 L45.35 120.75 45.65 120.6 45.9 120.7 45.9 121.0 43.3 127.6 43.05 127.85 42.7 128.0 42.45 127.9 42.45 127.65 45.1 121.05 M43.95 120.95 Q44.1 120.8 44.3 120.8 L44.55 120.9 44.55 121.2 41.9 127.8 41.7 128.1 41.35 128.2 41.1 128.15 41.1 127.85 43.7 121.25 43.95 120.95 M41.25 121.35 Q41.4 121.2 41.6 121.2 L41.85 121.3 41.85 121.6 39.2 128.2 39.0 128.45 38.65 128.6 38.4 128.5 38.4 128.25 41.0 121.6 41.25 121.35 M42.55 121.2 Q42.7 121.05 42.9 121.05 L43.15 121.15 43.2 121.4 40.55 128.05 40.3 128.3 39.95 128.45 Q39.75 128.45 39.7 128.35 L39.7 128.1 42.35 121.45 42.55 121.2" fill="#244566" fill-rule="evenodd" stroke="none"/>
  </g>
  <defs>
    <linearGradient gradientTransform="matrix(-0.0663, -0.0246, 0.0052, -0.014, 64.65, 182.55)" gradientUnits="userSpaceOnUse" id="gradient0" spreadMethod="pad" x1="-819.2" x2="819.2">
      <stop offset="0.0" stop-color="#213e58"/>
      <stop offset="0.7372549019607844" stop-color="#274b70"/>
      <stop offset="0.9529411764705882" stop-color="#245e97"/>
      <stop offset="1.0" stop-color="#6595c5"/>
    </linearGradient>
    <linearGradient gradientTransform="matrix(0.0918, 0.1308, -0.0529, 0.0371, 63.8, 64.2)" gradientUnits="userSpaceOnUse" id="gradient1" spreadMethod="pad" x1="-819.2" x2="819.2">
      <stop offset="0.1803921568627451" stop-color="#ffffff"/>
      <stop offset="0.25098039215686274" stop-color="#e7e7e7"/>
      <stop offset="0.47843137254901963" stop-color="#ffffff"/>
    </linearGradient>
    <linearGradient gradientTransform="matrix(0.0256, 0.0128, -0.4459, 0.8923, 95.75, -126.4)" gradientUnits="userSpaceOnUse" id="gradient2" spreadMethod="pad" x1="-819.2" x2="819.2">
      <stop offset="0.0" stop-color="#040404"/>
      <stop offset="0.07058823529411765" stop-color="#757575"/>
      <stop offset="0.21176470588235294" stop-color="#000000"/>
      <stop offset="0.3803921568627451" stop-color="#000000"/>
      <stop offset="0.5372549019607843" stop-color="#0b0b0b"/>
      <stop offset="0.8156862745098039" stop-color="#6d6c86"/>
      <stop offset="1.0" stop-color="#040406"/>
    </linearGradient>
    <linearGradient gradientTransform="matrix(0.0045, 0.0031, -0.5621, 0.8239, 91.6, -112.75)" gradientUnits="userSpaceOnUse" id="gradient3" spreadMethod="pad" x1="-819.2" x2="819.2">
      <stop offset="0.3843137254901961" stop-color="#040404"/>
      <stop offset="0.4470588235294118" stop-color="#65647c"/>
      <stop offset="0.5137254901960784" stop-color="#000000"/>
      <stop offset="0.6784313725490196" stop-color="#6d6c86"/>
      <stop offset="0.8313725490196079" stop-color="#040406"/>
    </linearGradient>
    <linearGradient gradientTransform="matrix(0.0, 0.0097, -0.0098, 0.0, 11.75, 74.2)" gradientUnits="userSpaceOnUse" id="gradient4" spreadMethod="pad" x1="-819.2" x2="819.2">
      <stop offset="0.0" stop-color="#040404"/>
      <stop offset="0.07058823529411765" stop-color="#757575"/>
      <stop offset="0.1843137254901961" stop-color="#919191"/>
      <stop offset="0.3803921568627451" stop-color="#000000"/>
      <stop offset="0.596078431372549" stop-color="#0b0b0b"/>
      <stop offset="0.796078431372549" stop-color="#919191"/>
      <stop offset="0.9215686274509803" stop-color="#7b7b7b"/>
      <stop offset="1.0" stop-color="#050505"/>
    </linearGradient>
    <linearGradient gradientTransform="matrix(0.0, -0.0079, 0.006, 0.0, 20.9, 82.1)" gradientUnits="userSpaceOnUse" id="gradient5" spreadMethod="pad" x1="-819.2" x2="819.2">
      <stop offset="0.0" stop-color="#575757"/>
      <stop offset="0.16862745098039217" stop-color="#c2c2c2"/>
      <stop offset="0.23921568627450981" stop-color="#676767"/>
      <stop offset="0.33725490196078434" stop-color="#acacac"/>
      <stop offset="0.5686274509803921" stop-color="#767676"/>
      <stop offset="0.7294117647058823" stop-color="#a92c2c"/>
      <stop offset="0.8941176470588236" stop-color="#8e8e8e"/>
      <stop offset="1.0" stop-color="#040404"/>
    </linearGradient>
    <linearGradient gradientTransform="matrix(0.0, 0.0097, -0.0098, 0.0, 29.15, 82.2)" gradientUnits="userSpaceOnUse" id="gradient6" spreadMethod="pad" x1="-819.2" x2="819.2">
      <stop offset="0.0" stop-color="#040404"/>
      <stop offset="0.07058823529411765" stop-color="#757575"/>
      <stop offset="0.21176470588235294" stop-color="#000000"/>
      <stop offset="0.3803921568627451" stop-color="#000000"/>
      <stop offset="0.596078431372549" stop-color="#0b0b0b"/>
      <stop offset="0.7607843137254902" stop-color="#000000"/>
      <stop offset="0.9215686274509803" stop-color="#7b7b7b"/>
      <stop offset="1.0" stop-color="#050505"/>
    </linearGradient>
    <linearGradient gradientTransform="matrix(0.0043, 0.0075, -0.0099, 0.0057, -6.4, 30.05)" gradientUnits="userSpaceOnUse" id="gradient7" spreadMethod="pad" x1="-819.2" x2="819.2">
      <stop offset="0.0" stop-color="#f2f2f2"/>
      <stop offset="0.2196078431372549" stop-color="#dddddd"/>
      <stop offset="1.0" stop-color="#ffffff"/>
    </linearGradient>
    <linearGradient gradientTransform="matrix(0.0507, 0.0209, -0.0067, 0.0162, -33.1, 156.1)" gradientUnits="userSpaceOnUse" id="gradient8" spreadMethod="pad" x1="-819.2" x2="819.2">
      <stop offset="0.0" stop-color="#213e58"/>
      <stop offset="0.08627450980392157" stop-color="#274b70"/>
      <stop offset="0.15294117647058825" stop-color="#3e77bb"/>
      <stop offset="0.2980392156862745" stop-color="#4e82c0"/>
      <stop offset="1.0" stop-color="#6a9aca"/>
    </linearGradient>
    <radialGradient cx="0" cy="0" gradientTransform="matrix(0.0939, -0.0605, 0.0282, 0.0438, -57.6, 72.0)" gradientUnits="userSpaceOnUse" id="gradient9" r="819.2" spreadMethod="pad">
      <stop offset="0.0" stop-color="#fea3a3"/>
      <stop offset="0.19215686274509805" stop-color="#ff0000"/>
      <stop offset="0.48627450980392156" stop-color="#ff0000"/>
      <stop offset="1.0" stop-color="#feaeae"/>
    </radialGradient>
    <linearGradient gradientTransform="matrix(0.0918, 0.1308, -0.0529, 0.0371, 72.35, 94.5)" gradientUnits="userSpaceOnUse" id="gradient10" spreadMethod="pad" x1="-819.2" x2="819.2">
      <stop offset="0.01568627450980392" stop-color="#80aecc"/>
      <stop offset="0.13333333333333333" stop-color="#ffffff"/>
      <stop offset="0.3176470588235294" stop-color="#ffffff"/>
      <stop offset="0.6745098039215687" stop-color="#ffffff"/>
      <stop offset="1.0" stop-color="#e7e7e7"/>
    </linearGradient>
    <linearGradient gradientTransform="matrix(0.0027, 0.0553, -0.2759, 0.0134, 62.25, 65.05)" gradientUnits="userSpaceOnUse" id="gradient11" spreadMethod="pad" x1="-819.2" x2="819.2">
      <stop offset="0.0" stop-color="#d0e8ea"/>
      <stop offset="0.27058823529411763" stop-color="#ffffff"/>
      <stop offset="0.7764705882352941" stop-color="#ffffff"/>
      <stop offset="1.0" stop-color="#b7b7b7"/>
    </linearGradient>
    <linearGradient gradientTransform="matrix(0.0755, 0.0201, -0.0045, 0.0169, -41.8, 165.65)" gradientUnits="userSpaceOnUse" id="gradient12" spreadMethod="pad" x1="-819.2" x2="819.2">
      <stop offset="0.0" stop-color="#213e58"/>
      <stop offset="0.20392156862745098" stop-color="#274b70"/>
      <stop offset="0.30196078431372547" stop-color="#3e77bb"/>
      <stop offset="0.36470588235294116" stop-color="#76a2cd"/>
      <stop offset="0.788235294117647" stop-color="#2e5e7c"/>
      <stop offset="0.9607843137254902" stop-color="#6a9aca"/>
      <stop offset="1.0" stop-color="#8eb3d7"/>
    </linearGradient>
    <radialGradient cx="0" cy="0" gradientTransform="matrix(0.0056, 0.0, 0.0, 0.0056, 23.35, 81.8)" gradientUnits="userSpaceOnUse" id="gradient13" r="819.2" spreadMethod="pad">
      <stop offset="0.2549019607843137" stop-color="#ff6c00"/>
      <stop offset="1.0" stop-color="#ff7a18" stop-opacity="0.0"/>
    </radialGradient>
  </defs>
</svg>
