<?xml version="1.0" encoding="UTF-8" standalone="no"?>
<svg xmlns:xlink="http://www.w3.org/1999/xlink" height="40.9px" width="307.9px" xmlns="http://www.w3.org/2000/svg">
  <g transform="matrix(1.0, 0.0, 0.0, 1.0, -2.8, -5.1)">
    <path d="M5.8 34.95 Q9.1 30.0 18.5 20.05 28.9 8.95 57.75 6.1 L310.35 24.0 310.65 32.95 11.0 34.0 Q7.65 34.0 5.8 34.95" fill="#6699ff" fill-rule="evenodd" stroke="none"/>
    <path d="M5.55 35.35 L5.8 34.95 Q7.65 34.0 11.0 34.0 L310.65 32.95 310.7 34.6 283.85 35.35 283.7 35.15 Q283.4 34.85 283.0 34.85 L26.5 43.65 8.0 44.0 7.9 43.95 Q5.15 43.0 4.9 40.55 L4.9 40.45 4.9 40.4 4.85 39.4 4.8 39.25 5.6 36.1 5.55 35.35 M4.5 39.85 L3.85 39.05 4.8 39.15 4.5 39.85" fill="#0142a0" fill-rule="evenodd" stroke="none"/>
    <path d="M4.7 34.8 Q7.9 29.8 17.75 19.35 28.3 7.95 57.65 5.1 L57.75 5.1 310.35 22.95 310.35 24.0 57.75 6.1 Q28.9 8.95 18.5 20.05 9.1 30.0 5.8 34.95 L5.55 35.35 5.4 35.15 5.15 34.95 4.95 34.85 4.7 34.8 M310.7 34.6 L310.7 35.55 283.9 36.35 284.0 35.85 284.0 35.8 283.85 35.35 310.7 34.6" fill="#9f9f9f" fill-rule="evenodd" stroke="none"/>
    <path d="M4.7 34.8 L4.95 34.85 5.15 34.95 5.4 35.15 5.55 35.35 5.6 36.1 4.8 39.25 4.85 39.4 4.9 40.4 4.9 40.45 4.9 40.55 Q5.15 43.0 7.9 43.95 L8.0 44.0 26.5 43.65 283.0 34.85 Q283.4 34.85 283.7 35.15 L283.85 35.35 284.0 35.8 284.0 35.85 283.9 36.35 283.75 36.55 Q283.45 36.85 283.05 36.85 L26.55 45.65 8.05 46.0 8.0 46.0 7.5 46.0 6.8 45.7 Q3.2 44.25 2.9 40.75 L2.9 40.65 2.9 40.45 2.85 39.55 2.8 39.3 2.8 39.25 2.85 39.35 2.8 39.15 2.85 38.9 2.95 38.4 3.7 35.55 Q3.8 35.15 4.2 34.95 L4.7 34.8 M4.5 39.85 L4.8 39.15 3.85 39.05 4.5 39.85" fill="#777777" fill-rule="evenodd" stroke="none"/>
  </g>
</svg>
