<?xml version="1.0" encoding="UTF-8" standalone="no"?>
<svg xmlns:xlink="http://www.w3.org/1999/xlink" height="21.15px" width="128.3px" xmlns="http://www.w3.org/2000/svg">
  <g transform="matrix(1.0, 0.0, 0.0, 1.0, -161.85, -65.05)">
    <path d="M266.95 70.65 L266.85 71.3 266.45 71.55 261.35 71.35 260.95 71.0 260.75 70.4 Q260.7 69.95 260.9 69.8 261.0 69.5 261.3 69.5 L266.4 69.75 266.8 70.1 266.95 70.65 M267.0 72.75 L266.9 73.25 266.5 73.55 262.0 73.5 262.05 73.9 266.5 73.95 Q266.75 73.8 266.95 74.25 L267.1 74.8 266.95 75.45 266.6 75.7 264.6 75.65 264.6 76.1 267.1 76.15 Q267.3 76.0 267.5 76.3 L267.65 77.0 267.5 77.6 267.2 77.85 260.85 77.9 260.4 77.75 260.25 77.0 Q260.2 76.55 260.4 76.35 260.5 76.0 260.8 76.1 L263.5 76.1 263.45 75.65 261.5 75.6 Q260.9 75.5 260.9 74.7 L260.85 72.65 Q260.8 71.65 261.4 71.75 L266.45 71.9 Q266.7 71.8 266.85 72.2 L267.0 72.75 M278.35 70.5 L278.6 70.35 278.65 70.35 278.7 70.35 278.95 70.5 279.1 71.1 279.25 75.25 279.15 75.85 278.85 76.1 278.55 75.85 278.4 75.25 278.25 71.05 Q278.15 70.6 278.35 70.5 M275.65 70.25 Q276.35 70.2 276.9 71.15 277.35 71.85 277.45 73.25 277.45 74.4 277.05 75.25 276.55 76.0 275.9 76.05 275.15 76.05 274.65 75.3 274.05 74.3 274.05 73.15 273.95 71.8 274.5 71.1 274.95 70.15 275.65 70.25 M275.3 74.15 L275.85 74.35 276.35 74.05 276.55 73.25 276.2 72.25 275.75 71.95 Q275.4 71.9 275.2 72.35 274.95 72.5 275.0 73.2 275.0 73.7 275.3 74.15 M244.2 70.85 L244.05 70.05 Q244.0 69.55 244.2 69.3 244.3 69.0 244.7 69.0 L251.05 69.3 251.55 69.65 251.8 70.4 251.6 71.05 251.1 71.35 248.65 71.3 248.6 71.35 Q249.6 72.8 250.95 73.85 L251.65 74.35 251.95 74.7 252.15 75.25 252.0 75.9 251.5 76.2 250.75 75.85 Q249.15 74.7 248.05 73.1 247.2 74.6 245.5 75.8 L244.9 76.1 244.55 76.15 244.15 75.85 Q243.85 75.5 243.9 75.2 243.85 74.6 244.05 74.5 L244.4 74.2 Q244.6 74.05 244.95 73.85 246.8 72.45 247.35 71.25 L244.8 71.25 244.2 70.85 M263.0 78.25 L265.1 78.25 266.4 78.45 Q267.05 78.9 267.1 80.2 267.15 82.1 265.25 82.4 L263.2 82.5 Q261.1 82.4 261.05 80.4 261.05 79.05 261.75 78.55 262.15 78.15 263.0 78.25 M262.2 80.4 Q262.2 80.7 263.15 80.85 L265.2 80.65 Q266.05 80.5 266.05 80.25 266.0 79.85 265.15 79.9 L263.1 79.9 Q262.15 79.85 262.2 80.4 M252.7 78.15 L252.5 78.9 252.05 79.25 248.9 79.25 249.05 82.3 248.85 83.05 248.35 83.35 Q248.05 83.35 247.85 83.1 247.6 82.8 247.65 82.45 L247.55 79.25 244.2 79.4 243.7 79.05 Q243.4 78.65 243.45 78.3 243.4 77.8 243.65 77.5 243.75 77.15 244.15 77.2 L252.0 77.2 252.5 77.5 252.7 78.15 M278.45 77.75 L274.9 77.85 Q274.6 77.8 274.55 77.55 L274.4 77.0 274.55 76.5 Q274.6 76.2 274.85 76.3 L278.95 76.25 Q279.25 76.15 279.35 76.95 L279.4 79.0 Q279.4 79.7 279.05 79.8 L275.45 79.85 275.5 80.35 279.2 80.3 279.5 80.55 279.65 81.05 279.5 81.55 279.3 81.8 275.0 82.0 Q274.55 81.9 274.55 81.25 L274.5 79.15 Q274.45 78.3 274.9 78.35 L278.5 78.3 278.45 77.75 M287.6 71.1 L287.75 71.65 287.75 72.15 289.15 72.2 Q289.3 72.05 289.45 72.4 L289.6 72.95 289.5 73.4 289.2 73.65 285.65 73.6 285.3 73.35 285.2 72.8 285.3 72.25 Q285.35 71.9 285.55 72.05 L287.0 72.15 287.0 71.6 287.1 71.1 Q287.15 70.85 287.35 70.9 L287.6 71.1 M289.65 76.45 L289.65 77.2 Q289.45 77.95 288.95 78.35 L288.05 78.7 288.05 79.5 289.8 79.45 290.05 79.65 290.15 80.15 290.15 80.4 290.1 80.7 289.9 80.95 285.55 81.1 285.25 80.9 285.1 80.35 285.2 79.8 285.5 79.55 287.3 79.55 287.25 78.75 Q285.45 78.5 285.45 76.5 285.3 74.85 286.1 74.5 286.55 74.1 287.45 74.2 288.3 74.15 288.85 74.55 289.55 74.95 289.65 76.45 M288.85 76.2 Q288.6 75.6 287.55 75.75 286.35 75.6 286.25 76.2 286.15 76.1 286.2 76.45 286.15 77.1 287.6 77.2 288.9 77.1 288.9 76.5 L288.85 76.2 M189.8 70.9 Q189.4 70.45 189.4 70.0 189.35 69.3 189.95 68.95 L191.15 67.7 Q192.05 66.75 192.75 66.75 194.1 66.85 194.1 68.4 L194.25 83.1 193.9 84.3 192.95 84.7 Q191.6 84.7 191.65 83.35 L191.55 70.65 Q191.15 71.25 190.6 71.25 L189.8 70.9 M165.55 72.9 Q166.45 71.75 168.05 72.0 170.6 71.9 171.8 74.4 172.75 75.9 172.75 78.45 172.75 81.1 171.3 83.4 170.0 86.0 167.4 86.2 163.7 86.3 162.45 82.6 161.8 80.6 161.85 77.05 161.8 76.55 161.9 76.1 161.75 64.6 167.8 65.05 169.4 65.0 170.95 66.45 172.3 67.65 172.4 69.35 L172.0 70.55 170.95 71.05 Q170.25 70.95 169.9 70.15 L168.85 68.75 Q168.35 68.4 167.75 68.4 165.9 68.25 165.55 72.9 M181.35 82.5 Q181.85 81.85 182.75 81.85 183.5 81.7 184.2 82.4 184.7 82.85 184.7 83.7 184.7 84.45 184.15 85.2 183.55 85.8 182.75 85.95 L181.35 85.4 Q180.65 84.7 180.65 83.85 180.6 82.95 181.35 82.5 M167.75 75.1 Q166.6 74.9 165.9 76.3 165.3 77.0 165.3 78.3 165.3 79.9 165.75 81.3 166.25 83.05 167.4 83.15 168.35 82.9 169.1 81.25 L169.45 78.75 169.05 76.35 Q168.5 74.9 167.75 75.1 M223.45 70.65 L222.75 70.2 Q222.4 69.75 222.5 69.4 222.4 68.9 222.75 68.6 222.9 68.05 223.45 68.2 L228.55 68.5 Q228.9 68.4 229.15 68.85 L229.4 69.65 229.2 70.4 228.6 70.85 227.15 70.75 226.95 74.05 Q227.85 78.1 229.45 81.15 L229.75 81.65 229.95 81.95 230.0 82.35 229.75 83.05 229.15 83.45 Q228.65 83.45 228.35 82.95 L227.95 82.3 Q226.8 80.15 226.15 77.7 225.55 80.3 224.45 82.45 L224.0 83.15 223.3 83.7 Q222.9 83.65 222.65 83.4 222.3 82.95 222.35 82.6 222.3 82.3 222.4 82.25 L222.55 81.9 Q222.6 81.6 222.8 81.4 224.4 78.3 225.05 74.15 L225.4 70.65 223.45 70.65 M231.05 68.4 Q231.25 68.05 231.65 68.15 L232.2 68.5 232.55 69.3 232.65 75.15 233.25 75.15 Q233.6 75.05 233.8 75.5 L234.05 76.25 233.85 77.1 233.25 77.4 232.7 77.4 232.85 82.9 232.6 83.8 232.0 84.1 231.4 83.85 Q231.1 83.45 231.15 82.95 L230.8 69.2 Q230.7 68.55 231.05 68.4 M209.2 67.9 L209.6 68.8 Q209.5 69.95 208.45 69.9 L205.65 69.8 Q205.5 69.8 205.65 70.05 205.5 70.85 205.5 73.25 205.75 72.55 206.65 72.8 208.35 72.75 209.3 74.75 209.9 76.1 209.95 78.2 209.95 80.45 209.3 81.95 208.3 84.0 206.45 84.1 205.05 84.15 203.95 83.0 202.85 81.65 202.95 80.2 202.8 78.85 203.9 78.95 204.55 78.75 204.8 79.65 205.3 81.6 206.25 81.75 207.8 81.55 207.8 78.35 L207.5 76.1 Q207.2 75.0 206.6 75.15 206.05 75.05 205.85 75.6 205.55 75.55 205.35 76.45 L204.3 77.3 Q203.85 77.25 203.55 77.0 203.05 76.6 203.2 76.1 203.05 74.65 203.2 72.55 L203.4 69.05 Q203.35 67.25 205.05 67.4 L208.35 67.55 Q208.75 67.5 209.2 67.9" fill="#5afefe" fill-rule="evenodd" stroke="none"/>
  </g>
</svg>
