<?xml version="1.0" encoding="UTF-8" standalone="no"?>
<svg xmlns:xlink="http://www.w3.org/1999/xlink" height="190.2px" width="768.9px" xmlns="http://www.w3.org/2000/svg">
  <g transform="matrix(1.0, 0.0, 0.0, 1.0, 384.45, 112.7)">
    <path d="M152.25 -96.65 L152.4 -96.65 152.55 -96.65 152.25 -96.65 M58.95 -65.6 L60.05 -65.65 Q65.2 -63.9 70.1 -61.6 L76.6 -58.65 77.7 -58.05 78.15 -58.05 76.6 -58.65 Q69.6 -62.5 62.05 -65.75 L70.05 -66.1 76.3 -64.55 Q79.9 -63.7 83.0 -62.25 L89.2 -61.95 85.5 -63.05 Q96.15 -62.25 107.2 -63.1 L116.15 -63.85 115.1 -64.0 Q107.05 -67.4 97.9 -69.15 L122.45 -70.15 129.55 -66.75 157.65 -66.95 155.9 -71.5 164.15 -71.8 161.95 -72.1 155.3 -73.05 153.8 -76.9 161.65 -77.3 161.85 -77.5 209.1 -72.85 210.25 -72.9 Q201.0 -73.9 192.25 -78.1 L185.15 -81.1 205.3 -81.7 205.15 -82.3 202.75 -82.75 204.1 -82.75 229.6 -82.75 245.9 -79.1 242.4 -82.3 242.45 -82.35 249.15 -82.65 241.95 -82.7 237.7 -86.6 233.15 -87.5 231.5 -89.0 239.85 -88.95 240.95 -89.0 Q238.65 -93.3 236.0 -96.95 L250.5 -98.95 274.1 -102.2 301.05 -103.15 287.0 -103.95 289.25 -104.25 307.5 -106.65 319.7 -108.2 324.95 -108.55 Q333.4 -106.05 342.15 -104.5 L342.85 -104.35 Q356.85 -102.0 371.6 -102.2 L374.05 -102.25 375.3 -102.25 373.6 -102.65 Q358.8 -105.7 346.25 -111.6 L355.0 -112.7 355.7 -111.45 Q360.85 -109.25 366.55 -108.75 L373.85 -108.95 377.4 -109.3 382.65 -107.9 384.45 -107.4 375.05 76.2 347.65 77.5 -382.05 77.5 -384.45 28.05 -353.15 19.45 Q-342.9 19.8 -332.45 19.75 L-336.6 19.95 -323.45 20.2 -300.95 19.05 Q-293.05 18.3 -260.6 25.65 L-290.9 17.75 -290.1 17.65 -288.25 17.3 -286.4 17.0 -283.2 16.4 -281.95 16.2 -262.5 15.3 Q-247.45 15.3 -253.9 14.6 -260.4 13.9 -263.05 13.1 -265.65 12.2 -263.1 11.45 L-260.5 10.6 -262.05 4.9 -258.05 4.35 -257.75 4.3 Q-247.8 2.6 -218.3 2.1 -236.0 -1.3 -233.8 -1.7 L-224.6 -3.4 -217.4 -4.95 -234.45 -10.4 -228.1 -10.65 -204.2 -9.3 Q-188.45 -8.2 -204.7 -13.45 L-202.1 -13.6 -203.8 -14.2 Q-177.8 -13.4 -166.5 -11.05 -177.1 -17.05 -177.5 -17.05 -191.25 -15.85 -204.6 -17.3 L-194.7 -19.55 -175.85 -20.45 -170.8 -20.35 -160.8 -20.45 -156.35 -15.5 Q-152.1 -10.6 -147.75 -15.6 -143.4 -20.65 -129.95 -10.15 -132.8 -14.4 -143.5 -20.2 L-124.25 -18.0 Q-145.15 -29.35 -148.45 -32.45 L-137.2 -29.85 -107.55 -31.0 Q-100.6 -31.65 -110.75 -32.15 -120.85 -32.65 -126.75 -34.3 L-120.6 -35.55 -115.7 -36.55 -110.45 -36.35 -109.75 -35.45 -69.55 -29.3 Q-86.45 -33.75 -84.9 -33.6 L-84.3 -33.5 -83.8 -33.35 Q-83.15 -33.35 -84.3 -33.5 L-86.65 -34.3 -78.1 -31.8 Q-90.05 -35.6 -91.25 -36.9 -93.2 -36.55 -94.95 -37.35 -98.5 -38.85 -102.6 -38.6 L-89.2 -39.75 -90.85 -39.65 Q-93.9 -39.55 -95.4 -40.65 L-91.25 -40.85 -94.65 -40.9 -93.7 -41.05 -90.7 -41.7 -90.0 -41.8 -85.9 -41.1 -83.55 -40.1 -64.5 -29.55 -72.25 -39.5 Q-71.0 -41.1 -68.9 -41.15 L-66.95 -41.7 -66.75 -41.55 -66.75 -41.45 -66.3 -39.9 Q-66.1 -39.55 -65.5 -39.25 -61.25 -38.6 -56.5 -39.15 L-51.45 -38.85 Q-52.3 -36.95 -55.85 -37.0 L-61.45 -37.2 -59.15 -36.2 -57.35 -34.05 -49.55 -34.45 -51.55 -41.05 Q-54.05 -42.1 -57.2 -42.5 L-58.05 -42.6 -57.65 -42.85 -56.75 -43.65 Q-56.15 -44.4 -55.65 -45.4 L-50.5 -45.65 Q-48.0 -44.9 -44.9 -44.25 -43.9 -42.5 -42.0 -41.5 L-41.85 -41.3 Q-40.9 -39.8 -39.55 -38.9 L-39.45 -36.6 -39.05 -36.55 -38.9 -36.05 -38.85 -35.8 -38.85 -36.1 -39.0 -36.5 -39.05 -36.55 Q-39.15 -37.3 -38.35 -37.25 L-38.4 -37.6 -38.7 -38.75 -39.6 -40.0 Q-40.75 -40.85 -42.0 -41.5 L-43.3 -43.1 -46.45 -45.85 -36.0 -46.35 -34.95 -46.5 Q-31.6 -45.35 -28.1 -44.35 -19.4 -41.95 -13.1 -39.65 -18.95 -42.2 -24.95 -45.2 -27.35 -46.45 -29.8 -47.2 L-24.15 -48.05 Q-16.25 -46.4 -8.6 -42.6 -5.85 -41.3 -2.6 -41.8 L-3.1 -41.95 -21.8 -48.45 Q-6.65 -50.95 8.6 -54.15 L-11.6 -54.25 -5.9 -57.95 2.45 -59.45 56.6 -62.1 30.7 -61.9 31.45 -62.0 Q34.05 -62.5 36.25 -64.5 L50.45 -65.15 Q62.7 -60.4 74.25 -57.3 L58.95 -65.6 M44.25 -78.5 L45.2 -75.75 37.15 -78.5 44.25 -78.5 M327.15 -111.75 L334.5 -109.3 327.5 -110.4 322.3 -111.4 326.15 -111.7 327.15 -111.75 M340.0 -112.7 Q344.05 -110.6 348.6 -109.35 L349.3 -109.0 337.6 -112.5 340.0 -112.7 M-112.45 -27.5 L-112.55 -28.0 Q-112.6 -29.4 -136.7 -29.75 -110.6 -23.45 -112.3 -21.35 L-106.0 -27.55 Q-80.6 -31.8 -96.45 -29.55 L-112.45 -27.5 M-214.8 -44.75 L-218.5 -45.1 -226.3 -46.05 -222.95 -46.65 -214.0 -48.15 -193.5 -44.75 -214.8 -44.75 M-243.0 -39.85 L-245.4 -39.7 -251.05 -41.7 -246.95 -41.4 -243.0 -39.85 M-285.85 -31.7 L-306.9 -30.35 Q-302.95 -31.65 -298.75 -32.5 L-285.85 -31.7" fill="#88a70c" fill-rule="evenodd" stroke="none"/>
  </g>
</svg>
