<?xml version="1.0" encoding="UTF-8" standalone="no"?>
<svg xmlns:xlink="http://www.w3.org/1999/xlink" height="215.8px" width="563.0px" xmlns="http://www.w3.org/2000/svg">
  <g transform="matrix(1.0, 0.0, 0.0, 1.0, 281.5, 107.9)">
    <path d="M112.55 -100.95 Q112.55 -98.6 115.0 -98.8 L130.9 -100.1 130.9 -94.8 121.75 -94.0 121.75 -91.25 133.15 -91.9 133.15 -86.6 104.85 -84.9 104.4 -90.1 116.95 -90.95 116.95 -93.55 111.4 -93.2 Q107.5 -92.95 107.5 -96.75 L107.5 -106.85 112.55 -107.45 112.55 -100.95 M97.7 -107.85 L97.7 -69.4 92.95 -68.9 92.95 -107.35 97.7 -107.85 M83.25 -103.95 L88.55 -104.25 88.55 -99.0 83.15 -98.6 Q83.15 -93.8 81.95 -88.0 83.7 -86.15 86.25 -82.35 88.8 -78.55 90.2 -75.35 L86.55 -72.3 80.4 -83.3 Q79.75 -80.5 77.75 -76.5 76.25 -73.15 74.55 -70.75 L71.05 -73.5 Q78.4 -85.4 78.4 -98.4 L72.7 -98.05 72.3 -103.2 78.55 -103.75 78.55 -106.4 83.25 -106.85 83.25 -103.95 M151.85 -104.2 Q154.55 -101.5 154.55 -96.7 L154.55 -80.15 Q154.55 -75.3 152.5 -73.0 150.4 -70.15 147.15 -70.15 143.8 -70.15 141.85 -72.3 139.7 -74.65 139.7 -79.45 L139.7 -96.1 Q139.7 -100.95 141.9 -103.8 143.9 -106.4 147.15 -106.4 150.45 -106.4 151.85 -104.2 M5.0 -106.05 L12.35 -87.45 4.95 -69.1 1.3 -71.3 7.7 -87.45 1.3 -103.95 5.0 -106.05 M10.65 -106.05 L18.25 -87.45 10.65 -69.1 7.0 -71.25 13.5 -87.45 7.0 -103.95 10.65 -106.05 M64.4 -107.9 L64.4 -69.15 59.6 -68.8 59.6 -107.5 64.4 -107.9 M48.5 -103.1 Q54.1 -103.1 54.1 -96.55 54.1 -90.8 51.05 -84.25 47.8 -77.3 41.95 -71.75 L38.6 -74.95 Q43.15 -79.4 46.25 -85.2 49.2 -90.65 49.2 -93.95 49.2 -97.35 46.85 -97.35 44.4 -97.35 39.95 -95.6 L38.65 -100.75 Q44.25 -103.1 48.5 -103.1 M9.45 -14.65 L9.45 -19.4 14.2 -19.8 14.2 2.1 9.45 2.55 9.45 -1.4 5.1 -1.1 5.1 -6.0 9.45 -6.3 9.45 -9.7 5.1 -9.4 5.1 -14.3 9.45 -14.65 M4.45 -13.2 L-11.05 -12.25 -11.3 -17.35 4.5 -18.35 4.45 -13.2 M4.8 -2.85 L4.85 2.1 -11.5 3.25 -11.85 -1.65 -9.25 -1.9 -9.95 -9.7 -5.9 -10.1 -5.2 -2.2 -1.95 -2.5 -1.25 -10.25 2.85 -10.55 2.1 -2.65 4.8 -2.85 M33.6 -16.3 L38.9 -16.6 38.9 -11.3 23.1 -10.45 22.8 -15.6 28.6 -16.0 28.6 -18.65 33.6 -19.0 33.6 -16.3 M24.8 -6.4 Q27.0 -8.8 31.1 -8.8 35.15 -8.8 37.3 -6.65 39.35 -4.6 39.35 -0.95 39.35 2.15 37.75 4.15 36.15 6.2 33.45 6.65 L33.45 9.6 41.35 9.05 41.35 14.4 21.4 15.7 20.9 10.6 28.95 9.9 28.95 6.65 Q22.9 5.8 22.9 -0.85 22.9 -4.3 24.8 -6.4 M31.1 -3.6 Q27.2 -3.6 27.2 -0.8 27.2 1.65 31.1 1.65 34.9 1.65 34.9 -0.9 34.9 -3.6 31.1 -3.6 M46.75 -3.2 L50.15 -3.45 50.15 2.0 46.75 2.35 46.75 18.8 42.0 19.1 42.0 -19.4 46.75 -19.8 46.75 -3.2 M150.15 -95.4 Q150.15 -100.85 147.2 -100.85 144.25 -100.85 144.25 -95.05 L144.25 -80.9 Q144.25 -75.55 147.2 -75.55 150.15 -75.55 150.15 -81.45 L150.15 -95.4 M124.5 -79.6 L113.55 -78.9 114.0 -74.45 124.05 -75.05 124.5 -79.6 M131.45 -75.55 L131.45 -70.25 107.4 -68.9 107.05 -73.95 109.75 -74.25 109.25 -78.7 107.05 -78.4 106.7 -83.6 131.45 -85.25 131.45 -80.1 128.85 -79.9 128.4 -75.3 131.45 -75.55 M100.5 -10.0 Q100.6 -11.3 100.2 -11.75 99.8 -12.2 98.85 -12.1 L93.9 -11.8 94.35 -0.9 99.9 -1.3 100.5 -10.0 M105.2 -1.45 L105.2 3.5 90.35 4.4 89.45 -16.55 101.9 -17.45 Q103.55 -17.55 104.45 -16.35 105.3 -15.2 105.2 -13.45 L104.1 -1.45 105.2 -1.45 M114.45 -19.85 L114.45 7.15 109.65 7.6 109.65 -19.45 114.45 -19.85 M138.6 -13.05 Q144.35 -10.9 148.7 -8.45 L146.05 -4.15 135.7 -9.1 Q130.55 -5.35 124.5 -3.25 L122.7 -7.9 Q129.95 -10.7 133.95 -13.6 L123.9 -12.9 123.5 -18.15 148.05 -19.6 148.05 -14.3 139.4 -13.75 138.6 -13.05 M133.6 -6.3 L138.25 -6.7 138.25 -3.05 149.75 -3.7 149.75 1.65 121.65 3.45 121.25 -1.85 133.6 -2.75 133.6 -6.3 M155.6 -13.7 L168.2 -14.95 168.2 -9.45 161.55 -8.8 161.55 8.85 Q161.55 10.7 162.85 10.7 164.1 10.7 169.9 8.05 L169.9 13.4 Q168.05 14.5 165.3 15.45 162.45 16.5 160.95 16.5 158.9 16.5 158.0 15.45 157.1 14.5 157.1 12.1 L157.1 -8.4 155.95 -8.3 155.6 -13.7 M159.7 -107.45 L164.55 -107.8 164.55 -69.5 159.7 -69.1 159.7 -107.45 M174.65 -2.4 L177.05 -2.7 177.05 -19.4 181.75 -19.8 181.75 18.8 177.05 19.15 177.05 2.75 174.65 3.1 174.65 18.05 170.15 18.4 170.15 -17.7 174.65 -18.0 174.65 -2.4 M189.15 -15.55 L203.8 -16.95 203.8 -11.5 195.15 -10.55 195.15 -2.65 Q195.15 -0.7 197.0 -0.7 197.9 -0.7 201.45 -1.75 L207.25 -3.6 207.25 1.65 Q204.6 2.8 201.05 3.8 196.65 5.0 194.7 5.0 192.55 5.0 191.6 4.15 190.5 3.2 190.5 0.7 L190.5 -10.25 189.55 -10.25 189.15 -15.55 M213.8 -2.7 L213.8 7.75 209.05 8.15 209.05 -19.45 213.8 -19.85 213.8 -8.25 217.2 -8.55 217.2 -3.05 213.8 -2.7 M238.0 -16.85 L238.0 -11.75 223.4 -10.9 223.25 -15.95 228.5 -16.35 228.5 -18.75 233.0 -19.0 233.0 -16.55 238.0 -16.85 M228.3 -4.95 Q227.4 -4.25 227.4 -3.15 227.4 -1.0 230.8 -1.1 234.1 -1.15 234.1 -3.6 234.1 -5.75 230.8 -5.7 229.2 -5.65 228.3 -4.95 M230.8 -10.6 Q234.55 -10.7 236.5 -8.85 238.45 -7.0 238.45 -3.7 238.45 3.35 230.85 3.7 223.25 4.05 223.25 -3.25 223.25 -6.55 225.35 -8.6 227.45 -10.55 230.8 -10.6 M261.95 -3.05 Q263.1 -1.55 264.9 -1.55 266.7 -1.55 267.9 -3.05 269.05 -4.55 269.05 -6.6 269.05 -8.7 267.9 -10.15 266.75 -11.6 264.9 -11.6 263.15 -11.6 261.95 -10.15 260.75 -8.7 260.75 -6.6 260.75 -4.5 261.95 -3.05 M247.1 -4.75 L247.1 2.05 242.35 2.4 242.35 -19.4 247.1 -19.75 247.1 -10.2 250.55 -10.5 250.55 -5.0 247.1 -4.75 M258.8 -14.05 Q261.35 -17.1 264.9 -17.1 268.8 -17.1 271.15 -14.15 273.55 -11.2 273.55 -6.6 273.55 -2.2 271.05 0.85 268.55 3.9 264.9 3.9 260.85 3.9 258.55 0.95 256.35 -1.85 256.35 -6.6 256.35 -10.95 258.8 -14.05 M281.45 -19.8 L281.45 18.75 276.7 19.15 276.7 -19.35 281.45 -19.8 M247.1 17.95 L228.25 19.15 Q224.7 19.35 224.7 15.6 L224.7 4.4 229.45 4.05 229.45 6.1 242.35 5.2 242.35 3.0 247.1 2.6 247.1 17.95 M275.9 8.15 L275.9 13.85 255.3 16.1 254.8 10.65 275.9 8.15 M281.5 72.3 L278.7 99.6 274.3 98.9 275.8 71.9 281.5 72.3 M251.7 72.2 Q252.55 73.4 252.55 75.5 252.55 81.65 250.1 89.4 252.95 93.85 256.05 101.6 L251.95 104.4 247.9 94.3 245.25 100.15 Q243.4 103.75 242.05 105.6 L238.1 103.15 Q246.75 88.35 247.5 79.95 L247.6 78.75 Q247.6 77.0 246.15 77.0 L245.5 77.1 240.0 77.8 239.55 72.25 248.9 70.95 Q250.7 70.7 251.7 72.2 M267.3 84.45 L267.3 90.3 263.8 90.6 263.8 106.85 258.95 107.2 258.95 68.8 263.8 68.4 263.8 84.8 267.3 84.45 M229.45 12.3 Q229.45 13.2 229.75 13.55 L231.0 13.8 242.35 13.0 242.35 10.15 229.45 11.1 229.45 12.3 M214.15 17.75 L195.0 19.1 Q191.95 19.3 191.95 15.65 L191.95 7.4 196.7 6.7 196.7 11.6 Q196.7 13.55 198.3 13.4 L214.15 12.2 214.15 17.75 M197.15 68.25 L197.15 85.05 200.5 84.7 200.5 90.45 197.15 90.8 197.15 106.85 192.3 107.25 192.3 96.1 Q182.5 101.3 177.85 101.3 175.4 101.3 174.4 100.15 173.2 98.85 173.2 95.9 L173.2 74.3 178.15 73.65 178.15 92.9 Q178.15 95.0 180.35 95.0 182.1 95.0 186.0 93.4 189.95 91.8 192.3 90.2 L192.3 68.75 197.15 68.25 M230.45 68.35 L230.45 84.65 233.7 84.35 233.7 89.9 230.45 90.3 230.45 106.7 225.9 107.15 225.9 68.9 230.45 68.35 M220.2 79.45 Q220.2 85.45 217.2 91.95 214.05 98.9 208.05 104.45 L204.9 101.55 Q209.15 97.0 212.25 91.65 215.45 85.95 215.45 82.4 215.45 80.85 214.85 79.9 214.2 78.65 212.9 78.65 210.85 78.65 206.2 80.65 L204.95 75.3 Q210.4 72.8 213.6 72.8 216.75 72.8 218.65 75.05 220.2 76.65 220.2 79.45 M278.15 106.75 Q277.15 107.9 275.85 107.9 274.55 107.9 273.55 106.75 272.6 105.6 272.6 103.95 272.6 102.25 273.5 101.15 274.4 100.05 275.85 100.05 277.25 100.05 278.15 101.2 279.1 102.35 279.1 103.95 279.1 105.55 278.15 106.75 M164.55 106.65 L159.8 107.05 159.8 96.9 155.55 97.3 155.55 91.85 159.8 91.45 159.8 83.4 155.55 83.85 155.55 78.3 159.8 77.9 159.8 68.85 164.55 68.4 164.55 106.65 M147.75 8.1 Q147.75 9.65 145.9 19.15 L141.35 18.4 142.55 11.75 142.55 11.3 Q142.55 9.9 141.0 10.0 L123.6 11.05 123.25 5.8 144.35 4.5 Q147.75 4.35 147.75 8.1 M114.7 17.75 L94.05 19.1 Q93.0 19.15 92.2 18.35 91.4 17.55 91.4 16.1 L91.4 7.7 96.05 7.2 96.05 12.1 Q96.05 13.6 97.2 13.5 L114.7 12.35 114.7 17.75 M116.85 73.5 L116.85 69.95 121.5 69.55 121.5 76.1 126.45 75.7 126.45 68.7 131.15 68.3 131.15 87.4 126.45 87.8 126.45 80.95 121.5 81.35 121.5 87.75 109.7 88.55 Q106.5 88.75 106.5 84.65 L106.5 70.55 111.15 70.2 111.15 73.95 116.85 73.5 M116.85 82.8 L116.85 78.45 111.15 78.85 111.15 81.15 Q111.15 83.45 112.95 83.2 L116.85 82.8 M107.1 89.9 L128.85 88.45 Q131.4 88.3 131.4 90.75 131.4 92.0 130.55 94.75 L131.15 94.75 131.0 99.45 112.05 100.65 112.05 101.25 Q112.05 102.25 113.25 102.15 L131.15 100.9 131.15 105.85 110.6 107.15 Q107.6 107.3 107.6 104.1 L107.6 96.2 125.85 95.05 126.3 93.65 107.5 94.85 107.1 89.9 M148.9 70.75 Q151.7 70.75 153.15 72.0 154.65 73.35 154.65 76.4 154.65 78.5 153.1 85.5 L154.2 85.5 154.2 90.75 145.3 91.4 145.3 97.7 Q145.3 99.15 145.75 99.6 146.25 100.05 147.45 100.05 149.0 100.05 154.65 98.1 L154.65 103.6 Q149.05 105.6 144.05 105.6 140.65 105.6 140.65 101.75 L140.65 86.5 148.6 85.85 Q150.05 81.1 150.05 79.0 150.05 76.15 147.4 76.15 L144.3 76.65 140.2 77.7 139.4 72.7 Q141.45 71.9 144.2 71.35 L148.9 70.75 M58.4 10.7 Q59.2 11.85 59.2 13.7 59.2 15.35 58.0 17.15 56.9 18.8 55.15 20.1 L53.8 18.8 55.6 16.4 Q53.35 16.25 53.35 13.0 53.35 11.45 54.25 10.5 55.15 9.55 56.3 9.55 57.6 9.55 58.4 10.7 M14.75 10.5 Q14.75 13.5 13.6 15.55 12.05 18.2 8.65 18.4 L-4.4 19.15 Q-6.95 19.25 -8.75 17.55 -10.7 15.6 -10.7 11.95 -10.7 8.5 -9.15 6.45 -7.45 4.25 -4.2 4.05 L8.1 3.25 Q11.5 3.05 13.25 5.4 14.75 7.4 14.75 10.5 M10.1 10.7 Q10.1 8.25 7.5 8.45 L-3.9 9.1 Q-6.45 9.2 -6.45 11.65 -6.45 14.05 -3.9 13.9 L7.65 13.2 Q10.1 13.05 10.1 10.7 M30.95 68.3 L30.95 90.0 26.1 90.45 26.1 68.7 30.95 68.3 M13.3 69.6 Q16.75 69.55 18.75 71.95 21.0 74.55 21.0 79.55 21.0 89.35 13.35 89.7 9.95 89.9 8.15 87.5 5.65 84.7 5.65 79.55 5.65 74.75 7.9 72.1 9.95 69.65 13.3 69.6 M10.15 79.5 Q10.15 81.85 11.0 83.1 11.85 84.4 13.3 84.25 15.05 84.15 15.75 82.85 16.35 81.8 16.35 79.5 16.35 77.65 15.55 76.45 14.75 75.25 13.3 75.35 10.15 75.45 10.15 79.5 M16.7 96.3 Q19.15 97.6 20.4 98.95 22.3 95.55 23.55 92.35 L27.75 93.5 Q27.45 94.9 26.35 97.0 29.8 99.8 31.8 103.3 L28.7 106.6 24.65 100.9 Q23.2 103.85 20.55 107.4 L16.65 105.5 18.15 103.0 Q17.05 102.3 14.85 100.3 12.5 104.45 10.0 107.05 L6.05 104.5 Q10.6 99.0 13.75 91.75 L18.1 92.8 Q17.6 94.8 16.7 96.3 M38.2 76.1 Q42.9 73.95 46.05 73.95 48.45 73.95 49.75 75.6 51.0 77.2 51.0 79.85 51.0 82.7 50.25 84.95 L53.45 84.45 53.45 70.7 57.85 70.3 57.85 105.85 53.45 106.3 53.45 89.8 48.5 90.5 Q45.35 96.55 40.6 102.05 L37.15 99.1 Q40.75 94.8 43.65 89.9 46.25 85.2 46.25 82.95 46.25 79.7 44.05 79.7 43.2 79.7 39.25 81.1 L38.2 76.1 M64.85 68.4 L64.85 106.6 60.55 107.0 60.55 68.8 64.85 68.4 M-205.1 -100.7 Q-206.1 -100.05 -206.1 -98.3 -206.1 -95.35 -203.05 -95.55 L-193.25 -96.1 Q-190.5 -96.25 -190.5 -98.8 -190.5 -101.8 -193.6 -101.6 L-202.95 -101.15 -205.1 -100.7 M-216.55 -103.95 L-222.8 -87.45 -216.55 -71.25 -220.2 -69.1 -227.6 -87.45 -220.2 -106.05 -216.55 -103.95 M-222.25 -103.95 L-228.75 -87.45 -222.2 -71.25 -225.9 -69.1 -233.5 -87.45 -225.9 -106.05 -222.25 -103.95 M-162.65 -99.75 Q-162.65 -98.15 -163.15 -94.95 -163.7 -91.75 -164.15 -90.55 L-163.1 -90.55 -163.1 -85.4 -172.0 -84.75 -172.0 -78.45 Q-172.0 -75.95 -170.2 -75.95 -168.3 -75.95 -162.65 -77.85 L-162.65 -72.4 Q-168.65 -70.35 -173.25 -70.35 -176.65 -70.35 -176.65 -74.35 L-176.65 -89.65 -168.7 -90.3 Q-167.25 -95.05 -167.25 -97.15 -167.25 -100.0 -169.9 -100.0 L-173.0 -99.5 -177.1 -98.45 -177.9 -103.45 Q-175.7 -104.25 -172.85 -104.85 L-168.4 -105.4 Q-162.65 -105.4 -162.65 -99.75 M-187.95 -105.2 Q-185.95 -103.0 -185.95 -99.6 -185.95 -95.25 -187.45 -93.2 -189.1 -90.95 -193.05 -90.75 L-203.5 -90.2 Q-206.9 -90.05 -208.75 -92.05 -210.6 -94.05 -210.6 -97.75 -210.6 -106.3 -203.75 -106.6 L-193.4 -107.1 Q-189.75 -107.25 -187.95 -105.2 M-252.05 -17.15 Q-250.25 -17.4 -249.25 -15.9 -248.4 -14.7 -248.4 -12.6 -248.4 -6.45 -250.85 1.3 -248.0 5.75 -244.9 13.5 L-249.0 16.3 -253.05 6.2 Q-253.85 8.45 -255.7 12.05 -257.55 15.65 -258.9 17.5 L-262.85 15.05 Q-254.2 0.25 -253.45 -8.15 L-253.35 -9.35 Q-253.35 -11.1 -254.8 -11.1 L-255.45 -11.0 -260.95 -10.3 -261.4 -15.85 -252.05 -17.15 M-195.8 -82.05 L-195.8 -69.9 -200.7 -69.6 -200.7 -81.7 -212.35 -81.2 -212.65 -86.6 -184.3 -88.05 -184.3 -82.7 -195.8 -82.05 M-227.3 -17.75 L-202.8 -19.2 -202.8 -13.9 -211.8 -13.35 -212.7 -12.15 Q-206.25 -9.15 -202.1 -6.3 L-205.3 -2.2 -215.15 -8.25 Q-216.85 -6.55 -219.9 -4.5 -223.0 -2.45 -225.95 -1.3 L-228.2 -5.7 Q-223.9 -7.75 -221.65 -9.35 -218.45 -11.65 -216.9 -13.25 L-226.95 -12.55 -227.3 -17.75 M-233.65 -3.65 L-233.65 2.2 -237.15 2.5 -237.15 18.75 -242.0 19.1 -242.0 -19.3 -237.15 -19.7 -237.15 -3.3 -233.65 -3.65 M-189.35 -12.9 L-169.7 -14.15 -169.7 -9.45 -189.2 -8.25 -189.2 -7.75 Q-189.2 -7.15 -188.85 -6.8 -188.5 -6.4 -187.9 -6.45 L-169.7 -7.7 -169.7 -2.85 -179.1 -2.2 -179.1 -0.85 -167.55 -1.5 -167.55 3.35 -195.65 5.2 -196.0 0.3 -183.85 -0.55 -183.85 -2.0 -190.5 -1.55 Q-191.9 -1.45 -192.75 -2.4 -193.65 -3.35 -193.65 -5.15 L-193.65 -13.55 -194.15 -13.55 -194.4 -18.25 -169.7 -19.75 -169.7 -15.0 -189.35 -13.85 -189.35 -12.9 M-70.75 -102.35 L-79.4 -101.8 -80.2 -101.1 Q-74.45 -98.95 -70.1 -96.5 L-72.75 -92.2 -83.1 -97.15 Q-88.25 -93.4 -94.3 -91.3 L-96.1 -95.95 Q-88.85 -98.75 -84.85 -101.65 L-94.9 -100.95 -95.3 -106.2 -70.75 -107.65 -70.75 -102.35 M-24.25 -104.85 L-19.8 -105.4 Q-14.05 -105.4 -14.05 -99.75 -14.05 -98.15 -14.55 -94.95 -15.1 -91.75 -15.55 -90.55 L-14.5 -90.55 -14.5 -85.4 -23.4 -84.75 -23.4 -78.45 Q-23.4 -75.95 -21.6 -75.95 -19.7 -75.95 -14.05 -77.85 L-14.05 -72.4 Q-20.05 -70.35 -24.65 -70.35 -28.05 -70.35 -28.05 -74.35 L-28.05 -89.65 -20.1 -90.3 Q-18.65 -95.05 -18.65 -97.15 -18.65 -100.0 -21.3 -100.0 L-24.4 -99.5 -28.5 -98.45 -29.3 -103.45 -24.25 -104.85 M-4.15 -107.85 L-4.15 -69.4 -8.95 -68.95 -8.95 -107.5 -4.15 -107.85 M-37.5 -107.85 L-37.5 -69.35 -42.2 -69.0 -42.2 -107.55 -37.5 -107.85 M-152.75 -107.85 L-152.75 -69.4 -157.55 -68.95 -157.55 -107.5 -152.75 -107.85 M-104.35 -107.9 L-104.35 -80.9 -109.15 -80.45 -109.15 -107.5 -104.35 -107.9 M-113.6 -101.5 L-114.7 -89.5 -113.6 -89.5 -113.6 -84.55 -128.45 -83.65 -129.35 -104.6 -116.9 -105.5 Q-115.25 -105.6 -114.35 -104.4 -113.5 -103.25 -113.6 -101.5 M-119.95 -100.15 L-124.9 -99.85 -124.45 -88.95 -118.9 -89.35 -118.3 -98.05 Q-118.2 -99.35 -118.6 -99.8 -119.0 -100.25 -119.95 -100.15 M-97.55 -89.9 L-85.2 -90.8 -85.2 -94.35 -80.55 -94.75 -80.55 -91.1 -69.05 -91.75 -69.05 -86.4 -97.15 -84.6 -97.55 -89.9 M-95.55 -82.25 L-74.45 -83.55 Q-71.05 -83.7 -71.05 -79.95 -71.05 -78.4 -72.9 -68.9 L-77.45 -69.65 -76.25 -76.3 -76.25 -76.75 Q-76.25 -78.15 -77.8 -78.05 L-95.2 -77.0 -95.55 -82.25 M-104.1 -70.3 L-124.75 -68.95 Q-125.8 -68.9 -126.6 -69.7 -127.4 -70.5 -127.4 -71.95 L-127.4 -80.35 -122.75 -80.85 -122.75 -75.95 Q-122.75 -74.45 -121.6 -74.55 L-104.1 -75.7 -104.1 -70.3 M-155.85 -12.4 Q-156.7 -11.35 -156.7 -9.5 -156.7 -7.2 -155.85 -5.95 -155.0 -4.7 -153.55 -4.85 -150.55 -5.0 -150.55 -9.5 -150.55 -11.25 -151.35 -12.4 -152.15 -13.55 -153.55 -13.5 -155.0 -13.4 -155.85 -12.4 M-153.55 -18.9 Q-150.1 -18.9 -148.0 -16.1 -145.85 -14.15 -145.85 -9.5 -145.85 -4.6 -148.2 -2.05 -150.25 0.1 -153.55 0.15 -157.0 0.15 -159.05 -2.3 -161.25 -4.6 -161.25 -9.5 -161.25 -14.0 -158.95 -16.5 -156.9 -18.9 -153.55 -18.9 M-136.05 -1.15 L-140.9 -0.75 -140.9 -19.4 -136.05 -19.8 -136.05 -1.15 M-50.5 -94.75 L-53.8 -93.5 -54.55 -96.4 -54.45 -94.7 Q-54.45 -88.9 -56.85 -83.75 -58.3 -80.7 -62.5 -75.0 L-65.45 -78.3 Q-62.15 -82.95 -60.7 -85.85 -58.9 -89.35 -58.9 -92.1 -58.9 -94.05 -59.75 -94.05 L-63.0 -92.8 -64.35 -97.75 Q-60.1 -99.85 -57.9 -99.85 -55.7 -99.85 -54.9 -97.75 L-55.1 -98.5 Q-51.2 -100.55 -48.65 -100.55 -45.25 -100.55 -45.25 -95.35 -45.25 -89.85 -47.85 -83.8 -49.7 -79.7 -53.75 -73.8 L-56.85 -77.05 Q-49.65 -88.15 -49.65 -92.75 -49.65 -94.75 -50.5 -94.75 M-62.2 -17.85 L-62.2 3.95 -73.95 4.7 Q-75.65 4.8 -76.4 3.9 -77.1 2.95 -77.1 0.75 L-77.1 -16.7 -72.55 -17.15 -72.55 -12.15 -66.75 -12.65 -66.75 -17.45 -62.2 -17.85 M-72.55 -2.85 Q-72.55 -0.45 -70.8 -0.55 L-66.75 -0.85 -66.75 -7.7 -72.55 -7.15 -72.55 -2.85 M-49.85 -3.35 L-53.45 -3.05 -53.45 7.35 -58.2 7.75 -58.2 -19.35 -53.45 -19.8 -53.45 -8.5 -49.85 -8.85 -49.85 -3.35 M-43.6 -16.8 L-34.5 -17.8 Q-30.9 -18.15 -30.9 -13.8 -30.9 -10.45 -33.05 -6.1 -30.25 -2.95 -28.25 0.85 L-31.85 3.95 -35.35 -2.0 Q-38.8 3.05 -41.25 5.6 L-44.75 2.6 Q-39.1 -4.3 -36.9 -8.4 -36.3 -9.5 -36.3 -10.7 -36.3 -12.35 -37.85 -12.1 L-43.2 -11.55 -43.6 -16.8 M-24.0 -9.4 L-24.0 -19.4 -19.15 -19.85 -19.15 7.7 -24.0 8.1 -24.0 -4.05 -29.05 -3.55 -29.05 -8.9 -24.0 -9.4 M-18.75 18.0 L-39.0 19.15 Q-42.4 19.35 -42.4 15.85 L-42.4 7.45 -37.75 7.05 -37.75 11.75 Q-37.75 13.6 -36.1 13.5 L-18.75 12.45 -18.75 18.0 M-53.05 17.9 L-72.4 19.1 Q-75.65 19.25 -75.65 15.55 L-75.65 7.95 -71.05 7.45 -71.05 11.5 Q-71.05 13.5 -69.45 13.4 L-53.05 12.45 -53.05 17.9 M-70.85 70.25 Q-69.25 71.9 -69.25 74.55 -69.25 77.95 -70.4 79.6 -71.9 81.8 -75.5 82.0 L-86.55 82.75 Q-93.75 83.2 -93.75 76.15 -93.75 69.25 -86.75 68.9 L-76.5 68.45 Q-72.75 68.25 -70.85 70.25 M-74.0 75.05 Q-74.0 73.05 -76.85 73.2 L-86.95 73.75 Q-89.35 73.85 -89.35 76.1 -89.35 76.95 -88.5 77.55 -87.65 78.15 -86.5 78.05 L-76.55 77.4 Q-75.25 77.35 -74.65 76.9 -74.0 76.4 -74.0 75.05 M-74.1 94.4 L-93.35 95.5 -93.65 90.75 -71.65 89.5 Q-69.25 89.35 -69.25 91.85 -69.25 93.6 -69.95 95.5 L-69.25 95.4 -69.6 99.9 -89.0 101.05 -89.0 101.5 Q-89.0 102.6 -88.05 102.5 L-69.25 101.5 -69.25 106.15 -90.85 107.3 Q-93.2 107.4 -93.2 104.65 L-93.2 96.9 -74.5 95.8 Q-74.1 95.15 -74.1 94.4 M-67.4 88.25 L-95.55 89.7 -95.85 84.65 -67.4 83.15 -67.4 88.25 M-2.45 68.2 L-2.45 90.9 -7.25 91.25 -7.25 68.55 -2.45 68.2 M-17.5 71.55 L-12.5 71.25 -12.5 76.35 -27.1 77.2 -27.25 72.15 -22.0 71.75 -22.0 69.35 -17.5 69.1 -17.5 71.55 M-21.7 93.15 L-5.25 91.85 Q-2.15 91.6 -2.15 94.95 -2.15 96.3 -3.25 101.0 L-2.45 100.85 -2.45 105.85 -25.0 107.15 -26.15 92.65 -21.8 92.15 -21.7 93.15 M-23.1 84.95 Q-23.1 87.1 -19.7 86.95 -16.4 86.9 -16.4 84.5 -16.4 82.35 -19.7 82.4 -21.3 82.45 -22.2 83.15 -23.1 83.9 -23.1 84.95 M-25.15 79.5 Q-23.05 77.55 -19.7 77.5 -15.95 77.4 -14.0 79.25 -12.05 81.1 -12.05 84.4 -12.05 91.45 -19.65 91.8 -27.25 92.15 -27.25 84.85 -27.25 81.55 -25.15 79.5 M-8.4 96.8 L-21.4 97.85 -20.95 102.1 -7.7 101.15 -7.1 98.2 Q-7.1 96.7 -8.4 96.8 M-125.3 10.7 Q-124.5 11.85 -124.5 13.7 -124.5 15.35 -125.7 17.15 -126.8 18.8 -128.55 20.1 L-129.9 18.8 -128.1 16.4 Q-130.35 16.25 -130.35 13.0 -130.35 11.45 -129.45 10.5 -128.55 9.55 -127.4 9.55 -126.1 9.55 -125.3 10.7 M-136.55 1.25 Q-135.8 1.9 -135.8 2.9 L-136.0 4.75 -136.6 7.05 -135.95 6.9 -135.9 11.15 -155.1 12.2 -155.1 13.05 Q-155.1 13.5 -154.6 13.8 L-153.8 14.0 -135.8 12.9 -135.8 17.9 -156.7 19.15 Q-159.65 19.3 -159.65 15.85 L-159.65 8.35 -141.45 7.3 Q-141.0 6.35 -141.0 5.65 L-159.95 6.7 -160.4 2.05 -138.45 0.65 Q-137.3 0.55 -136.55 1.25 M-143.05 68.55 Q-139.35 68.4 -137.7 70.5 -135.9 72.5 -135.9 75.8 -135.9 80.0 -137.6 82.0 -139.0 83.9 -142.95 84.15 L-153.6 84.8 Q-156.8 84.95 -158.65 82.9 -160.45 80.85 -160.45 77.55 -160.45 69.45 -153.65 69.15 L-143.05 68.55 M-152.8 79.65 L-143.05 79.15 Q-140.4 79.0 -140.4 76.6 -140.4 73.75 -143.5 73.9 L-152.85 74.3 Q-156.0 74.45 -156.0 77.05 -156.0 79.8 -152.8 79.65 M-155.1 95.05 L-155.1 99.7 Q-155.1 100.65 -154.5 101.1 -153.8 101.55 -153.0 101.5 L-136.0 100.55 -136.0 106.1 -156.35 107.2 Q-159.85 107.35 -159.85 103.65 L-159.85 95.5 -155.1 95.05 M-150.6 92.65 L-162.35 93.2 -162.6 88.0 -134.15 86.5 -134.15 91.8 -145.75 92.45 -145.75 97.15 -150.6 97.5 -150.6 92.65 M-126.35 81.25 L-126.35 75.2 -127.45 75.2 -127.7 70.0 -102.85 68.45 -102.85 73.65 -121.95 74.85 -121.95 77.35 Q-121.95 79.25 -120.5 79.15 L-102.85 78.05 -102.85 83.25 -112.2 83.9 -112.2 85.5 -100.6 84.85 -100.6 90.1 -129.05 91.8 -129.4 86.55 -117.0 85.8 -117.0 84.15 -123.4 84.55 Q-126.35 84.65 -126.35 81.25 M-103.85 93.9 Q-102.35 95.55 -102.35 98.4 -102.35 106.05 -108.45 106.45 L-120.45 107.25 Q-123.25 107.4 -125.05 105.3 -126.75 103.5 -126.75 100.05 -126.75 96.75 -125.15 94.6 -123.4 92.3 -120.8 92.15 L-108.65 91.45 Q-105.7 91.3 -103.85 93.9 M-109.55 96.8 L-119.55 97.35 Q-122.25 97.5 -122.25 99.65 -122.25 102.25 -119.2 102.0 L-109.25 101.4 Q-106.9 101.25 -106.9 98.95 -106.9 96.65 -109.55 96.8 M-176.55 9.95 L-187.1 10.5 Q-189.5 10.65 -189.5 12.3 -189.5 13.25 -188.85 13.75 -188.2 14.25 -187.1 14.2 L-176.35 13.5 Q-173.9 13.4 -173.9 11.65 -173.9 9.8 -176.55 9.95 M-175.3 18.4 L-187.4 19.15 Q-190.65 19.35 -192.25 17.4 -193.65 15.7 -193.65 12.7 -193.65 6.05 -187.75 5.7 L-175.45 5.0 Q-169.3 4.6 -169.3 11.35 -169.3 18.05 -175.3 18.4 M-229.5 1.25 L-200.9 -0.7 -200.9 4.8 -212.7 5.6 -212.7 18.25 -217.4 18.6 -217.4 5.85 -229.1 6.75 -229.5 1.25 M-209.4 69.5 L-209.4 85.6 -206.8 85.3 -206.8 68.75 -202.35 68.35 -202.35 106.8 -206.8 107.15 -206.8 90.85 -209.4 91.2 -209.4 106.25 -213.6 106.6 -213.6 69.8 -209.4 69.5 M-235.75 68.3 L-235.75 106.9 -240.45 107.25 -240.45 90.85 -242.85 91.2 -242.85 106.15 -247.35 106.5 -247.35 70.4 -242.85 70.1 -242.85 85.7 -240.45 85.4 -240.45 68.7 -235.75 68.3 M-223.65 80.0 L-223.65 96.55 Q-223.65 98.95 -223.2 99.85 -222.7 100.7 -221.45 100.7 -220.45 100.7 -220.05 99.8 -219.65 98.95 -219.65 96.55 L-219.65 80.0 Q-219.65 75.65 -221.65 75.8 -223.0 75.9 -223.4 77.1 L-223.65 80.0 M-228.05 79.4 Q-228.05 70.2 -221.8 70.2 -215.5 70.2 -215.5 79.4 L-215.5 97.2 Q-215.5 106.05 -221.8 106.05 -228.05 106.05 -228.05 97.25 L-228.05 79.4 M-171.3 69.8 Q-169.6 71.2 -169.6 74.55 -169.6 78.2 -170.8 84.25 L-167.45 84.0 -167.45 89.5 -179.25 90.25 -179.25 93.2 -184.0 93.7 -184.0 90.6 -195.65 91.35 -196.0 86.0 -175.5 84.45 Q-174.4 80.15 -174.4 77.2 -174.4 75.5 -175.0 74.9 -175.55 74.3 -177.1 74.3 -182.65 74.3 -192.65 76.1 L-193.25 70.75 Q-182.55 68.6 -176.05 68.6 -172.75 68.6 -171.3 69.8 M-169.6 96.8 Q-169.6 99.5 -171.4 107.05 L-175.95 106.4 Q-174.65 100.85 -174.65 100.15 -174.65 98.55 -175.75 98.65 L-193.2 99.85 -193.6 94.45 -173.0 92.95 Q-171.15 92.85 -170.3 93.9 -169.6 94.85 -169.6 96.8 M-272.9 71.8 Q-270.05 71.8 -268.2 73.9 -266.35 76.0 -266.35 79.45 -266.35 81.8 -267.35 83.9 -268.4 86.0 -269.85 86.8 -266.65 89.2 -266.65 94.25 -266.65 98.65 -269.0 101.75 -271.3 104.85 -274.75 104.85 -277.9 104.85 -279.7 102.65 -281.5 100.5 -281.5 96.6 -281.5 94.4 -280.3 91.35 L-276.45 93.25 Q-277.1 95.25 -277.1 96.2 -277.1 99.65 -274.75 99.65 -272.9 99.65 -272.0 98.1 -271.1 96.55 -271.1 94.25 -271.1 89.85 -274.6 89.85 L-275.9 89.9 -275.65 84.85 Q-273.45 84.55 -272.2 83.5 -270.9 82.2 -270.9 80.05 -270.9 77.0 -273.0 77.0 -274.45 77.0 -275.3 77.95 -276.1 78.9 -276.1 80.4 L-275.95 81.85 -279.9 83.7 Q-280.45 81.5 -280.45 80.35 -280.45 76.45 -278.2 74.05 -276.1 71.8 -272.9 71.8 M-247.6 96.15 L-247.6 101.5 Q-249.45 102.6 -252.2 103.55 -255.05 104.6 -256.55 104.6 -258.6 104.6 -259.5 103.55 -260.4 102.6 -260.4 100.2 L-260.4 79.7 -261.55 79.8 -261.9 74.4 -249.3 73.15 -249.3 78.65 -255.95 79.3 -255.95 96.95 Q-255.95 98.8 -254.65 98.8 -253.4 98.8 -247.6 96.15" fill="#ff0000" fill-rule="evenodd" stroke="none"/>
  </g>
</svg>
