<?xml version="1.0" encoding="UTF-8" standalone="no"?>
<svg xmlns:xlink="http://www.w3.org/1999/xlink" height="41.3px" width="44.8px" xmlns="http://www.w3.org/2000/svg">
  <g transform="matrix(1.0, 0.0, 0.0, 1.0, 0.0, 0.0)">
    <path d="M27.6 31.85 L27.5 31.8 26.25 30.65 22.2 41.2 22.15 41.3 22.05 41.3 21.95 41.25 21.9 41.2 19.55 27.4 8.65 37.95 8.55 38.0 8.5 38.0 8.4 38.0 Q7.05 38.1 6.4 37.4 5.75 36.65 5.75 35.15 L5.8 35.1 5.75 35.0 5.8 34.9 16.8 24.05 5.1 22.8 5.05 22.8 4.95 22.75 4.9 22.65 4.95 22.55 5.05 22.5 14.95 20.15 12.7 18.0 12.7 17.95 12.65 17.95 0.1 14.05 0.05 14.0 0.0 13.9 0.05 13.8 0.15 13.75 11.2 13.75 11.25 13.7 13.1 11.9 3.7 2.9 3.65 2.85 3.7 2.75 3.75 2.65 3.85 2.65 16.0 6.8 16.0 1.25 16.05 1.2 16.1 1.1 16.2 1.1 16.25 1.15 19.85 5.15 19.85 5.1 19.95 5.05 20.05 5.1 20.15 5.2 20.2 5.2 20.3 5.15 24.6 6.5 24.65 6.55 32.2 0.05 32.3 0.0 32.4 0.05 32.45 0.1 32.45 0.2 28.6 9.45 38.1 4.65 38.2 4.6 38.25 4.65 38.3 4.75 38.3 4.85 35.55 9.55 44.6 6.6 44.7 6.6 44.8 6.7 44.8 6.75 44.8 6.85 37.05 17.25 42.35 21.95 42.4 22.05 42.4 22.1 42.5 22.1 42.6 22.2 42.6 22.3 42.55 22.4 42.45 22.4 42.4 22.5 38.55 26.65 38.55 26.7 44.8 39.85 44.8 39.95 44.75 40.05 44.65 40.05 44.55 40.05 34.3 31.35 33.15 32.6 33.05 32.65 32.9 32.65 32.9 32.6 32.85 32.6 29.75 32.3 30.7 38.15 30.7 38.25 30.6 38.3 30.5 38.3 30.45 38.2 30.4 38.2 30.4 38.15 27.7 32.0 27.65 31.9 27.6 31.85 M35.0 9.85 L35.0 9.8 35.0 9.75 Q34.45 8.6 32.85 8.7 32.65 9.65 33.15 10.25 33.75 10.85 35.2 11.1 L35.25 11.15 35.05 10.0 35.05 9.95 35.0 9.85 M35.2 9.5 L37.8 5.1 28.5 9.85 29.9 11.05 32.4 8.5 32.5 8.45 32.6 8.5 32.65 8.45 32.75 8.4 32.8 8.45 32.85 8.4 Q34.6 8.3 35.2 9.5 M32.5 14.3 L32.55 14.3 32.55 14.45 32.5 14.55 32.4 14.55 Q30.7 14.4 29.25 11.9 L29.2 11.8 29.3 11.7 29.3 11.65 29.35 11.6 29.7 11.25 28.25 10.05 28.2 9.9 28.2 9.85 28.15 9.85 28.05 9.85 24.75 6.95 24.7 6.85 24.6 6.8 24.5 6.8 20.6 5.6 37.9 20.85 38.0 20.85 41.9 21.95 36.85 17.45 36.85 17.4 36.7 17.4 36.65 17.3 36.6 17.3 32.8 14.0 32.8 13.95 32.75 13.85 32.8 13.75 32.85 13.7 32.9 13.65 35.0 11.4 Q33.55 11.1 32.95 10.45 32.35 9.8 32.5 8.85 L30.0 11.35 29.95 11.4 29.95 11.45 29.55 11.85 Q30.9 14.1 32.45 14.25 L32.5 14.3 M35.55 11.15 L35.55 11.25 35.45 11.3 35.4 11.35 33.15 13.85 36.8 17.0 44.25 7.05 35.35 9.9 35.55 11.15 M28.2 9.55 L28.2 9.5 31.9 0.7 24.95 6.7 28.2 9.55 M37.85 21.1 L37.8 21.15 27.85 31.8 27.9 31.85 27.95 31.8 29.4 31.95 29.5 32.0 29.55 31.95 29.65 32.0 29.75 32.0 32.9 32.3 32.95 32.35 34.05 31.15 34.1 31.1 34.15 31.0 34.2 30.95 34.25 30.9 38.15 26.7 38.2 26.65 38.2 26.6 38.3 26.55 38.3 26.5 38.35 26.45 42.2 22.35 37.9 21.15 37.85 21.1 M26.0 30.4 L25.95 30.35 21.1 25.85 19.85 27.1 19.8 27.15 22.1 40.6 26.0 30.4 M38.35 26.95 L34.5 31.1 44.25 39.35 38.35 26.95 M26.3 30.35 L26.4 30.4 27.7 31.6 37.6 21.0 19.95 5.4 19.9 5.4 19.85 5.45 19.8 5.5 13.5 11.9 13.45 11.95 13.4 12.0 13.35 12.05 13.3 12.1 11.45 13.9 11.4 13.95 11.35 14.0 11.25 14.05 11.2 14.15 10.2 15.2 12.55 17.45 12.6 17.55 12.6 17.6 12.75 17.65 12.85 17.75 12.9 17.8 15.25 20.0 15.3 20.05 15.35 20.1 15.4 20.15 15.45 20.2 18.15 22.7 18.2 22.75 18.25 22.8 21.2 25.55 26.15 30.15 26.2 30.2 26.3 30.3 26.3 30.35 M15.25 20.4 L5.95 22.6 17.15 23.75 17.15 23.7 17.95 22.9 15.25 20.4 M9.9 15.3 L9.85 15.2 9.9 15.1 9.95 15.05 10.0 15.0 10.9 14.05 1.2 14.05 12.15 17.45 9.9 15.3 M16.3 6.95 L16.3 7.05 16.25 7.15 16.1 7.15 4.4 3.2 13.3 11.7 19.6 5.3 16.3 1.65 16.3 6.85 16.3 6.95 M29.45 32.25 L29.4 32.25 28.05 32.1 30.25 37.1 29.45 32.25 M19.4 27.1 L19.5 27.05 19.55 27.05 19.6 26.95 19.65 26.9 20.9 25.65 18.15 23.1 17.35 23.9 17.25 23.95 17.2 24.05 17.1 24.05 17.05 24.15 6.05 35.1 6.05 35.15 Q6.0 36.55 6.6 37.2 7.2 37.8 8.4 37.7 L8.5 37.75 19.4 27.1" fill="#000000" fill-rule="evenodd" stroke="none"/>
    <path d="M35.0 9.85 L35.05 9.95 35.05 10.0 35.25 11.15 35.2 11.1 Q33.75 10.85 33.15 10.25 32.65 9.65 32.85 8.7 34.45 8.6 35.0 9.75 L35.0 9.8 35.0 9.85" fill="#d27e02" fill-rule="evenodd" stroke="none"/>
    <path d="M35.2 9.5 Q34.6 8.3 32.85 8.4 L32.8 8.45 32.75 8.4 32.65 8.45 32.6 8.5 32.5 8.45 32.4 8.5 29.9 11.05 28.5 9.85 37.8 5.1 35.2 9.5 M28.2 9.55 L24.95 6.7 31.9 0.7 28.2 9.5 28.2 9.55 M35.55 11.15 L35.35 9.9 44.25 7.05 36.8 17.0 33.15 13.85 35.4 11.35 35.45 11.3 35.55 11.25 35.55 11.15 M38.35 26.95 L44.25 39.35 34.5 31.1 38.35 26.95 M26.0 30.4 L22.1 40.6 19.8 27.15 19.85 27.1 21.1 25.85 25.95 30.35 26.0 30.4 M29.45 32.25 L30.25 37.1 28.05 32.1 29.4 32.25 29.45 32.25 M16.3 6.95 L16.3 6.85 16.3 1.65 19.6 5.3 13.3 11.7 4.4 3.2 16.1 7.15 16.25 7.15 16.3 7.05 16.3 6.95 M9.9 15.3 L12.15 17.45 1.2 14.05 10.9 14.05 10.0 15.0 9.95 15.05 9.9 15.1 9.85 15.2 9.9 15.3 M15.25 20.4 L17.95 22.9 17.15 23.7 17.15 23.75 5.95 22.6 15.25 20.4" fill="#d5f7ff" fill-rule="evenodd" stroke="none"/>
    <path d="M32.8 13.95 L32.8 14.0 36.6 17.3 36.65 17.3 36.7 17.4 36.85 17.4 36.85 17.45 41.9 21.95 38.0 20.85 37.9 20.85 20.6 5.6 24.5 6.8 24.6 6.8 24.7 6.85 24.75 6.95 28.05 9.85 28.15 9.85 28.2 9.85 28.2 9.9 28.25 10.05 29.7 11.25 29.35 11.6 29.3 11.65 29.3 11.7 29.2 11.8 29.25 11.9 Q30.7 14.4 32.4 14.55 L32.5 14.55 32.55 14.45 32.55 14.3 32.5 14.3 32.8 13.95" fill="#bbbbbb" fill-rule="evenodd" stroke="none"/>
    <path d="M32.5 14.3 L32.45 14.25 Q30.9 14.1 29.55 11.85 L29.95 11.45 29.95 11.4 30.0 11.35 32.5 8.85 Q32.35 9.8 32.95 10.45 33.55 11.1 35.0 11.4 L32.9 13.65 32.85 13.7 32.8 13.75 32.75 13.85 32.8 13.95 32.5 14.3 M19.4 27.1 L8.5 37.75 8.4 37.7 Q7.2 37.8 6.6 37.2 6.0 36.55 6.05 35.15 L6.05 35.1 17.05 24.15 17.1 24.05 17.2 24.05 17.25 23.95 17.35 23.9 18.15 23.1 20.9 25.65 19.65 26.9 19.6 26.95 19.55 27.05 19.5 27.05 19.4 27.1" fill="#764701" fill-rule="evenodd" stroke="none"/>
    <path d="M27.6 31.85 L27.65 31.9 27.55 31.9 27.6 31.85 M37.85 21.1 L37.9 21.15 42.2 22.35 38.35 26.45 38.3 26.5 38.3 26.55 38.2 26.6 38.2 26.65 38.15 26.7 34.25 30.9 34.2 30.95 34.15 31.0 34.1 31.1 34.05 31.15 32.95 32.35 32.9 32.3 29.75 32.0 29.65 32.0 29.55 31.95 29.5 32.0 29.4 31.95 27.95 31.8 27.9 31.85 27.85 31.8 37.8 21.15 37.85 21.1" fill="#2b2b2b" fill-rule="evenodd" stroke="none"/>
    <path d="M26.3 30.35 L26.3 30.3 26.2 30.2 26.15 30.15 21.2 25.55 18.25 22.8 18.2 22.75 18.15 22.7 15.45 20.2 15.4 20.15 15.35 20.1 15.3 20.05 15.25 20.0 12.9 17.8 12.85 17.75 12.75 17.65 12.6 17.6 12.6 17.55 12.55 17.45 10.2 15.2 11.2 14.15 11.25 14.05 11.35 14.0 11.4 13.95 11.45 13.9 13.3 12.1 13.35 12.05 13.4 12.0 13.45 11.95 13.5 11.9 19.8 5.5 19.85 5.45 19.9 5.4 19.95 5.4 37.6 21.0 27.7 31.6 26.4 30.4 26.3 30.35" fill="#6a6a6a" fill-rule="evenodd" stroke="none"/>
    <path d="M27.65 31.9 L27.55 31.9 27.6 31.85 M32.8 13.95 L32.5 14.3" fill="none" stroke="#000000" stroke-linecap="round" stroke-linejoin="round" stroke-width="0.30000000000000004"/>
  </g>
</svg>
