<?xml version="1.0" encoding="UTF-8" standalone="no"?>
<svg xmlns:xlink="http://www.w3.org/1999/xlink" height="536.0px" width="730.7px" xmlns="http://www.w3.org/2000/svg">
  <g transform="matrix(1.0, 0.0, 0.0, 1.0, 77.45, 49.5)">
    <path d="M653.25 -49.5 L653.25 486.5 -77.45 486.5 -77.45 -49.5 653.25 -49.5" fill="#ececff" fill-rule="evenodd" stroke="none"/>
    <path d="M647.5 467.65 L503.9 467.65 -70.4 467.65 -73.9 467.65 Q-74.3 467.65 -74.6 467.35 L-74.9 466.65 -74.6 465.95 Q-74.3 465.65 -73.9 465.65 L-70.4 465.65 503.9 465.65 647.5 465.65 Q647.9 465.65 648.2 465.95 L648.5 466.65 648.2 467.35 647.5 467.65 M647.5 478.95 L503.9 478.95 -70.4 478.95 -73.9 478.95 Q-74.3 478.95 -74.6 478.65 L-74.9 477.95 -74.6 477.25 Q-74.3 476.95 -73.9 476.95 L-70.4 476.95 503.9 476.95 647.5 476.95 Q647.9 476.95 648.2 477.25 L648.5 477.95 648.2 478.65 647.5 478.95 M647.5 422.55 L503.9 422.55 -70.4 422.55 -73.9 422.55 Q-74.3 422.55 -74.6 422.25 L-74.9 421.55 -74.6 420.85 Q-74.3 420.55 -73.9 420.55 L-70.4 420.55 503.9 420.55 647.5 420.55 Q647.9 420.55 648.2 420.85 L648.5 421.55 648.2 422.25 647.5 422.55 M647.5 433.85 L503.9 433.85 -70.4 433.85 -73.9 433.85 Q-74.3 433.85 -74.6 433.55 L-74.9 432.85 -74.6 432.15 Q-74.3 431.85 -73.9 431.85 L-70.4 431.85 503.9 431.85 647.5 431.85 Q647.9 431.85 648.2 432.15 L648.5 432.85 648.2 433.55 647.5 433.85 M647.5 445.1 L503.9 445.1 -70.4 445.1 -73.9 445.1 Q-74.3 445.1 -74.6 444.8 L-74.9 444.1 -74.6 443.4 Q-74.3 443.1 -73.9 443.1 L-70.4 443.1 503.9 443.1 647.5 443.1 Q647.9 443.1 648.2 443.4 L648.5 444.1 648.2 444.8 647.5 445.1 M647.5 456.4 L503.9 456.4 -70.4 456.4 -73.9 456.4 Q-74.3 456.4 -74.6 456.1 L-74.9 455.4 -74.6 454.7 Q-74.3 454.4 -73.9 454.4 L-70.4 454.4 503.9 454.4 647.5 454.4 Q647.9 454.4 648.2 454.7 L648.5 455.4 648.2 456.1 647.5 456.4 M647.5 411.3 L503.9 411.3 -70.4 411.3 -73.9 411.3 Q-74.3 411.3 -74.6 411.0 L-74.9 410.3 -74.6 409.6 Q-74.3 409.3 -73.9 409.3 L-70.4 409.3 503.9 409.3 647.5 409.3 Q647.9 409.3 648.2 409.6 L648.5 410.3 648.2 411.0 647.5 411.3 M647.5 400.0 L503.9 400.0 -70.4 400.0 -73.9 400.0 Q-74.3 400.0 -74.6 399.7 L-74.9 399.0 -74.6 398.3 Q-74.3 398.0 -73.9 398.0 L-70.4 398.0 503.9 398.0 647.5 398.0 Q647.9 398.0 648.2 398.3 L648.5 399.0 648.2 399.7 647.5 400.0 M647.5 354.9 L503.9 354.9 -70.4 354.9 -73.9 354.9 Q-74.3 354.9 -74.6 354.6 L-74.9 353.9 -74.6 353.2 Q-74.3 352.9 -73.9 352.9 L-70.4 352.9 503.9 352.9 647.5 352.9 Q647.9 352.9 648.2 353.2 L648.5 353.9 648.2 354.6 647.5 354.9 M647.5 332.35 L503.9 332.35 -70.4 332.35 -73.9 332.35 Q-74.3 332.35 -74.6 332.05 L-74.9 331.35 -74.6 330.65 Q-74.3 330.35 -73.9 330.35 L-70.4 330.35 503.9 330.35 647.5 330.35 Q647.9 330.35 648.2 330.65 L648.5 331.35 648.2 332.05 647.5 332.35 M647.5 377.45 L503.9 377.45 -70.4 377.45 -73.9 377.45 Q-74.3 377.45 -74.6 377.15 L-74.9 376.45 -74.6 375.75 Q-74.3 375.45 -73.9 375.45 L-70.4 375.45 503.9 375.45 647.5 375.45 Q647.9 375.45 648.2 375.75 L648.5 376.45 648.2 377.15 647.5 377.45 M647.5 388.75 L503.9 388.75 -70.4 388.75 -73.9 388.75 Q-74.3 388.75 -74.6 388.45 L-74.9 387.75 -74.6 387.05 Q-74.3 386.75 -73.9 386.75 L-70.4 386.75 503.9 386.75 647.5 386.75 Q647.9 386.75 648.2 387.05 L648.5 387.75 648.2 388.45 647.5 388.75 M647.5 366.2 L503.9 366.2 -70.4 366.2 -73.9 366.2 Q-74.3 366.2 -74.6 365.9 L-74.9 365.2 -74.6 364.5 Q-74.3 364.2 -73.9 364.2 L-70.4 364.2 503.9 364.2 647.5 364.2 Q647.9 364.2 648.2 364.5 L648.5 365.2 648.2 365.9 647.5 366.2 M647.5 343.6 L503.9 343.6 -70.4 343.6 -73.9 343.6 Q-74.3 343.6 -74.6 343.3 L-74.9 342.6 -74.6 341.9 Q-74.3 341.6 -73.9 341.6 L-70.4 341.6 503.9 341.6 647.5 341.6 Q647.9 341.6 648.2 341.9 L648.5 342.6 648.2 343.3 647.5 343.6 M647.5 321.05 L503.9 321.05 -70.4 321.05 -73.9 321.05 Q-74.3 321.05 -74.6 320.75 L-74.9 320.05 -74.6 319.35 Q-74.3 319.05 -73.9 319.05 L-70.4 319.05 503.9 319.05 647.5 319.05 Q647.9 319.05 648.2 319.35 L648.5 320.05 648.2 320.75 647.5 321.05 M647.5 309.8 L503.9 309.8 -70.4 309.8 -73.9 309.8 Q-74.3 309.8 -74.6 309.5 L-74.9 308.8 -74.6 308.1 Q-74.3 307.8 -73.9 307.8 L-70.4 307.8 503.9 307.8 647.5 307.8 Q647.9 307.8 648.2 308.1 L648.5 308.8 648.2 309.5 647.5 309.8 M647.5 298.5 L503.9 298.5 -70.4 298.5 -73.9 298.5 Q-74.3 298.5 -74.6 298.2 L-74.9 297.5 -74.6 296.8 Q-74.3 296.5 -73.9 296.5 L-70.4 296.5 503.9 296.5 647.5 296.5 Q647.9 296.5 648.2 296.8 L648.5 297.5 648.2 298.2 647.5 298.5 M647.5 287.25 L503.9 287.25 -70.4 287.25 -73.9 287.25 Q-74.3 287.25 -74.6 286.95 L-74.9 286.25 -74.6 285.55 Q-74.3 285.25 -73.9 285.25 L-70.4 285.25 503.9 285.25 647.5 285.25 Q647.9 285.25 648.2 285.55 L648.5 286.25 648.2 286.95 647.5 287.25 M647.5 275.95 L503.9 275.95 -70.4 275.95 -73.9 275.95 Q-74.3 275.95 -74.6 275.65 L-74.9 274.95 -74.6 274.25 Q-74.3 273.95 -73.9 273.95 L-70.4 273.95 503.9 273.95 647.5 273.95 Q647.9 273.95 648.2 274.25 L648.5 274.95 648.2 275.65 647.5 275.95 M647.5 264.7 L503.9 264.7 -70.4 264.7 -73.9 264.7 Q-74.3 264.7 -74.6 264.4 L-74.9 263.7 -74.6 263.0 Q-74.3 262.7 -73.9 262.7 L-70.4 262.7 503.9 262.7 647.5 262.7 Q647.9 262.7 648.2 263.0 L648.5 263.7 648.2 264.4 647.5 264.7 M647.5 253.4 L503.9 253.4 -70.4 253.4 -73.9 253.4 Q-74.3 253.4 -74.6 253.1 L-74.9 252.4 -74.6 251.7 Q-74.3 251.4 -73.9 251.4 L-70.4 251.4 503.9 251.4 647.5 251.4 Q647.9 251.4 648.2 251.7 L648.5 252.4 648.2 253.1 647.5 253.4 M647.5 242.15 L503.9 242.15 -70.4 242.15 -73.9 242.15 Q-74.3 242.15 -74.6 241.85 L-74.9 241.15 -74.6 240.45 Q-74.3 240.15 -73.9 240.15 L-70.4 240.15 503.9 240.15 647.5 240.15 Q647.9 240.15 648.2 240.45 L648.5 241.15 648.2 241.85 647.5 242.15 M647.5 230.85 L503.9 230.85 -70.4 230.85 -73.9 230.85 Q-74.3 230.85 -74.6 230.55 L-74.9 229.85 -74.6 229.15 Q-74.3 228.85 -73.9 228.85 L-70.4 228.85 503.9 228.85 647.5 228.85 Q647.9 228.85 648.2 229.15 L648.5 229.85 648.2 230.55 647.5 230.85 M647.5 219.6 L503.9 219.6 -70.4 219.6 -73.9 219.6 Q-74.3 219.6 -74.6 219.3 L-74.9 218.6 -74.6 217.9 Q-74.3 217.6 -73.9 217.6 L-70.4 217.6 503.9 217.6 647.5 217.6 Q647.9 217.6 648.2 217.9 L648.5 218.6 648.2 219.3 647.5 219.6 M647.5 208.3 L503.9 208.3 -70.4 208.3 -73.9 208.3 Q-74.3 208.3 -74.6 208.0 L-74.9 207.3 -74.6 206.6 Q-74.3 206.3 -73.9 206.3 L-70.4 206.3 503.9 206.3 647.5 206.3 Q647.9 206.3 648.2 206.6 L648.5 207.3 648.2 208.0 647.5 208.3 M647.5 197.05 L503.9 197.05 -70.4 197.05 -73.9 197.05 Q-74.3 197.05 -74.6 196.75 L-74.9 196.05 -74.6 195.35 Q-74.3 195.05 -73.9 195.05 L-70.4 195.05 503.9 195.05 647.5 195.05 Q647.9 195.05 648.2 195.35 L648.5 196.05 648.2 196.75 647.5 197.05 M647.5 185.75 L503.9 185.75 -70.4 185.75 -73.9 185.75 Q-74.3 185.75 -74.6 185.45 L-74.9 184.75 -74.6 184.05 Q-74.3 183.75 -73.9 183.75 L-70.4 183.75 503.9 183.75 647.5 183.75 Q647.9 183.75 648.2 184.05 L648.5 184.75 648.2 185.45 647.5 185.75 M647.5 174.5 L503.9 174.5 -70.4 174.5 -73.9 174.5 Q-74.3 174.5 -74.6 174.2 L-74.9 173.5 -74.6 172.8 Q-74.3 172.5 -73.9 172.5 L-70.4 172.5 503.9 172.5 647.5 172.5 Q647.9 172.5 648.2 172.8 L648.5 173.5 648.2 174.2 647.5 174.5 M647.5 163.2 L503.9 163.2 -70.4 163.2 -73.9 163.2 Q-74.3 163.2 -74.6 162.9 L-74.9 162.2 -74.6 161.5 Q-74.3 161.2 -73.9 161.2 L-70.4 161.2 503.9 161.2 647.5 161.2 Q647.9 161.2 648.2 161.5 L648.5 162.2 648.2 162.9 647.5 163.2 M647.5 151.95 L503.9 151.95 -70.4 151.95 -73.9 151.95 Q-74.3 151.95 -74.6 151.65 L-74.9 150.95 -74.6 150.25 Q-74.3 149.95 -73.9 149.95 L-70.4 149.95 503.9 149.95 647.5 149.95 Q647.9 149.95 648.2 150.25 L648.5 150.95 648.2 151.65 647.5 151.95 M647.5 140.65 L503.9 140.65 -70.4 140.65 -73.9 140.65 Q-74.3 140.65 -74.6 140.35 L-74.9 139.65 -74.6 138.95 Q-74.3 138.65 -73.9 138.65 L-70.4 138.65 503.9 138.65 647.5 138.65 Q647.9 138.65 648.2 138.95 L648.5 139.65 648.2 140.35 647.5 140.65 M647.5 129.4 L503.9 129.4 -70.4 129.4 -73.9 129.4 Q-74.3 129.4 -74.6 129.1 L-74.9 128.4 -74.6 127.7 Q-74.3 127.4 -73.9 127.4 L-70.4 127.4 503.9 127.4 647.5 127.4 Q647.9 127.4 648.2 127.7 L648.5 128.4 648.2 129.1 647.5 129.4 M647.5 118.1 L503.9 118.1 -70.4 118.1 -73.9 118.1 Q-74.3 118.1 -74.6 117.8 L-74.9 117.1 -74.6 116.4 Q-74.3 116.1 -73.9 116.1 L-70.4 116.1 503.9 116.1 647.5 116.1 Q647.9 116.1 648.2 116.4 L648.5 117.1 648.2 117.8 647.5 118.1 M647.5 106.85 L503.9 106.85 -70.4 106.85 -73.9 106.85 Q-74.3 106.85 -74.6 106.55 L-74.9 105.85 -74.6 105.15 Q-74.3 104.85 -73.9 104.85 L-70.4 104.85 503.9 104.85 647.5 104.85 Q647.9 104.85 648.2 105.15 L648.5 105.85 648.2 106.55 647.5 106.85 M647.5 95.55 L503.9 95.55 -70.4 95.55 -73.9 95.55 Q-74.3 95.55 -74.6 95.25 L-74.9 94.55 -74.6 93.85 Q-74.3 93.55 -73.9 93.55 L-70.4 93.55 503.9 93.55 647.5 93.55 Q647.9 93.55 648.2 93.85 L648.5 94.55 648.2 95.25 647.5 95.55 M647.5 84.25 L503.9 84.25 -70.4 84.25 -73.9 84.25 Q-74.3 84.25 -74.6 83.95 L-74.9 83.25 -74.6 82.55 Q-74.3 82.25 -73.9 82.25 L-70.4 82.25 503.9 82.25 647.5 82.25 Q647.9 82.25 648.2 82.55 L648.5 83.25 648.2 83.95 647.5 84.25 M647.5 73.0 L503.9 73.0 -70.4 73.0 -73.9 73.0 Q-74.3 73.0 -74.6 72.7 L-74.9 72.0 -74.6 71.3 Q-74.3 71.0 -73.9 71.0 L-70.4 71.0 503.9 71.0 647.5 71.0 Q647.9 71.0 648.2 71.3 L648.5 72.0 648.2 72.7 647.5 73.0 M647.5 61.7 L503.9 61.7 -70.4 61.7 -73.9 61.7 Q-74.3 61.7 -74.6 61.4 L-74.9 60.7 -74.6 60.0 Q-74.3 59.7 -73.9 59.7 L-70.4 59.7 503.9 59.7 647.5 59.7 Q647.9 59.7 648.2 60.0 L648.5 60.7 648.2 61.4 647.5 61.7 M647.5 50.45 L503.9 50.45 -70.4 50.45 -73.9 50.45 Q-74.3 50.45 -74.6 50.15 L-74.9 49.45 -74.6 48.75 Q-74.3 48.45 -73.9 48.45 L-70.4 48.45 503.9 48.45 647.5 48.45 Q647.9 48.45 648.2 48.75 L648.5 49.45 648.2 50.15 647.5 50.45 M647.5 39.15 L503.9 39.15 -70.4 39.15 -73.9 39.15 Q-74.3 39.15 -74.6 38.85 L-74.9 38.15 -74.6 37.45 Q-74.3 37.15 -73.9 37.15 L-70.4 37.15 503.9 37.15 647.5 37.15 Q647.9 37.15 648.2 37.45 L648.5 38.15 648.2 38.85 647.5 39.15 M647.5 27.9 L503.9 27.9 -70.4 27.9 -73.9 27.9 Q-74.3 27.9 -74.6 27.6 L-74.9 26.9 -74.6 26.2 Q-74.3 25.9 -73.9 25.9 L-70.4 25.9 503.9 25.9 647.5 25.9 Q647.9 25.9 648.2 26.2 L648.5 26.9 648.2 27.6 647.5 27.9 M647.5 16.6 L503.9 16.6 -70.4 16.6 -73.9 16.6 Q-74.3 16.6 -74.6 16.3 L-74.9 15.6 -74.6 14.9 Q-74.3 14.6 -73.9 14.6 L-70.4 14.6 503.9 14.6 647.5 14.6 Q647.9 14.6 648.2 14.9 L648.5 15.6 648.2 16.3 647.5 16.6 M647.5 5.35 L503.9 5.35 -70.4 5.35 -73.9 5.35 Q-74.3 5.35 -74.6 5.05 L-74.9 4.35 -74.6 3.65 Q-74.3 3.35 -73.9 3.35 L-70.4 3.35 503.9 3.35 647.5 3.35 Q647.9 3.35 648.2 3.65 L648.5 4.35 648.2 5.05 647.5 5.35 M648.2 -18.9 L648.5 -18.2 648.2 -17.5 Q647.9 -17.2 647.5 -17.2 L503.9 -17.2 -70.4 -17.2 -73.9 -17.2 Q-74.3 -17.2 -74.6 -17.5 L-74.9 -18.2 -74.6 -18.9 Q-74.3 -19.2 -73.9 -19.2 L-70.4 -19.2 503.9 -19.2 647.5 -19.2 648.2 -18.9 M648.2 -7.65 L648.5 -6.95 648.2 -6.25 Q647.9 -5.95 647.5 -5.95 L503.9 -5.95 -70.4 -5.95 -73.9 -5.95 Q-74.3 -5.95 -74.6 -6.25 L-74.9 -6.95 -74.6 -7.65 Q-74.3 -7.95 -73.9 -7.95 L-70.4 -7.95 503.9 -7.95 647.5 -7.95 648.2 -7.65 M648.2 -30.2 L648.5 -29.5 648.2 -28.8 Q647.9 -28.5 647.5 -28.5 L503.9 -28.5 -70.4 -28.5 -73.9 -28.5 Q-74.3 -28.5 -74.6 -28.8 L-74.9 -29.5 -74.6 -30.2 Q-74.3 -30.5 -73.9 -30.5 L-70.4 -30.5 503.9 -30.5 647.5 -30.5 648.2 -30.2 M648.2 -41.45 L648.5 -40.75 648.2 -40.05 Q647.9 -39.75 647.5 -39.75 L503.9 -39.75 -70.4 -39.75 -73.9 -39.75 Q-74.3 -39.75 -74.6 -40.05 L-74.9 -40.75 -74.6 -41.45 Q-74.3 -41.75 -73.9 -41.75 L-70.4 -41.75 503.9 -41.75 647.5 -41.75 648.2 -41.45" fill="#ffffff" fill-rule="evenodd" stroke="none"/>
  </g>
</svg>
