<?xml version="1.0" encoding="UTF-8" standalone="no"?>
<svg xmlns:xlink="http://www.w3.org/1999/xlink" height="182.0px" width="278.15px" xmlns="http://www.w3.org/2000/svg">
  <g transform="matrix(1.0, 0.0, 0.0, 1.0, 11.7, 108.8)">
    <path d="M9.45 44.8 L7.1 44.8 Q-0.7 44.8 -6.2 37.2 -11.7 29.6 -11.7 18.9 L-11.7 9.5 Q-11.7 -1.25 -6.2 -8.85 -0.7 -16.4 7.1 -16.4 L9.45 -16.4 9.45 44.8" fill="url(#gradient0)" fill-rule="evenodd" stroke="none"/>
    <path d="M245.35 -16.4 L247.65 -16.4 Q255.45 -16.4 260.95 -8.85 266.45 -1.25 266.45 9.5 L266.45 18.9 Q266.45 29.6 260.95 37.2 255.45 44.8 247.65 44.8 L245.35 44.8 245.35 -16.4" fill="url(#gradient1)" fill-rule="evenodd" stroke="none"/>
    <path d="M9.45 44.8 L9.45 -16.4 245.35 -16.4 245.35 44.8 9.45 44.8" fill="url(#gradient2)" fill-rule="evenodd" stroke="none"/>
    <path d="M64.1 -82.15 Q91.95 -108.8 131.45 -108.8 170.9 -108.8 198.8 -82.15 226.7 -55.5 226.7 -17.8 226.7 19.9 198.8 46.55 170.9 73.2 131.45 73.2 91.95 73.2 64.1 46.55 36.2 19.9 36.2 -17.8 36.2 -55.5 64.1 -82.15" fill="url(#gradient3)" fill-rule="evenodd" stroke="none"/>
  </g>
  <defs>
    <radialGradient cx="0" cy="0" gradientTransform="matrix(0.0267, 0.0, 0.0, 0.0368, 9.15, 13.8)" gradientUnits="userSpaceOnUse" id="gradient0" r="819.2" spreadMethod="pad">
      <stop offset="0.19215686274509805" stop-color="#ffffff" stop-opacity="0.0"/>
      <stop offset="0.6" stop-color="#ffffff"/>
      <stop offset="1.0" stop-color="#ffffff" stop-opacity="0.0"/>
    </radialGradient>
    <radialGradient cx="0" cy="0" gradientTransform="matrix(0.0274, 0.0, 0.0, 0.0377, 245.0, 13.75)" gradientUnits="userSpaceOnUse" id="gradient1" r="819.2" spreadMethod="pad">
      <stop offset="0.19215686274509805" stop-color="#ffffff" stop-opacity="0.0"/>
      <stop offset="0.6" stop-color="#ffffff"/>
      <stop offset="1.0" stop-color="#ffffff" stop-opacity="0.0"/>
    </radialGradient>
    <linearGradient gradientTransform="matrix(0.0, -0.0396, 0.0271, 0.0, 127.35, 14.15)" gradientUnits="userSpaceOnUse" id="gradient2" spreadMethod="pad" x1="-819.2" x2="819.2">
      <stop offset="0.0" stop-color="#ffffff" stop-opacity="0.0"/>
      <stop offset="0.21176470588235294" stop-color="#ffffff"/>
      <stop offset="0.43137254901960786" stop-color="#ffffff" stop-opacity="0.0"/>
      <stop offset="0.5843137254901961" stop-color="#ffffff" stop-opacity="0.0"/>
      <stop offset="0.8" stop-color="#ffffff"/>
      <stop offset="1.0" stop-color="#ffffff" stop-opacity="0.0"/>
    </linearGradient>
    <radialGradient cx="0" cy="0" gradientTransform="matrix(0.1117, 0.0, 0.0, 0.1117, 131.45, -17.8)" gradientUnits="userSpaceOnUse" id="gradient3" r="819.2" spreadMethod="pad">
      <stop offset="0.5333333333333333" stop-color="#ffffff" stop-opacity="0.0"/>
      <stop offset="0.796078431372549" stop-color="#ffffff"/>
      <stop offset="1.0" stop-color="#ffffff" stop-opacity="0.0"/>
    </radialGradient>
  </defs>
</svg>
