<?xml version="1.0" encoding="UTF-8" standalone="no"?>
<svg xmlns:xlink="http://www.w3.org/1999/xlink" height="421.45px" width="333.35px" xmlns="http://www.w3.org/2000/svg">
  <g transform="matrix(1.0, 0.0, 0.0, 1.0, -32.95, -50.0)">
    <path d="M366.15 227.65 L366.3 228.2 365.9 228.5 364.05 228.1 363.45 227.25 365.0 226.9 366.15 227.65 M264.95 70.4 L261.7 70.85 261.45 72.25 255.45 74.8 240.7 88.95 244.9 89.15 242.55 91.05 246.7 93.65 245.35 110.5 Q243.5 112.15 233.15 110.55 L232.0 112.25 229.95 111.3 224.55 116.2 225.4 117.25 207.75 124.3 208.3 126.95 196.0 130.05 193.9 129.5 193.15 131.65 184.4 131.1 180.35 132.9 179.55 134.35 168.95 137.2 164.5 141.75 166.85 143.4 166.05 154.05 165.55 151.95 163.1 150.05 162.65 150.1 159.65 151.2 160.55 151.2 159.5 151.25 159.2 151.35 163.25 152.0 161.95 153.35 159.15 154.25 159.9 156.4 162.65 158.15 165.3 157.65 Q182.45 162.1 200.05 174.6 227.8 198.5 250.3 234.0 L249.55 234.5 250.8 234.45 259.15 253.15 Q263.3 269.2 264.85 285.6 L267.4 282.75 270.2 287.5 Q274.25 315.2 270.5 321.75 264.05 330.25 255.05 335.95 L252.0 336.95 248.85 342.35 234.95 340.2 234.5 345.4 232.7 342.75 233.45 340.25 222.45 339.95 221.55 340.8 220.65 341.55 219.45 342.1 218.6 342.3 Q218.35 342.15 218.4 341.7 L218.4 340.75 218.25 339.9 212.2 340.95 214.4 343.5 214.9 350.25 222.2 351.35 220.35 347.6 225.9 342.45 228.2 345.3 227.8 350.55 230.4 352.45 230.1 357.5 226.45 356.95 227.05 361.8 218.85 369.45 220.3 355.15 217.35 362.3 213.75 363.85 211.75 356.75 209.1 361.45 207.35 357.9 203.0 358.65 203.45 351.85 196.15 353.45 192.6 351.3 183.8 350.7 180.0 347.3 182.9 355.25 188.25 351.7 186.25 364.6 181.9 360.0 179.1 364.25 174.4 360.0 176.0 348.25 173.0 350.85 172.6 350.0 169.55 349.4 165.6 352.35 161.25 350.9 164.5 356.25 169.05 353.6 172.1 355.1 172.45 370.6 168.5 370.25 169.9 363.55 164.75 362.6 165.35 371.15 159.25 370.05 159.35 361.75 162.05 359.9 157.45 357.6 157.05 356.45 157.1 356.4 149.4 359.3 149.35 359.4 147.25 362.55 155.5 368.9 152.8 374.45 144.3 379.35 138.75 375.2 133.4 375.2 130.9 373.25 134.6 369.55 138.1 370.6 140.75 363.85 Q141.2 363.65 141.3 363.85 141.75 364.4 141.7 365.4 L142.6 366.55 146.0 365.5 144.8 362.6 146.05 360.65 142.85 361.1 140.75 363.65 142.15 360.25 138.5 361.1 135.7 365.4 132.1 364.2 129.8 367.25 126.4 367.85 122.25 377.3 117.85 379.9 113.9 380.0 110.2 382.9 112.7 380.5 111.7 370.5 104.75 380.5 111.15 387.95 104.4 390.55 103.05 384.45 98.7 384.45 95.2 389.35 90.95 390.7 90.65 384.7 93.7 379.9 91.05 376.05 96.3 371.8 87.6 372.95 85.7 370.75 81.65 370.2 80.6 362.8 84.6 361.45 85.1 368.15 92.45 370.05 87.55 364.75 90.75 349.0 87.35 349.6 85.95 353.7 81.05 354.45 84.35 352.5 87.15 345.6 90.95 343.6 88.7 341.1 85.1 346.95 80.95 342.4 76.2 348.2 75.0 344.1 79.3 339.05 82.8 339.1 85.15 336.35 89.55 336.95 89.95 340.65 92.4 342.7 96.15 339.3 88.9 331.1 92.3 329.35 92.45 325.85 98.6 321.65 97.7 320.05 99.75 315.95 109.2 312.3 112.0 313.35 110.2 310.9 101.65 311.65 100.5 308.6 110.75 303.15 109.85 300.35 117.1 300.95 118.65 302.55 118.7 302.2 118.6 301.5 118.05 300.45 117.6 299.95 116.65 299.45 116.3 299.15 118.3 297.15 109.8 293.05 115.85 290.2 116.45 289.55 113.05 288.6 114.05 287.7 Q113.75 287.15 112.35 287.05 L110.4 283.55 106.0 281.3 111.25 280.15 108.15 278.75 108.6 272.95 110.4 270.75 107.4 268.1 108.65 262.5 106.95 259.4 103.6 258.3 101.9 262.4 104.95 268.25 101.95 268.95 98.3 252.6 94.9 255.0 90.7 255.0 93.6 252.65 92.75 253.1 91.8 253.65 Q90.85 252.95 90.9 251.75 L95.1 247.6 95.35 245.15 Q98.8 243.45 102.3 241.7 L103.35 245.45 100.05 246.95 100.15 249.0 105.35 245.7 102.9 241.2 107.0 240.2 110.35 245.45 108.35 247.5 110.95 245.15 112.35 242.85 111.0 240.2 112.3 237.45 118.45 243.0 121.3 241.1 127.75 243.5 124.8 247.35 126.35 251.95 127.95 250.25 130.0 245.05 132.9 246.0 135.85 243.75 Q135.7 242.65 137.6 241.75 L138.2 241.55 138.2 239.6 134.95 241.35 133.55 243.6 131.1 244.6 130.45 236.1 126.05 239.55 124.7 237.7 125.4 235.45 128.45 234.7 125.75 232.9 124.15 235.05 120.5 233.85 120.8 230.5 122.25 228.85 129.1 228.85 124.05 226.2 124.35 223.7 120.6 223.15 120.65 217.1 122.25 213.85 118.9 209.7 Q118.6 208.85 119.0 208.7 120.5 207.9 122.6 207.85 L123.6 212.15 130.35 214.35 124.95 211.5 125.9 204.95 128.2 204.4 128.2 204.3 126.1 204.1 126.0 204.9 120.7 206.25 112.35 201.85 111.85 197.35 111.55 197.3 111.1 203.35 100.85 205.5 102.05 207.35 99.9 208.55 94.85 205.45 89.4 207.35 85.65 199.0 80.4 197.5 83.1 202.3 79.45 201.9 76.4 208.1 72.8 206.5 71.25 209.0 67.75 208.25 63.25 211.6 63.15 209.2 58.7 209.25 69.5 204.55 66.8 203.2 63.55 203.85 60.6 204.15 60.8 204.0 61.95 202.95 48.4 201.35 53.05 198.4 58.7 198.85 55.45 197.3 63.8 195.1 52.4 195.8 48.35 193.25 45.6 194.05 37.7 192.75 49.6 189.25 48.15 187.55 50.9 182.7 56.75 180.1 55.8 176.6 61.95 175.95 62.65 173.85 78.65 172.9 83.75 175.4 83.0 172.0 82.0 173.5 79.65 172.6 75.8 171.85 70.45 172.2 65.25 173.0 62.3 170.95 80.5 152.9 78.15 148.75 81.5 145.25 77.65 145.55 73.7 143.2 68.55 143.15 67.65 141.9 65.0 142.4 62.75 141.9 62.9 140.05 58.55 139.0 52.45 142.8 52.5 140.15 46.3 138.0 45.5 136.55 43.3 136.35 46.9 126.7 Q61.3 118.7 78.4 114.1 116.55 104.4 130.85 93.55 L131.15 92.3 133.05 91.65 133.35 88.35 136.05 86.45 138.2 86.0 139.3 84.1 141.8 84.9 146.7 82.9 148.8 82.9 149.95 84.15 152.4 84.6 162.6 89.2 Q175.25 93.15 189.3 93.6 L189.95 87.45 183.65 78.95 Q193.15 76.6 201.15 77.4 L204.3 77.25 212.5 77.6 214.35 77.1 214.65 76.3 221.9 74.05 221.05 73.0 226.05 68.35 231.0 68.35 233.2 69.0 234.7 67.4 238.45 67.85 241.05 56.35 244.9 56.2 250.5 56.7 250.8 57.9 255.25 58.3 254.7 61.75 Q257.8 63.1 260.9 64.5 L262.7 63.5 271.2 69.7 271.0 71.2 268.9 71.6 268.6 71.45 268.4 71.15 268.4 70.6 Q268.3 70.1 267.85 69.9 L267.5 70.2 267.15 70.55 266.9 70.95 264.95 70.4 M214.15 77.7 L214.3 77.45 213.7 77.7 214.15 77.7 M223.85 115.35 L223.95 115.4 223.9 115.25 223.85 115.35 M45.25 130.9 L40.3 137.45 39.85 136.75 39.75 136.6 39.65 136.5 39.35 136.3 41.95 130.35 45.25 130.9 M39.0 137.05 L39.05 136.85 39.05 137.05 39.0 137.05 M39.1 197.9 Q39.95 198.4 39.75 199.15 39.5 199.9 38.4 200.5 L35.9 200.95 33.6 200.5 Q32.75 199.9 33.0 199.15 33.15 198.4 34.3 197.9 35.45 197.3 36.85 197.35 38.15 197.3 39.1 197.9 M136.9 160.45 L136.8 160.55 137.05 160.45 136.9 160.45 M117.65 207.4 L114.7 214.55 Q114.25 215.05 113.35 215.0 L112.5 214.8 Q111.45 214.8 111.45 214.6 111.05 213.45 111.75 212.2 L110.05 207.5 112.9 205.75 117.65 207.4 M103.65 208.05 L103.95 206.05 109.15 206.05 108.95 208.05 103.65 208.05 M108.05 208.6 L108.4 212.75 106.15 210.3 108.05 208.6 M111.55 217.15 L112.6 216.55 113.6 217.35 111.45 217.7 111.55 217.15 M112.05 221.65 L108.0 220.05 112.25 219.7 115.1 217.8 118.6 219.6 114.1 220.3 112.05 221.65 M73.05 355.6 L65.7 355.6 66.7 349.4 73.95 349.4 73.05 355.6 M70.75 385.25 L69.05 381.35 72.6 375.6 Q76.4 377.2 75.6 373.9 L78.4 374.05 78.65 371.15 82.25 373.2 84.7 373.2 86.4 375.2 86.35 378.35 80.05 383.8 70.75 385.25 M88.25 312.05 Q90.35 308.65 88.25 312.35 L88.25 312.05 M116.0 383.2 L115.85 383.15 116.0 383.15 116.0 383.2 M114.5 385.95 Q114.95 386.0 115.3 386.35 115.85 386.85 115.8 387.7 115.7 388.45 115.1 388.95 114.45 389.5 113.6 389.5 112.7 389.5 112.2 388.95 111.7 388.45 111.8 387.7 111.85 386.85 112.45 386.35 113.05 385.85 113.95 385.85 L114.5 385.95 M131.9 382.05 Q131.15 381.4 131.0 380.7 L131.0 379.75 Q131.1 378.45 132.2 377.65 133.2 376.7 134.65 376.7 136.15 376.7 137.1 377.65 138.0 378.45 137.9 379.75 137.75 381.05 136.8 382.05 135.65 382.85 134.2 382.9 132.7 382.85 131.9 382.05 M318.45 215.4 Q319.45 216.0 319.65 216.95 319.85 217.85 319.15 218.55 318.3 219.15 317.0 219.15 315.65 219.15 314.7 218.55 313.55 217.85 313.4 216.95 313.2 216.0 314.05 215.4 314.75 214.7 316.05 214.75 317.35 214.7 318.45 215.4 M172.7 451.05 L158.1 465.05 138.65 469.2 134.65 465.95 128.55 467.4 124.7 471.45 117.85 459.05 Q122.1 456.3 126.55 453.85 136.95 447.95 148.0 444.9 156.85 442.45 166.1 441.9 L172.7 451.05" fill="#000000" fill-opacity="0.39215687" fill-rule="evenodd" stroke="none"/>
    <path d="M360.2 218.35 L361.7 218.05 362.8 218.75 362.95 219.3 362.55 219.55 360.75 219.2 360.2 218.35 M270.8 64.85 L268.65 65.2 Q268.45 65.2 268.35 65.05 L268.15 64.8 268.15 64.2 267.65 63.55 267.3 63.85 266.95 64.15 266.7 64.6 264.75 64.05 261.5 64.5 261.2 65.85 255.25 68.35 240.45 82.35 244.55 82.5 242.25 84.4 246.3 86.95 244.75 103.55 Q242.9 105.2 232.7 103.65 L231.5 105.3 229.45 104.4 224.0 109.15 224.85 110.2 207.25 117.1 207.8 119.8 195.5 122.85 193.4 122.25 192.65 124.4 183.95 123.85 180.0 125.6 179.15 127.05 168.6 129.85 164.05 134.35 166.4 135.95 165.45 146.45 164.95 144.4 162.6 142.55 162.2 142.55 159.15 143.6 161.0 143.6 159.05 143.65 158.75 143.8 162.75 144.4 161.45 145.75 158.65 146.65 159.4 148.75 162.05 150.45 164.75 149.95 Q181.65 154.35 199.0 166.65 226.2 190.1 247.95 225.0 L247.25 225.5 248.45 225.45 256.45 243.8 Q260.35 259.55 261.65 275.6 L264.25 272.8 266.95 277.5 Q270.55 304.6 266.75 311.05 260.3 319.3 251.3 324.95 L248.3 325.9 245.1 331.15 231.4 329.05 230.8 334.15 229.05 331.6 229.85 329.1 219.0 328.85 218.1 329.7 217.1 330.4 216.0 330.95 215.15 331.1 Q214.9 331.0 214.95 330.5 L215.0 329.55 214.8 328.8 208.85 329.8 211.0 332.25 211.4 338.9 218.55 340.0 216.85 336.25 222.35 331.3 224.6 334.05 224.15 339.2 226.7 341.0 226.35 345.95 222.7 345.4 223.2 350.2 215.05 357.65 216.7 343.7 213.65 350.75 210.1 352.15 208.2 345.3 205.55 349.85 203.85 346.45 199.5 347.1 200.0 340.45 192.75 342.1 189.3 339.9 180.6 339.3 176.9 335.95 179.7 343.8 185.05 340.35 182.8 352.9 178.6 348.45 175.8 352.55 171.15 348.45 172.95 336.95 169.9 339.5 169.5 338.65 166.5 338.05 162.6 340.95 158.3 339.55 161.45 344.75 166.0 342.15 169.0 343.65 169.1 358.8 165.25 358.45 166.7 351.9 161.6 351.0 162.1 359.35 156.05 358.25 156.35 350.15 159.0 348.3 154.45 346.15 154.15 345.0 154.15 344.9 146.45 347.75 146.45 347.85 144.3 350.95 152.4 357.15 149.65 362.55 141.25 367.35 135.8 363.25 130.5 363.25 128.05 361.45 131.75 357.75 135.2 358.8 137.9 352.15 Q138.3 352.0 138.4 352.15 138.85 352.75 138.8 353.65 L139.7 354.9 143.05 353.85 141.9 351.0 143.15 349.05 140.05 349.45 137.9 352.0 139.35 348.6 135.7 349.45 132.9 353.65 129.3 352.5 127.05 355.5 123.65 356.1 119.4 365.3 115.0 367.85 111.2 368.0 107.4 370.8 109.9 368.45 109.1 358.65 102.15 368.45 108.35 375.75 101.65 378.3 100.4 372.35 96.05 372.35 92.55 377.1 88.35 378.4 88.1 372.6 91.15 367.85 88.55 364.1 93.9 359.9 85.25 361.1 83.4 358.9 79.4 358.35 78.45 351.15 82.4 349.85 82.85 356.4 90.05 358.25 85.25 353.1 88.6 337.65 85.25 338.25 83.85 342.25 79.0 343.0 82.25 341.05 85.1 334.35 88.9 332.35 86.65 329.9 83.05 335.65 79.0 331.25 74.3 336.9 73.1 332.9 77.35 327.95 80.85 328.0 83.2 325.3 87.55 325.9 87.9 329.5 90.3 331.55 94.05 328.15 87.0 320.15 90.35 318.45 90.6 315.05 96.7 310.95 95.8 309.35 97.9 305.35 107.25 301.7 110.05 302.8 108.35 300.4 99.8 301.1 98.75 298.15 108.9 292.75 108.1 290.0 115.2 290.65 116.75 292.2 116.8 291.9 116.7 291.2 116.2 290.15 115.7 289.7 114.75 289.15 114.4 288.9 116.5 286.95 108.05 282.95 114.1 280.15 114.75 279.45 111.35 278.5 112.35 277.65 Q112.1 277.1 110.65 277.0 L108.85 273.6 104.5 271.45 109.7 270.25 106.6 268.9 107.2 263.2 109.0 261.1 106.0 258.45 107.3 252.95 105.7 249.9 102.4 248.8 100.65 252.85 103.6 258.6 100.55 259.3 97.15 243.25 93.75 245.6 89.6 245.6 92.55 243.3 90.7 244.3 Q89.8 243.6 89.85 242.4 L94.1 238.3 94.35 235.95 Q97.75 234.25 101.2 232.6 L102.25 236.25 98.95 237.7 99.05 239.7 104.25 236.45 101.85 232.05 105.95 231.05 109.15 236.25 107.15 238.2 109.75 235.95 111.2 233.7 109.9 231.05 111.25 228.4 117.25 233.8 120.1 231.95 126.45 234.3 123.5 238.1 124.9 242.65 126.55 240.95 128.65 235.85 131.55 236.8 134.45 234.6 Q134.3 233.45 136.3 232.65 L136.8 232.45 136.85 230.5 Q135.2 231.35 133.6 232.25 L132.2 234.4 129.8 235.4 129.2 227.05 124.8 230.45 123.5 228.6 124.25 226.4 127.25 225.7 124.6 223.9 123.0 226.05 119.45 224.85 119.7 221.55 121.2 219.95 127.95 219.95 122.95 217.35 123.3 214.85 119.6 214.3 119.65 208.4 121.4 205.15 118.05 201.15 118.0 200.5 118.2 200.15 Q119.05 199.7 120.1 199.5 L121.75 199.3 122.7 203.55 129.4 205.7 124.1 202.9 125.1 196.5 127.35 195.9 127.4 195.8 125.25 195.65 125.2 196.45 125.1 196.5 119.9 197.7 111.65 193.45 111.25 189.05 110.95 188.95 110.5 194.9 100.2 197.0 101.4 198.85 99.25 200.05 94.3 197.0 88.9 198.8 85.3 190.65 80.05 189.2 82.7 193.85 79.05 193.45 76.0 199.5 72.45 198.0 70.85 200.45 67.4 199.7 62.95 203.0 62.85 200.7 58.4 200.75 69.2 196.05 66.5 194.75 63.3 195.4 60.4 195.7 60.55 195.55 61.7 194.5 48.3 192.9 52.95 190.05 58.55 190.5 55.3 188.95 63.65 186.8 52.35 187.45 48.35 184.95 45.55 185.8 37.8 184.5 49.6 181.05 48.2 179.35 50.95 174.6 56.8 172.05 55.9 168.6 62.0 168.0 62.7 165.85 78.6 164.95 83.65 167.45 82.9 164.1 81.95 165.55 79.6 164.7 78.7 164.5 75.8 163.95 70.5 164.3 65.35 165.05 62.4 163.05 80.6 145.3 78.35 141.25 81.7 137.8 77.95 138.1 74.0 135.75 68.9 135.7 68.0 134.45 65.45 134.95 63.15 134.45 63.35 132.65 59.0 131.6 53.0 135.4 53.05 132.75 46.9 130.7 46.1 129.25 43.9 129.0 47.6 119.55 Q62.0 111.6 79.0 107.15 117.0 97.6 131.3 86.85 L131.6 85.65 133.5 85.0 133.85 81.7 136.55 79.85 138.7 79.4 139.8 77.5 142.25 78.35 147.15 76.35 149.25 76.35 150.4 77.6 152.8 78.05 162.9 82.55 Q175.35 86.45 189.3 86.95 L190.05 80.85 183.85 72.45 Q193.35 70.2 201.3 70.95 L204.4 70.8 212.6 71.15 214.4 70.65 214.7 69.8 221.95 67.65 221.1 66.65 226.15 62.0 231.05 62.0 233.2 62.65 234.75 61.05 238.45 61.5 241.2 50.15 245.05 50.0 250.6 50.5 250.85 51.75 255.25 52.1 254.7 55.45 260.75 58.25 262.6 57.2 270.95 63.35 270.8 64.85 M213.75 71.2 L214.2 71.2 214.35 71.0 213.75 71.2 M223.4 108.4 L223.4 108.25 223.3 108.3 223.4 108.4 M45.95 123.65 L40.9 130.1 40.5 129.4 40.4 129.25 40.3 129.15 Q40.05 128.9 40.0 129.0 L42.7 123.1 45.95 123.65 M39.7 129.7 L39.75 129.55 39.75 129.65 39.7 129.7 M36.9 189.0 Q38.25 188.95 39.1 189.5 39.95 190.0 39.8 190.75 39.55 191.5 38.4 192.1 L35.95 192.6 Q34.5 192.6 33.7 192.1 32.85 191.5 33.05 190.75 33.2 190.0 34.35 189.5 35.5 188.95 36.9 189.0 M108.5 197.55 L108.2 199.45 103.0 199.45 103.3 197.55 108.5 197.55 M136.65 152.8 L136.5 152.8 136.4 152.85 136.65 152.8 M112.55 206.3 L112.1 206.2 111.7 206.1 110.6 205.95 Q110.3 204.85 110.95 203.6 L109.3 199.0 112.15 197.3 116.85 198.9 113.9 205.9 Q113.4 206.35 112.55 206.3 M112.75 208.65 L110.6 209.0 110.65 208.45 111.75 207.9 112.75 208.65 M107.65 204.15 L105.5 201.75 107.4 200.05 107.65 204.15 M107.1 211.3 L111.45 210.9 114.2 209.1 117.65 210.85 113.2 211.55 111.15 212.9 107.1 211.3 M64.8 338.05 L72.05 338.05 71.05 344.15 63.7 344.15 64.8 338.05 M68.45 373.1 L66.85 369.3 70.35 363.7 Q74.15 365.3 73.35 362.0 L76.1 362.15 76.4 359.35 80.0 361.3 82.35 361.3 84.0 363.25 83.9 366.35 77.6 371.7 68.45 373.1 M86.55 301.55 Q88.7 298.2 86.6 301.75 L86.55 301.55 M113.2 371.05 L113.15 371.1 113.05 371.05 113.2 371.05 M112.45 374.2 Q113.0 374.7 112.95 375.5 112.85 376.25 112.2 376.75 111.6 377.25 110.75 377.25 109.85 377.25 109.35 376.75 108.85 376.25 108.95 375.55 L108.95 375.5 Q109.05 374.7 109.65 374.2 110.25 373.7 111.15 373.7 L111.7 373.75 Q112.15 373.8 112.45 374.2 M129.25 365.65 Q130.25 364.75 131.75 364.75 133.15 364.75 134.15 365.65 134.95 366.45 134.9 367.75 134.75 369.05 133.8 370.0 132.6 370.8 131.2 370.8 129.75 370.8 128.85 370.0 128.2 369.3 128.05 368.7 L128.05 367.75 Q128.15 366.45 129.25 365.65 M313.4 206.05 Q314.65 206.05 315.75 206.75 316.75 207.35 316.95 208.25 317.1 209.1 316.4 209.85 315.55 210.4 314.25 210.45 312.95 210.4 312.0 209.85 310.85 209.1 310.75 208.25 310.5 207.35 311.35 206.75 312.1 206.05 313.4 206.05" fill="url(#gradient0)" fill-rule="evenodd" stroke="none"/>
    <path d="M169.1 437.35 L154.55 450.95 135.35 455.05 131.35 451.85 125.4 453.3 121.55 457.25 114.9 445.15 Q119.15 442.45 123.6 440.05 142.2 429.65 162.8 428.45 L169.1 437.35" fill="url(#gradient1)" fill-rule="evenodd" stroke="none"/>
  </g>
  <defs>
    <linearGradient gradientTransform="matrix(1.0E-4, 0.1423, -0.2004, 2.0E-4, 193.8, 253.6)" gradientUnits="userSpaceOnUse" id="gradient0" spreadMethod="pad" x1="-819.2" x2="819.2">
      <stop offset="0.0" stop-color="#97afff"/>
      <stop offset="1.0" stop-color="#1b00d5"/>
    </linearGradient>
    <radialGradient cx="0" cy="0" gradientTransform="matrix(0.0424, -0.0094, 0.0057, 0.0254, 142.9, 434.0)" gradientUnits="userSpaceOnUse" id="gradient1" r="819.2" spreadMethod="pad">
      <stop offset="0.0" stop-color="#1b00d5"/>
      <stop offset="1.0" stop-color="#97afff"/>
    </radialGradient>
  </defs>
</svg>
